solid Onshape
  facet normal 0.707108 -0.707106 0
    outer loop
      vertex 43.8 -4.6 4.5
      vertex 44.2 -4.2 4.9
      vertex 43.8 -4.6 6.3
    endloop
  endfacet
  facet normal 0.707108 -0.707106 0
    outer loop
      vertex 44.2 -4.2 4.9
      vertex 44.2 -4.2 5.9
      vertex 43.8 -4.6 6.3
    endloop
  endfacet
  facet normal 0.707108 0 -0.707106
    outer loop
      vertex 44.2 -4.2 4.9
      vertex 43.8 -4.6 4.5
      vertex 44.2 6.2 4.9
    endloop
  endfacet
  facet normal 0.707108 0 -0.707106
    outer loop
      vertex 43.8 -4.6 4.5
      vertex 43.8 6.6 4.5
      vertex 44.2 6.2 4.9
    endloop
  endfacet
  facet normal 0.707107 0 0.707106
    outer loop
      vertex 43.8 -4.6 6.3
      vertex 44.2 -4.2 5.9
      vertex 43.8 6.6 6.3
    endloop
  endfacet
  facet normal 0.707107 0 0.707106
    outer loop
      vertex 44.2 -4.2 5.9
      vertex 44.2 6.2 5.9
      vertex 43.8 6.6 6.3
    endloop
  endfacet
  facet normal 1 0 0
    outer loop
      vertex 44.2 -4.2 4.9
      vertex 44.2 6.2 4.9
      vertex 44.2 -4.2 5.9
    endloop
  endfacet
  facet normal 1 0 0
    outer loop
      vertex 44.2 6.2 4.9
      vertex 44.2 6.2 5.9
      vertex 44.2 -4.2 5.9
    endloop
  endfacet
  facet normal 0 0 -1
    outer loop
      vertex 43.8 -4.6 4.5
      vertex 31 -4.6 4.5
      vertex 43.8 6.6 4.5
    endloop
  endfacet
  facet normal 0 0 -1
    outer loop
      vertex 31 -4.6 4.5
      vertex 31 6.6 4.5
      vertex 43.8 6.6 4.5
    endloop
  endfacet
  facet normal 0 0 1
    outer loop
      vertex 43.8 6.6 6.3
      vertex 31 6.6 6.3
      vertex 43.8 -4.6 6.3
    endloop
  endfacet
  facet normal 0 0 1
    outer loop
      vertex 31 6.6 6.3
      vertex 31 -4.6 6.3
      vertex 43.8 -4.6 6.3
    endloop
  endfacet
  facet normal 0 1 0
    outer loop
      vertex 43.8 6.6 4.5
      vertex 31 6.6 4.5
      vertex 43.8 6.6 6.3
    endloop
  endfacet
  facet normal 0 1 0
    outer loop
      vertex 31 6.6 4.5
      vertex 31 6.6 6.3
      vertex 43.8 6.6 6.3
    endloop
  endfacet
  facet normal 1 0 0
    outer loop
      vertex 44.2 -4.2 13.525
      vertex 44.2 6.2 13.525
      vertex 44.2 -4.2 14.525
    endloop
  endfacet
  facet normal 1 0 0
    outer loop
      vertex 44.2 6.2 13.525
      vertex 44.2 6.2 14.525
      vertex 44.2 -4.2 14.525
    endloop
  endfacet
  facet normal 0 0 -1
    outer loop
      vertex 43.8 -4.6 13.125
      vertex 31 -4.6 13.125
      vertex 43.8 6.6 13.125
    endloop
  endfacet
  facet normal 0 0 -1
    outer loop
      vertex 31 -4.6 13.125
      vertex 31 6.6 13.125
      vertex 43.8 6.6 13.125
    endloop
  endfacet
  facet normal 0 -1 0
    outer loop
      vertex 43.8 -4.6 14.925
      vertex 31 -4.6 14.925
      vertex 43.8 -4.6 13.125
    endloop
  endfacet
  facet normal 0 -1 0
    outer loop
      vertex 31 -4.6 14.925
      vertex 31 -4.6 13.125
      vertex 43.8 -4.6 13.125
    endloop
  endfacet
  facet normal 0 0 1
    outer loop
      vertex 43.8 6.6 14.925
      vertex 31 6.6 14.925
      vertex 43.8 -4.6 14.925
    endloop
  endfacet
  facet normal 0 0 1
    outer loop
      vertex 31 6.6 14.925
      vertex 31 -4.6 14.925
      vertex 43.8 -4.6 14.925
    endloop
  endfacet
  facet normal 0 1 0
    outer loop
      vertex 43.8 6.6 13.125
      vertex 31 6.6 13.125
      vertex 43.8 6.6 14.925
    endloop
  endfacet
  facet normal 0 1 0
    outer loop
      vertex 31 6.6 13.125
      vertex 31 6.6 14.925
      vertex 43.8 6.6 14.925
    endloop
  endfacet
  facet normal -1 0 0
    outer loop
      vertex 27.5 -5.6 16.2
      vertex 27.5 7.6 16.2
      vertex 27.5 -5.6 1.2
    endloop
  endfacet
  facet normal -1 0 0
    outer loop
      vertex 27.5 7.6 16.2
      vertex 27.5 7.6 1.2
      vertex 27.5 -5.6 1.2
    endloop
  endfacet
  facet normal 0.707108 -0.707106 0
    outer loop
      vertex 43.8 -4.6 13.125
      vertex 44.2 -4.2 13.525
      vertex 43.8 -4.6 14.925
    endloop
  endfacet
  facet normal 0.707108 -0.707106 0
    outer loop
      vertex 44.2 -4.2 13.525
      vertex 44.2 -4.2 14.525
      vertex 43.8 -4.6 14.925
    endloop
  endfacet
  facet normal 0 -1 0
    outer loop
      vertex 31 7.25 15.525
      vertex 31 7.25 10.5
      vertex 44.5 7.25 15.525
    endloop
  endfacet
  facet normal 0 -1 0
    outer loop
      vertex 31 7.25 10.5
      vertex 44.5 7.25 10.5
      vertex 44.5 7.25 15.525
    endloop
  endfacet
  facet normal 0 1 0
    outer loop
      vertex 27.5 7.6 16.2
      vertex 44.5 7.6 16.2
      vertex 27.5 7.6 1.2
    endloop
  endfacet
  facet normal 0 1 0
    outer loop
      vertex 44.5 7.6 16.2
      vertex 44.5 7.6 1.2
      vertex 27.5 7.6 1.2
    endloop
  endfacet
  facet normal 0.707108 0 -0.707106
    outer loop
      vertex 44.2 -4.2 13.525
      vertex 43.8 -4.6 13.125
      vertex 44.2 6.2 13.525
    endloop
  endfacet
  facet normal 0.707108 0 -0.707106
    outer loop
      vertex 43.8 -4.6 13.125
      vertex 43.8 6.6 13.125
      vertex 44.2 6.2 13.525
    endloop
  endfacet
  facet normal 0 0 -1
    outer loop
      vertex 31 -5.25 15.525
      vertex 31 7.25 15.525
      vertex 44.5 -5.25 15.525
    endloop
  endfacet
  facet normal 0 0 -1
    outer loop
      vertex 31 7.25 15.525
      vertex 44.5 7.25 15.525
      vertex 44.5 -5.25 15.525
    endloop
  endfacet
  facet normal 1 0 0
    outer loop
      vertex 44.5 -5.25 10.5
      vertex 44.5 -5.25 15.525
      vertex 44.5 -5.6 16.2
    endloop
  endfacet
  facet normal 1 0 0
    outer loop
      vertex 44.5 7.25 10.5
      vertex 44.5 7.6 1.2
      vertex 44.5 7.6 16.2
    endloop
  endfacet
  facet normal 1 0 0
    outer loop
      vertex 44.5 -5.6 16.2
      vertex 44.5 -5.25 15.525
      vertex 44.5 7.6 16.2
    endloop
  endfacet
  facet normal 1 0 0
    outer loop
      vertex 44.5 -5.25 15.525
      vertex 44.5 7.25 15.525
      vertex 44.5 7.6 16.2
    endloop
  endfacet
  facet normal 1 0 0
    outer loop
      vertex 44.5 7.6 16.2
      vertex 44.5 7.25 15.525
      vertex 44.5 7.25 10.5
    endloop
  endfacet
  facet normal 1 0 0
    outer loop
      vertex 44.5 -5.6 16.2
      vertex 44.5 -5.6 1.2
      vertex 44.5 -5.25 10.5
    endloop
  endfacet
  facet normal 1 0 0
    outer loop
      vertex 44.5 -5.6 1.2
      vertex 44.5 -5.25 6.9
      vertex 44.5 -5.25 10.5
    endloop
  endfacet
  facet normal 1 0 0
    outer loop
      vertex 44.5 -5.25 10.5
      vertex 44.5 -5.25 6.9
      vertex 44.5 7.25 10.5
    endloop
  endfacet
  facet normal 1 0 0
    outer loop
      vertex 44.5 -5.25 6.9
      vertex 44.5 7.25 6.9
      vertex 44.5 7.25 10.5
    endloop
  endfacet
  facet normal 1 0 0
    outer loop
      vertex 44.5 7.25 10.5
      vertex 44.5 7.25 6.9
      vertex 44.5 7.6 1.2
    endloop
  endfacet
  facet normal 1 0 0
    outer loop
      vertex 44.5 7.25 6.9
      vertex 44.5 7.25 1.875
      vertex 44.5 7.6 1.2
    endloop
  endfacet
  facet normal 1 0 0
    outer loop
      vertex 44.5 7.6 1.2
      vertex 44.5 7.25 1.875
      vertex 44.5 -5.6 1.2
    endloop
  endfacet
  facet normal 1 0 0
    outer loop
      vertex 44.5 7.25 1.875
      vertex 44.5 -5.25 1.875
      vertex 44.5 -5.6 1.2
    endloop
  endfacet
  facet normal 1 0 0
    outer loop
      vertex 44.5 -5.6 1.2
      vertex 44.5 -5.25 1.875
      vertex 44.5 -5.25 6.9
    endloop
  endfacet
  facet normal 0 -1 0
    outer loop
      vertex 43.8 -4.6 6.3
      vertex 31 -4.6 6.3
      vertex 43.8 -4.6 4.5
    endloop
  endfacet
  facet normal 0 -1 0
    outer loop
      vertex 31 -4.6 6.3
      vertex 31 -4.6 4.5
      vertex 43.8 -4.6 4.5
    endloop
  endfacet
  facet normal 0 0 -1
    outer loop
      vertex 27.5 -5.6 1.2
      vertex 27.5 7.6 1.2
      vertex 44.5 -5.6 1.2
    endloop
  endfacet
  facet normal 0 0 -1
    outer loop
      vertex 27.5 7.6 1.2
      vertex 44.5 7.6 1.2
      vertex 44.5 -5.6 1.2
    endloop
  endfacet
  facet normal 0 0 -1
    outer loop
      vertex 31 -5.25 6.9
      vertex 31 7.25 6.9
      vertex 44.5 -5.25 6.9
    endloop
  endfacet
  facet normal 0 0 -1
    outer loop
      vertex 31 7.25 6.9
      vertex 44.5 7.25 6.9
      vertex 44.5 -5.25 6.9
    endloop
  endfacet
  facet normal 1 0 0
    outer loop
      vertex 31 7.25 6.9
      vertex 31 6.6 6.3
      vertex 31 6.6 4.5
    endloop
  endfacet
  facet normal 1 0 0
    outer loop
      vertex 31 6.6 6.3
      vertex 31 7.25 6.9
      vertex 31 -4.6 6.3
    endloop
  endfacet
  facet normal 1 0 0
    outer loop
      vertex 31 7.25 6.9
      vertex 31 -5.25 6.9
      vertex 31 -4.6 6.3
    endloop
  endfacet
  facet normal 1 0 0
    outer loop
      vertex 31 -4.6 6.3
      vertex 31 -5.25 6.9
      vertex 31 -4.6 4.5
    endloop
  endfacet
  facet normal 1 0 0
    outer loop
      vertex 31 -5.25 6.9
      vertex 31 -5.25 1.875
      vertex 31 -4.6 4.5
    endloop
  endfacet
  facet normal 1 0 0
    outer loop
      vertex 31 -4.6 4.5
      vertex 31 -5.25 1.875
      vertex 31 6.6 4.5
    endloop
  endfacet
  facet normal 1 0 0
    outer loop
      vertex 31 -5.25 1.875
      vertex 31 7.25 1.875
      vertex 31 6.6 4.5
    endloop
  endfacet
  facet normal 1 0 0
    outer loop
      vertex 31 6.6 4.5
      vertex 31 7.25 1.875
      vertex 31 7.25 6.9
    endloop
  endfacet
  facet normal 0.707107 0.707106 0
    outer loop
      vertex 43.8 6.6 6.3
      vertex 44.2 6.2 5.9
      vertex 43.8 6.6 4.5
    endloop
  endfacet
  facet normal 0.707107 0.707106 0
    outer loop
      vertex 44.2 6.2 5.9
      vertex 44.2 6.2 4.9
      vertex 43.8 6.6 4.5
    endloop
  endfacet
  facet normal 1 0 0
    outer loop
      vertex 31 7.25 15.525
      vertex 31 6.6 14.925
      vertex 31 6.6 13.125
    endloop
  endfacet
  facet normal 1 0 0
    outer loop
      vertex 31 6.6 14.925
      vertex 31 7.25 15.525
      vertex 31 -4.6 14.925
    endloop
  endfacet
  facet normal 1 0 0
    outer loop
      vertex 31 7.25 15.525
      vertex 31 -5.25 15.525
      vertex 31 -4.6 14.925
    endloop
  endfacet
  facet normal 1 0 0
    outer loop
      vertex 31 -4.6 14.925
      vertex 31 -5.25 15.525
      vertex 31 -4.6 13.125
    endloop
  endfacet
  facet normal 1 0 0
    outer loop
      vertex 31 -5.25 15.525
      vertex 31 -5.25 10.5
      vertex 31 -4.6 13.125
    endloop
  endfacet
  facet normal 1 0 0
    outer loop
      vertex 31 -4.6 13.125
      vertex 31 -5.25 10.5
      vertex 31 6.6 13.125
    endloop
  endfacet
  facet normal 1 0 0
    outer loop
      vertex 31 -5.25 10.5
      vertex 31 7.25 10.5
      vertex 31 6.6 13.125
    endloop
  endfacet
  facet normal 1 0 0
    outer loop
      vertex 31 6.6 13.125
      vertex 31 7.25 10.5
      vertex 31 7.25 15.525
    endloop
  endfacet
  facet normal 0.707107 0.707106 0
    outer loop
      vertex 43.8 6.6 14.925
      vertex 44.2 6.2 14.525
      vertex 43.8 6.6 13.125
    endloop
  endfacet
  facet normal 0.707107 0.707106 0
    outer loop
      vertex 44.2 6.2 14.525
      vertex 44.2 6.2 13.525
      vertex 43.8 6.6 13.125
    endloop
  endfacet
  facet normal 0 -1 0
    outer loop
      vertex 44.5 -5.6 16.2
      vertex 27.5 -5.6 16.2
      vertex 44.5 -5.6 1.2
    endloop
  endfacet
  facet normal 0 -1 0
    outer loop
      vertex 27.5 -5.6 16.2
      vertex 27.5 -5.6 1.2
      vertex 44.5 -5.6 1.2
    endloop
  endfacet
  facet normal 0 0 1
    outer loop
      vertex 31 7.25 10.5
      vertex 31 -5.25 10.5
      vertex 44.5 7.25 10.5
    endloop
  endfacet
  facet normal 0 0 1
    outer loop
      vertex 31 -5.25 10.5
      vertex 44.5 -5.25 10.5
      vertex 44.5 7.25 10.5
    endloop
  endfacet
  facet normal 0.707108 0 0.707106
    outer loop
      vertex 43.8 -4.6 14.925
      vertex 44.2 -4.2 14.525
      vertex 43.8 6.6 14.925
    endloop
  endfacet
  facet normal 0.707108 0 0.707106
    outer loop
      vertex 44.2 -4.2 14.525
      vertex 44.2 6.2 14.525
      vertex 43.8 6.6 14.925
    endloop
  endfacet
  facet normal 0 1 0
    outer loop
      vertex 31 -5.25 10.5
      vertex 31 -5.25 15.525
      vertex 44.5 -5.25 10.5
    endloop
  endfacet
  facet normal 0 1 0
    outer loop
      vertex 31 -5.25 15.525
      vertex 44.5 -5.25 15.525
      vertex 44.5 -5.25 10.5
    endloop
  endfacet
  facet normal 0 0 1
    outer loop
      vertex 27.5 7.6 16.2
      vertex 27.5 -5.6 16.2
      vertex 44.5 7.6 16.2
    endloop
  endfacet
  facet normal 0 0 1
    outer loop
      vertex 27.5 -5.6 16.2
      vertex 44.5 -5.6 16.2
      vertex 44.5 7.6 16.2
    endloop
  endfacet
  facet normal 0 1 0
    outer loop
      vertex 31 -5.25 1.875
      vertex 31 -5.25 6.9
      vertex 44.5 -5.25 1.875
    endloop
  endfacet
  facet normal 0 1 0
    outer loop
      vertex 31 -5.25 6.9
      vertex 44.5 -5.25 6.9
      vertex 44.5 -5.25 1.875
    endloop
  endfacet
  facet normal 0 -1 0
    outer loop
      vertex 31 7.25 6.9
      vertex 31 7.25 1.875
      vertex 44.5 7.25 6.9
    endloop
  endfacet
  facet normal 0 -1 0
    outer loop
      vertex 31 7.25 1.875
      vertex 44.5 7.25 1.875
      vertex 44.5 7.25 6.9
    endloop
  endfacet
  facet normal 0 0 1
    outer loop
      vertex 31 7.25 1.875
      vertex 31 -5.25 1.875
      vertex 44.5 7.25 1.875
    endloop
  endfacet
  facet normal 0 0 1
    outer loop
      vertex 31 -5.25 1.875
      vertex 44.5 -5.25 1.875
      vertex 44.5 7.25 1.875
    endloop
  endfacet
endsolid Onshape
