solid Onshape
  facet normal 0 0 -1
    outer loop
      vertex 13.16 75.5 13
      vertex 8.16 75.5 13
      vertex 13.16 80.5 13
    endloop
  endfacet
  facet normal 0 0 -1
    outer loop
      vertex 8.16 75.5 13
      vertex 8.16 80.5 13
      vertex 13.16 80.5 13
    endloop
  endfacet
  facet normal 0 0 1
    outer loop
      vertex 8.16 75.5 14
      vertex 13.16 75.5 14
      vertex 8.16 80.5 14
    endloop
  endfacet
  facet normal 0 0 1
    outer loop
      vertex 13.16 75.5 14
      vertex 13.16 80.5 14
      vertex 8.16 80.5 14
    endloop
  endfacet
  facet normal 1 0 0
    outer loop
      vertex 13.16 80.5 14
      vertex 13.16 75.5 14
      vertex 13.16 80.5 13
    endloop
  endfacet
  facet normal 1 0 0
    outer loop
      vertex 13.16 75.5 14
      vertex 13.16 75.5 13
      vertex 13.16 80.5 13
    endloop
  endfacet
  facet normal 0 -1 0
    outer loop
      vertex 13.16 75.5 14
      vertex 8.16 75.5 14
      vertex 13.16 75.5 13
    endloop
  endfacet
  facet normal 0 -1 0
    outer loop
      vertex 8.16 75.5 14
      vertex 8.16 75.5 13
      vertex 13.16 75.5 13
    endloop
  endfacet
  facet normal 0 1 0
    outer loop
      vertex 8.16 80.5 14
      vertex 13.16 80.5 14
      vertex 8.16 80.5 13
    endloop
  endfacet
  facet normal 0 1 0
    outer loop
      vertex 13.16 80.5 14
      vertex 13.16 80.5 13
      vertex 8.16 80.5 13
    endloop
  endfacet
  facet normal -1 0 0
    outer loop
      vertex 8.16 75.5 14
      vertex 8.16 80.5 14
      vertex 8.16 75.5 13
    endloop
  endfacet
  facet normal -1 0 0
    outer loop
      vertex 8.16 80.5 14
      vertex 8.16 80.5 13
      vertex 8.16 75.5 13
    endloop
  endfacet
endsolid Onshape
