solid Onshape
  facet normal 0 0 -1
    outer loop
      vertex 128.25 24.5 2
      vertex 108.25 24.5 2
      vertex 128.25 31.5 2
    endloop
  endfacet
  facet normal 0 0 -1
    outer loop
      vertex 108.25 24.5 2
      vertex 108.25 31.5 2
      vertex 128.25 31.5 2
    endloop
  endfacet
  facet normal 0 0 1
    outer loop
      vertex 108.25 24.5 9
      vertex 128.25 24.5 9
      vertex 108.25 31.5 9
    endloop
  endfacet
  facet normal 0 0 1
    outer loop
      vertex 128.25 24.5 9
      vertex 128.25 31.5 9
      vertex 108.25 31.5 9
    endloop
  endfacet
  facet normal 1 0 0
    outer loop
      vertex 128.25 31.5 9
      vertex 128.25 24.5 9
      vertex 128.25 31.5 2
    endloop
  endfacet
  facet normal 1 0 0
    outer loop
      vertex 128.25 24.5 9
      vertex 128.25 24.5 2
      vertex 128.25 31.5 2
    endloop
  endfacet
  facet normal 0 -1 0
    outer loop
      vertex 128.25 24.5 9
      vertex 108.25 24.5 9
      vertex 128.25 24.5 2
    endloop
  endfacet
  facet normal 0 -1 0
    outer loop
      vertex 108.25 24.5 9
      vertex 108.25 24.5 2
      vertex 128.25 24.5 2
    endloop
  endfacet
  facet normal 0 1 0
    outer loop
      vertex 108.25 31.5 9
      vertex 128.25 31.5 9
      vertex 108.25 31.5 2
    endloop
  endfacet
  facet normal 0 1 0
    outer loop
      vertex 128.25 31.5 9
      vertex 128.25 31.5 2
      vertex 108.25 31.5 2
    endloop
  endfacet
  facet normal -1 0 0
    outer loop
      vertex 108.25 24.5 9
      vertex 108.25 31.5 9
      vertex 108.25 24.5 2
    endloop
  endfacet
  facet normal -1 0 0
    outer loop
      vertex 108.25 31.5 9
      vertex 108.25 31.5 2
      vertex 108.25 24.5 2
    endloop
  endfacet
endsolid Onshape
