solid Onshape
  facet normal 0 1 0
    outer loop
      vertex -3.1 -18 1.2
      vertex -4 -18 7.125
      vertex -3.1 -18 6.225
    endloop
  endfacet
  facet normal 0 1 0
    outer loop
      vertex -4 -18 7.125
      vertex -3.90592 -18 7.12007
      vertex -3.1 -18 6.225
    endloop
  endfacet
  facet normal 0 1 0
    outer loop
      vertex -3.1 -18 6.225
      vertex -3.90592 -18 7.12007
      vertex -3.72188 -18 7.08095
    endloop
  endfacet
  facet normal 0 1 0
    outer loop
      vertex -3.1 -18 1.2
      vertex -17.9 -18 1.2
      vertex -4 -18 7.125
    endloop
  endfacet
  facet normal 0 1 0
    outer loop
      vertex -17.9 -18 1.2
      vertex -17.9 -18 6.225
      vertex -4 -18 7.125
    endloop
  endfacet
  facet normal 0 1 0
    outer loop
      vertex -4 -18 7.125
      vertex -17.9 -18 6.225
      vertex -17 -18 7.125
    endloop
  endfacet
  facet normal 0 1 0
    outer loop
      vertex -17.9 -18 6.225
      vertex -17.8951 -18 6.31908
      vertex -17 -18 7.125
    endloop
  endfacet
  facet normal 0 1 0
    outer loop
      vertex -17 -18 7.125
      vertex -17.8951 -18 6.31908
      vertex -17.856 -18 6.50312
    endloop
  endfacet
  facet normal 0 1 0
    outer loop
      vertex -3.11967 -18 6.41212
      vertex -3.1 -18 6.225
      vertex -3.17781 -18 6.59106
    endloop
  endfacet
  facet normal 0 1 0
    outer loop
      vertex -3.1 -18 6.225
      vertex -3.27188 -18 6.75401
      vertex -3.17781 -18 6.59106
    endloop
  endfacet
  facet normal 0 1 0
    outer loop
      vertex -17.1871 -18 7.10533
      vertex -17 -18 7.125
      vertex -17.3661 -18 7.04719
    endloop
  endfacet
  facet normal 0 1 0
    outer loop
      vertex -17 -18 7.125
      vertex -17.529 -18 6.95312
      vertex -17.3661 -18 7.04719
    endloop
  endfacet
  facet normal 0 1 0
    outer loop
      vertex -3.72188 -18 7.08095
      vertex -3.55 -18 7.00442
      vertex -3.1 -18 6.225
    endloop
  endfacet
  facet normal 0 1 0
    outer loop
      vertex -3.55 -18 7.00442
      vertex -3.39778 -18 6.89383
      vertex -3.1 -18 6.225
    endloop
  endfacet
  facet normal 0 1 0
    outer loop
      vertex -3.1 -18 6.225
      vertex -3.39778 -18 6.89383
      vertex -3.27188 -18 6.75401
    endloop
  endfacet
  facet normal 0 1 0
    outer loop
      vertex -17.856 -18 6.50312
      vertex -17.7794 -18 6.675
      vertex -17 -18 7.125
    endloop
  endfacet
  facet normal 0 1 0
    outer loop
      vertex -17.7794 -18 6.675
      vertex -17.6688 -18 6.82722
      vertex -17 -18 7.125
    endloop
  endfacet
  facet normal 0 1 0
    outer loop
      vertex -17 -18 7.125
      vertex -17.6688 -18 6.82722
      vertex -17.529 -18 6.95312
    endloop
  endfacet
  facet normal 0 -1 0
    outer loop
      vertex -15.2619 -24.5 1.78005
      vertex -15.448 -24.5 1.82009
      vertex -17.9 -24.5 1.2
    endloop
  endfacet
  facet normal 0 -1 0
    outer loop
      vertex -3.1 -24.5 1.2
      vertex -3.1 -24.5 4.225
      vertex -3.10493 -24.5 4.13092
    endloop
  endfacet
  facet normal 0 -1 0
    outer loop
      vertex -3.10493 -24.5 4.13092
      vertex -3.14405 -24.5 3.94688
      vertex -3.1 -24.5 1.2
    endloop
  endfacet
  facet normal 0 -1 0
    outer loop
      vertex -3.14405 -24.5 3.94688
      vertex -3.22058 -24.5 3.775
      vertex -3.1 -24.5 1.2
    endloop
  endfacet
  facet normal 0 -1 0
    outer loop
      vertex -3.1 -24.5 1.2
      vertex -3.22058 -24.5 3.775
      vertex -3.33117 -24.5 3.62278
    endloop
  endfacet
  facet normal 0 -1 0
    outer loop
      vertex -3.33117 -24.5 3.62278
      vertex -3.47099 -24.5 3.49688
      vertex -3.1 -24.5 1.2
    endloop
  endfacet
  facet normal 0 -1 0
    outer loop
      vertex -3.47099 -24.5 3.49688
      vertex -3.63394 -24.5 3.40281
      vertex -3.1 -24.5 1.2
    endloop
  endfacet
  facet normal 0 -1 0
    outer loop
      vertex -3.1 -24.5 1.2
      vertex -3.63394 -24.5 3.40281
      vertex -3.81288 -24.5 3.34467
    endloop
  endfacet
  facet normal 0 -1 0
    outer loop
      vertex -5.09932 -24.5 2.15413
      vertex -5.15852 -24.5 2.07943
      vertex -3.1 -24.5 1.2
    endloop
  endfacet
  facet normal 0 -1 0
    outer loop
      vertex -5.15852 -24.5 2.07943
      vertex -5.29888 -24.5 1.95083
      vertex -3.1 -24.5 1.2
    endloop
  endfacet
  facet normal 0 -1 0
    outer loop
      vertex -3.1 -24.5 1.2
      vertex -5.29888 -24.5 1.95083
      vertex -5.46315 -24.5 1.85463
    endloop
  endfacet
  facet normal 0 -1 0
    outer loop
      vertex -17.0941 -24.5 3.32993
      vertex -17.2781 -24.5 3.36905
      vertex -17.9 -24.5 1.2
    endloop
  endfacet
  facet normal 0 -1 0
    outer loop
      vertex -5.46315 -24.5 1.85463
      vertex -5.64398 -24.5 1.79513
      vertex -3.1 -24.5 1.2
    endloop
  endfacet
  facet normal 0 -1 0
    outer loop
      vertex -5.64398 -24.5 1.79513
      vertex -5.83328 -24.5 1.775
      vertex -3.1 -24.5 1.2
    endloop
  endfacet
  facet normal 0 -1 0
    outer loop
      vertex -3.1 -24.5 1.2
      vertex -5.83328 -24.5 1.775
      vertex -17.9 -24.5 1.2
    endloop
  endfacet
  facet normal 0 -1 0
    outer loop
      vertex -5.83328 -24.5 1.775
      vertex -15.1667 -24.5 1.775
      vertex -17.9 -24.5 1.2
    endloop
  endfacet
  facet normal 0 -1 0
    outer loop
      vertex -17.9 -24.5 1.2
      vertex -15.1667 -24.5 1.775
      vertex -15.2619 -24.5 1.78005
    endloop
  endfacet
  facet normal 0 -1 0
    outer loop
      vertex -17.0941 -24.5 3.32993
      vertex -17.9 -24.5 1.2
      vertex -17 -24.5 3.325
    endloop
  endfacet
  facet normal 0 -1 0
    outer loop
      vertex -17.7281 -24.5 3.69599
      vertex -17.8222 -24.5 3.85894
      vertex -17.9 -24.5 1.2
    endloop
  endfacet
  facet normal 0 -1 0
    outer loop
      vertex -17.8222 -24.5 3.85894
      vertex -17.8803 -24.5 4.03788
      vertex -17.9 -24.5 1.2
    endloop
  endfacet
  facet normal 0 -1 0
    outer loop
      vertex -17.9 -24.5 1.2
      vertex -17.8803 -24.5 4.03788
      vertex -17.9 -24.5 4.225
    endloop
  endfacet
  facet normal 0 -1 0
    outer loop
      vertex -4.29827 -24.5 3.28287
      vertex -5.09932 -24.5 2.15413
      vertex -4.21672 -24.5 3.325
    endloop
  endfacet
  facet normal 0 -1 0
    outer loop
      vertex -5.09932 -24.5 2.15413
      vertex -3.1 -24.5 1.2
      vertex -4.21672 -24.5 3.325
    endloop
  endfacet
  facet normal 0 -1 0
    outer loop
      vertex -4.21672 -24.5 3.325
      vertex -3.1 -24.5 1.2
      vertex -4 -24.5 3.325
    endloop
  endfacet
  facet normal 0 -1 0
    outer loop
      vertex -3.1 -24.5 1.2
      vertex -3.81288 -24.5 3.34467
      vertex -4 -24.5 3.325
    endloop
  endfacet
  facet normal 0 -1 0
    outer loop
      vertex -15.448 -24.5 1.82009
      vertex -15.6215 -24.5 1.89837
      vertex -17.9 -24.5 1.2
    endloop
  endfacet
  facet normal 0 -1 0
    outer loop
      vertex -15.6215 -24.5 1.89837
      vertex -15.7747 -24.5 2.01141
      vertex -17.9 -24.5 1.2
    endloop
  endfacet
  facet normal 0 -1 0
    outer loop
      vertex -17.9 -24.5 1.2
      vertex -15.7747 -24.5 2.01141
      vertex -15.9007 -24.5 2.15413
    endloop
  endfacet
  facet normal 0 -1 0
    outer loop
      vertex -17.2781 -24.5 3.36905
      vertex -17.45 -24.5 3.44558
      vertex -17.9 -24.5 1.2
    endloop
  endfacet
  facet normal 0 -1 0
    outer loop
      vertex -17.45 -24.5 3.44558
      vertex -17.6022 -24.5 3.55617
      vertex -17.9 -24.5 1.2
    endloop
  endfacet
  facet normal 0 -1 0
    outer loop
      vertex -17.9 -24.5 1.2
      vertex -17.6022 -24.5 3.55617
      vertex -17.7281 -24.5 3.69599
    endloop
  endfacet
  facet normal 0 -1 0
    outer loop
      vertex -15.9007 -24.5 2.15413
      vertex -16.7017 -24.5 3.28287
      vertex -17.9 -24.5 1.2
    endloop
  endfacet
  facet normal 0 -1 0
    outer loop
      vertex -16.7017 -24.5 3.28287
      vertex -16.7833 -24.5 3.325
      vertex -17.9 -24.5 1.2
    endloop
  endfacet
  facet normal 0 -1 0
    outer loop
      vertex -17.9 -24.5 1.2
      vertex -16.7833 -24.5 3.325
      vertex -17 -24.5 3.325
    endloop
  endfacet
  facet normal 1 0 0
    outer loop
      vertex -3.1 -29.5 6.225
      vertex -3.1 -29.5 4.225
      vertex -3.1 -24.5 4.225
    endloop
  endfacet
  facet normal 1 0 0
    outer loop
      vertex -3.1 -24.5 1.2
      vertex -3.1 -18 1.2
      vertex -3.1 -24.5 4.225
    endloop
  endfacet
  facet normal 1 0 0
    outer loop
      vertex -3.1 -18 1.2
      vertex -3.1 -18 6.225
      vertex -3.1 -24.5 4.225
    endloop
  endfacet
  facet normal 1 0 0
    outer loop
      vertex -3.1 -24.5 4.225
      vertex -3.1 -18 6.225
      vertex -3.1 -29.5 6.225
    endloop
  endfacet
  facet normal 0 -1 0
    outer loop
      vertex -15.5745 -29.5 2.38563
      vertex -16.3755 -29.5 3.51437
      vertex -16.7017 -29.5 3.28287
    endloop
  endfacet
  facet normal 0 -1 0
    outer loop
      vertex -16.3755 -29.5 3.51437
      vertex -16.5306 -29.5 3.65646
      vertex -16.7017 -29.5 3.28287
    endloop
  endfacet
  facet normal 0 -1 0
    outer loop
      vertex -16.7017 -29.5 3.28287
      vertex -16.5306 -29.5 3.65646
      vertex -16.7833 -29.5 3.325
    endloop
  endfacet
  facet normal 0 -1 0
    outer loop
      vertex -5.62765 -29.5 2.21924
      vertex -5.83328 -29.5 2.175
      vertex -5.64398 -29.5 1.79513
    endloop
  endfacet
  facet normal 0 -1 0
    outer loop
      vertex -4 -29.5 3.725
      vertex -4.21672 -29.5 3.725
      vertex -4.21672 -29.5 3.325
    endloop
  endfacet
  facet normal 0 -1 0
    outer loop
      vertex -4.21672 -29.5 3.725
      vertex -4.42235 -29.5 3.68076
      vertex -4.21672 -29.5 3.325
    endloop
  endfacet
  facet normal 0 -1 0
    outer loop
      vertex -4.21672 -29.5 3.325
      vertex -4.42235 -29.5 3.68076
      vertex -4.29827 -29.5 3.28287
    endloop
  endfacet
  facet normal 0 -1 0
    outer loop
      vertex -3.47099 -29.5 3.49688
      vertex -3.62843 -29.5 3.89043
      vertex -3.79663 -29.5 3.76823
    endloop
  endfacet
  facet normal 0 -1 0
    outer loop
      vertex -15.4194 -29.5 2.24354
      vertex -15.448 -29.5 1.82009
      vertex -15.2196 -29.5 2.1778
    endloop
  endfacet
  facet normal 0 -1 0
    outer loop
      vertex -15.448 -29.5 1.82009
      vertex -15.2619 -29.5 1.78005
      vertex -15.2196 -29.5 2.1778
    endloop
  endfacet
  facet normal 0 -1 0
    outer loop
      vertex -15.2196 -29.5 2.1778
      vertex -15.2619 -29.5 1.78005
      vertex -15.1667 -29.5 2.175
    endloop
  endfacet
  facet normal 0 -1 0
    outer loop
      vertex -15.2619 -29.5 1.78005
      vertex -15.1667 -29.5 1.775
      vertex -15.1667 -29.5 2.175
    endloop
  endfacet
  facet normal 0 -1 0
    outer loop
      vertex -15.1667 -29.5 2.175
      vertex -15.1667 -29.5 1.775
      vertex -5.83328 -29.5 2.175
    endloop
  endfacet
  facet normal 0 -1 0
    outer loop
      vertex -15.1667 -29.5 1.775
      vertex -5.83328 -29.5 1.775
      vertex -5.83328 -29.5 2.175
    endloop
  endfacet
  facet normal 0 -1 0
    outer loop
      vertex -5.83328 -29.5 2.175
      vertex -5.83328 -29.5 1.775
      vertex -5.64398 -29.5 1.79513
    endloop
  endfacet
  facet normal 0 -1 0
    outer loop
      vertex -16.7017 -29.5 3.28287
      vertex -15.9007 -29.5 2.15413
      vertex -15.5745 -29.5 2.38563
    endloop
  endfacet
  facet normal 0 -1 0
    outer loop
      vertex -15.9007 -29.5 2.15413
      vertex -15.7747 -29.5 2.01141
      vertex -15.5745 -29.5 2.38563
    endloop
  endfacet
  facet normal 0 -1 0
    outer loop
      vertex -15.5745 -29.5 2.38563
      vertex -15.7747 -29.5 2.01141
      vertex -15.4194 -29.5 2.24354
    endloop
  endfacet
  facet normal 0 -1 0
    outer loop
      vertex -15.7747 -29.5 2.01141
      vertex -15.6215 -29.5 1.89837
      vertex -15.4194 -29.5 2.24354
    endloop
  endfacet
  facet normal 0 -1 0
    outer loop
      vertex -15.4194 -29.5 2.24354
      vertex -15.6215 -29.5 1.89837
      vertex -15.448 -29.5 1.82009
    endloop
  endfacet
  facet normal 0 -1 0
    outer loop
      vertex -5.64398 -29.5 1.79513
      vertex -5.46315 -29.5 1.85463
      vertex -5.62765 -29.5 2.21924
    endloop
  endfacet
  facet normal 0 -1 0
    outer loop
      vertex -5.46315 -29.5 1.85463
      vertex -5.29888 -29.5 1.95083
      vertex -5.62765 -29.5 2.21924
    endloop
  endfacet
  facet normal 0 -1 0
    outer loop
      vertex -5.62765 -29.5 2.21924
      vertex -5.29888 -29.5 1.95083
      vertex -5.45841 -29.5 2.34413
    endloop
  endfacet
  facet normal 0 -1 0
    outer loop
      vertex -5.29888 -29.5 1.95083
      vertex -5.15852 -29.5 2.07943
      vertex -5.45841 -29.5 2.34413
    endloop
  endfacet
  facet normal 0 -1 0
    outer loop
      vertex -5.45841 -29.5 2.34413
      vertex -5.15852 -29.5 2.07943
      vertex -5.42552 -29.5 2.38563
    endloop
  endfacet
  facet normal 0 -1 0
    outer loop
      vertex -5.15852 -29.5 2.07943
      vertex -5.09932 -29.5 2.15413
      vertex -5.42552 -29.5 2.38563
    endloop
  endfacet
  facet normal 0 -1 0
    outer loop
      vertex -5.42552 -29.5 2.38563
      vertex -5.09932 -29.5 2.15413
      vertex -4.62448 -29.5 3.51437
    endloop
  endfacet
  facet normal 0 -1 0
    outer loop
      vertex -5.09932 -29.5 2.15413
      vertex -4.29827 -29.5 3.28287
      vertex -4.62448 -29.5 3.51437
    endloop
  endfacet
  facet normal 0 -1 0
    outer loop
      vertex -4.62448 -29.5 3.51437
      vertex -4.29827 -29.5 3.28287
      vertex -4.59159 -29.5 3.55587
    endloop
  endfacet
  facet normal 0 -1 0
    outer loop
      vertex -4.29827 -29.5 3.28287
      vertex -4.42235 -29.5 3.68076
      vertex -4.59159 -29.5 3.55587
    endloop
  endfacet
  facet normal 0 -1 0
    outer loop
      vertex -3.66543 -29.5 6.59657
      vertex -3.54323 -29.5 6.42837
      vertex -3.27188 -29.5 6.75401
    endloop
  endfacet
  facet normal 0 -1 0
    outer loop
      vertex -3.5 -29.5 6.225
      vertex -3.11967 -29.5 6.41212
      vertex -3.54323 -29.5 6.42837
    endloop
  endfacet
  facet normal 0 -1 0
    outer loop
      vertex -3.11967 -29.5 6.41212
      vertex -3.17781 -29.5 6.59106
      vertex -3.54323 -29.5 6.42837
    endloop
  endfacet
  facet normal 0 -1 0
    outer loop
      vertex -3.54323 -29.5 6.42837
      vertex -3.17781 -29.5 6.59106
      vertex -3.27188 -29.5 6.75401
    endloop
  endfacet
  facet normal 0 -1 0
    outer loop
      vertex -3.47099 -29.5 3.49688
      vertex -3.33117 -29.5 3.62278
      vertex -3.62843 -29.5 3.89043
    endloop
  endfacet
  facet normal 0 -1 0
    outer loop
      vertex -3.33117 -29.5 3.62278
      vertex -3.22058 -29.5 3.775
      vertex -3.62843 -29.5 3.89043
    endloop
  endfacet
  facet normal 0 -1 0
    outer loop
      vertex -3.62843 -29.5 3.89043
      vertex -3.22058 -29.5 3.775
      vertex -3.52447 -29.5 4.07049
    endloop
  endfacet
  facet normal 0 -1 0
    outer loop
      vertex -4.21672 -29.5 3.325
      vertex -4 -29.5 3.325
      vertex -4 -29.5 3.725
    endloop
  endfacet
  facet normal 0 -1 0
    outer loop
      vertex -4 -29.5 3.325
      vertex -3.81288 -29.5 3.34467
      vertex -4 -29.5 3.725
    endloop
  endfacet
  facet normal 0 -1 0
    outer loop
      vertex -4 -29.5 3.725
      vertex -3.81288 -29.5 3.34467
      vertex -3.79663 -29.5 3.76823
    endloop
  endfacet
  facet normal 0 -1 0
    outer loop
      vertex -3.81288 -29.5 3.34467
      vertex -3.63394 -29.5 3.40281
      vertex -3.79663 -29.5 3.76823
    endloop
  endfacet
  facet normal 0 -1 0
    outer loop
      vertex -3.79663 -29.5 3.76823
      vertex -3.63394 -29.5 3.40281
      vertex -3.47099 -29.5 3.49688
    endloop
  endfacet
  facet normal 0 -1 0
    outer loop
      vertex -17.45 -29.5 3.44558
      vertex -17.1545 -29.5 3.74947
      vertex -17.3346 -29.5 3.85343
    endloop
  endfacet
  facet normal 0 -1 0
    outer loop
      vertex -3.22058 -29.5 3.775
      vertex -3.14405 -29.5 3.94688
      vertex -3.52447 -29.5 4.07049
    endloop
  endfacet
  facet normal 0 -1 0
    outer loop
      vertex -3.14405 -29.5 3.94688
      vertex -3.10493 -29.5 4.13092
      vertex -3.52447 -29.5 4.07049
    endloop
  endfacet
  facet normal 0 -1 0
    outer loop
      vertex -3.52447 -29.5 4.07049
      vertex -3.10493 -29.5 4.13092
      vertex -3.5 -29.5 4.225
    endloop
  endfacet
  facet normal 0 -1 0
    outer loop
      vertex -3.10493 -29.5 4.13092
      vertex -3.1 -29.5 4.225
      vertex -3.5 -29.5 4.225
    endloop
  endfacet
  facet normal 0 -1 0
    outer loop
      vertex -3.5 -29.5 4.225
      vertex -3.1 -29.5 4.225
      vertex -3.5 -29.5 6.225
    endloop
  endfacet
  facet normal 0 -1 0
    outer loop
      vertex -3.1 -29.5 4.225
      vertex -3.1 -29.5 6.225
      vertex -3.5 -29.5 6.225
    endloop
  endfacet
  facet normal 0 -1 0
    outer loop
      vertex -3.5 -29.5 6.225
      vertex -3.1 -29.5 6.225
      vertex -3.11967 -29.5 6.41212
    endloop
  endfacet
  facet normal 0 -1 0
    outer loop
      vertex -17.4568 -29.5 4.02163
      vertex -17.7281 -29.5 3.69599
      vertex -17.3346 -29.5 3.85343
    endloop
  endfacet
  facet normal 0 -1 0
    outer loop
      vertex -17.7281 -29.5 3.69599
      vertex -17.6022 -29.5 3.55617
      vertex -17.3346 -29.5 3.85343
    endloop
  endfacet
  facet normal 0 -1 0
    outer loop
      vertex -17.3346 -29.5 3.85343
      vertex -17.6022 -29.5 3.55617
      vertex -17.45 -29.5 3.44558
    endloop
  endfacet
  facet normal 0 -1 0
    outer loop
      vertex -17.45 -29.5 3.44558
      vertex -17.2781 -29.5 3.36905
      vertex -17.1545 -29.5 3.74947
    endloop
  endfacet
  facet normal 0 -1 0
    outer loop
      vertex -17.2781 -29.5 3.36905
      vertex -17.0941 -29.5 3.32993
      vertex -17.1545 -29.5 3.74947
    endloop
  endfacet
  facet normal 0 -1 0
    outer loop
      vertex -17.1545 -29.5 3.74947
      vertex -17.0941 -29.5 3.32993
      vertex -17 -29.5 3.725
    endloop
  endfacet
  facet normal 0 -1 0
    outer loop
      vertex -17.0941 -29.5 3.32993
      vertex -17 -29.5 3.325
      vertex -17 -29.5 3.725
    endloop
  endfacet
  facet normal 0 -1 0
    outer loop
      vertex -17 -29.5 3.725
      vertex -17 -29.5 3.325
      vertex -16.7833 -29.5 3.725
    endloop
  endfacet
  facet normal 0 -1 0
    outer loop
      vertex -17 -29.5 3.325
      vertex -16.7833 -29.5 3.325
      vertex -16.7833 -29.5 3.725
    endloop
  endfacet
  facet normal 0 -1 0
    outer loop
      vertex -16.7833 -29.5 3.725
      vertex -16.7833 -29.5 3.325
      vertex -16.7304 -29.5 3.7222
    endloop
  endfacet
  facet normal 0 -1 0
    outer loop
      vertex -16.7833 -29.5 3.325
      vertex -16.5306 -29.5 3.65646
      vertex -16.7304 -29.5 3.7222
    endloop
  endfacet
  facet normal 0 -1 0
    outer loop
      vertex -17.1871 -29.5 7.10533
      vertex -17.2034 -29.5 6.68177
      vertex -17 -29.5 6.725
    endloop
  endfacet
  facet normal 0 -1 0
    outer loop
      vertex -3.27188 -29.5 6.75401
      vertex -3.39778 -29.5 6.89383
      vertex -3.66543 -29.5 6.59657
    endloop
  endfacet
  facet normal 0 -1 0
    outer loop
      vertex -3.39778 -29.5 6.89383
      vertex -3.55 -29.5 7.00442
      vertex -3.66543 -29.5 6.59657
    endloop
  endfacet
  facet normal 0 -1 0
    outer loop
      vertex -3.66543 -29.5 6.59657
      vertex -3.55 -29.5 7.00442
      vertex -3.84549 -29.5 6.70053
    endloop
  endfacet
  facet normal 0 -1 0
    outer loop
      vertex -17.7794 -29.5 6.675
      vertex -17.4755 -29.5 6.37951
      vertex -17.3716 -29.5 6.55957
    endloop
  endfacet
  facet normal 0 -1 0
    outer loop
      vertex -17.1871 -29.5 7.10533
      vertex -17.3661 -29.5 7.04719
      vertex -17.2034 -29.5 6.68177
    endloop
  endfacet
  facet normal 0 -1 0
    outer loop
      vertex -17.3661 -29.5 7.04719
      vertex -17.529 -29.5 6.95312
      vertex -17.2034 -29.5 6.68177
    endloop
  endfacet
  facet normal 0 -1 0
    outer loop
      vertex -17.2034 -29.5 6.68177
      vertex -17.529 -29.5 6.95312
      vertex -17.3716 -29.5 6.55957
    endloop
  endfacet
  facet normal 0 -1 0
    outer loop
      vertex -17.529 -29.5 6.95312
      vertex -17.6688 -29.5 6.82722
      vertex -17.3716 -29.5 6.55957
    endloop
  endfacet
  facet normal 0 -1 0
    outer loop
      vertex -17.3716 -29.5 6.55957
      vertex -17.6688 -29.5 6.82722
      vertex -17.7794 -29.5 6.675
    endloop
  endfacet
  facet normal 0 -1 0
    outer loop
      vertex -3.55 -29.5 7.00442
      vertex -3.72188 -29.5 7.08095
      vertex -3.84549 -29.5 6.70053
    endloop
  endfacet
  facet normal 0 -1 0
    outer loop
      vertex -3.72188 -29.5 7.08095
      vertex -3.90592 -29.5 7.12007
      vertex -3.84549 -29.5 6.70053
    endloop
  endfacet
  facet normal 0 -1 0
    outer loop
      vertex -3.84549 -29.5 6.70053
      vertex -3.90592 -29.5 7.12007
      vertex -4 -29.5 6.725
    endloop
  endfacet
  facet normal 0 -1 0
    outer loop
      vertex -3.90592 -29.5 7.12007
      vertex -4 -29.5 7.125
      vertex -4 -29.5 6.725
    endloop
  endfacet
  facet normal 0 -1 0
    outer loop
      vertex -4 -29.5 6.725
      vertex -4 -29.5 7.125
      vertex -17 -29.5 6.725
    endloop
  endfacet
  facet normal 0 -1 0
    outer loop
      vertex -4 -29.5 7.125
      vertex -17 -29.5 7.125
      vertex -17 -29.5 6.725
    endloop
  endfacet
  facet normal 0 -1 0
    outer loop
      vertex -17 -29.5 6.725
      vertex -17 -29.5 7.125
      vertex -17.1871 -29.5 7.10533
    endloop
  endfacet
  facet normal 0 -1 0
    outer loop
      vertex -17.5 -29.5 4.225
      vertex -17.8803 -29.5 4.03788
      vertex -17.4568 -29.5 4.02163
    endloop
  endfacet
  facet normal 0 -1 0
    outer loop
      vertex -17.8803 -29.5 4.03788
      vertex -17.8222 -29.5 3.85894
      vertex -17.4568 -29.5 4.02163
    endloop
  endfacet
  facet normal 0 -1 0
    outer loop
      vertex -17.4568 -29.5 4.02163
      vertex -17.8222 -29.5 3.85894
      vertex -17.7281 -29.5 3.69599
    endloop
  endfacet
  facet normal 0 -1 0
    outer loop
      vertex -17.7794 -29.5 6.675
      vertex -17.856 -29.5 6.50312
      vertex -17.4755 -29.5 6.37951
    endloop
  endfacet
  facet normal 0 -1 0
    outer loop
      vertex -17.856 -29.5 6.50312
      vertex -17.8951 -29.5 6.31908
      vertex -17.4755 -29.5 6.37951
    endloop
  endfacet
  facet normal 0 -1 0
    outer loop
      vertex -17.4755 -29.5 6.37951
      vertex -17.8951 -29.5 6.31908
      vertex -17.5 -29.5 6.225
    endloop
  endfacet
  facet normal 0 -1 0
    outer loop
      vertex -17.8951 -29.5 6.31908
      vertex -17.9 -29.5 6.225
      vertex -17.5 -29.5 6.225
    endloop
  endfacet
  facet normal 0 -1 0
    outer loop
      vertex -17.5 -29.5 6.225
      vertex -17.9 -29.5 6.225
      vertex -17.5 -29.5 4.225
    endloop
  endfacet
  facet normal 0 -1 0
    outer loop
      vertex -17.9 -29.5 6.225
      vertex -17.9 -29.5 4.225
      vertex -17.5 -29.5 4.225
    endloop
  endfacet
  facet normal 0 -1 0
    outer loop
      vertex -17.5 -29.5 4.225
      vertex -17.9 -29.5 4.225
      vertex -17.8803 -29.5 4.03788
    endloop
  endfacet
  facet normal -0.998629 0 0.0523373
    outer loop
      vertex -17.9 -18 6.225
      vertex -17.9 -29.5 6.225
      vertex -17.8951 -29.5 6.31908
    endloop
  endfacet
  facet normal -0.998629 0 0.0523373
    outer loop
      vertex -17.9 -18 6.225
      vertex -17.8951 -29.5 6.31908
      vertex -17.8951 -18 6.31908
    endloop
  endfacet
  facet normal -0.978149 0 0.207905
    outer loop
      vertex -17.8951 -29.5 6.31908
      vertex -17.856 -29.5 6.50312
      vertex -17.8951 -18 6.31908
    endloop
  endfacet
  facet normal -0.978149 0 0.207905
    outer loop
      vertex -17.8951 -18 6.31908
      vertex -17.856 -29.5 6.50312
      vertex -17.856 -18 6.50312
    endloop
  endfacet
  facet normal -0.913544 0 0.40674
    outer loop
      vertex -17.856 -29.5 6.50312
      vertex -17.7794 -29.5 6.675
      vertex -17.856 -18 6.50312
    endloop
  endfacet
  facet normal -0.913544 0 0.40674
    outer loop
      vertex -17.856 -18 6.50312
      vertex -17.7794 -29.5 6.675
      vertex -17.7794 -18 6.675
    endloop
  endfacet
  facet normal -0.809017 0 0.587785
    outer loop
      vertex -17.7794 -29.5 6.675
      vertex -17.6688 -29.5 6.82722
      vertex -17.7794 -18 6.675
    endloop
  endfacet
  facet normal -0.809017 0 0.587785
    outer loop
      vertex -17.7794 -18 6.675
      vertex -17.6688 -29.5 6.82722
      vertex -17.6688 -18 6.82722
    endloop
  endfacet
  facet normal -0.669131 0 0.743144
    outer loop
      vertex -17.6688 -29.5 6.82722
      vertex -17.529 -29.5 6.95312
      vertex -17.6688 -18 6.82722
    endloop
  endfacet
  facet normal -0.669131 0 0.743144
    outer loop
      vertex -17.6688 -18 6.82722
      vertex -17.529 -29.5 6.95312
      vertex -17.529 -18 6.95312
    endloop
  endfacet
  facet normal -0.499999 0 0.866026
    outer loop
      vertex -17.529 -29.5 6.95312
      vertex -17.3661 -29.5 7.04719
      vertex -17.529 -18 6.95312
    endloop
  endfacet
  facet normal -0.499999 0 0.866026
    outer loop
      vertex -17.529 -18 6.95312
      vertex -17.3661 -29.5 7.04719
      vertex -17.3661 -18 7.04719
    endloop
  endfacet
  facet normal -0.309017 0 0.951056
    outer loop
      vertex -17.3661 -29.5 7.04719
      vertex -17.1871 -29.5 7.10533
      vertex -17.3661 -18 7.04719
    endloop
  endfacet
  facet normal -0.309017 0 0.951056
    outer loop
      vertex -17.3661 -18 7.04719
      vertex -17.1871 -29.5 7.10533
      vertex -17.1871 -18 7.10533
    endloop
  endfacet
  facet normal -0.104529 0 0.994522
    outer loop
      vertex -17.1871 -29.5 7.10533
      vertex -17 -29.5 7.125
      vertex -17.1871 -18 7.10533
    endloop
  endfacet
  facet normal -0.104529 0 0.994522
    outer loop
      vertex -17.1871 -18 7.10533
      vertex -17 -29.5 7.125
      vertex -17 -18 7.125
    endloop
  endfacet
  facet normal -0.0523378 0 -0.998629
    outer loop
      vertex -17 -24.5 3.325
      vertex -17 -29.5 3.325
      vertex -17.0941 -29.5 3.32993
    endloop
  endfacet
  facet normal -0.0523378 0 -0.998629
    outer loop
      vertex -17 -24.5 3.325
      vertex -17.0941 -29.5 3.32993
      vertex -17.0941 -24.5 3.32993
    endloop
  endfacet
  facet normal -0.207911 0 -0.978148
    outer loop
      vertex -17.0941 -29.5 3.32993
      vertex -17.2781 -29.5 3.36905
      vertex -17.0941 -24.5 3.32993
    endloop
  endfacet
  facet normal -0.207911 0 -0.978148
    outer loop
      vertex -17.0941 -24.5 3.32993
      vertex -17.2781 -29.5 3.36905
      vertex -17.2781 -24.5 3.36905
    endloop
  endfacet
  facet normal -0.40674 0 -0.913544
    outer loop
      vertex -17.2781 -29.5 3.36905
      vertex -17.45 -29.5 3.44558
      vertex -17.2781 -24.5 3.36905
    endloop
  endfacet
  facet normal -0.40674 0 -0.913544
    outer loop
      vertex -17.2781 -24.5 3.36905
      vertex -17.45 -29.5 3.44558
      vertex -17.45 -24.5 3.44558
    endloop
  endfacet
  facet normal -0.587781 0 -0.80902
    outer loop
      vertex -17.45 -29.5 3.44558
      vertex -17.6022 -29.5 3.55617
      vertex -17.45 -24.5 3.44558
    endloop
  endfacet
  facet normal -0.587781 0 -0.80902
    outer loop
      vertex -17.45 -24.5 3.44558
      vertex -17.6022 -29.5 3.55617
      vertex -17.6022 -24.5 3.55617
    endloop
  endfacet
  facet normal -0.743149 0 -0.669126
    outer loop
      vertex -17.6022 -29.5 3.55617
      vertex -17.7281 -29.5 3.69599
      vertex -17.6022 -24.5 3.55617
    endloop
  endfacet
  facet normal -0.743149 0 -0.669126
    outer loop
      vertex -17.6022 -24.5 3.55617
      vertex -17.7281 -29.5 3.69599
      vertex -17.7281 -24.5 3.69599
    endloop
  endfacet
  facet normal -0.866023 0 -0.500004
    outer loop
      vertex -17.7281 -29.5 3.69599
      vertex -17.8222 -29.5 3.85894
      vertex -17.7281 -24.5 3.69599
    endloop
  endfacet
  facet normal -0.866023 0 -0.500004
    outer loop
      vertex -17.7281 -24.5 3.69599
      vertex -17.8222 -29.5 3.85894
      vertex -17.8222 -24.5 3.85894
    endloop
  endfacet
  facet normal -0.951056 0 -0.30902
    outer loop
      vertex -17.8222 -29.5 3.85894
      vertex -17.8803 -29.5 4.03788
      vertex -17.8222 -24.5 3.85894
    endloop
  endfacet
  facet normal -0.951056 0 -0.30902
    outer loop
      vertex -17.8222 -24.5 3.85894
      vertex -17.8803 -29.5 4.03788
      vertex -17.8803 -24.5 4.03788
    endloop
  endfacet
  facet normal -0.994523 0 -0.104521
    outer loop
      vertex -17.8803 -29.5 4.03788
      vertex -17.9 -29.5 4.225
      vertex -17.8803 -24.5 4.03788
    endloop
  endfacet
  facet normal -0.994523 0 -0.104521
    outer loop
      vertex -17.8803 -24.5 4.03788
      vertex -17.9 -29.5 4.225
      vertex -17.9 -24.5 4.225
    endloop
  endfacet
  facet normal 0.207913 0 -0.978147
    outer loop
      vertex -17 -21.5 6.725
      vertex -17 -29.5 6.725
      vertex -17.2034 -21.5 6.68177
    endloop
  endfacet
  facet normal 0.207913 0 -0.978147
    outer loop
      vertex -17 -29.5 6.725
      vertex -17.2034 -29.5 6.68177
      vertex -17.2034 -21.5 6.68177
    endloop
  endfacet
  facet normal 0.587786 0 -0.809017
    outer loop
      vertex -17.2034 -21.5 6.68177
      vertex -17.2034 -29.5 6.68177
      vertex -17.3716 -21.5 6.55957
    endloop
  endfacet
  facet normal 0.587786 0 -0.809017
    outer loop
      vertex -17.2034 -29.5 6.68177
      vertex -17.3716 -29.5 6.55957
      vertex -17.3716 -21.5 6.55957
    endloop
  endfacet
  facet normal 0.866025 0 -0.500001
    outer loop
      vertex -17.3716 -21.5 6.55957
      vertex -17.3716 -29.5 6.55957
      vertex -17.4755 -21.5 6.37951
    endloop
  endfacet
  facet normal 0.866025 0 -0.500001
    outer loop
      vertex -17.3716 -29.5 6.55957
      vertex -17.4755 -29.5 6.37951
      vertex -17.4755 -21.5 6.37951
    endloop
  endfacet
  facet normal 0.987689 0 -0.156433
    outer loop
      vertex -17.4755 -21.5 6.37951
      vertex -17.4755 -29.5 6.37951
      vertex -17.5 -21.5 6.225
    endloop
  endfacet
  facet normal 0.987689 0 -0.156433
    outer loop
      vertex -17.4755 -29.5 6.37951
      vertex -17.5 -29.5 6.225
      vertex -17.5 -21.5 6.225
    endloop
  endfacet
  facet normal 0 0 -1
    outer loop
      vertex -17.9 -24.5 1.2
      vertex -17.9 -18 1.2
      vertex -3.1 -24.5 1.2
    endloop
  endfacet
  facet normal 0 0 -1
    outer loop
      vertex -17.9 -18 1.2
      vertex -3.1 -18 1.2
      vertex -3.1 -24.5 1.2
    endloop
  endfacet
  facet normal -0.815507 0 0.578747
    outer loop
      vertex -4.62448 -21.5 3.51437
      vertex -5.42552 -21.5 2.38563
      vertex -4.62448 -29.5 3.51437
    endloop
  endfacet
  facet normal -0.815507 0 0.578747
    outer loop
      vertex -5.42552 -21.5 2.38563
      vertex -5.42552 -29.5 2.38563
      vertex -4.62448 -29.5 3.51437
    endloop
  endfacet
  facet normal 1 0 0
    outer loop
      vertex -5.1 -28.1 4
      vertex -5.1 -21.5 4
      vertex -5.1 -21.5 4.9
    endloop
  endfacet
  facet normal 1 0 0
    outer loop
      vertex -5.1 -28.5 4.4
      vertex -5.1 -28.4804 4.27639
      vertex -5.1 -28.3351 4.07639
    endloop
  endfacet
  facet normal 1 0 0
    outer loop
      vertex -5.1 -28.3351 4.82361
      vertex -5.1 -28.4804 4.62361
      vertex -5.1 -28.1 4.9
    endloop
  endfacet
  facet normal 1 0 0
    outer loop
      vertex -5.1 -28.4804 4.62361
      vertex -5.1 -28.5 4.5
      vertex -5.1 -28.1 4.9
    endloop
  endfacet
  facet normal 1 0 0
    outer loop
      vertex -5.1 -28.1 4.9
      vertex -5.1 -28.5 4.5
      vertex -5.1 -21.5 4.9
    endloop
  endfacet
  facet normal 1 0 0
    outer loop
      vertex -5.1 -28.5 4.5
      vertex -5.1 -28.5 4.4
      vertex -5.1 -21.5 4.9
    endloop
  endfacet
  facet normal 1 0 0
    outer loop
      vertex -5.1 -21.5 4.9
      vertex -5.1 -28.5 4.4
      vertex -5.1 -28.1 4
    endloop
  endfacet
  facet normal 1 0 0
    outer loop
      vertex -5.1 -28.5 4.4
      vertex -5.1 -28.3351 4.07639
      vertex -5.1 -28.1 4
    endloop
  endfacet
  facet normal -0.978148 0 -0.207911
    outer loop
      vertex -3.5 -21.5 6.225
      vertex -3.5 -29.5 6.225
      vertex -3.54323 -21.5 6.42837
    endloop
  endfacet
  facet normal -0.978148 0 -0.207911
    outer loop
      vertex -3.5 -29.5 6.225
      vertex -3.54323 -29.5 6.42837
      vertex -3.54323 -21.5 6.42837
    endloop
  endfacet
  facet normal -0.809017 0 -0.587786
    outer loop
      vertex -3.54323 -21.5 6.42837
      vertex -3.54323 -29.5 6.42837
      vertex -3.66543 -21.5 6.59657
    endloop
  endfacet
  facet normal -0.809017 0 -0.587786
    outer loop
      vertex -3.54323 -29.5 6.42837
      vertex -3.66543 -29.5 6.59657
      vertex -3.66543 -21.5 6.59657
    endloop
  endfacet
  facet normal -0.500001 0 -0.866025
    outer loop
      vertex -3.66543 -21.5 6.59657
      vertex -3.66543 -29.5 6.59657
      vertex -3.84549 -21.5 6.70053
    endloop
  endfacet
  facet normal -0.500001 0 -0.866025
    outer loop
      vertex -3.66543 -29.5 6.59657
      vertex -3.84549 -29.5 6.70053
      vertex -3.84549 -21.5 6.70053
    endloop
  endfacet
  facet normal -0.156435 0 -0.987688
    outer loop
      vertex -3.84549 -21.5 6.70053
      vertex -3.84549 -29.5 6.70053
      vertex -4 -21.5 6.725
    endloop
  endfacet
  facet normal -0.156435 0 -0.987688
    outer loop
      vertex -3.84549 -29.5 6.70053
      vertex -4 -29.5 6.725
      vertex -4 -21.5 6.725
    endloop
  endfacet
  facet normal 0 -0.987687 -0.156441
    outer loop
      vertex -5.1 -28.5 4.4
      vertex -15.9 -28.5 4.4
      vertex -15.9 -28.4804 4.27639
    endloop
  endfacet
  facet normal 0 -0.987687 -0.156441
    outer loop
      vertex -5.1 -28.5 4.4
      vertex -15.9 -28.4804 4.27639
      vertex -5.1 -28.4804 4.27639
    endloop
  endfacet
  facet normal 0 -0.80902 -0.587781
    outer loop
      vertex -15.9 -28.4804 4.27639
      vertex -15.9 -28.3351 4.07639
      vertex -5.1 -28.4804 4.27639
    endloop
  endfacet
  facet normal 0 -0.80902 -0.587781
    outer loop
      vertex -5.1 -28.4804 4.27639
      vertex -15.9 -28.3351 4.07639
      vertex -5.1 -28.3351 4.07639
    endloop
  endfacet
  facet normal 0 -0.309017 -0.951057
    outer loop
      vertex -15.9 -28.3351 4.07639
      vertex -15.9 -28.1 4
      vertex -5.1 -28.3351 4.07639
    endloop
  endfacet
  facet normal 0 -0.309017 -0.951057
    outer loop
      vertex -5.1 -28.3351 4.07639
      vertex -15.9 -28.1 4
      vertex -5.1 -28.1 4
    endloop
  endfacet
  facet normal -1 0 0
    outer loop
      vertex -3.5 -21.5 6.225
      vertex -3.5 -21.5 4.225
      vertex -3.5 -29.5 6.225
    endloop
  endfacet
  facet normal -1 0 0
    outer loop
      vertex -3.5 -21.5 4.225
      vertex -3.5 -29.5 4.225
      vertex -3.5 -29.5 6.225
    endloop
  endfacet
  facet normal -1 0 0
    outer loop
      vertex -17.9 -29.5 4.225
      vertex -17.9 -29.5 6.225
      vertex -17.9 -24.5 4.225
    endloop
  endfacet
  facet normal -1 0 0
    outer loop
      vertex -17.9 -29.5 6.225
      vertex -17.9 -18 6.225
      vertex -17.9 -24.5 4.225
    endloop
  endfacet
  facet normal -1 0 0
    outer loop
      vertex -17.9 -24.5 4.225
      vertex -17.9 -18 6.225
      vertex -17.9 -24.5 1.2
    endloop
  endfacet
  facet normal -1 0 0
    outer loop
      vertex -17.9 -18 6.225
      vertex -17.9 -18 1.2
      vertex -17.9 -24.5 1.2
    endloop
  endfacet
  facet normal 0 -1 0
    outer loop
      vertex -5.1 -21.5 4
      vertex -15.9 -21.5 4
      vertex -5.42552 -21.5 2.38563
    endloop
  endfacet
  facet normal 0 -1 0
    outer loop
      vertex -16.7833 -21.5 3.725
      vertex -16.7304 -21.5 3.7222
      vertex -15.9 -21.5 4.9
    endloop
  endfacet
  facet normal 0 -1 0
    outer loop
      vertex -16.7304 -21.5 3.7222
      vertex -16.5306 -21.5 3.65646
      vertex -15.9 -21.5 4.9
    endloop
  endfacet
  facet normal 0 -1 0
    outer loop
      vertex -15.9 -21.5 4.9
      vertex -16.5306 -21.5 3.65646
      vertex -15.9 -21.5 4
    endloop
  endfacet
  facet normal 0 -1 0
    outer loop
      vertex -16.5306 -21.5 3.65646
      vertex -16.3755 -21.5 3.51437
      vertex -15.9 -21.5 4
    endloop
  endfacet
  facet normal 0 -1 0
    outer loop
      vertex -16.3755 -21.5 3.51437
      vertex -15.5745 -21.5 2.38563
      vertex -15.9 -21.5 4
    endloop
  endfacet
  facet normal 0 -1 0
    outer loop
      vertex -15.9 -21.5 4
      vertex -15.5745 -21.5 2.38563
      vertex -15.4194 -21.5 2.24354
    endloop
  endfacet
  facet normal 0 -1 0
    outer loop
      vertex -5.1 -21.5 4.9
      vertex -3.54323 -21.5 6.42837
      vertex -3.66543 -21.5 6.59657
    endloop
  endfacet
  facet normal 0 -1 0
    outer loop
      vertex -5.62765 -21.5 2.21924
      vertex -5.45841 -21.5 2.34413
      vertex -5.83328 -21.5 2.175
    endloop
  endfacet
  facet normal 0 -1 0
    outer loop
      vertex -5.45841 -21.5 2.34413
      vertex -5.42552 -21.5 2.38563
      vertex -5.83328 -21.5 2.175
    endloop
  endfacet
  facet normal 0 -1 0
    outer loop
      vertex -5.83328 -21.5 2.175
      vertex -5.42552 -21.5 2.38563
      vertex -15.1667 -21.5 2.175
    endloop
  endfacet
  facet normal 0 -1 0
    outer loop
      vertex -5.42552 -21.5 2.38563
      vertex -15.9 -21.5 4
      vertex -15.1667 -21.5 2.175
    endloop
  endfacet
  facet normal 0 -1 0
    outer loop
      vertex -15.1667 -21.5 2.175
      vertex -15.9 -21.5 4
      vertex -15.2196 -21.5 2.1778
    endloop
  endfacet
  facet normal 0 -1 0
    outer loop
      vertex -15.9 -21.5 4
      vertex -15.4194 -21.5 2.24354
      vertex -15.2196 -21.5 2.1778
    endloop
  endfacet
  facet normal 0 -1 0
    outer loop
      vertex -3.66543 -21.5 6.59657
      vertex -3.84549 -21.5 6.70053
      vertex -5.1 -21.5 4.9
    endloop
  endfacet
  facet normal 0 -1 0
    outer loop
      vertex -3.84549 -21.5 6.70053
      vertex -4 -21.5 6.725
      vertex -5.1 -21.5 4.9
    endloop
  endfacet
  facet normal 0 -1 0
    outer loop
      vertex -5.1 -21.5 4.9
      vertex -4 -21.5 6.725
      vertex -15.9 -21.5 4.9
    endloop
  endfacet
  facet normal 0 -1 0
    outer loop
      vertex -4 -21.5 6.725
      vertex -17 -21.5 6.725
      vertex -15.9 -21.5 4.9
    endloop
  endfacet
  facet normal 0 -1 0
    outer loop
      vertex -15.9 -21.5 4.9
      vertex -17 -21.5 6.725
      vertex -17.2034 -21.5 6.68177
    endloop
  endfacet
  facet normal 0 -1 0
    outer loop
      vertex -5.42552 -21.5 2.38563
      vertex -4.62448 -21.5 3.51437
      vertex -5.1 -21.5 4
    endloop
  endfacet
  facet normal 0 -1 0
    outer loop
      vertex -4.62448 -21.5 3.51437
      vertex -4.59159 -21.5 3.55587
      vertex -5.1 -21.5 4
    endloop
  endfacet
  facet normal 0 -1 0
    outer loop
      vertex -5.1 -21.5 4
      vertex -4.59159 -21.5 3.55587
      vertex -5.1 -21.5 4.9
    endloop
  endfacet
  facet normal 0 -1 0
    outer loop
      vertex -4.59159 -21.5 3.55587
      vertex -4.42235 -21.5 3.68076
      vertex -5.1 -21.5 4.9
    endloop
  endfacet
  facet normal 0 -1 0
    outer loop
      vertex -5.1 -21.5 4.9
      vertex -4.42235 -21.5 3.68076
      vertex -3.54323 -21.5 6.42837
    endloop
  endfacet
  facet normal 0 -1 0
    outer loop
      vertex -4.42235 -21.5 3.68076
      vertex -4.21672 -21.5 3.725
      vertex -3.54323 -21.5 6.42837
    endloop
  endfacet
  facet normal 0 -1 0
    outer loop
      vertex -4 -21.5 3.725
      vertex -3.79663 -21.5 3.76823
      vertex -3.62843 -21.5 3.89043
    endloop
  endfacet
  facet normal 0 -1 0
    outer loop
      vertex -17.5 -21.5 4.225
      vertex -17.4568 -21.5 4.02163
      vertex -17.3346 -21.5 3.85343
    endloop
  endfacet
  facet normal 0 -1 0
    outer loop
      vertex -3.62843 -21.5 3.89043
      vertex -3.52447 -21.5 4.07049
      vertex -4 -21.5 3.725
    endloop
  endfacet
  facet normal 0 -1 0
    outer loop
      vertex -3.52447 -21.5 4.07049
      vertex -3.5 -21.5 4.225
      vertex -4 -21.5 3.725
    endloop
  endfacet
  facet normal 0 -1 0
    outer loop
      vertex -4 -21.5 3.725
      vertex -3.5 -21.5 4.225
      vertex -4.21672 -21.5 3.725
    endloop
  endfacet
  facet normal 0 -1 0
    outer loop
      vertex -3.5 -21.5 4.225
      vertex -3.5 -21.5 6.225
      vertex -4.21672 -21.5 3.725
    endloop
  endfacet
  facet normal 0 -1 0
    outer loop
      vertex -4.21672 -21.5 3.725
      vertex -3.5 -21.5 6.225
      vertex -3.54323 -21.5 6.42837
    endloop
  endfacet
  facet normal 0 -1 0
    outer loop
      vertex -17.2034 -21.5 6.68177
      vertex -17.3716 -21.5 6.55957
      vertex -15.9 -21.5 4.9
    endloop
  endfacet
  facet normal 0 -1 0
    outer loop
      vertex -17.3716 -21.5 6.55957
      vertex -17.4755 -21.5 6.37951
      vertex -15.9 -21.5 4.9
    endloop
  endfacet
  facet normal 0 -1 0
    outer loop
      vertex -15.9 -21.5 4.9
      vertex -17.4755 -21.5 6.37951
      vertex -16.7833 -21.5 3.725
    endloop
  endfacet
  facet normal 0 -1 0
    outer loop
      vertex -17.4755 -21.5 6.37951
      vertex -17.5 -21.5 6.225
      vertex -16.7833 -21.5 3.725
    endloop
  endfacet
  facet normal 0 -1 0
    outer loop
      vertex -16.7833 -21.5 3.725
      vertex -17.5 -21.5 6.225
      vertex -17 -21.5 3.725
    endloop
  endfacet
  facet normal 0 -1 0
    outer loop
      vertex -17.5 -21.5 6.225
      vertex -17.5 -21.5 4.225
      vertex -17 -21.5 3.725
    endloop
  endfacet
  facet normal 0 -1 0
    outer loop
      vertex -17 -21.5 3.725
      vertex -17.5 -21.5 4.225
      vertex -17.1545 -21.5 3.74947
    endloop
  endfacet
  facet normal 0 -1 0
    outer loop
      vertex -17.5 -21.5 4.225
      vertex -17.3346 -21.5 3.85343
      vertex -17.1545 -21.5 3.74947
    endloop
  endfacet
  facet normal 0 0 1
    outer loop
      vertex -5.83328 -21.5 2.175
      vertex -15.1667 -21.5 2.175
      vertex -5.83328 -29.5 2.175
    endloop
  endfacet
  facet normal 0 0 1
    outer loop
      vertex -15.1667 -21.5 2.175
      vertex -15.1667 -29.5 2.175
      vertex -5.83328 -29.5 2.175
    endloop
  endfacet
  facet normal 0 -1 0
    outer loop
      vertex -5.1 -28.5 4.4
      vertex -5.1 -28.5 4.5
      vertex -15.9 -28.5 4.4
    endloop
  endfacet
  facet normal 0 -1 0
    outer loop
      vertex -5.1 -28.5 4.5
      vertex -15.9 -28.5 4.5
      vertex -15.9 -28.5 4.4
    endloop
  endfacet
  facet normal 0.0523371 0 0.998629
    outer loop
      vertex -4 -18 7.125
      vertex -4 -29.5 7.125
      vertex -3.90592 -29.5 7.12007
    endloop
  endfacet
  facet normal 0.0523371 0 0.998629
    outer loop
      vertex -4 -18 7.125
      vertex -3.90592 -29.5 7.12007
      vertex -3.90592 -18 7.12007
    endloop
  endfacet
  facet normal 0.207912 0 0.978148
    outer loop
      vertex -3.90592 -29.5 7.12007
      vertex -3.72188 -29.5 7.08095
      vertex -3.90592 -18 7.12007
    endloop
  endfacet
  facet normal 0.207912 0 0.978148
    outer loop
      vertex -3.90592 -18 7.12007
      vertex -3.72188 -29.5 7.08095
      vertex -3.72188 -18 7.08095
    endloop
  endfacet
  facet normal 0.406735 0 0.913546
    outer loop
      vertex -3.72188 -29.5 7.08095
      vertex -3.55 -29.5 7.00442
      vertex -3.72188 -18 7.08095
    endloop
  endfacet
  facet normal 0.406735 0 0.913546
    outer loop
      vertex -3.72188 -18 7.08095
      vertex -3.55 -29.5 7.00442
      vertex -3.55 -18 7.00442
    endloop
  endfacet
  facet normal 0.587786 0 0.809016
    outer loop
      vertex -3.55 -29.5 7.00442
      vertex -3.39778 -29.5 6.89383
      vertex -3.55 -18 7.00442
    endloop
  endfacet
  facet normal 0.587786 0 0.809016
    outer loop
      vertex -3.55 -18 7.00442
      vertex -3.39778 -29.5 6.89383
      vertex -3.39778 -18 6.89383
    endloop
  endfacet
  facet normal 0.743145 0 0.669131
    outer loop
      vertex -3.39778 -29.5 6.89383
      vertex -3.27188 -29.5 6.75401
      vertex -3.39778 -18 6.89383
    endloop
  endfacet
  facet normal 0.743145 0 0.669131
    outer loop
      vertex -3.39778 -18 6.89383
      vertex -3.27188 -29.5 6.75401
      vertex -3.27188 -18 6.75401
    endloop
  endfacet
  facet normal 0.866025 0 0.5
    outer loop
      vertex -3.27188 -29.5 6.75401
      vertex -3.17781 -29.5 6.59106
      vertex -3.27188 -18 6.75401
    endloop
  endfacet
  facet normal 0.866025 0 0.5
    outer loop
      vertex -3.27188 -18 6.75401
      vertex -3.17781 -29.5 6.59106
      vertex -3.17781 -18 6.59106
    endloop
  endfacet
  facet normal 0.951056 0 0.309017
    outer loop
      vertex -3.17781 -29.5 6.59106
      vertex -3.11967 -29.5 6.41212
      vertex -3.17781 -18 6.59106
    endloop
  endfacet
  facet normal 0.951056 0 0.309017
    outer loop
      vertex -3.17781 -18 6.59106
      vertex -3.11967 -29.5 6.41212
      vertex -3.11967 -18 6.41212
    endloop
  endfacet
  facet normal 0.994522 0 0.104528
    outer loop
      vertex -3.11967 -29.5 6.41212
      vertex -3.1 -29.5 6.225
      vertex -3.11967 -18 6.41212
    endloop
  endfacet
  facet normal 0.994522 0 0.104528
    outer loop
      vertex -3.11967 -18 6.41212
      vertex -3.1 -29.5 6.225
      vertex -3.1 -18 6.225
    endloop
  endfacet
  facet normal 0 0 -1
    outer loop
      vertex -17 -21.5 6.725
      vertex -4 -21.5 6.725
      vertex -17 -29.5 6.725
    endloop
  endfacet
  facet normal 0 0 -1
    outer loop
      vertex -4 -21.5 6.725
      vertex -4 -29.5 6.725
      vertex -17 -29.5 6.725
    endloop
  endfacet
  facet normal 0 -0.987687 0.156441
    outer loop
      vertex -15.9 -28.5 4.5
      vertex -5.1 -28.5 4.5
      vertex -5.1 -28.4804 4.62361
    endloop
  endfacet
  facet normal 0 -0.987687 0.156441
    outer loop
      vertex -15.9 -28.5 4.5
      vertex -5.1 -28.4804 4.62361
      vertex -15.9 -28.4804 4.62361
    endloop
  endfacet
  facet normal 0 -0.80902 0.587781
    outer loop
      vertex -5.1 -28.4804 4.62361
      vertex -5.1 -28.3351 4.82361
      vertex -15.9 -28.4804 4.62361
    endloop
  endfacet
  facet normal 0 -0.80902 0.587781
    outer loop
      vertex -15.9 -28.4804 4.62361
      vertex -5.1 -28.3351 4.82361
      vertex -15.9 -28.3351 4.82361
    endloop
  endfacet
  facet normal 0 -0.309017 0.951057
    outer loop
      vertex -5.1 -28.3351 4.82361
      vertex -5.1 -28.1 4.9
      vertex -15.9 -28.3351 4.82361
    endloop
  endfacet
  facet normal 0 -0.309017 0.951057
    outer loop
      vertex -15.9 -28.3351 4.82361
      vertex -5.1 -28.1 4.9
      vertex -15.9 -28.1 4.9
    endloop
  endfacet
  facet normal 0 0 1
    outer loop
      vertex -4 -18 7.125
      vertex -17 -18 7.125
      vertex -4 -29.5 7.125
    endloop
  endfacet
  facet normal 0 0 1
    outer loop
      vertex -17 -18 7.125
      vertex -17 -29.5 7.125
      vertex -4 -29.5 7.125
    endloop
  endfacet
  facet normal -0.783718 0 0.621116
    outer loop
      vertex -4.62448 -21.5 3.51437
      vertex -4.62448 -29.5 3.51437
      vertex -4.59159 -29.5 3.55587
    endloop
  endfacet
  facet normal -0.783718 0 0.621116
    outer loop
      vertex -4.62448 -21.5 3.51437
      vertex -4.59159 -29.5 3.55587
      vertex -4.59159 -21.5 3.55587
    endloop
  endfacet
  facet normal -0.59377 0 0.804634
    outer loop
      vertex -4.59159 -29.5 3.55587
      vertex -4.42235 -29.5 3.68076
      vertex -4.59159 -21.5 3.55587
    endloop
  endfacet
  facet normal -0.59377 0 0.804634
    outer loop
      vertex -4.59159 -21.5 3.55587
      vertex -4.42235 -29.5 3.68076
      vertex -4.42235 -21.5 3.68076
    endloop
  endfacet
  facet normal -0.210329 0 0.977631
    outer loop
      vertex -4.42235 -29.5 3.68076
      vertex -4.21672 -29.5 3.725
      vertex -4.42235 -21.5 3.68076
    endloop
  endfacet
  facet normal -0.210329 0 0.977631
    outer loop
      vertex -4.42235 -21.5 3.68076
      vertex -4.21672 -29.5 3.725
      vertex -4.21672 -21.5 3.725
    endloop
  endfacet
  facet normal 0 0 1
    outer loop
      vertex -5.1 -28.1 4.9
      vertex -5.1 -21.5 4.9
      vertex -15.9 -28.1 4.9
    endloop
  endfacet
  facet normal 0 0 1
    outer loop
      vertex -5.1 -21.5 4.9
      vertex -15.9 -21.5 4.9
      vertex -15.9 -28.1 4.9
    endloop
  endfacet
  facet normal 0 0 1
    outer loop
      vertex -4 -21.5 3.725
      vertex -4.21672 -21.5 3.725
      vertex -4 -29.5 3.725
    endloop
  endfacet
  facet normal 0 0 1
    outer loop
      vertex -4.21672 -21.5 3.725
      vertex -4.21672 -29.5 3.725
      vertex -4 -29.5 3.725
    endloop
  endfacet
  facet normal -1 0 0
    outer loop
      vertex -15.9 -28.3351 4.07639
      vertex -15.9 -28.4804 4.27639
      vertex -15.9 -28.1 4
    endloop
  endfacet
  facet normal -1 0 0
    outer loop
      vertex -15.9 -28.4804 4.27639
      vertex -15.9 -28.5 4.4
      vertex -15.9 -28.1 4
    endloop
  endfacet
  facet normal -1 0 0
    outer loop
      vertex -15.9 -28.5 4.5
      vertex -15.9 -28.4804 4.62361
      vertex -15.9 -28.3351 4.82361
    endloop
  endfacet
  facet normal -1 0 0
    outer loop
      vertex -15.9 -28.3351 4.82361
      vertex -15.9 -28.1 4.9
      vertex -15.9 -28.5 4.5
    endloop
  endfacet
  facet normal -1 0 0
    outer loop
      vertex -15.9 -28.1 4.9
      vertex -15.9 -21.5 4.9
      vertex -15.9 -28.5 4.5
    endloop
  endfacet
  facet normal -1 0 0
    outer loop
      vertex -15.9 -28.5 4.5
      vertex -15.9 -21.5 4.9
      vertex -15.9 -28.5 4.4
    endloop
  endfacet
  facet normal -1 0 0
    outer loop
      vertex -15.9 -21.5 4.9
      vertex -15.9 -21.5 4
      vertex -15.9 -28.5 4.4
    endloop
  endfacet
  facet normal -1 0 0
    outer loop
      vertex -15.9 -28.5 4.4
      vertex -15.9 -21.5 4
      vertex -15.9 -28.1 4
    endloop
  endfacet
  facet normal -0.207912 0 0.978148
    outer loop
      vertex -4 -21.5 3.725
      vertex -4 -29.5 3.725
      vertex -3.79663 -21.5 3.76823
    endloop
  endfacet
  facet normal -0.207912 0 0.978148
    outer loop
      vertex -4 -29.5 3.725
      vertex -3.79663 -29.5 3.76823
      vertex -3.79663 -21.5 3.76823
    endloop
  endfacet
  facet normal -0.587785 0 0.809017
    outer loop
      vertex -3.79663 -21.5 3.76823
      vertex -3.79663 -29.5 3.76823
      vertex -3.62843 -21.5 3.89043
    endloop
  endfacet
  facet normal -0.587785 0 0.809017
    outer loop
      vertex -3.79663 -29.5 3.76823
      vertex -3.62843 -29.5 3.89043
      vertex -3.62843 -21.5 3.89043
    endloop
  endfacet
  facet normal -0.866025 0 0.5
    outer loop
      vertex -3.62843 -21.5 3.89043
      vertex -3.62843 -29.5 3.89043
      vertex -3.52447 -21.5 4.07049
    endloop
  endfacet
  facet normal -0.866025 0 0.5
    outer loop
      vertex -3.62843 -29.5 3.89043
      vertex -3.52447 -29.5 4.07049
      vertex -3.52447 -21.5 4.07049
    endloop
  endfacet
  facet normal -0.987688 0 0.156434
    outer loop
      vertex -3.52447 -21.5 4.07049
      vertex -3.52447 -29.5 4.07049
      vertex -3.5 -21.5 4.225
    endloop
  endfacet
  facet normal -0.987688 0 0.156434
    outer loop
      vertex -3.52447 -29.5 4.07049
      vertex -3.5 -29.5 4.225
      vertex -3.5 -21.5 4.225
    endloop
  endfacet
  facet normal 0 0 -1
    outer loop
      vertex -15.9 -28.1 4
      vertex -15.9 -21.5 4
      vertex -5.1 -28.1 4
    endloop
  endfacet
  facet normal 0 0 -1
    outer loop
      vertex -15.9 -21.5 4
      vertex -5.1 -21.5 4
      vertex -5.1 -28.1 4
    endloop
  endfacet
  facet normal 1 0 0
    outer loop
      vertex -17.5 -21.5 4.225
      vertex -17.5 -21.5 6.225
      vertex -17.5 -29.5 4.225
    endloop
  endfacet
  facet normal 1 0 0
    outer loop
      vertex -17.5 -21.5 6.225
      vertex -17.5 -29.5 6.225
      vertex -17.5 -29.5 4.225
    endloop
  endfacet
  facet normal 0.978147 0 0.207916
    outer loop
      vertex -17.5 -21.5 4.225
      vertex -17.5 -29.5 4.225
      vertex -17.4568 -21.5 4.02163
    endloop
  endfacet
  facet normal 0.978147 0 0.207916
    outer loop
      vertex -17.5 -29.5 4.225
      vertex -17.4568 -29.5 4.02163
      vertex -17.4568 -21.5 4.02163
    endloop
  endfacet
  facet normal 0.80902 0 0.587782
    outer loop
      vertex -17.4568 -21.5 4.02163
      vertex -17.4568 -29.5 4.02163
      vertex -17.3346 -21.5 3.85343
    endloop
  endfacet
  facet normal 0.80902 0 0.587782
    outer loop
      vertex -17.4568 -29.5 4.02163
      vertex -17.3346 -29.5 3.85343
      vertex -17.3346 -21.5 3.85343
    endloop
  endfacet
  facet normal 0.5 0 0.866025
    outer loop
      vertex -17.3346 -21.5 3.85343
      vertex -17.3346 -29.5 3.85343
      vertex -17.1545 -21.5 3.74947
    endloop
  endfacet
  facet normal 0.5 0 0.866025
    outer loop
      vertex -17.3346 -29.5 3.85343
      vertex -17.1545 -29.5 3.74947
      vertex -17.1545 -21.5 3.74947
    endloop
  endfacet
  facet normal 0.156436 0 0.987688
    outer loop
      vertex -17.1545 -21.5 3.74947
      vertex -17.1545 -29.5 3.74947
      vertex -17 -21.5 3.725
    endloop
  endfacet
  facet normal 0.156436 0 0.987688
    outer loop
      vertex -17.1545 -29.5 3.74947
      vertex -17 -29.5 3.725
      vertex -17 -21.5 3.725
    endloop
  endfacet
  facet normal 0 0 1
    outer loop
      vertex -16.7833 -21.5 3.725
      vertex -17 -21.5 3.725
      vertex -16.7833 -29.5 3.725
    endloop
  endfacet
  facet normal 0 0 1
    outer loop
      vertex -17 -21.5 3.725
      vertex -17 -29.5 3.725
      vertex -16.7833 -29.5 3.725
    endloop
  endfacet
  facet normal 0.0529523 0 0.998597
    outer loop
      vertex -16.7833 -21.5 3.725
      vertex -16.7833 -29.5 3.725
      vertex -16.7304 -29.5 3.7222
    endloop
  endfacet
  facet normal 0.0529523 0 0.998597
    outer loop
      vertex -16.7833 -21.5 3.725
      vertex -16.7304 -29.5 3.7222
      vertex -16.7304 -21.5 3.7222
    endloop
  endfacet
  facet normal 0.312542 0 0.949904
    outer loop
      vertex -16.7304 -29.5 3.7222
      vertex -16.5306 -29.5 3.65646
      vertex -16.7304 -21.5 3.7222
    endloop
  endfacet
  facet normal 0.312542 0 0.949904
    outer loop
      vertex -16.7304 -21.5 3.7222
      vertex -16.5306 -29.5 3.65646
      vertex -16.5306 -21.5 3.65646
    endloop
  endfacet
  facet normal 0.675536 0 0.737327
    outer loop
      vertex -16.5306 -29.5 3.65646
      vertex -16.3755 -29.5 3.51437
      vertex -16.5306 -21.5 3.65646
    endloop
  endfacet
  facet normal 0.675536 0 0.737327
    outer loop
      vertex -16.5306 -21.5 3.65646
      vertex -16.3755 -29.5 3.51437
      vertex -16.3755 -21.5 3.51437
    endloop
  endfacet
  facet normal 0.815507 0 0.578747
    outer loop
      vertex -15.5745 -21.5 2.38563
      vertex -16.3755 -21.5 3.51437
      vertex -15.5745 -29.5 2.38563
    endloop
  endfacet
  facet normal 0.815507 0 0.578747
    outer loop
      vertex -16.3755 -21.5 3.51437
      vertex -16.3755 -29.5 3.51437
      vertex -15.5745 -29.5 2.38563
    endloop
  endfacet
  facet normal 0.675539 0 0.737325
    outer loop
      vertex -15.5745 -21.5 2.38563
      vertex -15.5745 -29.5 2.38563
      vertex -15.4194 -21.5 2.24354
    endloop
  endfacet
  facet normal 0.675539 0 0.737325
    outer loop
      vertex -15.5745 -29.5 2.38563
      vertex -15.4194 -29.5 2.24354
      vertex -15.4194 -21.5 2.24354
    endloop
  endfacet
  facet normal 0.312542 0 0.949904
    outer loop
      vertex -15.4194 -21.5 2.24354
      vertex -15.4194 -29.5 2.24354
      vertex -15.2196 -21.5 2.1778
    endloop
  endfacet
  facet normal 0.312542 0 0.949904
    outer loop
      vertex -15.4194 -29.5 2.24354
      vertex -15.2196 -29.5 2.1778
      vertex -15.2196 -21.5 2.1778
    endloop
  endfacet
  facet normal 0.0529514 0 0.998597
    outer loop
      vertex -15.2196 -21.5 2.1778
      vertex -15.2196 -29.5 2.1778
      vertex -15.1667 -21.5 2.175
    endloop
  endfacet
  facet normal 0.0529514 0 0.998597
    outer loop
      vertex -15.2196 -29.5 2.1778
      vertex -15.1667 -29.5 2.175
      vertex -15.1667 -21.5 2.175
    endloop
  endfacet
  facet normal -0.21033 0 0.97763
    outer loop
      vertex -5.83328 -21.5 2.175
      vertex -5.83328 -29.5 2.175
      vertex -5.62765 -21.5 2.21924
    endloop
  endfacet
  facet normal -0.21033 0 0.97763
    outer loop
      vertex -5.83328 -29.5 2.175
      vertex -5.62765 -29.5 2.21924
      vertex -5.62765 -21.5 2.21924
    endloop
  endfacet
  facet normal -0.59377 0 0.804634
    outer loop
      vertex -5.62765 -21.5 2.21924
      vertex -5.62765 -29.5 2.21924
      vertex -5.45841 -21.5 2.34413
    endloop
  endfacet
  facet normal -0.59377 0 0.804634
    outer loop
      vertex -5.62765 -29.5 2.21924
      vertex -5.45841 -29.5 2.34413
      vertex -5.45841 -21.5 2.34413
    endloop
  endfacet
  facet normal -0.783714 0 0.621122
    outer loop
      vertex -5.45841 -21.5 2.34413
      vertex -5.45841 -29.5 2.34413
      vertex -5.42552 -21.5 2.38563
    endloop
  endfacet
  facet normal -0.783714 0 0.621122
    outer loop
      vertex -5.45841 -29.5 2.34413
      vertex -5.42552 -29.5 2.38563
      vertex -5.42552 -21.5 2.38563
    endloop
  endfacet
  facet normal 0 0 -1
    outer loop
      vertex -17 -24.5 3.325
      vertex -16.7833 -24.5 3.325
      vertex -17 -29.5 3.325
    endloop
  endfacet
  facet normal 0 0 -1
    outer loop
      vertex -16.7833 -24.5 3.325
      vertex -16.7833 -29.5 3.325
      vertex -17 -29.5 3.325
    endloop
  endfacet
  facet normal -0.458943 0 -0.888466
    outer loop
      vertex -16.7017 -24.5 3.28287
      vertex -16.7017 -29.5 3.28287
      vertex -16.7833 -24.5 3.325
    endloop
  endfacet
  facet normal -0.458943 0 -0.888466
    outer loop
      vertex -16.7017 -29.5 3.28287
      vertex -16.7833 -29.5 3.325
      vertex -16.7833 -24.5 3.325
    endloop
  endfacet
  facet normal -0.815507 0 -0.578748
    outer loop
      vertex -16.7017 -24.5 3.28287
      vertex -15.9007 -24.5 2.15413
      vertex -16.7017 -29.5 3.28287
    endloop
  endfacet
  facet normal -0.815507 0 -0.578748
    outer loop
      vertex -15.9007 -24.5 2.15413
      vertex -15.9007 -29.5 2.15413
      vertex -16.7017 -29.5 3.28287
    endloop
  endfacet
  facet normal -0.0529535 0 -0.998597
    outer loop
      vertex -15.1667 -24.5 1.775
      vertex -15.1667 -29.5 1.775
      vertex -15.2619 -29.5 1.78005
    endloop
  endfacet
  facet normal -0.0529535 0 -0.998597
    outer loop
      vertex -15.1667 -24.5 1.775
      vertex -15.2619 -29.5 1.78005
      vertex -15.2619 -24.5 1.78005
    endloop
  endfacet
  facet normal -0.21033 0 -0.977631
    outer loop
      vertex -15.2619 -29.5 1.78005
      vertex -15.448 -29.5 1.82009
      vertex -15.2619 -24.5 1.78005
    endloop
  endfacet
  facet normal -0.21033 0 -0.977631
    outer loop
      vertex -15.2619 -24.5 1.78005
      vertex -15.448 -29.5 1.82009
      vertex -15.448 -24.5 1.82009
    endloop
  endfacet
  facet normal -0.41125 0 -0.911523
    outer loop
      vertex -15.448 -29.5 1.82009
      vertex -15.6215 -29.5 1.89837
      vertex -15.448 -24.5 1.82009
    endloop
  endfacet
  facet normal -0.41125 0 -0.911523
    outer loop
      vertex -15.448 -24.5 1.82009
      vertex -15.6215 -29.5 1.89837
      vertex -15.6215 -24.5 1.89837
    endloop
  endfacet
  facet normal -0.59377 0 -0.804635
    outer loop
      vertex -15.6215 -29.5 1.89837
      vertex -15.7747 -29.5 2.01141
      vertex -15.6215 -24.5 1.89837
    endloop
  endfacet
  facet normal -0.59377 0 -0.804635
    outer loop
      vertex -15.6215 -24.5 1.89837
      vertex -15.7747 -29.5 2.01141
      vertex -15.7747 -24.5 2.01141
    endloop
  endfacet
  facet normal -0.749728 0 -0.661746
    outer loop
      vertex -15.7747 -29.5 2.01141
      vertex -15.9007 -29.5 2.15413
      vertex -15.7747 -24.5 2.01141
    endloop
  endfacet
  facet normal -0.749728 0 -0.661746
    outer loop
      vertex -15.7747 -24.5 2.01141
      vertex -15.9007 -29.5 2.15413
      vertex -15.9007 -24.5 2.15413
    endloop
  endfacet
  facet normal 0 0 -1
    outer loop
      vertex -15.1667 -24.5 1.775
      vertex -5.83328 -24.5 1.775
      vertex -15.1667 -29.5 1.775
    endloop
  endfacet
  facet normal 0 0 -1
    outer loop
      vertex -5.83328 -24.5 1.775
      vertex -5.83328 -29.5 1.775
      vertex -15.1667 -29.5 1.775
    endloop
  endfacet
  facet normal 0.783718 0 -0.621117
    outer loop
      vertex -5.09932 -24.5 2.15413
      vertex -5.09932 -29.5 2.15413
      vertex -5.15852 -29.5 2.07943
    endloop
  endfacet
  facet normal 0.783718 0 -0.621117
    outer loop
      vertex -5.09932 -24.5 2.15413
      vertex -5.15852 -29.5 2.07943
      vertex -5.15852 -24.5 2.07943
    endloop
  endfacet
  facet normal 0.675537 0 -0.737326
    outer loop
      vertex -5.15852 -29.5 2.07943
      vertex -5.29888 -29.5 1.95083
      vertex -5.15852 -24.5 2.07943
    endloop
  endfacet
  facet normal 0.675537 0 -0.737326
    outer loop
      vertex -5.15852 -24.5 2.07943
      vertex -5.29888 -29.5 1.95083
      vertex -5.29888 -24.5 1.95083
    endloop
  endfacet
  facet normal 0.505343 0 -0.862918
    outer loop
      vertex -5.29888 -29.5 1.95083
      vertex -5.46315 -29.5 1.85463
      vertex -5.29888 -24.5 1.95083
    endloop
  endfacet
  facet normal 0.505343 0 -0.862918
    outer loop
      vertex -5.29888 -24.5 1.95083
      vertex -5.46315 -29.5 1.85463
      vertex -5.46315 -24.5 1.85463
    endloop
  endfacet
  facet normal 0.312542 0 -0.949904
    outer loop
      vertex -5.46315 -29.5 1.85463
      vertex -5.64398 -29.5 1.79513
      vertex -5.46315 -24.5 1.85463
    endloop
  endfacet
  facet normal 0.312542 0 -0.949904
    outer loop
      vertex -5.46315 -24.5 1.85463
      vertex -5.64398 -29.5 1.79513
      vertex -5.64398 -24.5 1.79513
    endloop
  endfacet
  facet normal 0.105758 0 -0.994392
    outer loop
      vertex -5.64398 -29.5 1.79513
      vertex -5.83328 -29.5 1.775
      vertex -5.64398 -24.5 1.79513
    endloop
  endfacet
  facet normal 0.105758 0 -0.994392
    outer loop
      vertex -5.64398 -24.5 1.79513
      vertex -5.83328 -29.5 1.775
      vertex -5.83328 -24.5 1.775
    endloop
  endfacet
  facet normal 0.815507 0 -0.578747
    outer loop
      vertex -5.09932 -24.5 2.15413
      vertex -4.29827 -24.5 3.28287
      vertex -5.09932 -29.5 2.15413
    endloop
  endfacet
  facet normal 0.815507 0 -0.578747
    outer loop
      vertex -4.29827 -24.5 3.28287
      vertex -4.29827 -29.5 3.28287
      vertex -5.09932 -29.5 2.15413
    endloop
  endfacet
  facet normal 0.458941 0 -0.888467
    outer loop
      vertex -4.21672 -24.5 3.325
      vertex -4.21672 -29.5 3.325
      vertex -4.29827 -24.5 3.28287
    endloop
  endfacet
  facet normal 0.458941 0 -0.888467
    outer loop
      vertex -4.21672 -29.5 3.325
      vertex -4.29827 -29.5 3.28287
      vertex -4.29827 -24.5 3.28287
    endloop
  endfacet
  facet normal 0 0 -1
    outer loop
      vertex -4.21672 -24.5 3.325
      vertex -4 -24.5 3.325
      vertex -4.21672 -29.5 3.325
    endloop
  endfacet
  facet normal 0 0 -1
    outer loop
      vertex -4 -24.5 3.325
      vertex -4 -29.5 3.325
      vertex -4.21672 -29.5 3.325
    endloop
  endfacet
  facet normal 0.99863 0 -0.0523351
    outer loop
      vertex -3.1 -24.5 4.225
      vertex -3.1 -29.5 4.225
      vertex -3.10493 -29.5 4.13092
    endloop
  endfacet
  facet normal 0.99863 0 -0.0523351
    outer loop
      vertex -3.1 -24.5 4.225
      vertex -3.10493 -29.5 4.13092
      vertex -3.10493 -24.5 4.13092
    endloop
  endfacet
  facet normal 0.978148 0 -0.207911
    outer loop
      vertex -3.10493 -29.5 4.13092
      vertex -3.14405 -29.5 3.94688
      vertex -3.10493 -24.5 4.13092
    endloop
  endfacet
  facet normal 0.978148 0 -0.207911
    outer loop
      vertex -3.10493 -24.5 4.13092
      vertex -3.14405 -29.5 3.94688
      vertex -3.14405 -24.5 3.94688
    endloop
  endfacet
  facet normal 0.913545 0 -0.406737
    outer loop
      vertex -3.14405 -29.5 3.94688
      vertex -3.22058 -29.5 3.775
      vertex -3.14405 -24.5 3.94688
    endloop
  endfacet
  facet normal 0.913545 0 -0.406737
    outer loop
      vertex -3.14405 -24.5 3.94688
      vertex -3.22058 -29.5 3.775
      vertex -3.22058 -24.5 3.775
    endloop
  endfacet
  facet normal 0.809017 0 -0.587785
    outer loop
      vertex -3.22058 -29.5 3.775
      vertex -3.33117 -29.5 3.62278
      vertex -3.22058 -24.5 3.775
    endloop
  endfacet
  facet normal 0.809017 0 -0.587785
    outer loop
      vertex -3.22058 -24.5 3.775
      vertex -3.33117 -29.5 3.62278
      vertex -3.33117 -24.5 3.62278
    endloop
  endfacet
  facet normal 0.669131 0 -0.743145
    outer loop
      vertex -3.33117 -29.5 3.62278
      vertex -3.47099 -29.5 3.49688
      vertex -3.33117 -24.5 3.62278
    endloop
  endfacet
  facet normal 0.669131 0 -0.743145
    outer loop
      vertex -3.33117 -24.5 3.62278
      vertex -3.47099 -29.5 3.49688
      vertex -3.47099 -24.5 3.49688
    endloop
  endfacet
  facet normal 0.499999 0 -0.866026
    outer loop
      vertex -3.47099 -29.5 3.49688
      vertex -3.63394 -29.5 3.40281
      vertex -3.47099 -24.5 3.49688
    endloop
  endfacet
  facet normal 0.499999 0 -0.866026
    outer loop
      vertex -3.47099 -24.5 3.49688
      vertex -3.63394 -29.5 3.40281
      vertex -3.63394 -24.5 3.40281
    endloop
  endfacet
  facet normal 0.309017 0 -0.951056
    outer loop
      vertex -3.63394 -29.5 3.40281
      vertex -3.81288 -29.5 3.34467
      vertex -3.63394 -24.5 3.40281
    endloop
  endfacet
  facet normal 0.309017 0 -0.951056
    outer loop
      vertex -3.63394 -24.5 3.40281
      vertex -3.81288 -29.5 3.34467
      vertex -3.81288 -24.5 3.34467
    endloop
  endfacet
  facet normal 0.104529 0 -0.994522
    outer loop
      vertex -3.81288 -29.5 3.34467
      vertex -4 -29.5 3.325
      vertex -3.81288 -24.5 3.34467
    endloop
  endfacet
  facet normal 0.104529 0 -0.994522
    outer loop
      vertex -3.81288 -24.5 3.34467
      vertex -4 -29.5 3.325
      vertex -4 -24.5 3.325
    endloop
  endfacet
endsolid Onshape
