solid Onshape
  facet normal 0 0 -1
    outer loop
      vertex 0.54 -0.52 0
      vertex 8.67362e-16 0 0
      vertex 4.54 -0.52 0
    endloop
  endfacet
  facet normal 0 0 -1
    outer loop
      vertex 8.67362e-16 0 0
      vertex 5.08 -8.67362e-16 0
      vertex 4.54 -0.52 0
    endloop
  endfacet
  facet normal 0 0 -1
    outer loop
      vertex 4.54 -0.52 0
      vertex 5.08 -8.67362e-16 0
      vertex 4.54 -2.02 0
    endloop
  endfacet
  facet normal 0 0 -1
    outer loop
      vertex 5.08 -8.67362e-16 0
      vertex 5.08 -2.54 0
      vertex 4.54 -2.02 0
    endloop
  endfacet
  facet normal 0 0 -1
    outer loop
      vertex 4.54 -2.02 0
      vertex 5.08 -2.54 0
      vertex 0.54 -2.02 0
    endloop
  endfacet
  facet normal 0 0 -1
    outer loop
      vertex 5.08 -2.54 0
      vertex 0 -2.54 0
      vertex 0.54 -2.02 0
    endloop
  endfacet
  facet normal 0 0 -1
    outer loop
      vertex 0.54 -2.02 0
      vertex 0 -2.54 0
      vertex 0.54 -0.52 0
    endloop
  endfacet
  facet normal 0 0 -1
    outer loop
      vertex 0 -2.54 0
      vertex 8.67362e-16 0 0
      vertex 0.54 -0.52 0
    endloop
  endfacet
  facet normal 0 0 1
    outer loop
      vertex 0.54 -2.02 6
      vertex 0 -2.54 6
      vertex 4.54 -2.02 6
    endloop
  endfacet
  facet normal 0 0 1
    outer loop
      vertex 0 -2.54 6
      vertex 5.08 -2.54 6
      vertex 4.54 -2.02 6
    endloop
  endfacet
  facet normal 0 0 1
    outer loop
      vertex 4.54 -2.02 6
      vertex 5.08 -2.54 6
      vertex 4.54 -0.52 6
    endloop
  endfacet
  facet normal 0 0 1
    outer loop
      vertex 5.08 -2.54 6
      vertex 5.08 -8.67362e-16 6
      vertex 4.54 -0.52 6
    endloop
  endfacet
  facet normal 0 0 1
    outer loop
      vertex 4.54 -0.52 6
      vertex 5.08 -8.67362e-16 6
      vertex 0.54 -0.52 6
    endloop
  endfacet
  facet normal 0 0 1
    outer loop
      vertex 5.08 -8.67362e-16 6
      vertex 8.67362e-16 0 6
      vertex 0.54 -0.52 6
    endloop
  endfacet
  facet normal 0 0 1
    outer loop
      vertex 0.54 -0.52 6
      vertex 8.67362e-16 0 6
      vertex 0.54 -2.02 6
    endloop
  endfacet
  facet normal 0 0 1
    outer loop
      vertex 8.67362e-16 0 6
      vertex 0 -2.54 6
      vertex 0.54 -2.02 6
    endloop
  endfacet
  facet normal 1 0 0
    outer loop
      vertex 5.08 -8.67362e-16 6
      vertex 5.08 -2.54 6
      vertex 5.08 -8.67362e-16 0
    endloop
  endfacet
  facet normal 1 0 0
    outer loop
      vertex 5.08 -2.54 6
      vertex 5.08 -2.54 0
      vertex 5.08 -8.67362e-16 0
    endloop
  endfacet
  facet normal 0 1 0
    outer loop
      vertex 0.54 -2.02 6
      vertex 4.54 -2.02 6
      vertex 0.54 -2.02 0
    endloop
  endfacet
  facet normal 0 1 0
    outer loop
      vertex 4.54 -2.02 6
      vertex 4.54 -2.02 0
      vertex 0.54 -2.02 0
    endloop
  endfacet
  facet normal -1 3.41481e-16 0
    outer loop
      vertex 0 -2.54 6
      vertex 8.67362e-16 0 6
      vertex 0 -2.54 0
    endloop
  endfacet
  facet normal -1 3.41481e-16 0
    outer loop
      vertex 8.67362e-16 0 6
      vertex 8.67362e-16 0 0
      vertex 0 -2.54 0
    endloop
  endfacet
  facet normal 1.7074e-16 1 0
    outer loop
      vertex 8.67362e-16 0 6
      vertex 5.08 -8.67362e-16 6
      vertex 8.67362e-16 0 0
    endloop
  endfacet
  facet normal 1.7074e-16 1 0
    outer loop
      vertex 5.08 -8.67362e-16 6
      vertex 5.08 -8.67362e-16 0
      vertex 8.67362e-16 0 0
    endloop
  endfacet
  facet normal 0 -1 0
    outer loop
      vertex 5.08 -2.54 6
      vertex 0 -2.54 6
      vertex 5.08 -2.54 0
    endloop
  endfacet
  facet normal 0 -1 0
    outer loop
      vertex 0 -2.54 6
      vertex 0 -2.54 0
      vertex 5.08 -2.54 0
    endloop
  endfacet
  facet normal 1 0 0
    outer loop
      vertex 0.54 -0.52 6
      vertex 0.54 -2.02 6
      vertex 0.54 -0.52 0
    endloop
  endfacet
  facet normal 1 0 0
    outer loop
      vertex 0.54 -2.02 6
      vertex 0.54 -2.02 0
      vertex 0.54 -0.52 0
    endloop
  endfacet
  facet normal 0 -1 0
    outer loop
      vertex 4.54 -0.52 6
      vertex 0.54 -0.52 6
      vertex 4.54 -0.52 0
    endloop
  endfacet
  facet normal 0 -1 0
    outer loop
      vertex 0.54 -0.52 6
      vertex 0.54 -0.52 0
      vertex 4.54 -0.52 0
    endloop
  endfacet
  facet normal -1 0 0
    outer loop
      vertex 4.54 -2.02 6
      vertex 4.54 -0.52 6
      vertex 4.54 -2.02 0
    endloop
  endfacet
  facet normal -1 0 0
    outer loop
      vertex 4.54 -0.52 6
      vertex 4.54 -0.52 0
      vertex 4.54 -2.02 0
    endloop
  endfacet
endsolid Onshape
