solid Onshape
  facet normal 0 -1 0
    outer loop
      vertex 3.5 13 17
      vertex 1.5 13 17
      vertex 3.5 13 3
    endloop
  endfacet
  facet normal 0 -1 0
    outer loop
      vertex 1.5 13 17
      vertex 1.5 13 3
      vertex 3.5 13 3
    endloop
  endfacet
  facet normal 0 1 0
    outer loop
      vertex 1.5 22 3
      vertex 1.5 22 17
      vertex 3.5 22 3
    endloop
  endfacet
  facet normal 0 1 0
    outer loop
      vertex 1.5 22 17
      vertex 3.5 22 17
      vertex 3.5 22 3
    endloop
  endfacet
  facet normal 0 0 -1
    outer loop
      vertex 7 24 2
      vertex 7 11 2
      vertex 0 24 2
    endloop
  endfacet
  facet normal 0 0 -1
    outer loop
      vertex 7 11 2
      vertex 0 11 2
      vertex 0 24 2
    endloop
  endfacet
  facet normal 0 1 0
    outer loop
      vertex 0 24 17
      vertex 7 24 17
      vertex 0 24 2
    endloop
  endfacet
  facet normal 0 1 0
    outer loop
      vertex 7 24 17
      vertex 7 24 2
      vertex 0 24 2
    endloop
  endfacet
  facet normal 1 0 0
    outer loop
      vertex 3.5 22 3
      vertex 3.5 22 17
      vertex 3.5 13 3
    endloop
  endfacet
  facet normal 1 0 0
    outer loop
      vertex 3.5 22 17
      vertex 3.5 13 17
      vertex 3.5 13 3
    endloop
  endfacet
  facet normal 0 1 0
    outer loop
      vertex 1 12 17
      vertex 6 12 17
      vertex 1 12 3
    endloop
  endfacet
  facet normal 0 1 0
    outer loop
      vertex 6 12 17
      vertex 6 12 3
      vertex 1 12 3
    endloop
  endfacet
  facet normal 0 -1 0
    outer loop
      vertex 7 11 17
      vertex 0 11 17
      vertex 7 11 2
    endloop
  endfacet
  facet normal 0 -1 0
    outer loop
      vertex 0 11 17
      vertex 0 11 2
      vertex 7 11 2
    endloop
  endfacet
  facet normal -1 0 0
    outer loop
      vertex 0 11 17
      vertex 0 24 17
      vertex 0 11 2
    endloop
  endfacet
  facet normal -1 0 0
    outer loop
      vertex 0 24 17
      vertex 0 24 2
      vertex 0 11 2
    endloop
  endfacet
  facet normal 0 0 1
    outer loop
      vertex 1.5 13 3
      vertex 1 12 3
      vertex 3.5 13 3
    endloop
  endfacet
  facet normal 0 0 1
    outer loop
      vertex 1 12 3
      vertex 6 12 3
      vertex 3.5 13 3
    endloop
  endfacet
  facet normal 0 0 1
    outer loop
      vertex 3.5 13 3
      vertex 6 12 3
      vertex 3.5 22 3
    endloop
  endfacet
  facet normal 0 0 1
    outer loop
      vertex 6 12 3
      vertex 6 23 3
      vertex 3.5 22 3
    endloop
  endfacet
  facet normal 0 0 1
    outer loop
      vertex 3.5 22 3
      vertex 6 23 3
      vertex 1.5 22 3
    endloop
  endfacet
  facet normal 0 0 1
    outer loop
      vertex 6 23 3
      vertex 1 23 3
      vertex 1.5 22 3
    endloop
  endfacet
  facet normal 0 0 1
    outer loop
      vertex 1.5 22 3
      vertex 1 23 3
      vertex 1.5 13 3
    endloop
  endfacet
  facet normal 0 0 1
    outer loop
      vertex 1 23 3
      vertex 1 12 3
      vertex 1.5 13 3
    endloop
  endfacet
  facet normal 1 0 0
    outer loop
      vertex 1 23 17
      vertex 1 12 17
      vertex 1 23 3
    endloop
  endfacet
  facet normal 1 0 0
    outer loop
      vertex 1 12 17
      vertex 1 12 3
      vertex 1 23 3
    endloop
  endfacet
  facet normal 1 0 0
    outer loop
      vertex 7 24 17
      vertex 7 11 17
      vertex 7 24 2
    endloop
  endfacet
  facet normal 1 0 0
    outer loop
      vertex 7 11 17
      vertex 7 11 2
      vertex 7 24 2
    endloop
  endfacet
  facet normal 0 0 1
    outer loop
      vertex 1 12 17
      vertex 0 11 17
      vertex 6 12 17
    endloop
  endfacet
  facet normal 0 0 1
    outer loop
      vertex 0 11 17
      vertex 7 11 17
      vertex 6 12 17
    endloop
  endfacet
  facet normal 0 0 1
    outer loop
      vertex 6 12 17
      vertex 7 11 17
      vertex 6 23 17
    endloop
  endfacet
  facet normal 0 0 1
    outer loop
      vertex 7 11 17
      vertex 7 24 17
      vertex 6 23 17
    endloop
  endfacet
  facet normal 0 0 1
    outer loop
      vertex 6 23 17
      vertex 7 24 17
      vertex 1 23 17
    endloop
  endfacet
  facet normal 0 0 1
    outer loop
      vertex 7 24 17
      vertex 0 24 17
      vertex 1 23 17
    endloop
  endfacet
  facet normal 0 0 1
    outer loop
      vertex 1 23 17
      vertex 0 24 17
      vertex 1 12 17
    endloop
  endfacet
  facet normal 0 0 1
    outer loop
      vertex 0 24 17
      vertex 0 11 17
      vertex 1 12 17
    endloop
  endfacet
  facet normal -1 0 0
    outer loop
      vertex 6 12 3
      vertex 6 12 17
      vertex 6 23 3
    endloop
  endfacet
  facet normal -1 0 0
    outer loop
      vertex 6 12 17
      vertex 6 23 17
      vertex 6 23 3
    endloop
  endfacet
  facet normal 0 0 1
    outer loop
      vertex 1.5 13 17
      vertex 3.5 13 17
      vertex 1.5 22 17
    endloop
  endfacet
  facet normal 0 0 1
    outer loop
      vertex 3.5 13 17
      vertex 3.5 22 17
      vertex 1.5 22 17
    endloop
  endfacet
  facet normal -1 0 0
    outer loop
      vertex 1.5 13 17
      vertex 1.5 22 17
      vertex 1.5 13 3
    endloop
  endfacet
  facet normal -1 0 0
    outer loop
      vertex 1.5 22 17
      vertex 1.5 22 3
      vertex 1.5 13 3
    endloop
  endfacet
  facet normal 0 -1 0
    outer loop
      vertex 6 23 3
      vertex 6 23 17
      vertex 1 23 3
    endloop
  endfacet
  facet normal 0 -1 0
    outer loop
      vertex 6 23 17
      vertex 1 23 17
      vertex 1 23 3
    endloop
  endfacet
endsolid Onshape
