solid Onshape
  facet normal 0 0 -1
    outer loop
      vertex 102.1 84.46 2
      vertex 0.5 84.46 2
      vertex 102.1 87 2
    endloop
  endfacet
  facet normal 0 0 -1
    outer loop
      vertex 0.5 84.46 2
      vertex 0.5 87 2
      vertex 102.1 87 2
    endloop
  endfacet
  facet normal 0 0 1
    outer loop
      vertex 0.5 84.46 11
      vertex 102.1 84.46 11
      vertex 0.5 87 11
    endloop
  endfacet
  facet normal 0 0 1
    outer loop
      vertex 102.1 84.46 11
      vertex 102.1 87 11
      vertex 0.5 87 11
    endloop
  endfacet
  facet normal 1 0 0
    outer loop
      vertex 102.1 87 11
      vertex 102.1 84.46 11
      vertex 102.1 87 2
    endloop
  endfacet
  facet normal 1 0 0
    outer loop
      vertex 102.1 84.46 11
      vertex 102.1 84.46 2
      vertex 102.1 87 2
    endloop
  endfacet
  facet normal 0 -1 0
    outer loop
      vertex 102.1 84.46 11
      vertex 0.5 84.46 11
      vertex 102.1 84.46 2
    endloop
  endfacet
  facet normal 0 -1 0
    outer loop
      vertex 0.5 84.46 11
      vertex 0.5 84.46 2
      vertex 102.1 84.46 2
    endloop
  endfacet
  facet normal 0 1 0
    outer loop
      vertex 0.5 87 11
      vertex 102.1 87 11
      vertex 0.5 87 2
    endloop
  endfacet
  facet normal 0 1 0
    outer loop
      vertex 102.1 87 11
      vertex 102.1 87 2
      vertex 0.5 87 2
    endloop
  endfacet
  facet normal -1 0 0
    outer loop
      vertex 0.5 84.46 11
      vertex 0.5 87 11
      vertex 0.5 84.46 2
    endloop
  endfacet
  facet normal -1 0 0
    outer loop
      vertex 0.5 87 11
      vertex 0.5 87 2
      vertex 0.5 84.46 2
    endloop
  endfacet
endsolid Onshape
