solid Onshape
  facet normal 0 0 -1
    outer loop
      vertex 88.5 11 2
      vertex 82.5 11 2
      vertex 88.5 17 2
    endloop
  endfacet
  facet normal 0 0 -1
    outer loop
      vertex 82.5 11 2
      vertex 82.5 17 2
      vertex 88.5 17 2
    endloop
  endfacet
  facet normal 0 0 1
    outer loop
      vertex 82.5 11 6
      vertex 88.5 11 6
      vertex 82.5 17 6
    endloop
  endfacet
  facet normal 0 0 1
    outer loop
      vertex 88.5 11 6
      vertex 88.5 17 6
      vertex 82.5 17 6
    endloop
  endfacet
  facet normal 1 0 0
    outer loop
      vertex 88.5 17 6
      vertex 88.5 11 6
      vertex 88.5 17 2
    endloop
  endfacet
  facet normal 1 0 0
    outer loop
      vertex 88.5 11 6
      vertex 88.5 11 2
      vertex 88.5 17 2
    endloop
  endfacet
  facet normal 0 -1 0
    outer loop
      vertex 88.5 11 6
      vertex 82.5 11 6
      vertex 88.5 11 2
    endloop
  endfacet
  facet normal 0 -1 0
    outer loop
      vertex 82.5 11 6
      vertex 82.5 11 2
      vertex 88.5 11 2
    endloop
  endfacet
  facet normal 0 1 0
    outer loop
      vertex 82.5 17 6
      vertex 88.5 17 6
      vertex 82.5 17 2
    endloop
  endfacet
  facet normal 0 1 0
    outer loop
      vertex 88.5 17 6
      vertex 88.5 17 2
      vertex 82.5 17 2
    endloop
  endfacet
  facet normal -1 0 0
    outer loop
      vertex 82.5 11 6
      vertex 82.5 17 6
      vertex 82.5 11 2
    endloop
  endfacet
  facet normal -1 0 0
    outer loop
      vertex 82.5 17 6
      vertex 82.5 17 2
      vertex 82.5 11 2
    endloop
  endfacet
endsolid Onshape
