solid Onshape
  facet normal 0 0 -1
    outer loop
      vertex 16.04 0.5 2
      vertex 13.5 0.5 2
      vertex 16.04 3.04 2
    endloop
  endfacet
  facet normal 0 0 -1
    outer loop
      vertex 13.5 0.5 2
      vertex 13.5 3.04 2
      vertex 16.04 3.04 2
    endloop
  endfacet
  facet normal 0 0 1
    outer loop
      vertex 13.5 0.5 4.5
      vertex 16.04 0.5 4.5
      vertex 13.5 3.04 4.5
    endloop
  endfacet
  facet normal 0 0 1
    outer loop
      vertex 16.04 0.5 4.5
      vertex 16.04 3.04 4.5
      vertex 13.5 3.04 4.5
    endloop
  endfacet
  facet normal 1 0 0
    outer loop
      vertex 16.04 3.04 4.5
      vertex 16.04 0.5 4.5
      vertex 16.04 3.04 2
    endloop
  endfacet
  facet normal 1 0 0
    outer loop
      vertex 16.04 0.5 4.5
      vertex 16.04 0.5 2
      vertex 16.04 3.04 2
    endloop
  endfacet
  facet normal 0 -1 0
    outer loop
      vertex 16.04 0.5 4.5
      vertex 13.5 0.5 4.5
      vertex 16.04 0.5 2
    endloop
  endfacet
  facet normal 0 -1 0
    outer loop
      vertex 13.5 0.5 4.5
      vertex 13.5 0.5 2
      vertex 16.04 0.5 2
    endloop
  endfacet
  facet normal 0 1 0
    outer loop
      vertex 13.5 3.04 4.5
      vertex 16.04 3.04 4.5
      vertex 13.5 3.04 2
    endloop
  endfacet
  facet normal 0 1 0
    outer loop
      vertex 16.04 3.04 4.5
      vertex 16.04 3.04 2
      vertex 13.5 3.04 2
    endloop
  endfacet
  facet normal -1 0 0
    outer loop
      vertex 13.5 0.5 4.5
      vertex 13.5 3.04 4.5
      vertex 13.5 0.5 2
    endloop
  endfacet
  facet normal -1 0 0
    outer loop
      vertex 13.5 3.04 4.5
      vertex 13.5 3.04 2
      vertex 13.5 0.5 2
    endloop
  endfacet
endsolid Onshape
