solid Onshape
  facet normal 0 0 -1
    outer loop
      vertex 35.5 43.5 2
      vertex 42.5 43.5 2
      vertex 35.5 36.5 2
    endloop
  endfacet
  facet normal 0 0 -1
    outer loop
      vertex 42.5 43.5 2
      vertex 42.5 36.5 2
      vertex 35.5 36.5 2
    endloop
  endfacet
  facet normal 0 0 1
    outer loop
      vertex 42.5 43.5 3
      vertex 35.5 43.5 3
      vertex 42.5 36.5 3
    endloop
  endfacet
  facet normal 0 0 1
    outer loop
      vertex 35.5 43.5 3
      vertex 35.5 36.5 3
      vertex 42.5 36.5 3
    endloop
  endfacet
  facet normal -1 0 0
    outer loop
      vertex 35.5 36.5 3
      vertex 35.5 43.5 3
      vertex 35.5 36.5 2
    endloop
  endfacet
  facet normal -1 0 0
    outer loop
      vertex 35.5 43.5 3
      vertex 35.5 43.5 2
      vertex 35.5 36.5 2
    endloop
  endfacet
  facet normal 0 1 0
    outer loop
      vertex 35.5 43.5 3
      vertex 42.5 43.5 3
      vertex 35.5 43.5 2
    endloop
  endfacet
  facet normal 0 1 0
    outer loop
      vertex 42.5 43.5 3
      vertex 42.5 43.5 2
      vertex 35.5 43.5 2
    endloop
  endfacet
  facet normal 0 -1 0
    outer loop
      vertex 42.5 36.5 3
      vertex 35.5 36.5 3
      vertex 42.5 36.5 2
    endloop
  endfacet
  facet normal 0 -1 0
    outer loop
      vertex 35.5 36.5 3
      vertex 35.5 36.5 2
      vertex 42.5 36.5 2
    endloop
  endfacet
  facet normal 1 0 0
    outer loop
      vertex 42.5 43.5 3
      vertex 42.5 36.5 3
      vertex 42.5 43.5 2
    endloop
  endfacet
  facet normal 1 0 0
    outer loop
      vertex 42.5 36.5 3
      vertex 42.5 36.5 2
      vertex 42.5 43.5 2
    endloop
  endfacet
endsolid Onshape
