solid Onshape
  facet normal 0 0 -1
    outer loop
      vertex 1 -6.25 1.2
      vertex 4 -6.25 1.2
      vertex 1 -26.75 1.2
    endloop
  endfacet
  facet normal 0 0 -1
    outer loop
      vertex 4 -6.25 1.2
      vertex 4 -26.75 1.2
      vertex 1 -26.75 1.2
    endloop
  endfacet
  facet normal 1 0 0
    outer loop
      vertex 4 -26.75 1.2
      vertex 4 -6.25 1.2
      vertex 4 -26.75 6.7
    endloop
  endfacet
  facet normal 1 0 0
    outer loop
      vertex 4 -6.25 1.2
      vertex 4 -6.25 6.7
      vertex 4 -26.75 6.7
    endloop
  endfacet
  facet normal 0 1 0
    outer loop
      vertex 4 -6.25 1.2
      vertex 1 -6.25 1.2
      vertex 4 -6.25 6.7
    endloop
  endfacet
  facet normal 0 1 0
    outer loop
      vertex 1 -6.25 1.2
      vertex 1 -6.25 6.7
      vertex 4 -6.25 6.7
    endloop
  endfacet
  facet normal -1 0 0
    outer loop
      vertex 1 -26.75 6.7
      vertex 1 -24.65 6.7
      vertex 1 -26.75 1.2
    endloop
  endfacet
  facet normal -1 0 0
    outer loop
      vertex 1 -24.65 6.7
      vertex 1 -24.45 6.7
      vertex 1 -26.75 1.2
    endloop
  endfacet
  facet normal -1 0 0
    outer loop
      vertex 1 -26.75 1.2
      vertex 1 -24.45 6.7
      vertex 1 -6.25 1.2
    endloop
  endfacet
  facet normal -1 0 0
    outer loop
      vertex 1 -24.45 7.7
      vertex 1 -8.55 7.7
      vertex 1 -24.45 6.7
    endloop
  endfacet
  facet normal -1 0 0
    outer loop
      vertex 1 -8.55 7.7
      vertex 1 -8.55 6.7
      vertex 1 -24.45 6.7
    endloop
  endfacet
  facet normal -1 0 0
    outer loop
      vertex 1 -24.45 6.7
      vertex 1 -8.55 6.7
      vertex 1 -6.25 1.2
    endloop
  endfacet
  facet normal -1 0 0
    outer loop
      vertex 1 -8.55 6.7
      vertex 1 -8.35 6.7
      vertex 1 -6.25 1.2
    endloop
  endfacet
  facet normal -1 0 0
    outer loop
      vertex 1 -6.25 1.2
      vertex 1 -8.35 6.7
      vertex 1 -6.25 6.7
    endloop
  endfacet
  facet normal 0 -1 0
    outer loop
      vertex 1 -26.75 1.2
      vertex 4 -26.75 1.2
      vertex 1 -26.75 6.7
    endloop
  endfacet
  facet normal 0 -1 0
    outer loop
      vertex 4 -26.75 1.2
      vertex 4 -26.75 6.7
      vertex 1 -26.75 6.7
    endloop
  endfacet
  facet normal 0 0 -1
    outer loop
      vertex 0.95 -24.65 6.7
      vertex 1 -24.65 6.7
      vertex 1 -26.75 6.7
    endloop
  endfacet
  facet normal 0 0 -1
    outer loop
      vertex 4.1 -10.1 6.7
      vertex 4 -26.75 6.7
      vertex 4 -6.25 6.7
    endloop
  endfacet
  facet normal 0 0 -1
    outer loop
      vertex 1 -8.35 6.7
      vertex 0.95 -8.35 6.7
      vertex 1 -6.25 6.7
    endloop
  endfacet
  facet normal 0 0 -1
    outer loop
      vertex 0.95 -8.35 6.7
      vertex 0.95 -5.35 6.7
      vertex 1 -6.25 6.7
    endloop
  endfacet
  facet normal 0 0 -1
    outer loop
      vertex 1 -6.25 6.7
      vertex 0.95 -5.35 6.7
      vertex 4 -6.25 6.7
    endloop
  endfacet
  facet normal 0 0 -1
    outer loop
      vertex 0.95 -5.35 6.7
      vertex 4.1 -5.35 6.7
      vertex 4 -6.25 6.7
    endloop
  endfacet
  facet normal 0 0 -1
    outer loop
      vertex 4 -6.25 6.7
      vertex 4.1 -5.35 6.7
      vertex 4.1 -10.1 6.7
    endloop
  endfacet
  facet normal 0 0 -1
    outer loop
      vertex 4.95 -10.95 6.7
      vertex 4.95 -22.05 6.7
      vertex 4.1 -10.1 6.7
    endloop
  endfacet
  facet normal 0 0 -1
    outer loop
      vertex 4.95 -22.05 6.7
      vertex 4.1 -22.9 6.7
      vertex 4.1 -10.1 6.7
    endloop
  endfacet
  facet normal 0 0 -1
    outer loop
      vertex 4.1 -10.1 6.7
      vertex 4.1 -22.9 6.7
      vertex 4 -26.75 6.7
    endloop
  endfacet
  facet normal 0 0 -1
    outer loop
      vertex 4.1 -22.9 6.7
      vertex 4.1 -27.65 6.7
      vertex 4 -26.75 6.7
    endloop
  endfacet
  facet normal 0 0 -1
    outer loop
      vertex 4 -26.75 6.7
      vertex 4.1 -27.65 6.7
      vertex 1 -26.75 6.7
    endloop
  endfacet
  facet normal 0 0 -1
    outer loop
      vertex 4.1 -27.65 6.7
      vertex 0.95 -27.65 6.7
      vertex 1 -26.75 6.7
    endloop
  endfacet
  facet normal 0 0 -1
    outer loop
      vertex 1 -26.75 6.7
      vertex 0.95 -27.65 6.7
      vertex 0.95 -24.65 6.7
    endloop
  endfacet
  facet normal 0 0 1
    outer loop
      vertex 1 -24.45 6.7
      vertex 1 -24.65 6.7
      vertex 2.45 -24.45 6.7
    endloop
  endfacet
  facet normal 0 0 1
    outer loop
      vertex 1 -24.65 6.7
      vertex 2.65 -24.65 6.7
      vertex 2.45 -24.45 6.7
    endloop
  endfacet
  facet normal 0 0 1
    outer loop
      vertex 2.45 -24.45 6.7
      vertex 2.65 -24.65 6.7
      vertex 2.45 -8.55 6.7
    endloop
  endfacet
  facet normal 0 0 1
    outer loop
      vertex 2.65 -24.65 6.7
      vertex 2.65 -8.35 6.7
      vertex 2.45 -8.55 6.7
    endloop
  endfacet
  facet normal 0 0 1
    outer loop
      vertex 2.45 -8.55 6.7
      vertex 2.65 -8.35 6.7
      vertex 1 -8.55 6.7
    endloop
  endfacet
  facet normal 0 0 1
    outer loop
      vertex 2.65 -8.35 6.7
      vertex 1 -8.35 6.7
      vertex 1 -8.55 6.7
    endloop
  endfacet
  facet normal 0 -1 0
    outer loop
      vertex 1.45 -24.45 7.7
      vertex 1 -24.45 7.7
      vertex 2.45 -24.45 6.7
    endloop
  endfacet
  facet normal 0 -1 0
    outer loop
      vertex 1 -24.45 7.7
      vertex 1 -24.45 6.7
      vertex 2.45 -24.45 6.7
    endloop
  endfacet
  facet normal -1 0 0
    outer loop
      vertex 0.95 -27.65 7.7
      vertex 0.95 -24.65 7.7
      vertex 0.95 -27.65 6.7
    endloop
  endfacet
  facet normal -1 0 0
    outer loop
      vertex 0.95 -24.65 7.7
      vertex 0.95 -24.65 6.7
      vertex 0.95 -27.65 6.7
    endloop
  endfacet
  facet normal 0 1 0
    outer loop
      vertex 0.95 -24.65 6.7
      vertex 0.95 -24.65 7.7
      vertex 1 -24.65 6.7
    endloop
  endfacet
  facet normal 0 1 0
    outer loop
      vertex 0.95 -24.65 7.7
      vertex 2.65 -24.65 7.7
      vertex 1 -24.65 6.7
    endloop
  endfacet
  facet normal 0 1 0
    outer loop
      vertex 1 -24.65 6.7
      vertex 2.65 -24.65 7.7
      vertex 2.65 -24.65 6.7
    endloop
  endfacet
  facet normal 0 -1 0
    outer loop
      vertex 4.1 -27.65 7.7
      vertex 0.95 -27.65 7.7
      vertex 4.1 -27.65 6.7
    endloop
  endfacet
  facet normal 0 -1 0
    outer loop
      vertex 0.95 -27.65 7.7
      vertex 0.95 -27.65 6.7
      vertex 4.1 -27.65 6.7
    endloop
  endfacet
  facet normal 0 0 1
    outer loop
      vertex 2.65 -24.65 7.7
      vertex 0.95 -24.65 7.7
      vertex 0.95 -27.65 7.7
    endloop
  endfacet
  facet normal 0 0 1
    outer loop
      vertex 0.95 -27.65 7.7
      vertex 4.1 -27.65 7.7
      vertex 2.65 -24.65 7.7
    endloop
  endfacet
  facet normal 0 0 1
    outer loop
      vertex 4.1 -27.65 7.7
      vertex 4.1 -22.9 7.7
      vertex 2.65 -24.65 7.7
    endloop
  endfacet
  facet normal 0 0 1
    outer loop
      vertex 2.65 -24.65 7.7
      vertex 4.1 -22.9 7.7
      vertex 2.65 -8.35 7.7
    endloop
  endfacet
  facet normal 0 0 1
    outer loop
      vertex 0.95 -5.35 7.7
      vertex 0.95 -8.35 7.7
      vertex 4.1 -5.35 7.7
    endloop
  endfacet
  facet normal 0 0 1
    outer loop
      vertex 0.95 -8.35 7.7
      vertex 2.65 -8.35 7.7
      vertex 4.1 -5.35 7.7
    endloop
  endfacet
  facet normal 0 0 1
    outer loop
      vertex 4.1 -5.35 7.7
      vertex 2.65 -8.35 7.7
      vertex 4.1 -10.1 7.7
    endloop
  endfacet
  facet normal 0 0 1
    outer loop
      vertex 2.65 -8.35 7.7
      vertex 4.1 -22.9 7.7
      vertex 4.1 -10.1 7.7
    endloop
  endfacet
  facet normal 0 0 1
    outer loop
      vertex 4.1 -10.1 7.7
      vertex 4.1 -22.9 7.7
      vertex 4.95 -10.95 7.7
    endloop
  endfacet
  facet normal 0 0 1
    outer loop
      vertex 4.1 -22.9 7.7
      vertex 4.95 -22.05 7.7
      vertex 4.95 -10.95 7.7
    endloop
  endfacet
  facet normal 0.707107 0 0.707107
    outer loop
      vertex 2.45 -8.55 6.7
      vertex 1.45 -8.55 7.7
      vertex 2.45 -24.45 6.7
    endloop
  endfacet
  facet normal 0.707107 0 0.707107
    outer loop
      vertex 1.45 -8.55 7.7
      vertex 1.45 -24.45 7.7
      vertex 2.45 -24.45 6.7
    endloop
  endfacet
  facet normal -1 0 0
    outer loop
      vertex 2.65 -24.65 7.7
      vertex 2.65 -8.35 7.7
      vertex 2.65 -24.65 6.7
    endloop
  endfacet
  facet normal -1 0 0
    outer loop
      vertex 2.65 -8.35 7.7
      vertex 2.65 -8.35 6.7
      vertex 2.65 -24.65 6.7
    endloop
  endfacet
  facet normal 1 0 0
    outer loop
      vertex 4.1 -22.9 7.7
      vertex 4.1 -27.65 7.7
      vertex 4.1 -22.9 6.7
    endloop
  endfacet
  facet normal 1 0 0
    outer loop
      vertex 4.1 -27.65 7.7
      vertex 4.1 -27.65 6.7
      vertex 4.1 -22.9 6.7
    endloop
  endfacet
  facet normal 0.707107 -0.707107 0
    outer loop
      vertex 4.95 -22.05 7.7
      vertex 4.1 -22.9 7.7
      vertex 4.95 -22.05 6.7
    endloop
  endfacet
  facet normal 0.707107 -0.707107 0
    outer loop
      vertex 4.1 -22.9 7.7
      vertex 4.1 -22.9 6.7
      vertex 4.95 -22.05 6.7
    endloop
  endfacet
  facet normal 1 0 0
    outer loop
      vertex 4.95 -10.95 7.7
      vertex 4.95 -22.05 7.7
      vertex 4.95 -10.95 6.7
    endloop
  endfacet
  facet normal 1 0 0
    outer loop
      vertex 4.95 -22.05 7.7
      vertex 4.95 -22.05 6.7
      vertex 4.95 -10.95 6.7
    endloop
  endfacet
  facet normal 0.707107 0.707107 0
    outer loop
      vertex 4.1 -10.1 7.7
      vertex 4.95 -10.95 7.7
      vertex 4.1 -10.1 6.7
    endloop
  endfacet
  facet normal 0.707107 0.707107 0
    outer loop
      vertex 4.95 -10.95 7.7
      vertex 4.95 -10.95 6.7
      vertex 4.1 -10.1 6.7
    endloop
  endfacet
  facet normal 1 0 0
    outer loop
      vertex 4.1 -5.35 7.7
      vertex 4.1 -10.1 7.7
      vertex 4.1 -5.35 6.7
    endloop
  endfacet
  facet normal 1 0 0
    outer loop
      vertex 4.1 -10.1 7.7
      vertex 4.1 -10.1 6.7
      vertex 4.1 -5.35 6.7
    endloop
  endfacet
  facet normal 0 1 0
    outer loop
      vertex 0.95 -5.35 7.7
      vertex 4.1 -5.35 7.7
      vertex 0.95 -5.35 6.7
    endloop
  endfacet
  facet normal 0 1 0
    outer loop
      vertex 4.1 -5.35 7.7
      vertex 4.1 -5.35 6.7
      vertex 0.95 -5.35 6.7
    endloop
  endfacet
  facet normal -1 0 0
    outer loop
      vertex 0.95 -8.35 7.7
      vertex 0.95 -5.35 7.7
      vertex 0.95 -8.35 6.7
    endloop
  endfacet
  facet normal -1 0 0
    outer loop
      vertex 0.95 -5.35 7.7
      vertex 0.95 -5.35 6.7
      vertex 0.95 -8.35 6.7
    endloop
  endfacet
  facet normal 0 -1 0
    outer loop
      vertex 2.65 -8.35 6.7
      vertex 2.65 -8.35 7.7
      vertex 1 -8.35 6.7
    endloop
  endfacet
  facet normal 0 -1 0
    outer loop
      vertex 2.65 -8.35 7.7
      vertex 0.95 -8.35 7.7
      vertex 1 -8.35 6.7
    endloop
  endfacet
  facet normal 0 -1 0
    outer loop
      vertex 1 -8.35 6.7
      vertex 0.95 -8.35 7.7
      vertex 0.95 -8.35 6.7
    endloop
  endfacet
  facet normal 0 1 0
    outer loop
      vertex 2.45 -8.55 6.7
      vertex 1 -8.55 6.7
      vertex 1.45 -8.55 7.7
    endloop
  endfacet
  facet normal 0 1 0
    outer loop
      vertex 1 -8.55 6.7
      vertex 1 -8.55 7.7
      vertex 1.45 -8.55 7.7
    endloop
  endfacet
  facet normal 0 0 1
    outer loop
      vertex 1.45 -8.55 7.7
      vertex 1 -8.55 7.7
      vertex 1.45 -24.45 7.7
    endloop
  endfacet
  facet normal 0 0 1
    outer loop
      vertex 1 -8.55 7.7
      vertex 1 -24.45 7.7
      vertex 1.45 -24.45 7.7
    endloop
  endfacet
endsolid Onshape
