solid Onshape
  facet normal 0 0 -1
    outer loop
      vertex -37.3 10.25 1.2
      vertex -37.3 -10.25 1.2
      vertex -40.3 10.25 1.2
    endloop
  endfacet
  facet normal 0 0 -1
    outer loop
      vertex -37.3 -10.25 1.2
      vertex -40.3 -10.25 1.2
      vertex -40.3 10.25 1.2
    endloop
  endfacet
  facet normal 1 0 0
    outer loop
      vertex -37.3 10.25 6.7
      vertex -37.3 8.15 6.7
      vertex -37.3 10.25 1.2
    endloop
  endfacet
  facet normal 1 0 0
    outer loop
      vertex -37.3 8.15 6.7
      vertex -37.3 7.95 6.7
      vertex -37.3 10.25 1.2
    endloop
  endfacet
  facet normal 1 0 0
    outer loop
      vertex -37.3 10.25 1.2
      vertex -37.3 7.95 6.7
      vertex -37.3 -10.25 1.2
    endloop
  endfacet
  facet normal 1 0 0
    outer loop
      vertex -37.3 7.95 7.7
      vertex -37.3 -7.95 7.7
      vertex -37.3 7.95 6.7
    endloop
  endfacet
  facet normal 1 0 0
    outer loop
      vertex -37.3 -7.95 7.7
      vertex -37.3 -7.95 6.7
      vertex -37.3 7.95 6.7
    endloop
  endfacet
  facet normal 1 0 0
    outer loop
      vertex -37.3 7.95 6.7
      vertex -37.3 -7.95 6.7
      vertex -37.3 -10.25 1.2
    endloop
  endfacet
  facet normal 1 0 0
    outer loop
      vertex -37.3 -7.95 6.7
      vertex -37.3 -8.15 6.7
      vertex -37.3 -10.25 1.2
    endloop
  endfacet
  facet normal 1 0 0
    outer loop
      vertex -37.3 -10.25 1.2
      vertex -37.3 -8.15 6.7
      vertex -37.3 -10.25 6.7
    endloop
  endfacet
  facet normal -1 0 0
    outer loop
      vertex -40.3 -10.25 6.7
      vertex -40.3 10.25 6.7
      vertex -40.3 -10.25 1.2
    endloop
  endfacet
  facet normal -1 0 0
    outer loop
      vertex -40.3 10.25 6.7
      vertex -40.3 10.25 1.2
      vertex -40.3 -10.25 1.2
    endloop
  endfacet
  facet normal 0 -1 0
    outer loop
      vertex -37.3 -10.25 6.7
      vertex -40.3 -10.25 6.7
      vertex -37.3 -10.25 1.2
    endloop
  endfacet
  facet normal 0 -1 0
    outer loop
      vertex -40.3 -10.25 6.7
      vertex -40.3 -10.25 1.2
      vertex -37.3 -10.25 1.2
    endloop
  endfacet
  facet normal 0 1 0
    outer loop
      vertex -40.3 10.25 6.7
      vertex -37.3 10.25 6.7
      vertex -40.3 10.25 1.2
    endloop
  endfacet
  facet normal 0 1 0
    outer loop
      vertex -37.3 10.25 6.7
      vertex -37.3 10.25 1.2
      vertex -40.3 10.25 1.2
    endloop
  endfacet
  facet normal 0 0 -1
    outer loop
      vertex -37.25 8.15 6.7
      vertex -37.3 8.15 6.7
      vertex -37.3 10.25 6.7
    endloop
  endfacet
  facet normal 0 0 -1
    outer loop
      vertex -40.4 -6.45 6.7
      vertex -40.3 10.25 6.7
      vertex -40.3 -10.25 6.7
    endloop
  endfacet
  facet normal 0 0 -1
    outer loop
      vertex -37.3 -8.15 6.7
      vertex -37.25 -8.15 6.7
      vertex -37.3 -10.25 6.7
    endloop
  endfacet
  facet normal 0 0 -1
    outer loop
      vertex -37.25 -8.15 6.7
      vertex -37.25 -11.15 6.7
      vertex -37.3 -10.25 6.7
    endloop
  endfacet
  facet normal 0 0 -1
    outer loop
      vertex -37.3 -10.25 6.7
      vertex -37.25 -11.15 6.7
      vertex -40.3 -10.25 6.7
    endloop
  endfacet
  facet normal 0 0 -1
    outer loop
      vertex -37.25 -11.15 6.7
      vertex -40.4 -11.15 6.7
      vertex -40.3 -10.25 6.7
    endloop
  endfacet
  facet normal 0 0 -1
    outer loop
      vertex -40.3 -10.25 6.7
      vertex -40.4 -11.15 6.7
      vertex -40.4 -6.45 6.7
    endloop
  endfacet
  facet normal 0 0 -1
    outer loop
      vertex -41.3 -5.55 6.7
      vertex -41.3 5.55 6.7
      vertex -40.4 -6.45 6.7
    endloop
  endfacet
  facet normal 0 0 -1
    outer loop
      vertex -41.3 5.55 6.7
      vertex -40.4 6.45 6.7
      vertex -40.4 -6.45 6.7
    endloop
  endfacet
  facet normal 0 0 -1
    outer loop
      vertex -40.4 -6.45 6.7
      vertex -40.4 6.45 6.7
      vertex -40.3 10.25 6.7
    endloop
  endfacet
  facet normal 0 0 -1
    outer loop
      vertex -40.4 6.45 6.7
      vertex -40.4 11.15 6.7
      vertex -40.3 10.25 6.7
    endloop
  endfacet
  facet normal 0 0 -1
    outer loop
      vertex -40.3 10.25 6.7
      vertex -40.4 11.15 6.7
      vertex -37.3 10.25 6.7
    endloop
  endfacet
  facet normal 0 0 -1
    outer loop
      vertex -40.4 11.15 6.7
      vertex -37.25 11.15 6.7
      vertex -37.3 10.25 6.7
    endloop
  endfacet
  facet normal 0 0 -1
    outer loop
      vertex -37.3 10.25 6.7
      vertex -37.25 11.15 6.7
      vertex -37.25 8.15 6.7
    endloop
  endfacet
  facet normal 0 0 1
    outer loop
      vertex -37.3 7.95 6.7
      vertex -37.3 8.15 6.7
      vertex -38.8 7.95 6.7
    endloop
  endfacet
  facet normal 0 0 1
    outer loop
      vertex -37.3 8.15 6.7
      vertex -39 8.15 6.7
      vertex -38.8 7.95 6.7
    endloop
  endfacet
  facet normal 0 0 1
    outer loop
      vertex -38.8 7.95 6.7
      vertex -39 8.15 6.7
      vertex -38.8 -7.95 6.7
    endloop
  endfacet
  facet normal 0 0 1
    outer loop
      vertex -39 8.15 6.7
      vertex -39 -8.15 6.7
      vertex -38.8 -7.95 6.7
    endloop
  endfacet
  facet normal 0 0 1
    outer loop
      vertex -38.8 -7.95 6.7
      vertex -39 -8.15 6.7
      vertex -37.3 -7.95 6.7
    endloop
  endfacet
  facet normal 0 0 1
    outer loop
      vertex -39 -8.15 6.7
      vertex -37.3 -8.15 6.7
      vertex -37.3 -7.95 6.7
    endloop
  endfacet
  facet normal 0 1 0
    outer loop
      vertex -37.8 7.95 7.7
      vertex -37.3 7.95 7.7
      vertex -38.8 7.95 6.7
    endloop
  endfacet
  facet normal 0 1 0
    outer loop
      vertex -37.3 7.95 7.7
      vertex -37.3 7.95 6.7
      vertex -38.8 7.95 6.7
    endloop
  endfacet
  facet normal 0 1 0
    outer loop
      vertex -40.4 11.15 7.7
      vertex -37.25 11.15 7.7
      vertex -40.4 11.15 6.7
    endloop
  endfacet
  facet normal 0 1 0
    outer loop
      vertex -37.25 11.15 7.7
      vertex -37.25 11.15 6.7
      vertex -40.4 11.15 6.7
    endloop
  endfacet
  facet normal 1 0 0
    outer loop
      vertex -37.25 8.15 6.7
      vertex -37.25 11.15 6.7
      vertex -37.25 8.15 7.7
    endloop
  endfacet
  facet normal 1 0 0
    outer loop
      vertex -37.25 11.15 6.7
      vertex -37.25 11.15 7.7
      vertex -37.25 8.15 7.7
    endloop
  endfacet
  facet normal 0 -1 0
    outer loop
      vertex -37.25 8.15 6.7
      vertex -37.25 8.15 7.7
      vertex -37.3 8.15 6.7
    endloop
  endfacet
  facet normal 0 -1 0
    outer loop
      vertex -37.25 8.15 7.7
      vertex -39 8.15 7.7
      vertex -37.3 8.15 6.7
    endloop
  endfacet
  facet normal 0 -1 0
    outer loop
      vertex -37.3 8.15 6.7
      vertex -39 8.15 7.7
      vertex -39 8.15 6.7
    endloop
  endfacet
  facet normal 0 0 1
    outer loop
      vertex -39 8.15 7.7
      vertex -37.25 8.15 7.7
      vertex -37.25 11.15 7.7
    endloop
  endfacet
  facet normal 0 0 1
    outer loop
      vertex -37.25 11.15 7.7
      vertex -40.4 11.15 7.7
      vertex -39 8.15 7.7
    endloop
  endfacet
  facet normal 0 0 1
    outer loop
      vertex -40.4 11.15 7.7
      vertex -40.4 6.45 7.7
      vertex -39 8.15 7.7
    endloop
  endfacet
  facet normal 0 0 1
    outer loop
      vertex -39 8.15 7.7
      vertex -40.4 6.45 7.7
      vertex -39 -8.15 7.7
    endloop
  endfacet
  facet normal 0 0 1
    outer loop
      vertex -37.25 -11.15 7.7
      vertex -37.25 -8.15 7.7
      vertex -40.4 -11.15 7.7
    endloop
  endfacet
  facet normal 0 0 1
    outer loop
      vertex -37.25 -8.15 7.7
      vertex -39 -8.15 7.7
      vertex -40.4 -11.15 7.7
    endloop
  endfacet
  facet normal 0 0 1
    outer loop
      vertex -40.4 -11.15 7.7
      vertex -39 -8.15 7.7
      vertex -40.4 -6.45 7.7
    endloop
  endfacet
  facet normal 0 0 1
    outer loop
      vertex -39 -8.15 7.7
      vertex -40.4 6.45 7.7
      vertex -40.4 -6.45 7.7
    endloop
  endfacet
  facet normal 0 0 1
    outer loop
      vertex -40.4 -6.45 7.7
      vertex -40.4 6.45 7.7
      vertex -41.3 -5.55 7.7
    endloop
  endfacet
  facet normal 0 0 1
    outer loop
      vertex -40.4 6.45 7.7
      vertex -41.3 5.55 7.7
      vertex -41.3 -5.55 7.7
    endloop
  endfacet
  facet normal -0.707106 0 0.707107
    outer loop
      vertex -38.8 -7.95 6.7
      vertex -37.8 -7.95 7.7
      vertex -38.8 7.95 6.7
    endloop
  endfacet
  facet normal -0.707106 0 0.707107
    outer loop
      vertex -37.8 -7.95 7.7
      vertex -37.8 7.95 7.7
      vertex -38.8 7.95 6.7
    endloop
  endfacet
  facet normal 1 0 0
    outer loop
      vertex -39 8.15 7.7
      vertex -39 -8.15 7.7
      vertex -39 8.15 6.7
    endloop
  endfacet
  facet normal 1 0 0
    outer loop
      vertex -39 -8.15 7.7
      vertex -39 -8.15 6.7
      vertex -39 8.15 6.7
    endloop
  endfacet
  facet normal -1 0 0
    outer loop
      vertex -40.4 6.45 7.7
      vertex -40.4 11.15 7.7
      vertex -40.4 6.45 6.7
    endloop
  endfacet
  facet normal -1 0 0
    outer loop
      vertex -40.4 11.15 7.7
      vertex -40.4 11.15 6.7
      vertex -40.4 6.45 6.7
    endloop
  endfacet
  facet normal -0.707107 0.707107 0
    outer loop
      vertex -41.3 5.55 7.7
      vertex -40.4 6.45 7.7
      vertex -41.3 5.55 6.7
    endloop
  endfacet
  facet normal -0.707107 0.707107 0
    outer loop
      vertex -40.4 6.45 7.7
      vertex -40.4 6.45 6.7
      vertex -41.3 5.55 6.7
    endloop
  endfacet
  facet normal -1 0 0
    outer loop
      vertex -41.3 -5.55 7.7
      vertex -41.3 5.55 7.7
      vertex -41.3 -5.55 6.7
    endloop
  endfacet
  facet normal -1 0 0
    outer loop
      vertex -41.3 5.55 7.7
      vertex -41.3 5.55 6.7
      vertex -41.3 -5.55 6.7
    endloop
  endfacet
  facet normal -0.707107 -0.707107 0
    outer loop
      vertex -40.4 -6.45 7.7
      vertex -41.3 -5.55 7.7
      vertex -40.4 -6.45 6.7
    endloop
  endfacet
  facet normal -0.707107 -0.707107 0
    outer loop
      vertex -41.3 -5.55 7.7
      vertex -41.3 -5.55 6.7
      vertex -40.4 -6.45 6.7
    endloop
  endfacet
  facet normal -1 0 0
    outer loop
      vertex -40.4 -11.15 7.7
      vertex -40.4 -6.45 7.7
      vertex -40.4 -11.15 6.7
    endloop
  endfacet
  facet normal -1 0 0
    outer loop
      vertex -40.4 -6.45 7.7
      vertex -40.4 -6.45 6.7
      vertex -40.4 -11.15 6.7
    endloop
  endfacet
  facet normal 0 -1 0
    outer loop
      vertex -37.25 -11.15 7.7
      vertex -40.4 -11.15 7.7
      vertex -37.25 -11.15 6.7
    endloop
  endfacet
  facet normal 0 -1 0
    outer loop
      vertex -40.4 -11.15 7.7
      vertex -40.4 -11.15 6.7
      vertex -37.25 -11.15 6.7
    endloop
  endfacet
  facet normal 1 0 0
    outer loop
      vertex -37.25 -11.15 6.7
      vertex -37.25 -8.15 6.7
      vertex -37.25 -11.15 7.7
    endloop
  endfacet
  facet normal 1 0 0
    outer loop
      vertex -37.25 -8.15 6.7
      vertex -37.25 -8.15 7.7
      vertex -37.25 -11.15 7.7
    endloop
  endfacet
  facet normal 0 1 0
    outer loop
      vertex -39 -8.15 6.7
      vertex -39 -8.15 7.7
      vertex -37.3 -8.15 6.7
    endloop
  endfacet
  facet normal 0 1 0
    outer loop
      vertex -39 -8.15 7.7
      vertex -37.25 -8.15 7.7
      vertex -37.3 -8.15 6.7
    endloop
  endfacet
  facet normal 0 1 0
    outer loop
      vertex -37.3 -8.15 6.7
      vertex -37.25 -8.15 7.7
      vertex -37.25 -8.15 6.7
    endloop
  endfacet
  facet normal 0 -1 0
    outer loop
      vertex -38.8 -7.95 6.7
      vertex -37.3 -7.95 6.7
      vertex -37.8 -7.95 7.7
    endloop
  endfacet
  facet normal 0 -1 0
    outer loop
      vertex -37.3 -7.95 6.7
      vertex -37.3 -7.95 7.7
      vertex -37.8 -7.95 7.7
    endloop
  endfacet
  facet normal 0 0 1
    outer loop
      vertex -37.8 -7.95 7.7
      vertex -37.3 -7.95 7.7
      vertex -37.8 7.95 7.7
    endloop
  endfacet
  facet normal 0 0 1
    outer loop
      vertex -37.3 -7.95 7.7
      vertex -37.3 7.95 7.7
      vertex -37.8 7.95 7.7
    endloop
  endfacet
endsolid Onshape
