solid Onshape
  facet normal 0 0 -1
    outer loop
      vertex 13.39 55.69 2
      vertex 14.66 54.42 2
      vertex 7.93 55.69 2
    endloop
  endfacet
  facet normal 0 0 -1
    outer loop
      vertex 14.66 54.42 2
      vertex 6.66 54.42 2
      vertex 7.93 55.69 2
    endloop
  endfacet
  facet normal 0 0 -1
    outer loop
      vertex 7.93 55.69 2
      vertex 6.66 54.42 2
      vertex 7.93 57.69 2
    endloop
  endfacet
  facet normal 0 0 -1
    outer loop
      vertex 6.66 54.42 2
      vertex 6.66 56.42 2
      vertex 7.93 57.69 2
    endloop
  endfacet
  facet normal 0 0 -1
    outer loop
      vertex 7.93 57.69 2
      vertex 6.66 56.42 2
      vertex 1.77 57.69 2
    endloop
  endfacet
  facet normal 0 0 -1
    outer loop
      vertex 6.66 56.42 2
      vertex 0.5 56.42 2
      vertex 1.77 57.69 2
    endloop
  endfacet
  facet normal 0 0 -1
    outer loop
      vertex 1.77 57.69 2
      vertex 0.5 56.42 2
      vertex 1.77 60.23 2
    endloop
  endfacet
  facet normal 0 0 -1
    outer loop
      vertex 0.5 56.42 2
      vertex 0.5 61.5 2
      vertex 1.77 60.23 2
    endloop
  endfacet
  facet normal 0 0 -1
    outer loop
      vertex 1.77 60.23 2
      vertex 0.5 61.5 2
      vertex 19.55 60.23 2
    endloop
  endfacet
  facet normal 0 0 -1
    outer loop
      vertex 0.5 61.5 2
      vertex 20.82 61.5 2
      vertex 19.55 60.23 2
    endloop
  endfacet
  facet normal 0 0 -1
    outer loop
      vertex 19.55 60.23 2
      vertex 20.82 61.5 2
      vertex 19.55 57.69 2
    endloop
  endfacet
  facet normal 0 0 -1
    outer loop
      vertex 20.82 61.5 2
      vertex 20.82 56.42 2
      vertex 19.55 57.69 2
    endloop
  endfacet
  facet normal 0 0 -1
    outer loop
      vertex 19.55 57.69 2
      vertex 20.82 56.42 2
      vertex 13.39 57.69 2
    endloop
  endfacet
  facet normal 0 0 -1
    outer loop
      vertex 20.82 56.42 2
      vertex 14.66 56.42 2
      vertex 13.39 57.69 2
    endloop
  endfacet
  facet normal 0 0 -1
    outer loop
      vertex 13.39 57.69 2
      vertex 14.66 56.42 2
      vertex 13.39 55.69 2
    endloop
  endfacet
  facet normal 0 0 -1
    outer loop
      vertex 14.66 56.42 2
      vertex 14.66 54.42 2
      vertex 13.39 55.69 2
    endloop
  endfacet
  facet normal 0 0 1
    outer loop
      vertex 7.93 55.69 14
      vertex 6.66 54.42 14
      vertex 13.39 55.69 14
    endloop
  endfacet
  facet normal 0 0 1
    outer loop
      vertex 6.66 54.42 14
      vertex 14.66 54.42 14
      vertex 13.39 55.69 14
    endloop
  endfacet
  facet normal 0 0 1
    outer loop
      vertex 13.39 55.69 14
      vertex 14.66 54.42 14
      vertex 13.39 57.69 14
    endloop
  endfacet
  facet normal 0 0 1
    outer loop
      vertex 14.66 54.42 14
      vertex 14.66 56.42 14
      vertex 13.39 57.69 14
    endloop
  endfacet
  facet normal 0 0 1
    outer loop
      vertex 13.39 57.69 14
      vertex 14.66 56.42 14
      vertex 19.55 57.69 14
    endloop
  endfacet
  facet normal 0 0 1
    outer loop
      vertex 14.66 56.42 14
      vertex 20.82 56.42 14
      vertex 19.55 57.69 14
    endloop
  endfacet
  facet normal 0 0 1
    outer loop
      vertex 19.55 57.69 14
      vertex 20.82 56.42 14
      vertex 19.55 60.23 14
    endloop
  endfacet
  facet normal 0 0 1
    outer loop
      vertex 20.82 56.42 14
      vertex 20.82 61.5 14
      vertex 19.55 60.23 14
    endloop
  endfacet
  facet normal 0 0 1
    outer loop
      vertex 19.55 60.23 14
      vertex 20.82 61.5 14
      vertex 1.77 60.23 14
    endloop
  endfacet
  facet normal 0 0 1
    outer loop
      vertex 20.82 61.5 14
      vertex 0.5 61.5 14
      vertex 1.77 60.23 14
    endloop
  endfacet
  facet normal 0 0 1
    outer loop
      vertex 1.77 60.23 14
      vertex 0.5 61.5 14
      vertex 1.77 57.69 14
    endloop
  endfacet
  facet normal 0 0 1
    outer loop
      vertex 0.5 61.5 14
      vertex 0.5 56.42 14
      vertex 1.77 57.69 14
    endloop
  endfacet
  facet normal 0 0 1
    outer loop
      vertex 1.77 57.69 14
      vertex 0.5 56.42 14
      vertex 7.93 57.69 14
    endloop
  endfacet
  facet normal 0 0 1
    outer loop
      vertex 0.5 56.42 14
      vertex 6.66 56.42 14
      vertex 7.93 57.69 14
    endloop
  endfacet
  facet normal 0 0 1
    outer loop
      vertex 7.93 57.69 14
      vertex 6.66 56.42 14
      vertex 7.93 55.69 14
    endloop
  endfacet
  facet normal 0 0 1
    outer loop
      vertex 6.66 56.42 14
      vertex 6.66 54.42 14
      vertex 7.93 55.69 14
    endloop
  endfacet
  facet normal 1 0 0
    outer loop
      vertex 14.66 56.42 14
      vertex 14.66 54.42 14
      vertex 14.66 56.42 2
    endloop
  endfacet
  facet normal 1 0 0
    outer loop
      vertex 14.66 54.42 14
      vertex 14.66 54.42 2
      vertex 14.66 56.42 2
    endloop
  endfacet
  facet normal -1 0 0
    outer loop
      vertex 6.66 54.42 14
      vertex 6.66 56.42 14
      vertex 6.66 54.42 2
    endloop
  endfacet
  facet normal -1 0 0
    outer loop
      vertex 6.66 56.42 14
      vertex 6.66 56.42 2
      vertex 6.66 54.42 2
    endloop
  endfacet
  facet normal 0 -1 0
    outer loop
      vertex 6.66 56.42 14
      vertex 0.5 56.42 14
      vertex 6.66 56.42 2
    endloop
  endfacet
  facet normal 0 -1 0
    outer loop
      vertex 0.5 56.42 14
      vertex 0.5 56.42 2
      vertex 6.66 56.42 2
    endloop
  endfacet
  facet normal 0 -1 0
    outer loop
      vertex 14.66 54.42 14
      vertex 6.66 54.42 14
      vertex 14.66 54.42 2
    endloop
  endfacet
  facet normal 0 -1 0
    outer loop
      vertex 6.66 54.42 14
      vertex 6.66 54.42 2
      vertex 14.66 54.42 2
    endloop
  endfacet
  facet normal 0 1 0
    outer loop
      vertex 0.5 61.5 14
      vertex 20.82 61.5 14
      vertex 0.5 61.5 2
    endloop
  endfacet
  facet normal 0 1 0
    outer loop
      vertex 20.82 61.5 14
      vertex 20.82 61.5 2
      vertex 0.5 61.5 2
    endloop
  endfacet
  facet normal 1 0 0
    outer loop
      vertex 7.93 57.69 14
      vertex 7.93 55.69 14
      vertex 7.93 57.69 2
    endloop
  endfacet
  facet normal 1 0 0
    outer loop
      vertex 7.93 55.69 14
      vertex 7.93 55.69 2
      vertex 7.93 57.69 2
    endloop
  endfacet
  facet normal -1 0 0
    outer loop
      vertex 0.5 56.42 14
      vertex 0.5 61.5 14
      vertex 0.5 56.42 2
    endloop
  endfacet
  facet normal -1 0 0
    outer loop
      vertex 0.5 61.5 14
      vertex 0.5 61.5 2
      vertex 0.5 56.42 2
    endloop
  endfacet
  facet normal 0 -1 0
    outer loop
      vertex 20.82 56.42 14
      vertex 14.66 56.42 14
      vertex 20.82 56.42 2
    endloop
  endfacet
  facet normal 0 -1 0
    outer loop
      vertex 14.66 56.42 14
      vertex 14.66 56.42 2
      vertex 20.82 56.42 2
    endloop
  endfacet
  facet normal 1 0 0
    outer loop
      vertex 1.77 60.23 14
      vertex 1.77 57.69 14
      vertex 1.77 60.23 2
    endloop
  endfacet
  facet normal 1 0 0
    outer loop
      vertex 1.77 57.69 14
      vertex 1.77 57.69 2
      vertex 1.77 60.23 2
    endloop
  endfacet
  facet normal 0 -1 0
    outer loop
      vertex 19.55 60.23 14
      vertex 1.77 60.23 14
      vertex 19.55 60.23 2
    endloop
  endfacet
  facet normal 0 -1 0
    outer loop
      vertex 1.77 60.23 14
      vertex 1.77 60.23 2
      vertex 19.55 60.23 2
    endloop
  endfacet
  facet normal -1 0 0
    outer loop
      vertex 19.55 57.69 14
      vertex 19.55 60.23 14
      vertex 19.55 57.69 2
    endloop
  endfacet
  facet normal -1 0 0
    outer loop
      vertex 19.55 60.23 14
      vertex 19.55 60.23 2
      vertex 19.55 57.69 2
    endloop
  endfacet
  facet normal 0 1 0
    outer loop
      vertex 13.39 57.69 14
      vertex 19.55 57.69 14
      vertex 13.39 57.69 2
    endloop
  endfacet
  facet normal 0 1 0
    outer loop
      vertex 19.55 57.69 14
      vertex 19.55 57.69 2
      vertex 13.39 57.69 2
    endloop
  endfacet
  facet normal -1 0 0
    outer loop
      vertex 13.39 55.69 14
      vertex 13.39 57.69 14
      vertex 13.39 55.69 2
    endloop
  endfacet
  facet normal -1 0 0
    outer loop
      vertex 13.39 57.69 14
      vertex 13.39 57.69 2
      vertex 13.39 55.69 2
    endloop
  endfacet
  facet normal 0 1 0
    outer loop
      vertex 7.93 55.69 14
      vertex 13.39 55.69 14
      vertex 7.93 55.69 2
    endloop
  endfacet
  facet normal 0 1 0
    outer loop
      vertex 13.39 55.69 14
      vertex 13.39 55.69 2
      vertex 7.93 55.69 2
    endloop
  endfacet
  facet normal 0 1 0
    outer loop
      vertex 1.77 57.69 14
      vertex 7.93 57.69 14
      vertex 1.77 57.69 2
    endloop
  endfacet
  facet normal 0 1 0
    outer loop
      vertex 7.93 57.69 14
      vertex 7.93 57.69 2
      vertex 1.77 57.69 2
    endloop
  endfacet
  facet normal 1 0 0
    outer loop
      vertex 20.82 61.5 14
      vertex 20.82 56.42 14
      vertex 20.82 61.5 2
    endloop
  endfacet
  facet normal 1 0 0
    outer loop
      vertex 20.82 56.42 14
      vertex 20.82 56.42 2
      vertex 20.82 61.5 2
    endloop
  endfacet
endsolid Onshape
