solid Onshape
  facet normal 0 0.499723 -0.866185
    outer loop
      vertex -2.1 15 0.3
      vertex -1.3506 14.48 0
      vertex -10.2 15 0.3
    endloop
  endfacet
  facet normal 0 0.499723 -0.866185
    outer loop
      vertex -1.3506 14.48 0
      vertex -10.9494 14.48 0
      vertex -10.2 15 0.3
    endloop
  endfacet
  facet normal 2.60485e-6 0.499726 -0.866183
    outer loop
      vertex -1.42246 14.6254 0.0838714
      vertex -1.39525 14.5786 0.0568718
      vertex -2.1 15 0.3
    endloop
  endfacet
  facet normal -5.69889e-7 0.499722 -0.866186
    outer loop
      vertex -1.39525 14.5786 0.0568718
      vertex -1.37125 14.53 0.0288719
      vertex -2.1 15 0.3
    endloop
  endfacet
  facet normal -6.22638e-7 0.499722 -0.866186
    outer loop
      vertex -2.1 15 0.3
      vertex -1.37125 14.53 0.0288719
      vertex -1.3506 14.48 0
    endloop
  endfacet
  facet normal 6.22629e-7 0.499722 -0.866186
    outer loop
      vertex -10.9494 14.48 0
      vertex -10.9287 14.53 0.0288719
      vertex -10.2 15 0.3
    endloop
  endfacet
  facet normal 5.69893e-7 0.499722 -0.866186
    outer loop
      vertex -10.9287 14.53 0.0288719
      vertex -10.9048 14.5786 0.0568718
      vertex -10.2 15 0.3
    endloop
  endfacet
  facet normal -2.60485e-6 0.499726 -0.866183
    outer loop
      vertex -10.2 15 0.3
      vertex -10.9048 14.5786 0.0568718
      vertex -10.8775 14.6254 0.0838714
    endloop
  endfacet
  facet normal 2.75672e-6 0.499728 -0.866182
    outer loop
      vertex -1.53431 14.7657 0.164819
      vertex -1.49168 14.7196 0.138207
      vertex -2.1 15 0.3
    endloop
  endfacet
  facet normal -1.51633e-6 0.499721 -0.866186
    outer loop
      vertex -1.49168 14.7196 0.138207
      vertex -1.45279 14.6702 0.109747
      vertex -2.1 15 0.3
    endloop
  endfacet
  facet normal -4.25719e-6 0.499717 -0.866189
    outer loop
      vertex -2.1 15 0.3
      vertex -1.45279 14.6702 0.109747
      vertex -1.42246 14.6254 0.0838714
    endloop
  endfacet
  facet normal 4.25721e-6 0.499717 -0.866189
    outer loop
      vertex -10.8775 14.6254 0.0838714
      vertex -10.8472 14.6702 0.109747
      vertex -10.2 15 0.3
    endloop
  endfacet
  facet normal 1.51634e-6 0.499721 -0.866186
    outer loop
      vertex -10.8472 14.6702 0.109747
      vertex -10.8083 14.7196 0.138207
      vertex -10.2 15 0.3
    endloop
  endfacet
  facet normal -2.75669e-6 0.499728 -0.866182
    outer loop
      vertex -10.2 15 0.3
      vertex -10.8083 14.7196 0.138207
      vertex -10.7657 14.7657 0.164819
    endloop
  endfacet
  facet normal -2.31721e-7 0.499722 -0.866186
    outer loop
      vertex -1.682 14.8821 0.231988
      vertex -1.62977 14.8472 0.211854
      vertex -2.1 15 0.3
    endloop
  endfacet
  facet normal 3.46761e-6 0.499731 -0.866181
    outer loop
      vertex -1.62977 14.8472 0.211854
      vertex -1.58044 14.8083 0.189418
      vertex -2.1 15 0.3
    endloop
  endfacet
  facet normal -3.49592e-6 0.499717 -0.866189
    outer loop
      vertex -2.1 15 0.3
      vertex -1.58044 14.8083 0.189418
      vertex -1.53431 14.7657 0.164819
    endloop
  endfacet
  facet normal 3.49595e-6 0.499717 -0.866189
    outer loop
      vertex -10.7657 14.7657 0.164819
      vertex -10.7196 14.8083 0.189418
      vertex -10.2 15 0.3
    endloop
  endfacet
  facet normal -3.46762e-6 0.499731 -0.866181
    outer loop
      vertex -10.7196 14.8083 0.189418
      vertex -10.6702 14.8472 0.211854
      vertex -10.2 15 0.3
    endloop
  endfacet
  facet normal 2.31722e-7 0.499722 -0.866186
    outer loop
      vertex -10.2 15 0.3
      vertex -10.6702 14.8472 0.211854
      vertex -10.618 14.8821 0.231988
    endloop
  endfacet
  facet normal -1.37769e-6 0.499717 -0.866189
    outer loop
      vertex -1.85279 14.9608 0.277411
      vertex -1.79385 14.9391 0.264867
      vertex -2.1 15 0.3
    endloop
  endfacet
  facet normal 4.14964e-6 0.499738 -0.866176
    outer loop
      vertex -1.79385 14.9391 0.264867
      vertex -1.73681 14.9128 0.249695
      vertex -2.1 15 0.3
    endloop
  endfacet
  facet normal -4.99486e-6 0.49971 -0.866193
    outer loop
      vertex -2.1 15 0.3
      vertex -1.73681 14.9128 0.249695
      vertex -1.682 14.8821 0.231988
    endloop
  endfacet
  facet normal 4.99488e-6 0.49971 -0.866193
    outer loop
      vertex -10.618 14.8821 0.231988
      vertex -10.5632 14.9128 0.249695
      vertex -10.2 15 0.3
    endloop
  endfacet
  facet normal -4.14964e-6 0.499738 -0.866176
    outer loop
      vertex -10.5632 14.9128 0.249695
      vertex -10.5061 14.9391 0.264867
      vertex -10.2 15 0.3
    endloop
  endfacet
  facet normal 1.37769e-6 0.499717 -0.866189
    outer loop
      vertex -10.2 15 0.3
      vertex -10.5061 14.9391 0.264867
      vertex -10.4472 14.9608 0.277411
    endloop
  endfacet
  facet normal 2.57976e-6 0.499771 -0.866158
    outer loop
      vertex -2.03723 14.9975 0.298577
      vertex -1.97485 14.9902 0.294318
      vertex -2.1 15 0.3
    endloop
  endfacet
  facet normal -6.85814e-6 0.499681 -0.86621
    outer loop
      vertex -1.97485 14.9902 0.294318
      vertex -1.91324 14.9779 0.287248
      vertex -2.1 15 0.3
    endloop
  endfacet
  facet normal -8.14883e-8 0.499724 -0.866185
    outer loop
      vertex -2.1 15 0.3
      vertex -1.91324 14.9779 0.287248
      vertex -1.85279 14.9608 0.277411
    endloop
  endfacet
  facet normal 8.14879e-8 0.499724 -0.866185
    outer loop
      vertex -10.4472 14.9608 0.277411
      vertex -10.3868 14.9779 0.287248
      vertex -10.2 15 0.3
    endloop
  endfacet
  facet normal 6.85814e-6 0.499681 -0.86621
    outer loop
      vertex -10.3868 14.9779 0.287248
      vertex -10.3251 14.9902 0.294318
      vertex -10.2 15 0.3
    endloop
  endfacet
  facet normal -2.57982e-6 0.499771 -0.866158
    outer loop
      vertex -10.2 15 0.3
      vertex -10.3251 14.9902 0.294318
      vertex -10.2628 14.9975 0.298577
    endloop
  endfacet
  facet normal 0.0787274 0.498363 0.863386
    outer loop
      vertex 4.81786e-17 1.25932 0.839657
      vertex -0.000346375 1.29781 0.817477
      vertex -2.68457 1.75212 0.8
    endloop
  endfacet
  facet normal 0.826205 0.2869 0.484844
    outer loop
      vertex 4.81786e-17 1.25932 0.839657
      vertex 5.00896e-17 1.29375 0.819286
      vertex -0.000346375 1.29781 0.817477
    endloop
  endfacet
  facet normal -0.795125 0.189174 0.576185
    outer loop
      vertex 5.00896e-17 1.29375 0.819286
      vertex 5.2665e-17 1.34015 0.804054
      vertex -0.000346375 1.29781 0.817477
    endloop
  endfacet
  facet normal 0.0448405 0.301571 0.952389
    outer loop
      vertex -0.000346375 1.29781 0.817477
      vertex 5.2665e-17 1.34015 0.804054
      vertex -2.68457 1.75212 0.8
    endloop
  endfacet
  facet normal 0.0136919 0.0990127 0.994992
    outer loop
      vertex 5.2665e-17 1.34015 0.804054
      vertex 5.49264e-17 1.38088 0.8
      vertex -2.68457 1.75212 0.8
    endloop
  endfacet
  facet normal -0.0261261 0.0520817 0.998301
    outer loop
      vertex -11 1.38088 0.8
      vertex -11 1.35937 0.801122
      vertex -8.30232 1.6113 0.858579
    endloop
  endfacet
  facet normal -0.0412199 0.219053 0.974842
    outer loop
      vertex -11 1.35937 0.801122
      vertex -11 1.31243 0.811669
      vertex -8.30232 1.6113 0.858579
    endloop
  endfacet
  facet normal -0.0644012 0.440778 0.895303
    outer loop
      vertex -11 1.31243 0.811669
      vertex -11 1.26857 0.833262
      vertex -8.30232 1.6113 0.858579
    endloop
  endfacet
  facet normal -0.0865778 0.624107 0.776528
    outer loop
      vertex -8.30232 1.6113 0.858579
      vertex -11 1.26857 0.833262
      vertex -11 1.23707 0.858579
    endloop
  endfacet
  facet normal 0.089506 0.645215 0.75874
    outer loop
      vertex 4.69434e-17 1.23707 0.858579
      vertex 4.81786e-17 1.25932 0.839657
      vertex -2.69768 1.6113 0.858579
    endloop
  endfacet
  facet normal 0.0559352 0.37905 0.923684
    outer loop
      vertex 4.81786e-17 1.25932 0.839657
      vertex -2.68457 1.75212 0.8
      vertex -2.69768 1.6113 0.858579
    endloop
  endfacet
  facet normal 0.0177661 0.382623 0.923734
    outer loop
      vertex -2.69768 1.6113 0.858579
      vertex -2.68457 1.75212 0.8
      vertex -5.5 1.74142 0.858579
    endloop
  endfacet
  facet normal 0.0177661 0.382623 0.923734
    outer loop
      vertex -2.68457 1.75212 0.8
      vertex -5.5 1.88284 0.8
      vertex -5.5 1.74142 0.858579
    endloop
  endfacet
  facet normal -0.0177661 0.382623 0.923734
    outer loop
      vertex -5.5 1.74142 0.858579
      vertex -5.5 1.88284 0.8
      vertex -8.30232 1.6113 0.858579
    endloop
  endfacet
  facet normal -0.0177661 0.382623 0.923734
    outer loop
      vertex -5.5 1.88284 0.8
      vertex -8.31543 1.75212 0.8
      vertex -8.30232 1.6113 0.858579
    endloop
  endfacet
  facet normal -0.0524648 0.379399 0.923745
    outer loop
      vertex -8.30232 1.6113 0.858579
      vertex -8.31543 1.75212 0.8
      vertex -11 1.38088 0.8
    endloop
  endfacet
  facet normal -0.0896659 0.645164 0.758765
    outer loop
      vertex -11 1.15282 0.941421
      vertex -11 1.13057 0.960342
      vertex -8.29465 1.52882 0.941421
    endloop
  endfacet
  facet normal -0.0687759 0.507998 0.858608
    outer loop
      vertex -11 1.13057 0.960342
      vertex -11 1.09614 0.980711
      vertex -8.29465 1.52882 0.941421
    endloop
  endfacet
  facet normal -0.0360599 0.311691 0.949499
    outer loop
      vertex -8.29465 1.52882 0.941421
      vertex -11 1.09614 0.980711
      vertex -11 1.04974 0.995945
    endloop
  endfacet
  facet normal 0.00726634 0.0521158 0.998615
    outer loop
      vertex -2.71846 1.388 1
      vertex 3.42815e-17 1.00898 1
      vertex 3.54771e-17 1.03051 0.998876
    endloop
  endfacet
  facet normal 0.0292167 0.219107 0.975263
    outer loop
      vertex 3.54771e-17 1.03051 0.998876
      vertex 3.80823e-17 1.07745 0.988332
      vertex -2.71846 1.388 1
    endloop
  endfacet
  facet normal 0.0542215 0.440968 0.895883
    outer loop
      vertex 3.80823e-17 1.07745 0.988332
      vertex 4.05179e-17 1.12132 0.966736
      vertex -2.71846 1.388 1
    endloop
  endfacet
  facet normal 0.0708116 0.624843 0.777532
    outer loop
      vertex -2.71846 1.388 1
      vertex 4.05179e-17 1.12132 0.966736
      vertex 4.22665e-17 1.15282 0.941421
    endloop
  endfacet
  facet normal 0.0527258 0.379373 0.92374
    outer loop
      vertex 4.22665e-17 1.15282 0.941421
      vertex -2.70535 1.52882 0.941421
      vertex -2.71846 1.388 1
    endloop
  endfacet
  facet normal 0.0177661 0.382623 0.923734
    outer loop
      vertex -2.70535 1.52882 0.941421
      vertex -5.5 1.65858 0.941421
      vertex -2.71846 1.388 1
    endloop
  endfacet
  facet normal 0.0177661 0.382623 0.923734
    outer loop
      vertex -2.71846 1.388 1
      vertex -5.5 1.65858 0.941421
      vertex -5.5 1.51716 1
    endloop
  endfacet
  facet normal -0.0177661 0.382623 0.923734
    outer loop
      vertex -5.5 1.65858 0.941421
      vertex -8.29465 1.52882 0.941421
      vertex -5.5 1.51716 1
    endloop
  endfacet
  facet normal -0.0177661 0.382623 0.923734
    outer loop
      vertex -5.5 1.51716 1
      vertex -8.29465 1.52882 0.941421
      vertex -8.28154 1.388 1
    endloop
  endfacet
  facet normal -0.0486351 0.379778 0.923798
    outer loop
      vertex -8.29465 1.52882 0.941421
      vertex -11 1.04974 0.995945
      vertex -8.28154 1.388 1
    endloop
  endfacet
  facet normal -0.0138021 0.0989917 0.994993
    outer loop
      vertex -8.28154 1.388 1
      vertex -11 1.04974 0.995945
      vertex -11 1.00898 1
    endloop
  endfacet
  facet normal 0.0969833 0.697814 0.709683
    outer loop
      vertex -2.70535 1.52882 0.941421
      vertex 4.22665e-17 1.15282 0.941421
      vertex 4.69434e-17 1.23707 0.858579
    endloop
  endfacet
  facet normal -0.0968043 0.697826 0.709695
    outer loop
      vertex -8.30232 1.6113 0.858579
      vertex -11 1.23707 0.858579
      vertex -11 1.15282 0.941421
    endloop
  endfacet
  facet normal -0.0973891 0.700734 0.706744
    outer loop
      vertex -11 1.15282 0.941421
      vertex -8.29465 1.52882 0.941421
      vertex -8.30232 1.6113 0.858579
    endloop
  endfacet
  facet normal -0.032815 0.706726 0.706726
    outer loop
      vertex -8.29465 1.52882 0.941421
      vertex -5.5 1.65858 0.941421
      vertex -8.30232 1.6113 0.858579
    endloop
  endfacet
  facet normal -0.032815 0.706726 0.706726
    outer loop
      vertex -8.30232 1.6113 0.858579
      vertex -5.5 1.65858 0.941421
      vertex -5.5 1.74142 0.858579
    endloop
  endfacet
  facet normal 0.032815 0.706726 0.706726
    outer loop
      vertex -5.5 1.65858 0.941421
      vertex -2.70535 1.52882 0.941421
      vertex -5.5 1.74142 0.858579
    endloop
  endfacet
  facet normal 0.032815 0.706726 0.706726
    outer loop
      vertex -5.5 1.74142 0.858579
      vertex -2.70535 1.52882 0.941421
      vertex -2.69768 1.6113 0.858579
    endloop
  endfacet
  facet normal 0.0972106 0.700755 0.706748
    outer loop
      vertex -2.70535 1.52882 0.941421
      vertex 4.69434e-17 1.23707 0.858579
      vertex -2.69768 1.6113 0.858579
    endloop
  endfacet
  facet normal 0 0 1
    outer loop
      vertex 0 0.8 1
      vertex 3.42815e-17 1.00898 1
      vertex -2.71846 1.388 1
    endloop
  endfacet
  facet normal 0 0 1
    outer loop
      vertex -5.5 1.51716 1
      vertex -8.28154 1.388 1
      vertex -10.2 0 1
    endloop
  endfacet
  facet normal 0 0 1
    outer loop
      vertex -0.552786 0.0391548 1
      vertex -0.329772 0.152786 1
      vertex -2.71846 1.388 1
    endloop
  endfacet
  facet normal 0 0 1
    outer loop
      vertex -5.5 1.51716 1
      vertex -10.2 0 1
      vertex -2.71846 1.388 1
    endloop
  endfacet
  facet normal 0 0 1
    outer loop
      vertex -10.2 0 1
      vertex -0.8 0 1
      vertex -2.71846 1.388 1
    endloop
  endfacet
  facet normal 0 0 1
    outer loop
      vertex -2.71846 1.388 1
      vertex -0.8 0 1
      vertex -0.552786 0.0391548 1
    endloop
  endfacet
  facet normal 0 0 1
    outer loop
      vertex -0.329772 0.152786 1
      vertex -0.152786 0.329772 1
      vertex -2.71846 1.388 1
    endloop
  endfacet
  facet normal 0 0 1
    outer loop
      vertex -0.152786 0.329772 1
      vertex -0.0391548 0.552786 1
      vertex -2.71846 1.388 1
    endloop
  endfacet
  facet normal 0 0 1
    outer loop
      vertex -2.71846 1.388 1
      vertex -0.0391548 0.552786 1
      vertex 0 0.8 1
    endloop
  endfacet
  facet normal 0 0 1
    outer loop
      vertex -11 1.00898 1
      vertex -11 0.8 1
      vertex -8.28154 1.388 1
    endloop
  endfacet
  facet normal 0 0 1
    outer loop
      vertex -11 0.8 1
      vertex -10.9608 0.552786 1
      vertex -8.28154 1.388 1
    endloop
  endfacet
  facet normal 0 0 1
    outer loop
      vertex -8.28154 1.388 1
      vertex -10.9608 0.552786 1
      vertex -10.8472 0.329772 1
    endloop
  endfacet
  facet normal 0 0 1
    outer loop
      vertex -10.8472 0.329772 1
      vertex -10.6702 0.152786 1
      vertex -8.28154 1.388 1
    endloop
  endfacet
  facet normal 0 0 1
    outer loop
      vertex -10.6702 0.152786 1
      vertex -10.4472 0.0391548 1
      vertex -8.28154 1.388 1
    endloop
  endfacet
  facet normal 0 0 1
    outer loop
      vertex -8.28154 1.388 1
      vertex -10.4472 0.0391548 1
      vertex -10.2 0 1
    endloop
  endfacet
  facet normal 0 0 -1
    outer loop
      vertex -1.3 10.0657 0
      vertex -1.29231 9.98765 0
      vertex -11 14.2 0
    endloop
  endfacet
  facet normal 0 0 -1
    outer loop
      vertex -0.117157 8.71716 0
      vertex -0.00768589 8.51235 0
      vertex 4.46471e-16 8.43431 0
    endloop
  endfacet
  facet normal 0 0 -1
    outer loop
      vertex -11 0.8 0
      vertex -11 14.2 0
      vertex -0.35 6.9 0
    endloop
  endfacet
  facet normal 0 0 -1
    outer loop
      vertex -11 14.2 0
      vertex -1.29231 9.98765 0
      vertex -0.35 6.9 0
    endloop
  endfacet
  facet normal 0 0 -1
    outer loop
      vertex -0.35 6.9 0
      vertex -1.29231 9.98765 0
      vertex -0.211803 7.09021 0
    endloop
  endfacet
  facet normal 0 0 -1
    outer loop
      vertex -1.29231 9.98765 0
      vertex -1.18284 9.78284 0
      vertex -0.211803 7.09021 0
    endloop
  endfacet
  facet normal 0 0 -1
    outer loop
      vertex -0.211803 7.09021 0
      vertex -1.18284 9.78284 0
      vertex -0.15 7.1 0
    endloop
  endfacet
  facet normal 0 0 -1
    outer loop
      vertex -0.342314 5.98765 0
      vertex -0.232843 5.78284 0
      vertex -10.2 0 0
    endloop
  endfacet
  facet normal 0 0 -1
    outer loop
      vertex -1.89735e-16 7.2 0
      vertex -0.1 7.1 0
      vertex 4.46471e-16 8.43431 0
    endloop
  endfacet
  facet normal 0 0 -1
    outer loop
      vertex -0.1 7.1 0
      vertex -0.15 7.1 0
      vertex 4.46471e-16 8.43431 0
    endloop
  endfacet
  facet normal 0 0 -1
    outer loop
      vertex 4.46471e-16 8.43431 0
      vertex -0.15 7.1 0
      vertex -0.117157 8.71716 0
    endloop
  endfacet
  facet normal 0 0 -1
    outer loop
      vertex -0.15 7.1 0
      vertex -1.18284 9.78284 0
      vertex -0.117157 8.71716 0
    endloop
  endfacet
  facet normal 0 0 -1
    outer loop
      vertex -10.2 0 0
      vertex -10.4472 0.0391548 0
      vertex -0.342314 5.98765 0
    endloop
  endfacet
  facet normal 0 0 -1
    outer loop
      vertex -10.4472 0.0391548 0
      vertex -10.6702 0.152786 0
      vertex -0.342314 5.98765 0
    endloop
  endfacet
  facet normal 0 0 -1
    outer loop
      vertex -0.342314 5.98765 0
      vertex -10.6702 0.152786 0
      vertex -10.8472 0.329772 0
    endloop
  endfacet
  facet normal 0 0 -1
    outer loop
      vertex -0.35 6.9 0
      vertex -0.35 6.06569 0
      vertex -11 0.8 0
    endloop
  endfacet
  facet normal 0 0 -1
    outer loop
      vertex -0.35 6.06569 0
      vertex -0.342314 5.98765 0
      vertex -11 0.8 0
    endloop
  endfacet
  facet normal 0 0 -1
    outer loop
      vertex -11 0.8 0
      vertex -0.342314 5.98765 0
      vertex -10.9608 0.552786 0
    endloop
  endfacet
  facet normal 0 0 -1
    outer loop
      vertex -0.342314 5.98765 0
      vertex -10.8472 0.329772 0
      vertex -10.9608 0.552786 0
    endloop
  endfacet
  facet normal 0 0 -1
    outer loop
      vertex -10.9494 14.48 0
      vertex -1.3506 14.48 0
      vertex -10.9608 14.4472 0
    endloop
  endfacet
  facet normal 0 0 -1
    outer loop
      vertex -1.3506 14.48 0
      vertex -1.33915 14.4472 0
      vertex -10.9608 14.4472 0
    endloop
  endfacet
  facet normal 0 0 -1
    outer loop
      vertex -10.9608 14.4472 0
      vertex -1.33915 14.4472 0
      vertex -11 14.2 0
    endloop
  endfacet
  facet normal 0 0 -1
    outer loop
      vertex -1.33915 14.4472 0
      vertex -1.3 14.2 0
      vertex -11 14.2 0
    endloop
  endfacet
  facet normal 0 0 -1
    outer loop
      vertex -11 14.2 0
      vertex -1.3 14.2 0
      vertex -1.3 10.0657 0
    endloop
  endfacet
  facet normal 0 0 -1
    outer loop
      vertex -0.0391548 0.552786 0
      vertex -0.152786 0.329772 0
      vertex -0.329772 0.152786 0
    endloop
  endfacet
  facet normal 0 0 -1
    outer loop
      vertex -0.232843 5.78284 0
      vertex 2.86359e-16 5.55 0
      vertex -10.2 0 0
    endloop
  endfacet
  facet normal 0 0 -1
    outer loop
      vertex 2.86359e-16 5.55 0
      vertex 0 0.8 0
      vertex -10.2 0 0
    endloop
  endfacet
  facet normal 0 0 -1
    outer loop
      vertex -10.2 0 0
      vertex 0 0.8 0
      vertex -0.8 0 0
    endloop
  endfacet
  facet normal 0 0 -1
    outer loop
      vertex 0 0.8 0
      vertex -0.0391548 0.552786 0
      vertex -0.8 0 0
    endloop
  endfacet
  facet normal 0 0 -1
    outer loop
      vertex -0.8 0 0
      vertex -0.0391548 0.552786 0
      vertex -0.552786 0.0391548 0
    endloop
  endfacet
  facet normal 0 0 -1
    outer loop
      vertex -0.0391548 0.552786 0
      vertex -0.329772 0.152786 0
      vertex -0.552786 0.0391548 0
    endloop
  endfacet
  facet normal 0 0 1
    outer loop
      vertex 4.46471e-16 8.43431 0.8
      vertex -0.00768589 8.51235 0.8
      vertex -0.117157 8.71716 0.8
    endloop
  endfacet
  facet normal 0 0 1
    outer loop
      vertex -0.211803 7.09021 0.8
      vertex -1.29231 9.98765 0.8
      vertex -11 14.2 0.8
    endloop
  endfacet
  facet normal 0 0 1
    outer loop
      vertex -1.29231 9.98765 0.8
      vertex -1.3 10.0657 0.8
      vertex -11 14.2 0.8
    endloop
  endfacet
  facet normal 0 0 1
    outer loop
      vertex -0.15 7.1 0.8
      vertex -0.1 7.1 0.8
      vertex -1.89735e-16 7.2 0.8
    endloop
  endfacet
  facet normal 0 0 1
    outer loop
      vertex 5.49264e-17 1.38088 0.8
      vertex 2.86359e-16 5.55 0.8
      vertex -2.68457 1.75212 0.8
    endloop
  endfacet
  facet normal 0 0 1
    outer loop
      vertex 2.86359e-16 5.55 0.8
      vertex -0.232843 5.78284 0.8
      vertex -2.68457 1.75212 0.8
    endloop
  endfacet
  facet normal 0 0 1
    outer loop
      vertex -2.68457 1.75212 0.8
      vertex -0.232843 5.78284 0.8
      vertex -5.5 1.88284 0.8
    endloop
  endfacet
  facet normal 0 0 1
    outer loop
      vertex -5.5 1.88284 0.8
      vertex -0.232843 5.78284 0.8
      vertex -8.31543 1.75212 0.8
    endloop
  endfacet
  facet normal 0 0 1
    outer loop
      vertex -0.232843 5.78284 0.8
      vertex -0.342314 5.98765 0.8
      vertex -8.31543 1.75212 0.8
    endloop
  endfacet
  facet normal 0 0 1
    outer loop
      vertex -8.31543 1.75212 0.8
      vertex -0.342314 5.98765 0.8
      vertex -11 1.38088 0.8
    endloop
  endfacet
  facet normal 0 0 1
    outer loop
      vertex -0.342314 5.98765 0.8
      vertex -0.35 6.06569 0.8
      vertex -11 1.38088 0.8
    endloop
  endfacet
  facet normal 0 0 1
    outer loop
      vertex -11 1.38088 0.8
      vertex -0.35 6.06569 0.8
      vertex -11 14.2 0.8
    endloop
  endfacet
  facet normal 0 0 1
    outer loop
      vertex -0.35 6.06569 0.8
      vertex -0.35 6.9 0.8
      vertex -11 14.2 0.8
    endloop
  endfacet
  facet normal 0 0 1
    outer loop
      vertex -11 14.2 0.8
      vertex -0.35 6.9 0.8
      vertex -0.211803 7.09021 0.8
    endloop
  endfacet
  facet normal 0 0 1
    outer loop
      vertex -1.89735e-16 7.2 0.8
      vertex 4.46471e-16 8.43431 0.8
      vertex -0.15 7.1 0.8
    endloop
  endfacet
  facet normal 0 0 1
    outer loop
      vertex 4.46471e-16 8.43431 0.8
      vertex -0.117157 8.71716 0.8
      vertex -0.15 7.1 0.8
    endloop
  endfacet
  facet normal 0 0 1
    outer loop
      vertex -0.15 7.1 0.8
      vertex -0.117157 8.71716 0.8
      vertex -0.211803 7.09021 0.8
    endloop
  endfacet
  facet normal 0 0 1
    outer loop
      vertex -0.117157 8.71716 0.8
      vertex -1.18284 9.78284 0.8
      vertex -0.211803 7.09021 0.8
    endloop
  endfacet
  facet normal 0 0 1
    outer loop
      vertex -0.211803 7.09021 0.8
      vertex -1.18284 9.78284 0.8
      vertex -1.29231 9.98765 0.8
    endloop
  endfacet
  facet normal 0 0 1
    outer loop
      vertex -1.3 10.0657 0.8
      vertex -1.3 14.2 0.8
      vertex -2.1 15 0.8
    endloop
  endfacet
  facet normal 0 0 1
    outer loop
      vertex -1.3 14.2 0.8
      vertex -1.33915 14.4472 0.8
      vertex -2.1 15 0.8
    endloop
  endfacet
  facet normal 0 0 1
    outer loop
      vertex -1.33915 14.4472 0.8
      vertex -1.45279 14.6702 0.8
      vertex -2.1 15 0.8
    endloop
  endfacet
  facet normal 0 0 1
    outer loop
      vertex -1.45279 14.6702 0.8
      vertex -1.62977 14.8472 0.8
      vertex -2.1 15 0.8
    endloop
  endfacet
  facet normal 0 0 1
    outer loop
      vertex -2.1 15 0.8
      vertex -1.62977 14.8472 0.8
      vertex -1.85279 14.9608 0.8
    endloop
  endfacet
  facet normal 0 0 1
    outer loop
      vertex -1.3 10.0657 0.8
      vertex -2.1 15 0.8
      vertex -11 14.2 0.8
    endloop
  endfacet
  facet normal 0 0 1
    outer loop
      vertex -2.1 15 0.8
      vertex -10.2 15 0.8
      vertex -11 14.2 0.8
    endloop
  endfacet
  facet normal 0 0 1
    outer loop
      vertex -11 14.2 0.8
      vertex -10.2 15 0.8
      vertex -10.4472 14.9608 0.8
    endloop
  endfacet
  facet normal 0 0 1
    outer loop
      vertex -10.4472 14.9608 0.8
      vertex -10.6702 14.8472 0.8
      vertex -11 14.2 0.8
    endloop
  endfacet
  facet normal 0 0 1
    outer loop
      vertex -10.6702 14.8472 0.8
      vertex -10.8472 14.6702 0.8
      vertex -11 14.2 0.8
    endloop
  endfacet
  facet normal 0 0 1
    outer loop
      vertex -11 14.2 0.8
      vertex -10.8472 14.6702 0.8
      vertex -10.9608 14.4472 0.8
    endloop
  endfacet
  facet normal 0.156434 -0.987688 0
    outer loop
      vertex -0.8 0 1
      vertex -0.8 0 0
      vertex -0.552786 0.0391548 0
    endloop
  endfacet
  facet normal 0.156434 -0.987688 0
    outer loop
      vertex -0.8 0 1
      vertex -0.552786 0.0391548 0
      vertex -0.552786 0.0391548 1
    endloop
  endfacet
  facet normal 0.453991 -0.891007 0
    outer loop
      vertex -0.552786 0.0391548 0
      vertex -0.329772 0.152786 0
      vertex -0.552786 0.0391548 1
    endloop
  endfacet
  facet normal 0.453991 -0.891007 0
    outer loop
      vertex -0.552786 0.0391548 1
      vertex -0.329772 0.152786 0
      vertex -0.329772 0.152786 1
    endloop
  endfacet
  facet normal 0.707107 -0.707107 0
    outer loop
      vertex -0.329772 0.152786 0
      vertex -0.152786 0.329772 0
      vertex -0.329772 0.152786 1
    endloop
  endfacet
  facet normal 0.707107 -0.707107 0
    outer loop
      vertex -0.329772 0.152786 1
      vertex -0.152786 0.329772 0
      vertex -0.152786 0.329772 1
    endloop
  endfacet
  facet normal 0.891007 -0.453991 0
    outer loop
      vertex -0.152786 0.329772 0
      vertex -0.0391548 0.552786 0
      vertex -0.152786 0.329772 1
    endloop
  endfacet
  facet normal 0.891007 -0.453991 0
    outer loop
      vertex -0.152786 0.329772 1
      vertex -0.0391548 0.552786 0
      vertex -0.0391548 0.552786 1
    endloop
  endfacet
  facet normal 0.987688 -0.156434 0
    outer loop
      vertex -0.0391548 0.552786 0
      vertex 0 0.8 0
      vertex -0.0391548 0.552786 1
    endloop
  endfacet
  facet normal 0.987688 -0.156434 0
    outer loop
      vertex -0.0391548 0.552786 1
      vertex 0 0.8 0
      vertex 0 0.8 1
    endloop
  endfacet
  facet normal 0 -1 0
    outer loop
      vertex -0.8 0 1
      vertex -10.2 0 1
      vertex -0.8 0 0
    endloop
  endfacet
  facet normal 0 -1 0
    outer loop
      vertex -10.2 0 1
      vertex -10.2 0 0
      vertex -0.8 0 0
    endloop
  endfacet
  facet normal -0.987688 -0.156434 0
    outer loop
      vertex -11 0.8 1
      vertex -11 0.8 0
      vertex -10.9608 0.552786 0
    endloop
  endfacet
  facet normal -0.987688 -0.156434 0
    outer loop
      vertex -11 0.8 1
      vertex -10.9608 0.552786 0
      vertex -10.9608 0.552786 1
    endloop
  endfacet
  facet normal -0.891007 -0.45399 0
    outer loop
      vertex -10.9608 0.552786 0
      vertex -10.8472 0.329772 0
      vertex -10.9608 0.552786 1
    endloop
  endfacet
  facet normal -0.891007 -0.45399 0
    outer loop
      vertex -10.9608 0.552786 1
      vertex -10.8472 0.329772 0
      vertex -10.8472 0.329772 1
    endloop
  endfacet
  facet normal -0.707106 -0.707107 0
    outer loop
      vertex -10.8472 0.329772 0
      vertex -10.6702 0.152786 0
      vertex -10.8472 0.329772 1
    endloop
  endfacet
  facet normal -0.707106 -0.707107 0
    outer loop
      vertex -10.8472 0.329772 1
      vertex -10.6702 0.152786 0
      vertex -10.6702 0.152786 1
    endloop
  endfacet
  facet normal -0.453991 -0.891006 0
    outer loop
      vertex -10.6702 0.152786 0
      vertex -10.4472 0.0391548 0
      vertex -10.6702 0.152786 1
    endloop
  endfacet
  facet normal -0.453991 -0.891006 0
    outer loop
      vertex -10.6702 0.152786 1
      vertex -10.4472 0.0391548 0
      vertex -10.4472 0.0391548 1
    endloop
  endfacet
  facet normal -0.156435 -0.987688 0
    outer loop
      vertex -10.4472 0.0391548 0
      vertex -10.2 0 0
      vertex -10.4472 0.0391548 1
    endloop
  endfacet
  facet normal -0.156435 -0.987688 0
    outer loop
      vertex -10.4472 0.0391548 1
      vertex -10.2 0 0
      vertex -10.2 0 1
    endloop
  endfacet
  facet normal 0 -1 0
    outer loop
      vertex -0.1 7.1 0.8
      vertex -0.15 7.1 0.8
      vertex -0.1 7.1 0
    endloop
  endfacet
  facet normal 0 -1 0
    outer loop
      vertex -0.15 7.1 0.8
      vertex -0.15 7.1 0
      vertex -0.1 7.1 0
    endloop
  endfacet
  facet normal 0.809017 -0.587785 0
    outer loop
      vertex -0.35 6.9 0.8
      vertex -0.35 6.9 0
      vertex -0.211803 7.09021 0.8
    endloop
  endfacet
  facet normal 0.809017 -0.587785 0
    outer loop
      vertex -0.35 6.9 0
      vertex -0.211803 7.09021 0
      vertex -0.211803 7.09021 0.8
    endloop
  endfacet
  facet normal 0.156434 -0.987688 0
    outer loop
      vertex -0.211803 7.09021 0.8
      vertex -0.211803 7.09021 0
      vertex -0.15 7.1 0.8
    endloop
  endfacet
  facet normal 0.156434 -0.987688 0
    outer loop
      vertex -0.211803 7.09021 0
      vertex -0.15 7.1 0
      vertex -0.15 7.1 0.8
    endloop
  endfacet
  facet normal 0.881921 0.471397 0
    outer loop
      vertex -0.232843 5.78284 0.8
      vertex -0.232843 5.78284 0
      vertex -0.342314 5.98765 0.8
    endloop
  endfacet
  facet normal 0.881921 0.471397 0
    outer loop
      vertex -0.232843 5.78284 0
      vertex -0.342314 5.98765 0
      vertex -0.342314 5.98765 0.8
    endloop
  endfacet
  facet normal 0.995185 0.0980173 0
    outer loop
      vertex -0.342314 5.98765 0.8
      vertex -0.342314 5.98765 0
      vertex -0.35 6.06569 0.8
    endloop
  endfacet
  facet normal 0.995185 0.0980173 0
    outer loop
      vertex -0.342314 5.98765 0
      vertex -0.35 6.06569 0
      vertex -0.35 6.06569 0.8
    endloop
  endfacet
  facet normal 1 0 0
    outer loop
      vertex -0.35 6.9 0.8
      vertex -0.35 6.06569 0.8
      vertex -0.35 6.9 0
    endloop
  endfacet
  facet normal 1 0 0
    outer loop
      vertex -0.35 6.06569 0.8
      vertex -0.35 6.06569 0
      vertex -0.35 6.9 0
    endloop
  endfacet
  facet normal 1 -1.64044e-16 0
    outer loop
      vertex 3.42815e-17 1.00898 1
      vertex 0 0.8 1
      vertex 0 0.8 0
    endloop
  endfacet
  facet normal 1 -6.02861e-17 0
    outer loop
      vertex 2.86359e-16 5.55 0
      vertex 2.86359e-16 5.55 0.8
      vertex 0 0.8 0
    endloop
  endfacet
  facet normal 1 -5.55111e-17 -2.83512e-17
    outer loop
      vertex 2.86359e-16 5.55 0.8
      vertex 5.49264e-17 1.38088 0.8
      vertex 0 0.8 0
    endloop
  endfacet
  facet normal 1 -5.81423e-17 -2.64407e-17
    outer loop
      vertex 5.49264e-17 1.38088 0.8
      vertex 5.2665e-17 1.34015 0.804054
      vertex 0 0.8 0
    endloop
  endfacet
  facet normal 1 -6.3099e-17 -2.31109e-17
    outer loop
      vertex 5.2665e-17 1.34015 0.804054
      vertex 5.00896e-17 1.29375 0.819286
      vertex 0 0.8 0
    endloop
  endfacet
  facet normal 1 -6.75864e-17 -2.04065e-17
    outer loop
      vertex 0 0.8 0
      vertex 5.00896e-17 1.29375 0.819286
      vertex 4.81786e-17 1.25932 0.839657
    endloop
  endfacet
  facet normal 1 -7.11887e-17 -1.8436e-17
    outer loop
      vertex 4.81786e-17 1.25932 0.839657
      vertex 4.69434e-17 1.23707 0.858579
      vertex 0 0.8 0
    endloop
  endfacet
  facet normal 1 -7.28215e-17 -1.76048e-17
    outer loop
      vertex 4.69434e-17 1.23707 0.858579
      vertex 4.22665e-17 1.15282 0.941421
      vertex 0 0.8 0
    endloop
  endfacet
  facet normal 1 -7.0391e-17 -1.85157e-17
    outer loop
      vertex 0 0.8 0
      vertex 4.22665e-17 1.15282 0.941421
      vertex 4.05179e-17 1.12132 0.966736
    endloop
  endfacet
  facet normal 1 -6.54355e-17 -2.01627e-17
    outer loop
      vertex 4.05179e-17 1.12132 0.966736
      vertex 3.80823e-17 1.07745 0.988332
      vertex 0 0.8 0
    endloop
  endfacet
  facet normal 1 -6.0361e-17 -2.15873e-17
    outer loop
      vertex 3.80823e-17 1.07745 0.988332
      vertex 3.54771e-17 1.03051 0.998876
      vertex 0 0.8 0
    endloop
  endfacet
  facet normal 1 -5.66822e-17 -2.24362e-17
    outer loop
      vertex 0 0.8 0
      vertex 3.54771e-17 1.03051 0.998876
      vertex 3.42815e-17 1.00898 1
    endloop
  endfacet
  facet normal 0 1 0
    outer loop
      vertex -10.2 15 0.3
      vertex -10.2 15 0.8
      vertex -2.1 15 0.3
    endloop
  endfacet
  facet normal 0 1 0
    outer loop
      vertex -10.2 15 0.8
      vertex -2.1 15 0.8
      vertex -2.1 15 0.3
    endloop
  endfacet
  facet normal 0.707107 0.707107 0
    outer loop
      vertex -0.232843 5.78284 0.8
      vertex 2.86359e-16 5.55 0.8
      vertex -0.232843 5.78284 0
    endloop
  endfacet
  facet normal 0.707107 0.707107 0
    outer loop
      vertex 2.86359e-16 5.55 0.8
      vertex 2.86359e-16 5.55 0
      vertex -0.232843 5.78284 0
    endloop
  endfacet
  facet normal 0.707106 -0.707107 0
    outer loop
      vertex -0.1 7.1 0
      vertex -1.89735e-16 7.2 0
      vertex -0.1 7.1 0.8
    endloop
  endfacet
  facet normal 0.707106 -0.707107 0
    outer loop
      vertex -1.89735e-16 7.2 0
      vertex -1.89735e-16 7.2 0.8
      vertex -0.1 7.1 0.8
    endloop
  endfacet
  facet normal 1 -5.15433e-16 0
    outer loop
      vertex 4.46471e-16 8.43431 0.8
      vertex -1.89735e-16 7.2 0.8
      vertex 4.46471e-16 8.43431 0
    endloop
  endfacet
  facet normal 1 -5.15433e-16 0
    outer loop
      vertex -1.89735e-16 7.2 0.8
      vertex -1.89735e-16 7.2 0
      vertex 4.46471e-16 8.43431 0
    endloop
  endfacet
  facet normal 0.995185 0.0980167 0
    outer loop
      vertex 4.46471e-16 8.43431 0.8
      vertex 4.46471e-16 8.43431 0
      vertex -0.00768589 8.51235 0
    endloop
  endfacet
  facet normal 0.995185 0.0980167 0
    outer loop
      vertex 4.46471e-16 8.43431 0.8
      vertex -0.00768589 8.51235 0
      vertex -0.00768589 8.51235 0.8
    endloop
  endfacet
  facet normal 0.881921 0.471397 0
    outer loop
      vertex -0.00768589 8.51235 0
      vertex -0.117157 8.71716 0
      vertex -0.00768589 8.51235 0.8
    endloop
  endfacet
  facet normal 0.881921 0.471397 0
    outer loop
      vertex -0.00768589 8.51235 0.8
      vertex -0.117157 8.71716 0
      vertex -0.117157 8.71716 0.8
    endloop
  endfacet
  facet normal 0.707107 0.707107 0
    outer loop
      vertex -1.18284 9.78284 0.8
      vertex -0.117157 8.71716 0.8
      vertex -1.18284 9.78284 0
    endloop
  endfacet
  facet normal 0.707107 0.707107 0
    outer loop
      vertex -0.117157 8.71716 0.8
      vertex -0.117157 8.71716 0
      vertex -1.18284 9.78284 0
    endloop
  endfacet
  facet normal 0.881922 0.471396 0
    outer loop
      vertex -1.18284 9.78284 0.8
      vertex -1.18284 9.78284 0
      vertex -1.29231 9.98765 0.8
    endloop
  endfacet
  facet normal 0.881922 0.471396 0
    outer loop
      vertex -1.18284 9.78284 0
      vertex -1.29231 9.98765 0
      vertex -1.29231 9.98765 0.8
    endloop
  endfacet
  facet normal 0.995185 0.0980175 0
    outer loop
      vertex -1.29231 9.98765 0.8
      vertex -1.29231 9.98765 0
      vertex -1.3 10.0657 0.8
    endloop
  endfacet
  facet normal 0.995185 0.0980175 0
    outer loop
      vertex -1.29231 9.98765 0
      vertex -1.3 10.0657 0
      vertex -1.3 10.0657 0.8
    endloop
  endfacet
  facet normal 1 0 0
    outer loop
      vertex -1.3 14.2 0.8
      vertex -1.3 10.0657 0.8
      vertex -1.3 14.2 0
    endloop
  endfacet
  facet normal 1 0 0
    outer loop
      vertex -1.3 10.0657 0.8
      vertex -1.3 10.0657 0
      vertex -1.3 14.2 0
    endloop
  endfacet
  facet normal 0.03926 0.999229 0
    outer loop
      vertex -2.03723 14.9975 0.298577
      vertex -2.1 15 0.3
      vertex -2.1 15 0.8
    endloop
  endfacet
  facet normal 0.11819 0.992942 0.0099112
    outer loop
      vertex -2.03723 14.9975 0.298577
      vertex -2.1 15 0.8
      vertex -1.97485 14.9902 0.294318
    endloop
  endfacet
  facet normal 0.156404 0.987501 0.0194746
    outer loop
      vertex -2.1 15 0.8
      vertex -1.85279 14.9608 0.8
      vertex -1.97485 14.9902 0.294318
    endloop
  endfacet
  facet normal 0.196136 0.980531 0.00947994
    outer loop
      vertex -1.97485 14.9902 0.294318
      vertex -1.85279 14.9608 0.8
      vertex -1.91324 14.9779 0.287248
    endloop
  endfacet
  facet normal 0.490678 0.8713 0.00841404
    outer loop
      vertex -1.682 14.8821 0.231988
      vertex -1.73681 14.9128 0.249695
      vertex -1.62977 14.8472 0.8
    endloop
  endfacet
  facet normal 0.424083 0.905267 0.0254154
    outer loop
      vertex -1.73681 14.9128 0.249695
      vertex -1.79385 14.9391 0.264867
      vertex -1.62977 14.8472 0.8
    endloop
  endfacet
  facet normal 0.453947 0.890922 0.0137954
    outer loop
      vertex -1.62977 14.8472 0.8
      vertex -1.79385 14.9391 0.264867
      vertex -1.85279 14.9608 0.8
    endloop
  endfacet
  facet normal 0.346119 0.938191 0
    outer loop
      vertex -1.79385 14.9391 0.264867
      vertex -1.85279 14.9608 0.277411
      vertex -1.85279 14.9608 0.8
    endloop
  endfacet
  facet normal 0.27144 0.962455 0
    outer loop
      vertex -1.85279 14.9608 0.8
      vertex -1.85279 14.9608 0.277411
      vertex -1.91324 14.9779 0.287248
    endloop
  endfacet
  facet normal 0.736356 0.676556 0.00716028
    outer loop
      vertex -1.49168 14.7196 0.138207
      vertex -1.53431 14.7657 0.164819
      vertex -1.45279 14.6702 0.8
    endloop
  endfacet
  facet normal 0.684823 0.728391 0.0215647
    outer loop
      vertex -1.53431 14.7657 0.164819
      vertex -1.58044 14.8083 0.189418
      vertex -1.45279 14.6702 0.8
    endloop
  endfacet
  facet normal 0.707054 0.707056 0.0120915
    outer loop
      vertex -1.45279 14.6702 0.8
      vertex -1.58044 14.8083 0.189418
      vertex -1.62977 14.8472 0.8
    endloop
  endfacet
  facet normal 0.619089 0.785321 0
    outer loop
      vertex -1.58044 14.8083 0.189418
      vertex -1.62977 14.8472 0.211854
      vertex -1.62977 14.8472 0.8
    endloop
  endfacet
  facet normal 0.55557 0.83147 0
    outer loop
      vertex -1.62977 14.8472 0.8
      vertex -1.62977 14.8472 0.211854
      vertex -1.682 14.8821 0.231988
    endloop
  endfacet
  facet normal 0.924847 0.380333 0.00235591
    outer loop
      vertex -1.3506 14.48 0
      vertex -1.37125 14.53 0.0288719
      vertex -1.33915 14.4472 0.8
    endloop
  endfacet
  facet normal 0.898622 0.438617 0.0097082
    outer loop
      vertex -1.37125 14.53 0.0288719
      vertex -1.39525 14.5786 0.0568718
      vertex -1.33915 14.4472 0.8
    endloop
  endfacet
  facet normal 0.869582 0.493317 0.0215697
    outer loop
      vertex -1.39525 14.5786 0.0568718
      vertex -1.42246 14.6254 0.0838714
      vertex -1.33915 14.4472 0.8
    endloop
  endfacet
  facet normal 0.890969 0.453969 0.00929248
    outer loop
      vertex -1.33915 14.4472 0.8
      vertex -1.42246 14.6254 0.0838714
      vertex -1.45279 14.6702 0.8
    endloop
  endfacet
  facet normal 0.828445 0.56007 0
    outer loop
      vertex -1.42246 14.6254 0.0838714
      vertex -1.45279 14.6702 0.109747
      vertex -1.45279 14.6702 0.8
    endloop
  endfacet
  facet normal 0.785317 0.619094 0
    outer loop
      vertex -1.45279 14.6702 0.8
      vertex -1.45279 14.6702 0.109747
      vertex -1.49168 14.7196 0.138207
    endloop
  endfacet
  facet normal 0.944128 0.32958 0
    outer loop
      vertex -1.3506 14.48 0
      vertex -1.33915 14.4472 0.8
      vertex -1.33915 14.4472 0
    endloop
  endfacet
  facet normal 0.987688 0.156435 0
    outer loop
      vertex -1.33915 14.4472 0.8
      vertex -1.3 14.2 0.8
      vertex -1.33915 14.4472 0
    endloop
  endfacet
  facet normal 0.987688 0.156435 0
    outer loop
      vertex -1.33915 14.4472 0
      vertex -1.3 14.2 0.8
      vertex -1.3 14.2 0
    endloop
  endfacet
  facet normal -0.939052 0.327821 0.103511
    outer loop
      vertex -10.9287 14.53 0.0288719
      vertex -10.9494 14.48 0
      vertex -10.9608 14.4472 0
    endloop
  endfacet
  facet normal -0.89862 0.438621 0.00970922
    outer loop
      vertex -10.9608 14.4472 0.8
      vertex -10.9048 14.5786 0.0568718
      vertex -10.9287 14.53 0.0288719
    endloop
  endfacet
  facet normal -0.736361 0.676551 0.00715929
    outer loop
      vertex -10.7657 14.7657 0.164819
      vertex -10.8083 14.7196 0.138207
      vertex -10.8472 14.6702 0.8
    endloop
  endfacet
  facet normal -0.785314 0.619098 0
    outer loop
      vertex -10.8083 14.7196 0.138207
      vertex -10.8472 14.6702 0.109747
      vertex -10.8472 14.6702 0.8
    endloop
  endfacet
  facet normal -0.891007 0.453989 0
    outer loop
      vertex -10.8472 14.6702 0.8
      vertex -10.8472 14.6702 0.109747
      vertex -10.9608 14.4472 0.8
    endloop
  endfacet
  facet normal -0.837881 0.544529 0.0379986
    outer loop
      vertex -10.8472 14.6702 0.109747
      vertex -10.8775 14.6254 0.0838714
      vertex -10.9608 14.4472 0.8
    endloop
  endfacet
  facet normal -0.869583 0.493316 0.0215694
    outer loop
      vertex -10.9608 14.4472 0.8
      vertex -10.8775 14.6254 0.0838714
      vertex -10.9048 14.5786 0.0568718
    endloop
  endfacet
  facet normal -0.490678 0.8713 0.00841394
    outer loop
      vertex -10.5632 14.9128 0.249695
      vertex -10.618 14.8821 0.231988
      vertex -10.6702 14.8472 0.8
    endloop
  endfacet
  facet normal -0.555569 0.83147 0
    outer loop
      vertex -10.618 14.8821 0.231988
      vertex -10.6702 14.8472 0.211854
      vertex -10.6702 14.8472 0.8
    endloop
  endfacet
  facet normal -0.707105 0.707109 0
    outer loop
      vertex -10.6702 14.8472 0.8
      vertex -10.6702 14.8472 0.211854
      vertex -10.8472 14.6702 0.8
    endloop
  endfacet
  facet normal -0.630608 0.774886 0.0434152
    outer loop
      vertex -10.6702 14.8472 0.211854
      vertex -10.7196 14.8083 0.189418
      vertex -10.8472 14.6702 0.8
    endloop
  endfacet
  facet normal -0.684819 0.728394 0.0215659
    outer loop
      vertex -10.8472 14.6702 0.8
      vertex -10.7196 14.8083 0.189418
      vertex -10.7657 14.7657 0.164819
    endloop
  endfacet
  facet normal -0.11941 0.99243 0.0286904
    outer loop
      vertex -10.3251 14.9902 0.294318
      vertex -10.4472 14.9608 0.8
      vertex -10.2628 14.9975 0.298577
    endloop
  endfacet
  facet normal -0.156417 0.987581 0.0147226
    outer loop
      vertex -10.4472 14.9608 0.8
      vertex -10.2 15 0.8
      vertex -10.2628 14.9975 0.298577
    endloop
  endfacet
  facet normal -0.0392605 0.999229 0
    outer loop
      vertex -10.2628 14.9975 0.298577
      vertex -10.2 15 0.8
      vertex -10.2 15 0.3
    endloop
  endfacet
  facet normal -0.196136 0.980531 0.00948011
    outer loop
      vertex -10.3251 14.9902 0.294318
      vertex -10.3868 14.9779 0.287248
      vertex -10.4472 14.9608 0.8
    endloop
  endfacet
  facet normal -0.271442 0.962455 0
    outer loop
      vertex -10.3868 14.9779 0.287248
      vertex -10.4472 14.9608 0.277411
      vertex -10.4472 14.9608 0.8
    endloop
  endfacet
  facet normal -0.453991 0.891006 0
    outer loop
      vertex -10.4472 14.9608 0.8
      vertex -10.4472 14.9608 0.277411
      vertex -10.6702 14.8472 0.8
    endloop
  endfacet
  facet normal -0.355262 0.933356 0.0513405
    outer loop
      vertex -10.4472 14.9608 0.277411
      vertex -10.5061 14.9391 0.264867
      vertex -10.6702 14.8472 0.8
    endloop
  endfacet
  facet normal -0.424085 0.905266 0.025415
    outer loop
      vertex -10.6702 14.8472 0.8
      vertex -10.5061 14.9391 0.264867
      vertex -10.5632 14.9128 0.249695
    endloop
  endfacet
  facet normal -0.932435 0.361337 0
    outer loop
      vertex -10.9287 14.53 0.0288719
      vertex -10.9608 14.4472 0
      vertex -10.9608 14.4472 0.8
    endloop
  endfacet
  facet normal -0.987688 0.156434 0
    outer loop
      vertex -10.9608 14.4472 0
      vertex -11 14.2 0
      vertex -10.9608 14.4472 0.8
    endloop
  endfacet
  facet normal -0.987688 0.156434 0
    outer loop
      vertex -10.9608 14.4472 0.8
      vertex -11 14.2 0
      vertex -11 14.2 0.8
    endloop
  endfacet
  facet normal -1 0 0
    outer loop
      vertex -11 1.26857 0.833262
      vertex -11 1.31243 0.811669
      vertex -11 0.8 0
    endloop
  endfacet
  facet normal -1 0 0
    outer loop
      vertex -11 1.13057 0.960342
      vertex -11 1.15282 0.941421
      vertex -11 0.8 0
    endloop
  endfacet
  facet normal -1 0 0
    outer loop
      vertex -11 1.15282 0.941421
      vertex -11 1.23707 0.858579
      vertex -11 0.8 0
    endloop
  endfacet
  facet normal -1 0 0
    outer loop
      vertex -11 0.8 0
      vertex -11 1.23707 0.858579
      vertex -11 1.26857 0.833262
    endloop
  endfacet
  facet normal -1 0 0
    outer loop
      vertex -11 14.2 0.8
      vertex -11 14.2 0
      vertex -11 1.38088 0.8
    endloop
  endfacet
  facet normal -1 0 0
    outer loop
      vertex -11 14.2 0
      vertex -11 0.8 0
      vertex -11 1.38088 0.8
    endloop
  endfacet
  facet normal -1 0 0
    outer loop
      vertex -11 1.38088 0.8
      vertex -11 0.8 0
      vertex -11 1.35937 0.801122
    endloop
  endfacet
  facet normal -1 0 0
    outer loop
      vertex -11 0.8 0
      vertex -11 1.31243 0.811669
      vertex -11 1.35937 0.801122
    endloop
  endfacet
  facet normal -1 0 0
    outer loop
      vertex -11 0.8 0
      vertex -11 0.8 1
      vertex -11 1.00898 1
    endloop
  endfacet
  facet normal -1 0 0
    outer loop
      vertex -11 1.00898 1
      vertex -11 1.04974 0.995945
      vertex -11 0.8 0
    endloop
  endfacet
  facet normal -1 0 0
    outer loop
      vertex -11 1.04974 0.995945
      vertex -11 1.09614 0.980711
      vertex -11 0.8 0
    endloop
  endfacet
  facet normal -1 0 0
    outer loop
      vertex -11 0.8 0
      vertex -11 1.09614 0.980711
      vertex -11 1.13057 0.960342
    endloop
  endfacet
endsolid Onshape
