solid Onshape
  facet normal 0 0 -1
    outer loop
      vertex 10.125 6 2
      vertex 9.5 6 2
      vertex 9.5 6.375 2
    endloop
  endfacet
  facet normal 0 0 -1
    outer loop
      vertex 10.125 6 2
      vertex 10.125 6.375 2
      vertex 13.5 6 2
    endloop
  endfacet
  facet normal 0 0 -1
    outer loop
      vertex 10.125 6.375 2
      vertex 13.5 6.375 2
      vertex 13.5 6 2
    endloop
  endfacet
  facet normal 0 0 -1
    outer loop
      vertex 13.5 6 2
      vertex 13.5 6.375 2
      vertex 16.5 6 2
    endloop
  endfacet
  facet normal 0 0 -1
    outer loop
      vertex 13.5 6.375 2
      vertex 16.5 6.375 2
      vertex 16.5 6 2
    endloop
  endfacet
  facet normal 0 0 -1
    outer loop
      vertex 16.5 6 2
      vertex 16.5 6.375 2
      vertex 19.5 6 2
    endloop
  endfacet
  facet normal 0 0 -1
    outer loop
      vertex 16.5 6.375 2
      vertex 19.5 6.375 2
      vertex 19.5 6 2
    endloop
  endfacet
  facet normal 0 0 -1
    outer loop
      vertex 19.5 6 2
      vertex 19.5 6.375 2
      vertex 22.5 6 2
    endloop
  endfacet
  facet normal 0 0 -1
    outer loop
      vertex 19.5 6.375 2
      vertex 22.5 6.375 2
      vertex 22.5 6 2
    endloop
  endfacet
  facet normal 0 0 -1
    outer loop
      vertex 22.5 6 2
      vertex 22.5 6.375 2
      vertex 25.5 6 2
    endloop
  endfacet
  facet normal 0 0 -1
    outer loop
      vertex 22.5 6.375 2
      vertex 25.5 6.375 2
      vertex 25.5 6 2
    endloop
  endfacet
  facet normal 0 0 -1
    outer loop
      vertex 25.5 9.5 2
      vertex 25.75 9.25 2
      vertex 25.5 6.375 2
    endloop
  endfacet
  facet normal 0 0 -1
    outer loop
      vertex 25.75 9.25 2
      vertex 25.75 6.75 2
      vertex 25.5 6.375 2
    endloop
  endfacet
  facet normal 0 0 -1
    outer loop
      vertex 25.5 6.375 2
      vertex 25.75 6.75 2
      vertex 28.25 6.75 2
    endloop
  endfacet
  facet normal 0 0 -1
    outer loop
      vertex 28.25 9.25 2
      vertex 29.5 9.5 2
      vertex 28.25 6.75 2
    endloop
  endfacet
  facet normal 0 0 -1
    outer loop
      vertex 29.5 9.5 2
      vertex 29.5 6.375 2
      vertex 28.25 6.75 2
    endloop
  endfacet
  facet normal 0 0 -1
    outer loop
      vertex 28.25 6.75 2
      vertex 29.5 6.375 2
      vertex 25.5 6.375 2
    endloop
  endfacet
  facet normal 0 0 -1
    outer loop
      vertex 29.5 6.375 2
      vertex 29.5 6 2
      vertex 25.5 6.375 2
    endloop
  endfacet
  facet normal 0 0 -1
    outer loop
      vertex 25.5 6.375 2
      vertex 29.5 6 2
      vertex 25.5 6 2
    endloop
  endfacet
  facet normal 0 0 -1
    outer loop
      vertex 25.25 9.25 2
      vertex 25.5 9.5 2
      vertex 25.25 6.75 2
    endloop
  endfacet
  facet normal 0 0 -1
    outer loop
      vertex 25.5 9.5 2
      vertex 25.5 6.375 2
      vertex 25.25 6.75 2
    endloop
  endfacet
  facet normal 0 0 -1
    outer loop
      vertex 25.25 6.75 2
      vertex 25.5 6.375 2
      vertex 22.75 6.75 2
    endloop
  endfacet
  facet normal 0 0 -1
    outer loop
      vertex 25.5 6.375 2
      vertex 22.5 6.375 2
      vertex 22.75 6.75 2
    endloop
  endfacet
  facet normal 0 0 -1
    outer loop
      vertex 22.75 6.75 2
      vertex 22.5 6.375 2
      vertex 22.75 9.25 2
    endloop
  endfacet
  facet normal 0 0 -1
    outer loop
      vertex 22.5 6.375 2
      vertex 22.5 9.5 2
      vertex 22.75 9.25 2
    endloop
  endfacet
  facet normal 0 0 -1
    outer loop
      vertex 22.75 9.25 2
      vertex 22.5 9.5 2
      vertex 25.25 9.25 2
    endloop
  endfacet
  facet normal 0 0 -1
    outer loop
      vertex 22.5 9.5 2
      vertex 25.5 9.5 2
      vertex 25.25 9.25 2
    endloop
  endfacet
  facet normal 0 0 -1
    outer loop
      vertex 22.25 9.25 2
      vertex 22.5 9.5 2
      vertex 22.25 6.75 2
    endloop
  endfacet
  facet normal 0 0 -1
    outer loop
      vertex 22.5 9.5 2
      vertex 22.5 6.375 2
      vertex 22.25 6.75 2
    endloop
  endfacet
  facet normal 0 0 -1
    outer loop
      vertex 22.25 6.75 2
      vertex 22.5 6.375 2
      vertex 19.75 6.75 2
    endloop
  endfacet
  facet normal 0 0 -1
    outer loop
      vertex 22.5 6.375 2
      vertex 19.5 6.375 2
      vertex 19.75 6.75 2
    endloop
  endfacet
  facet normal 0 0 -1
    outer loop
      vertex 19.75 6.75 2
      vertex 19.5 6.375 2
      vertex 19.75 9.25 2
    endloop
  endfacet
  facet normal 0 0 -1
    outer loop
      vertex 19.5 6.375 2
      vertex 19.5 9.5 2
      vertex 19.75 9.25 2
    endloop
  endfacet
  facet normal 0 0 -1
    outer loop
      vertex 19.75 9.25 2
      vertex 19.5 9.5 2
      vertex 22.25 9.25 2
    endloop
  endfacet
  facet normal 0 0 -1
    outer loop
      vertex 19.5 9.5 2
      vertex 22.5 9.5 2
      vertex 22.25 9.25 2
    endloop
  endfacet
  facet normal 0 0 -1
    outer loop
      vertex 19.25 9.25 2
      vertex 19.5 9.5 2
      vertex 19.25 6.75 2
    endloop
  endfacet
  facet normal 0 0 -1
    outer loop
      vertex 19.5 9.5 2
      vertex 19.5 6.375 2
      vertex 19.25 6.75 2
    endloop
  endfacet
  facet normal 0 0 -1
    outer loop
      vertex 19.25 6.75 2
      vertex 19.5 6.375 2
      vertex 16.75 6.75 2
    endloop
  endfacet
  facet normal 0 0 -1
    outer loop
      vertex 19.5 6.375 2
      vertex 16.5 6.375 2
      vertex 16.75 6.75 2
    endloop
  endfacet
  facet normal 0 0 -1
    outer loop
      vertex 16.75 6.75 2
      vertex 16.5 6.375 2
      vertex 16.75 9.25 2
    endloop
  endfacet
  facet normal 0 0 -1
    outer loop
      vertex 16.5 6.375 2
      vertex 16.5 9.5 2
      vertex 16.75 9.25 2
    endloop
  endfacet
  facet normal 0 0 -1
    outer loop
      vertex 16.75 9.25 2
      vertex 16.5 9.5 2
      vertex 19.25 9.25 2
    endloop
  endfacet
  facet normal 0 0 -1
    outer loop
      vertex 16.5 9.5 2
      vertex 19.5 9.5 2
      vertex 19.25 9.25 2
    endloop
  endfacet
  facet normal 0 0 -1
    outer loop
      vertex 16.25 9.25 2
      vertex 16.5 9.5 2
      vertex 16.25 6.75 2
    endloop
  endfacet
  facet normal 0 0 -1
    outer loop
      vertex 16.5 9.5 2
      vertex 16.5 6.375 2
      vertex 16.25 6.75 2
    endloop
  endfacet
  facet normal 0 0 -1
    outer loop
      vertex 16.25 6.75 2
      vertex 16.5 6.375 2
      vertex 13.75 6.75 2
    endloop
  endfacet
  facet normal 0 0 -1
    outer loop
      vertex 16.5 6.375 2
      vertex 13.5 6.375 2
      vertex 13.75 6.75 2
    endloop
  endfacet
  facet normal 0 0 -1
    outer loop
      vertex 13.75 6.75 2
      vertex 13.5 6.375 2
      vertex 13.75 9.25 2
    endloop
  endfacet
  facet normal 0 0 -1
    outer loop
      vertex 13.5 6.375 2
      vertex 13.5 9.5 2
      vertex 13.75 9.25 2
    endloop
  endfacet
  facet normal 0 0 -1
    outer loop
      vertex 13.75 9.25 2
      vertex 13.5 9.5 2
      vertex 16.25 9.25 2
    endloop
  endfacet
  facet normal 0 0 -1
    outer loop
      vertex 13.5 9.5 2
      vertex 16.5 9.5 2
      vertex 16.25 9.25 2
    endloop
  endfacet
  facet normal 0 0 -1
    outer loop
      vertex 13.25 9.25 2
      vertex 13.5 9.5 2
      vertex 13.25 6.75 2
    endloop
  endfacet
  facet normal 0 0 -1
    outer loop
      vertex 13.5 9.5 2
      vertex 13.5 6.375 2
      vertex 13.25 6.75 2
    endloop
  endfacet
  facet normal 0 0 -1
    outer loop
      vertex 13.25 6.75 2
      vertex 13.5 6.375 2
      vertex 10.75 6.75 2
    endloop
  endfacet
  facet normal 0 0 -1
    outer loop
      vertex 13.5 6.375 2
      vertex 10.125 6.375 2
      vertex 10.75 6.75 2
    endloop
  endfacet
  facet normal 0 0 -1
    outer loop
      vertex 10.75 6.75 2
      vertex 10.125 6.375 2
      vertex 10.75 9.25 2
    endloop
  endfacet
  facet normal 0 0 -1
    outer loop
      vertex 10.125 6.375 2
      vertex 10.125 9.5 2
      vertex 10.75 9.25 2
    endloop
  endfacet
  facet normal 0 0 -1
    outer loop
      vertex 10.75 9.25 2
      vertex 10.125 9.5 2
      vertex 13.25 9.25 2
    endloop
  endfacet
  facet normal 0 0 -1
    outer loop
      vertex 10.125 9.5 2
      vertex 13.5 9.5 2
      vertex 13.25 9.25 2
    endloop
  endfacet
  facet normal 0 0 -1
    outer loop
      vertex 25.5 9.5 2
      vertex 25.75 9.75 2
      vertex 28.25 9.75 2
    endloop
  endfacet
  facet normal 0 0 -1
    outer loop
      vertex 25.75 9.75 2
      vertex 25.5 9.5 2
      vertex 25.75 12.25 2
    endloop
  endfacet
  facet normal 0 0 -1
    outer loop
      vertex 25.5 9.5 2
      vertex 25.5 13 2
      vertex 25.75 12.25 2
    endloop
  endfacet
  facet normal 0 0 -1
    outer loop
      vertex 25.75 12.25 2
      vertex 25.5 13 2
      vertex 28.25 12.25 2
    endloop
  endfacet
  facet normal 0 0 -1
    outer loop
      vertex 25.5 13 2
      vertex 29.5 13 2
      vertex 28.25 12.25 2
    endloop
  endfacet
  facet normal 0 0 -1
    outer loop
      vertex 28.25 12.25 2
      vertex 29.5 13 2
      vertex 28.25 9.75 2
    endloop
  endfacet
  facet normal 0 0 -1
    outer loop
      vertex 29.5 13 2
      vertex 29.5 9.5 2
      vertex 28.25 9.75 2
    endloop
  endfacet
  facet normal 0 0 -1
    outer loop
      vertex 28.25 9.75 2
      vertex 29.5 9.5 2
      vertex 25.5 9.5 2
    endloop
  endfacet
  facet normal 0 0 -1
    outer loop
      vertex 29.5 9.5 2
      vertex 28.25 9.25 2
      vertex 25.5 9.5 2
    endloop
  endfacet
  facet normal 0 0 -1
    outer loop
      vertex 25.5 9.5 2
      vertex 28.25 9.25 2
      vertex 25.75 9.25 2
    endloop
  endfacet
  facet normal 0 0 -1
    outer loop
      vertex 22.75 12.25 2
      vertex 22.5 13 2
      vertex 25.25 12.25 2
    endloop
  endfacet
  facet normal 0 0 -1
    outer loop
      vertex 22.5 13 2
      vertex 25.5 13 2
      vertex 25.25 12.25 2
    endloop
  endfacet
  facet normal 0 0 -1
    outer loop
      vertex 25.25 12.25 2
      vertex 25.5 13 2
      vertex 25.25 9.75 2
    endloop
  endfacet
  facet normal 0 0 -1
    outer loop
      vertex 25.5 13 2
      vertex 25.5 9.5 2
      vertex 25.25 9.75 2
    endloop
  endfacet
  facet normal 0 0 -1
    outer loop
      vertex 25.25 9.75 2
      vertex 25.5 9.5 2
      vertex 22.75 9.75 2
    endloop
  endfacet
  facet normal 0 0 -1
    outer loop
      vertex 25.5 9.5 2
      vertex 22.5 9.5 2
      vertex 22.75 9.75 2
    endloop
  endfacet
  facet normal 0 0 -1
    outer loop
      vertex 22.75 9.75 2
      vertex 22.5 9.5 2
      vertex 22.75 12.25 2
    endloop
  endfacet
  facet normal 0 0 -1
    outer loop
      vertex 22.5 9.5 2
      vertex 22.5 13 2
      vertex 22.75 12.25 2
    endloop
  endfacet
  facet normal 0 0 -1
    outer loop
      vertex 19.75 12.25 2
      vertex 19.5 13 2
      vertex 22.25 12.25 2
    endloop
  endfacet
  facet normal 0 0 -1
    outer loop
      vertex 19.5 13 2
      vertex 22.5 13 2
      vertex 22.25 12.25 2
    endloop
  endfacet
  facet normal 0 0 -1
    outer loop
      vertex 22.25 12.25 2
      vertex 22.5 13 2
      vertex 22.25 9.75 2
    endloop
  endfacet
  facet normal 0 0 -1
    outer loop
      vertex 22.5 13 2
      vertex 22.5 9.5 2
      vertex 22.25 9.75 2
    endloop
  endfacet
  facet normal 0 0 -1
    outer loop
      vertex 22.25 9.75 2
      vertex 22.5 9.5 2
      vertex 19.75 9.75 2
    endloop
  endfacet
  facet normal 0 0 -1
    outer loop
      vertex 22.5 9.5 2
      vertex 19.5 9.5 2
      vertex 19.75 9.75 2
    endloop
  endfacet
  facet normal 0 0 -1
    outer loop
      vertex 19.75 9.75 2
      vertex 19.5 9.5 2
      vertex 19.75 12.25 2
    endloop
  endfacet
  facet normal 0 0 -1
    outer loop
      vertex 19.5 9.5 2
      vertex 19.5 13 2
      vertex 19.75 12.25 2
    endloop
  endfacet
  facet normal 0 0 -1
    outer loop
      vertex 16.75 12.25 2
      vertex 16.5 13 2
      vertex 19.25 12.25 2
    endloop
  endfacet
  facet normal 0 0 -1
    outer loop
      vertex 16.5 13 2
      vertex 19.5 13 2
      vertex 19.25 12.25 2
    endloop
  endfacet
  facet normal 0 0 -1
    outer loop
      vertex 19.25 12.25 2
      vertex 19.5 13 2
      vertex 19.25 9.75 2
    endloop
  endfacet
  facet normal 0 0 -1
    outer loop
      vertex 19.5 13 2
      vertex 19.5 9.5 2
      vertex 19.25 9.75 2
    endloop
  endfacet
  facet normal 0 0 -1
    outer loop
      vertex 19.25 9.75 2
      vertex 19.5 9.5 2
      vertex 16.75 9.75 2
    endloop
  endfacet
  facet normal 0 0 -1
    outer loop
      vertex 19.5 9.5 2
      vertex 16.5 9.5 2
      vertex 16.75 9.75 2
    endloop
  endfacet
  facet normal 0 0 -1
    outer loop
      vertex 16.75 9.75 2
      vertex 16.5 9.5 2
      vertex 16.75 12.25 2
    endloop
  endfacet
  facet normal 0 0 -1
    outer loop
      vertex 16.5 9.5 2
      vertex 16.5 13 2
      vertex 16.75 12.25 2
    endloop
  endfacet
  facet normal 0 0 -1
    outer loop
      vertex 13.75 12.25 2
      vertex 13.5 13 2
      vertex 16.25 12.25 2
    endloop
  endfacet
  facet normal 0 0 -1
    outer loop
      vertex 13.5 13 2
      vertex 16.5 13 2
      vertex 16.25 12.25 2
    endloop
  endfacet
  facet normal 0 0 -1
    outer loop
      vertex 16.25 12.25 2
      vertex 16.5 13 2
      vertex 16.25 9.75 2
    endloop
  endfacet
  facet normal 0 0 -1
    outer loop
      vertex 16.5 13 2
      vertex 16.5 9.5 2
      vertex 16.25 9.75 2
    endloop
  endfacet
  facet normal 0 0 -1
    outer loop
      vertex 16.25 9.75 2
      vertex 16.5 9.5 2
      vertex 13.75 9.75 2
    endloop
  endfacet
  facet normal 0 0 -1
    outer loop
      vertex 16.5 9.5 2
      vertex 13.5 9.5 2
      vertex 13.75 9.75 2
    endloop
  endfacet
  facet normal 0 0 -1
    outer loop
      vertex 13.75 9.75 2
      vertex 13.5 9.5 2
      vertex 13.75 12.25 2
    endloop
  endfacet
  facet normal 0 0 -1
    outer loop
      vertex 13.5 9.5 2
      vertex 13.5 13 2
      vertex 13.75 12.25 2
    endloop
  endfacet
  facet normal 0 0 -1
    outer loop
      vertex 13.25 12.25 2
      vertex 13.5 13 2
      vertex 13.25 9.75 2
    endloop
  endfacet
  facet normal 0 0 -1
    outer loop
      vertex 13.5 13 2
      vertex 13.5 9.5 2
      vertex 13.25 9.75 2
    endloop
  endfacet
  facet normal 0 0 -1
    outer loop
      vertex 13.25 9.75 2
      vertex 13.5 9.5 2
      vertex 10.75 9.75 2
    endloop
  endfacet
  facet normal 0 0 -1
    outer loop
      vertex 13.5 9.5 2
      vertex 10.125 9.5 2
      vertex 10.75 9.75 2
    endloop
  endfacet
  facet normal 0 0 -1
    outer loop
      vertex 10.75 9.75 2
      vertex 10.125 9.5 2
      vertex 10.75 12.25 2
    endloop
  endfacet
  facet normal 0 0 -1
    outer loop
      vertex 10.125 9.5 2
      vertex 10.125 13 2
      vertex 10.75 12.25 2
    endloop
  endfacet
  facet normal 0 0 -1
    outer loop
      vertex 10.75 12.25 2
      vertex 10.125 13 2
      vertex 13.25 12.25 2
    endloop
  endfacet
  facet normal 0 0 -1
    outer loop
      vertex 10.125 13 2
      vertex 13.5 13 2
      vertex 13.25 12.25 2
    endloop
  endfacet
  facet normal 0 0 -1
    outer loop
      vertex 10.125 6 2
      vertex 9.5 6.375 2
      vertex 10.125 6.375 2
    endloop
  endfacet
  facet normal 0 0 -1
    outer loop
      vertex 9.5 6.375 2
      vertex 9.5 9.5 2
      vertex 10.125 6.375 2
    endloop
  endfacet
  facet normal 0 0 -1
    outer loop
      vertex 10.125 6.375 2
      vertex 9.5 9.5 2
      vertex 10.125 9.5 2
    endloop
  endfacet
  facet normal 0 0 -1
    outer loop
      vertex 9.5 9.5 2
      vertex 9.5 13 2
      vertex 10.125 9.5 2
    endloop
  endfacet
  facet normal 0 0 -1
    outer loop
      vertex 10.125 9.5 2
      vertex 9.5 13 2
      vertex 10.125 13 2
    endloop
  endfacet
  facet normal 0 0 1
    outer loop
      vertex 29.5 6 12
      vertex 29.5 6.375 12
      vertex 25.5 6.375 12
    endloop
  endfacet
  facet normal 0 0 1
    outer loop
      vertex 28.25 9.75 12
      vertex 29.5 9.5 12
      vertex 28.25 12.25 12
    endloop
  endfacet
  facet normal 0 0 1
    outer loop
      vertex 29.5 9.5 12
      vertex 29.5 13 12
      vertex 28.25 12.25 12
    endloop
  endfacet
  facet normal 0 0 1
    outer loop
      vertex 28.25 12.25 12
      vertex 29.5 13 12
      vertex 25.75 12.25 12
    endloop
  endfacet
  facet normal 0 0 1
    outer loop
      vertex 29.5 13 12
      vertex 25.5 13 12
      vertex 25.75 12.25 12
    endloop
  endfacet
  facet normal 0 0 1
    outer loop
      vertex 25.75 12.25 12
      vertex 25.5 13 12
      vertex 25.75 9.75 12
    endloop
  endfacet
  facet normal 0 0 1
    outer loop
      vertex 25.5 13 12
      vertex 25.5 9.5 12
      vertex 25.75 9.75 12
    endloop
  endfacet
  facet normal 0 0 1
    outer loop
      vertex 25.75 9.75 12
      vertex 25.5 9.5 12
      vertex 28.25 9.75 12
    endloop
  endfacet
  facet normal 0 0 1
    outer loop
      vertex 25.25 12.25 12
      vertex 25.5 13 12
      vertex 22.75 12.25 12
    endloop
  endfacet
  facet normal 0 0 1
    outer loop
      vertex 25.5 13 12
      vertex 22.5 13 12
      vertex 22.75 12.25 12
    endloop
  endfacet
  facet normal 0 0 1
    outer loop
      vertex 22.75 12.25 12
      vertex 22.5 13 12
      vertex 22.75 9.75 12
    endloop
  endfacet
  facet normal 0 0 1
    outer loop
      vertex 22.5 13 12
      vertex 22.5 9.5 12
      vertex 22.75 9.75 12
    endloop
  endfacet
  facet normal 0 0 1
    outer loop
      vertex 22.75 9.75 12
      vertex 22.5 9.5 12
      vertex 25.25 9.75 12
    endloop
  endfacet
  facet normal 0 0 1
    outer loop
      vertex 22.5 9.5 12
      vertex 25.5 9.5 12
      vertex 25.25 9.75 12
    endloop
  endfacet
  facet normal 0 0 1
    outer loop
      vertex 25.25 9.75 12
      vertex 25.5 9.5 12
      vertex 25.25 12.25 12
    endloop
  endfacet
  facet normal 0 0 1
    outer loop
      vertex 25.5 9.5 12
      vertex 25.5 13 12
      vertex 25.25 12.25 12
    endloop
  endfacet
  facet normal 0 0 1
    outer loop
      vertex 22.25 12.25 12
      vertex 22.5 13 12
      vertex 19.75 12.25 12
    endloop
  endfacet
  facet normal 0 0 1
    outer loop
      vertex 22.5 13 12
      vertex 19.5 13 12
      vertex 19.75 12.25 12
    endloop
  endfacet
  facet normal 0 0 1
    outer loop
      vertex 19.75 12.25 12
      vertex 19.5 13 12
      vertex 19.75 9.75 12
    endloop
  endfacet
  facet normal 0 0 1
    outer loop
      vertex 19.5 13 12
      vertex 19.5 9.5 12
      vertex 19.75 9.75 12
    endloop
  endfacet
  facet normal 0 0 1
    outer loop
      vertex 19.75 9.75 12
      vertex 19.5 9.5 12
      vertex 22.25 9.75 12
    endloop
  endfacet
  facet normal 0 0 1
    outer loop
      vertex 19.5 9.5 12
      vertex 22.5 9.5 12
      vertex 22.25 9.75 12
    endloop
  endfacet
  facet normal 0 0 1
    outer loop
      vertex 22.25 9.75 12
      vertex 22.5 9.5 12
      vertex 22.25 12.25 12
    endloop
  endfacet
  facet normal 0 0 1
    outer loop
      vertex 22.5 9.5 12
      vertex 22.5 13 12
      vertex 22.25 12.25 12
    endloop
  endfacet
  facet normal 0 0 1
    outer loop
      vertex 19.25 12.25 12
      vertex 19.5 13 12
      vertex 16.75 12.25 12
    endloop
  endfacet
  facet normal 0 0 1
    outer loop
      vertex 19.5 13 12
      vertex 16.5 13 12
      vertex 16.75 12.25 12
    endloop
  endfacet
  facet normal 0 0 1
    outer loop
      vertex 16.75 12.25 12
      vertex 16.5 13 12
      vertex 16.75 9.75 12
    endloop
  endfacet
  facet normal 0 0 1
    outer loop
      vertex 16.5 13 12
      vertex 16.5 9.5 12
      vertex 16.75 9.75 12
    endloop
  endfacet
  facet normal 0 0 1
    outer loop
      vertex 16.75 9.75 12
      vertex 16.5 9.5 12
      vertex 19.25 9.75 12
    endloop
  endfacet
  facet normal 0 0 1
    outer loop
      vertex 16.5 9.5 12
      vertex 19.5 9.5 12
      vertex 19.25 9.75 12
    endloop
  endfacet
  facet normal 0 0 1
    outer loop
      vertex 19.25 9.75 12
      vertex 19.5 9.5 12
      vertex 19.25 12.25 12
    endloop
  endfacet
  facet normal 0 0 1
    outer loop
      vertex 19.5 9.5 12
      vertex 19.5 13 12
      vertex 19.25 12.25 12
    endloop
  endfacet
  facet normal 0 0 1
    outer loop
      vertex 16.25 12.25 12
      vertex 16.5 13 12
      vertex 13.75 12.25 12
    endloop
  endfacet
  facet normal 0 0 1
    outer loop
      vertex 16.5 13 12
      vertex 13.5 13 12
      vertex 13.75 12.25 12
    endloop
  endfacet
  facet normal 0 0 1
    outer loop
      vertex 13.75 12.25 12
      vertex 13.5 13 12
      vertex 13.75 9.75 12
    endloop
  endfacet
  facet normal 0 0 1
    outer loop
      vertex 13.5 13 12
      vertex 13.5 9.5 12
      vertex 13.75 9.75 12
    endloop
  endfacet
  facet normal 0 0 1
    outer loop
      vertex 13.75 9.75 12
      vertex 13.5 9.5 12
      vertex 16.25 9.75 12
    endloop
  endfacet
  facet normal 0 0 1
    outer loop
      vertex 13.5 9.5 12
      vertex 16.5 9.5 12
      vertex 16.25 9.75 12
    endloop
  endfacet
  facet normal 0 0 1
    outer loop
      vertex 16.25 9.75 12
      vertex 16.5 9.5 12
      vertex 16.25 12.25 12
    endloop
  endfacet
  facet normal 0 0 1
    outer loop
      vertex 16.5 9.5 12
      vertex 16.5 13 12
      vertex 16.25 12.25 12
    endloop
  endfacet
  facet normal 0 0 1
    outer loop
      vertex 10.75 12.25 12
      vertex 10.125 13 12
      vertex 10.75 9.75 12
    endloop
  endfacet
  facet normal 0 0 1
    outer loop
      vertex 10.125 13 12
      vertex 10.125 9.5 12
      vertex 10.75 9.75 12
    endloop
  endfacet
  facet normal 0 0 1
    outer loop
      vertex 10.75 9.75 12
      vertex 10.125 9.5 12
      vertex 13.25 9.75 12
    endloop
  endfacet
  facet normal 0 0 1
    outer loop
      vertex 10.125 9.5 12
      vertex 13.5 9.5 12
      vertex 13.25 9.75 12
    endloop
  endfacet
  facet normal 0 0 1
    outer loop
      vertex 13.25 9.75 12
      vertex 13.5 9.5 12
      vertex 13.25 12.25 12
    endloop
  endfacet
  facet normal 0 0 1
    outer loop
      vertex 13.5 9.5 12
      vertex 13.5 13 12
      vertex 13.25 12.25 12
    endloop
  endfacet
  facet normal 0 0 1
    outer loop
      vertex 13.25 12.25 12
      vertex 13.5 13 12
      vertex 10.75 12.25 12
    endloop
  endfacet
  facet normal 0 0 1
    outer loop
      vertex 13.5 13 12
      vertex 10.125 13 12
      vertex 10.75 12.25 12
    endloop
  endfacet
  facet normal 0 0 1
    outer loop
      vertex 28.25 9.75 12
      vertex 25.5 9.5 12
      vertex 29.5 9.5 12
    endloop
  endfacet
  facet normal 0 0 1
    outer loop
      vertex 25.5 9.5 12
      vertex 28.25 9.25 12
      vertex 29.5 9.5 12
    endloop
  endfacet
  facet normal 0 0 1
    outer loop
      vertex 29.5 9.5 12
      vertex 28.25 9.25 12
      vertex 29.5 6.375 12
    endloop
  endfacet
  facet normal 0 0 1
    outer loop
      vertex 28.25 9.25 12
      vertex 28.25 6.75 12
      vertex 29.5 6.375 12
    endloop
  endfacet
  facet normal 0 0 1
    outer loop
      vertex 29.5 6.375 12
      vertex 28.25 6.75 12
      vertex 25.5 6.375 12
    endloop
  endfacet
  facet normal 0 0 1
    outer loop
      vertex 28.25 6.75 12
      vertex 25.75 6.75 12
      vertex 25.5 6.375 12
    endloop
  endfacet
  facet normal 0 0 1
    outer loop
      vertex 25.5 6.375 12
      vertex 25.75 6.75 12
      vertex 25.5 9.5 12
    endloop
  endfacet
  facet normal 0 0 1
    outer loop
      vertex 25.75 6.75 12
      vertex 25.75 9.25 12
      vertex 25.5 9.5 12
    endloop
  endfacet
  facet normal 0 0 1
    outer loop
      vertex 25.5 9.5 12
      vertex 25.75 9.25 12
      vertex 28.25 9.25 12
    endloop
  endfacet
  facet normal 0 0 1
    outer loop
      vertex 22.75 9.25 12
      vertex 22.5 9.5 12
      vertex 22.75 6.75 12
    endloop
  endfacet
  facet normal 0 0 1
    outer loop
      vertex 22.5 9.5 12
      vertex 22.5 6.375 12
      vertex 22.75 6.75 12
    endloop
  endfacet
  facet normal 0 0 1
    outer loop
      vertex 22.75 6.75 12
      vertex 22.5 6.375 12
      vertex 25.25 6.75 12
    endloop
  endfacet
  facet normal 0 0 1
    outer loop
      vertex 22.5 6.375 12
      vertex 25.5 6.375 12
      vertex 25.25 6.75 12
    endloop
  endfacet
  facet normal 0 0 1
    outer loop
      vertex 25.25 6.75 12
      vertex 25.5 6.375 12
      vertex 25.25 9.25 12
    endloop
  endfacet
  facet normal 0 0 1
    outer loop
      vertex 25.5 6.375 12
      vertex 25.5 9.5 12
      vertex 25.25 9.25 12
    endloop
  endfacet
  facet normal 0 0 1
    outer loop
      vertex 25.25 9.25 12
      vertex 25.5 9.5 12
      vertex 22.75 9.25 12
    endloop
  endfacet
  facet normal 0 0 1
    outer loop
      vertex 25.5 9.5 12
      vertex 22.5 9.5 12
      vertex 22.75 9.25 12
    endloop
  endfacet
  facet normal 0 0 1
    outer loop
      vertex 19.75 9.25 12
      vertex 19.5 9.5 12
      vertex 19.75 6.75 12
    endloop
  endfacet
  facet normal 0 0 1
    outer loop
      vertex 19.5 9.5 12
      vertex 19.5 6.375 12
      vertex 19.75 6.75 12
    endloop
  endfacet
  facet normal 0 0 1
    outer loop
      vertex 19.75 6.75 12
      vertex 19.5 6.375 12
      vertex 22.25 6.75 12
    endloop
  endfacet
  facet normal 0 0 1
    outer loop
      vertex 19.5 6.375 12
      vertex 22.5 6.375 12
      vertex 22.25 6.75 12
    endloop
  endfacet
  facet normal 0 0 1
    outer loop
      vertex 22.25 6.75 12
      vertex 22.5 6.375 12
      vertex 22.25 9.25 12
    endloop
  endfacet
  facet normal 0 0 1
    outer loop
      vertex 22.5 6.375 12
      vertex 22.5 9.5 12
      vertex 22.25 9.25 12
    endloop
  endfacet
  facet normal 0 0 1
    outer loop
      vertex 22.25 9.25 12
      vertex 22.5 9.5 12
      vertex 19.75 9.25 12
    endloop
  endfacet
  facet normal 0 0 1
    outer loop
      vertex 22.5 9.5 12
      vertex 19.5 9.5 12
      vertex 19.75 9.25 12
    endloop
  endfacet
  facet normal 0 0 1
    outer loop
      vertex 16.75 9.25 12
      vertex 16.5 9.5 12
      vertex 16.75 6.75 12
    endloop
  endfacet
  facet normal 0 0 1
    outer loop
      vertex 16.5 9.5 12
      vertex 16.5 6.375 12
      vertex 16.75 6.75 12
    endloop
  endfacet
  facet normal 0 0 1
    outer loop
      vertex 16.75 6.75 12
      vertex 16.5 6.375 12
      vertex 19.25 6.75 12
    endloop
  endfacet
  facet normal 0 0 1
    outer loop
      vertex 16.5 6.375 12
      vertex 19.5 6.375 12
      vertex 19.25 6.75 12
    endloop
  endfacet
  facet normal 0 0 1
    outer loop
      vertex 19.25 6.75 12
      vertex 19.5 6.375 12
      vertex 19.25 9.25 12
    endloop
  endfacet
  facet normal 0 0 1
    outer loop
      vertex 19.5 6.375 12
      vertex 19.5 9.5 12
      vertex 19.25 9.25 12
    endloop
  endfacet
  facet normal 0 0 1
    outer loop
      vertex 19.25 9.25 12
      vertex 19.5 9.5 12
      vertex 16.75 9.25 12
    endloop
  endfacet
  facet normal 0 0 1
    outer loop
      vertex 19.5 9.5 12
      vertex 16.5 9.5 12
      vertex 16.75 9.25 12
    endloop
  endfacet
  facet normal 0 0 1
    outer loop
      vertex 13.75 9.25 12
      vertex 13.5 9.5 12
      vertex 13.75 6.75 12
    endloop
  endfacet
  facet normal 0 0 1
    outer loop
      vertex 13.5 9.5 12
      vertex 13.5 6.375 12
      vertex 13.75 6.75 12
    endloop
  endfacet
  facet normal 0 0 1
    outer loop
      vertex 13.75 6.75 12
      vertex 13.5 6.375 12
      vertex 16.25 6.75 12
    endloop
  endfacet
  facet normal 0 0 1
    outer loop
      vertex 13.5 6.375 12
      vertex 16.5 6.375 12
      vertex 16.25 6.75 12
    endloop
  endfacet
  facet normal 0 0 1
    outer loop
      vertex 16.25 6.75 12
      vertex 16.5 6.375 12
      vertex 16.25 9.25 12
    endloop
  endfacet
  facet normal 0 0 1
    outer loop
      vertex 16.5 6.375 12
      vertex 16.5 9.5 12
      vertex 16.25 9.25 12
    endloop
  endfacet
  facet normal 0 0 1
    outer loop
      vertex 16.25 9.25 12
      vertex 16.5 9.5 12
      vertex 13.75 9.25 12
    endloop
  endfacet
  facet normal 0 0 1
    outer loop
      vertex 16.5 9.5 12
      vertex 13.5 9.5 12
      vertex 13.75 9.25 12
    endloop
  endfacet
  facet normal 0 0 1
    outer loop
      vertex 10.75 9.25 12
      vertex 10.125 9.5 12
      vertex 10.75 6.75 12
    endloop
  endfacet
  facet normal 0 0 1
    outer loop
      vertex 10.125 9.5 12
      vertex 10.125 6.375 12
      vertex 10.75 6.75 12
    endloop
  endfacet
  facet normal 0 0 1
    outer loop
      vertex 10.75 6.75 12
      vertex 10.125 6.375 12
      vertex 13.25 6.75 12
    endloop
  endfacet
  facet normal 0 0 1
    outer loop
      vertex 10.125 6.375 12
      vertex 13.5 6.375 12
      vertex 13.25 6.75 12
    endloop
  endfacet
  facet normal 0 0 1
    outer loop
      vertex 13.25 6.75 12
      vertex 13.5 6.375 12
      vertex 13.25 9.25 12
    endloop
  endfacet
  facet normal 0 0 1
    outer loop
      vertex 13.5 6.375 12
      vertex 13.5 9.5 12
      vertex 13.25 9.25 12
    endloop
  endfacet
  facet normal 0 0 1
    outer loop
      vertex 13.25 9.25 12
      vertex 13.5 9.5 12
      vertex 10.75 9.25 12
    endloop
  endfacet
  facet normal 0 0 1
    outer loop
      vertex 13.5 9.5 12
      vertex 10.125 9.5 12
      vertex 10.75 9.25 12
    endloop
  endfacet
  facet normal 0 0 1
    outer loop
      vertex 10.125 13 12
      vertex 9.5 13 12
      vertex 10.125 9.5 12
    endloop
  endfacet
  facet normal 0 0 1
    outer loop
      vertex 9.5 13 12
      vertex 9.5 9.5 12
      vertex 10.125 9.5 12
    endloop
  endfacet
  facet normal 0 0 1
    outer loop
      vertex 10.125 9.5 12
      vertex 9.5 9.5 12
      vertex 10.125 6.375 12
    endloop
  endfacet
  facet normal 0 0 1
    outer loop
      vertex 9.5 9.5 12
      vertex 9.5 6.375 12
      vertex 10.125 6.375 12
    endloop
  endfacet
  facet normal 0 0 1
    outer loop
      vertex 29.5 6 12
      vertex 25.5 6.375 12
      vertex 25.5 6 12
    endloop
  endfacet
  facet normal 0 0 1
    outer loop
      vertex 25.5 6.375 12
      vertex 22.5 6.375 12
      vertex 25.5 6 12
    endloop
  endfacet
  facet normal 0 0 1
    outer loop
      vertex 25.5 6 12
      vertex 22.5 6.375 12
      vertex 22.5 6 12
    endloop
  endfacet
  facet normal 0 0 1
    outer loop
      vertex 22.5 6.375 12
      vertex 19.5 6.375 12
      vertex 22.5 6 12
    endloop
  endfacet
  facet normal 0 0 1
    outer loop
      vertex 22.5 6 12
      vertex 19.5 6.375 12
      vertex 19.5 6 12
    endloop
  endfacet
  facet normal 0 0 1
    outer loop
      vertex 19.5 6.375 12
      vertex 16.5 6.375 12
      vertex 19.5 6 12
    endloop
  endfacet
  facet normal 0 0 1
    outer loop
      vertex 19.5 6 12
      vertex 16.5 6.375 12
      vertex 16.5 6 12
    endloop
  endfacet
  facet normal 0 0 1
    outer loop
      vertex 16.5 6.375 12
      vertex 13.5 6.375 12
      vertex 16.5 6 12
    endloop
  endfacet
  facet normal 0 0 1
    outer loop
      vertex 16.5 6 12
      vertex 13.5 6.375 12
      vertex 13.5 6 12
    endloop
  endfacet
  facet normal 0 0 1
    outer loop
      vertex 13.5 6.375 12
      vertex 10.125 6.375 12
      vertex 13.5 6 12
    endloop
  endfacet
  facet normal 0 0 1
    outer loop
      vertex 13.5 6 12
      vertex 10.125 6.375 12
      vertex 10.125 6 12
    endloop
  endfacet
  facet normal 0 0 1
    outer loop
      vertex 10.125 6.375 12
      vertex 9.5 6.375 12
      vertex 10.125 6 12
    endloop
  endfacet
  facet normal 0 0 1
    outer loop
      vertex 10.125 6 12
      vertex 9.5 6.375 12
      vertex 9.5 6 12
    endloop
  endfacet
  facet normal 1 0 0
    outer loop
      vertex 29.5 13 2
      vertex 29.5 13 12
      vertex 29.5 9.5 2
    endloop
  endfacet
  facet normal 1 0 0
    outer loop
      vertex 29.5 13 12
      vertex 29.5 9.5 12
      vertex 29.5 9.5 2
    endloop
  endfacet
  facet normal 1 0 0
    outer loop
      vertex 29.5 9.5 2
      vertex 29.5 9.5 12
      vertex 29.5 6.375 2
    endloop
  endfacet
  facet normal 1 0 0
    outer loop
      vertex 29.5 9.5 12
      vertex 29.5 6.375 12
      vertex 29.5 6.375 2
    endloop
  endfacet
  facet normal 1 0 0
    outer loop
      vertex 29.5 6.375 2
      vertex 29.5 6.375 12
      vertex 29.5 6 2
    endloop
  endfacet
  facet normal 1 0 0
    outer loop
      vertex 29.5 6.375 12
      vertex 29.5 6 12
      vertex 29.5 6 2
    endloop
  endfacet
  facet normal 0 1 0
    outer loop
      vertex 13.75 6.75 12
      vertex 16.25 6.75 12
      vertex 13.75 6.75 2
    endloop
  endfacet
  facet normal 0 1 0
    outer loop
      vertex 16.25 6.75 12
      vertex 16.25 6.75 2
      vertex 13.75 6.75 2
    endloop
  endfacet
  facet normal 0 1 0
    outer loop
      vertex 16.75 6.75 12
      vertex 19.25 6.75 12
      vertex 16.75 6.75 2
    endloop
  endfacet
  facet normal 0 1 0
    outer loop
      vertex 19.25 6.75 12
      vertex 19.25 6.75 2
      vertex 16.75 6.75 2
    endloop
  endfacet
  facet normal 0 1 0
    outer loop
      vertex 19.75 6.75 12
      vertex 22.25 6.75 12
      vertex 19.75 6.75 2
    endloop
  endfacet
  facet normal 0 1 0
    outer loop
      vertex 22.25 6.75 12
      vertex 22.25 6.75 2
      vertex 19.75 6.75 2
    endloop
  endfacet
  facet normal 0 1 0
    outer loop
      vertex 22.75 6.75 12
      vertex 25.25 6.75 12
      vertex 22.75 6.75 2
    endloop
  endfacet
  facet normal 0 1 0
    outer loop
      vertex 25.25 6.75 12
      vertex 25.25 6.75 2
      vertex 22.75 6.75 2
    endloop
  endfacet
  facet normal 0 1 0
    outer loop
      vertex 25.75 6.75 12
      vertex 28.25 6.75 12
      vertex 25.75 6.75 2
    endloop
  endfacet
  facet normal 0 1 0
    outer loop
      vertex 28.25 6.75 12
      vertex 28.25 6.75 2
      vertex 25.75 6.75 2
    endloop
  endfacet
  facet normal -1 0 0
    outer loop
      vertex 28.25 9.75 12
      vertex 28.25 12.25 12
      vertex 28.25 9.75 2
    endloop
  endfacet
  facet normal -1 0 0
    outer loop
      vertex 28.25 12.25 12
      vertex 28.25 12.25 2
      vertex 28.25 9.75 2
    endloop
  endfacet
  facet normal -1 0 0
    outer loop
      vertex 25.25 9.75 12
      vertex 25.25 12.25 12
      vertex 25.25 9.75 2
    endloop
  endfacet
  facet normal -1 0 0
    outer loop
      vertex 25.25 12.25 12
      vertex 25.25 12.25 2
      vertex 25.25 9.75 2
    endloop
  endfacet
  facet normal -1 0 0
    outer loop
      vertex 22.25 9.75 12
      vertex 22.25 12.25 12
      vertex 22.25 9.75 2
    endloop
  endfacet
  facet normal -1 0 0
    outer loop
      vertex 22.25 12.25 12
      vertex 22.25 12.25 2
      vertex 22.25 9.75 2
    endloop
  endfacet
  facet normal -1 0 0
    outer loop
      vertex 19.25 9.75 12
      vertex 19.25 12.25 12
      vertex 19.25 9.75 2
    endloop
  endfacet
  facet normal -1 0 0
    outer loop
      vertex 19.25 12.25 12
      vertex 19.25 12.25 2
      vertex 19.25 9.75 2
    endloop
  endfacet
  facet normal -1 0 0
    outer loop
      vertex 16.25 9.75 12
      vertex 16.25 12.25 12
      vertex 16.25 9.75 2
    endloop
  endfacet
  facet normal -1 0 0
    outer loop
      vertex 16.25 12.25 12
      vertex 16.25 12.25 2
      vertex 16.25 9.75 2
    endloop
  endfacet
  facet normal 0 1 0
    outer loop
      vertex 10.75 6.75 12
      vertex 13.25 6.75 12
      vertex 10.75 6.75 2
    endloop
  endfacet
  facet normal 0 1 0
    outer loop
      vertex 13.25 6.75 12
      vertex 13.25 6.75 2
      vertex 10.75 6.75 2
    endloop
  endfacet
  facet normal 0 1 0
    outer loop
      vertex 10.75 9.75 12
      vertex 13.25 9.75 12
      vertex 10.75 9.75 2
    endloop
  endfacet
  facet normal 0 1 0
    outer loop
      vertex 13.25 9.75 12
      vertex 13.25 9.75 2
      vertex 10.75 9.75 2
    endloop
  endfacet
  facet normal -1 0 0
    outer loop
      vertex 16.25 6.75 12
      vertex 16.25 9.25 12
      vertex 16.25 6.75 2
    endloop
  endfacet
  facet normal -1 0 0
    outer loop
      vertex 16.25 9.25 12
      vertex 16.25 9.25 2
      vertex 16.25 6.75 2
    endloop
  endfacet
  facet normal 0 -1 0
    outer loop
      vertex 16.25 9.25 12
      vertex 13.75 9.25 12
      vertex 16.25 9.25 2
    endloop
  endfacet
  facet normal 0 -1 0
    outer loop
      vertex 13.75 9.25 12
      vertex 13.75 9.25 2
      vertex 16.25 9.25 2
    endloop
  endfacet
  facet normal 1 0 0
    outer loop
      vertex 13.75 9.25 12
      vertex 13.75 6.75 12
      vertex 13.75 9.25 2
    endloop
  endfacet
  facet normal 1 0 0
    outer loop
      vertex 13.75 6.75 12
      vertex 13.75 6.75 2
      vertex 13.75 9.25 2
    endloop
  endfacet
  facet normal 0 -1 0
    outer loop
      vertex 19.25 12.25 12
      vertex 16.75 12.25 12
      vertex 19.25 12.25 2
    endloop
  endfacet
  facet normal 0 -1 0
    outer loop
      vertex 16.75 12.25 12
      vertex 16.75 12.25 2
      vertex 19.25 12.25 2
    endloop
  endfacet
  facet normal 0 1 0
    outer loop
      vertex 16.75 9.75 12
      vertex 19.25 9.75 12
      vertex 16.75 9.75 2
    endloop
  endfacet
  facet normal 0 1 0
    outer loop
      vertex 19.25 9.75 12
      vertex 19.25 9.75 2
      vertex 16.75 9.75 2
    endloop
  endfacet
  facet normal 0 -1 0
    outer loop
      vertex 16.25 12.25 12
      vertex 13.75 12.25 12
      vertex 16.25 12.25 2
    endloop
  endfacet
  facet normal 0 -1 0
    outer loop
      vertex 13.75 12.25 12
      vertex 13.75 12.25 2
      vertex 16.25 12.25 2
    endloop
  endfacet
  facet normal 0 1 0
    outer loop
      vertex 13.75 9.75 12
      vertex 16.25 9.75 12
      vertex 13.75 9.75 2
    endloop
  endfacet
  facet normal 0 1 0
    outer loop
      vertex 16.25 9.75 12
      vertex 16.25 9.75 2
      vertex 13.75 9.75 2
    endloop
  endfacet
  facet normal 1 0 0
    outer loop
      vertex 25.75 9.25 12
      vertex 25.75 6.75 12
      vertex 25.75 9.25 2
    endloop
  endfacet
  facet normal 1 0 0
    outer loop
      vertex 25.75 6.75 12
      vertex 25.75 6.75 2
      vertex 25.75 9.25 2
    endloop
  endfacet
  facet normal 0 1 0
    outer loop
      vertex 19.75 9.75 12
      vertex 22.25 9.75 12
      vertex 19.75 9.75 2
    endloop
  endfacet
  facet normal 0 1 0
    outer loop
      vertex 22.25 9.75 12
      vertex 22.25 9.75 2
      vertex 19.75 9.75 2
    endloop
  endfacet
  facet normal -1 0 0
    outer loop
      vertex 13.25 6.75 12
      vertex 13.25 9.25 12
      vertex 13.25 6.75 2
    endloop
  endfacet
  facet normal -1 0 0
    outer loop
      vertex 13.25 9.25 12
      vertex 13.25 9.25 2
      vertex 13.25 6.75 2
    endloop
  endfacet
  facet normal 0 -1 0
    outer loop
      vertex 28.25 9.25 12
      vertex 25.75 9.25 12
      vertex 28.25 9.25 2
    endloop
  endfacet
  facet normal 0 -1 0
    outer loop
      vertex 25.75 9.25 12
      vertex 25.75 9.25 2
      vertex 28.25 9.25 2
    endloop
  endfacet
  facet normal 0 -1 0
    outer loop
      vertex 13.25 9.25 12
      vertex 10.75 9.25 12
      vertex 13.25 9.25 2
    endloop
  endfacet
  facet normal 0 -1 0
    outer loop
      vertex 10.75 9.25 12
      vertex 10.75 9.25 2
      vertex 13.25 9.25 2
    endloop
  endfacet
  facet normal 1 0 0
    outer loop
      vertex 10.75 9.25 12
      vertex 10.75 6.75 12
      vertex 10.75 9.25 2
    endloop
  endfacet
  facet normal 1 0 0
    outer loop
      vertex 10.75 6.75 12
      vertex 10.75 6.75 2
      vertex 10.75 9.25 2
    endloop
  endfacet
  facet normal 1 0 0
    outer loop
      vertex 25.75 12.25 12
      vertex 25.75 9.75 12
      vertex 25.75 12.25 2
    endloop
  endfacet
  facet normal 1 0 0
    outer loop
      vertex 25.75 9.75 12
      vertex 25.75 9.75 2
      vertex 25.75 12.25 2
    endloop
  endfacet
  facet normal -1 0 0
    outer loop
      vertex 9.5 6 2
      vertex 9.5 6 12
      vertex 9.5 6.375 2
    endloop
  endfacet
  facet normal -1 0 0
    outer loop
      vertex 9.5 6 12
      vertex 9.5 6.375 12
      vertex 9.5 6.375 2
    endloop
  endfacet
  facet normal -1 0 0
    outer loop
      vertex 9.5 6.375 2
      vertex 9.5 6.375 12
      vertex 9.5 9.5 2
    endloop
  endfacet
  facet normal -1 0 0
    outer loop
      vertex 9.5 6.375 12
      vertex 9.5 9.5 12
      vertex 9.5 9.5 2
    endloop
  endfacet
  facet normal -1 0 0
    outer loop
      vertex 9.5 9.5 2
      vertex 9.5 9.5 12
      vertex 9.5 13 2
    endloop
  endfacet
  facet normal -1 0 0
    outer loop
      vertex 9.5 9.5 12
      vertex 9.5 13 12
      vertex 9.5 13 2
    endloop
  endfacet
  facet normal 1 0 0
    outer loop
      vertex 22.75 12.25 12
      vertex 22.75 9.75 12
      vertex 22.75 12.25 2
    endloop
  endfacet
  facet normal 1 0 0
    outer loop
      vertex 22.75 9.75 12
      vertex 22.75 9.75 2
      vertex 22.75 12.25 2
    endloop
  endfacet
  facet normal 1 0 0
    outer loop
      vertex 13.75 12.25 12
      vertex 13.75 9.75 12
      vertex 13.75 12.25 2
    endloop
  endfacet
  facet normal 1 0 0
    outer loop
      vertex 13.75 9.75 12
      vertex 13.75 9.75 2
      vertex 13.75 12.25 2
    endloop
  endfacet
  facet normal 0 1 0
    outer loop
      vertex 9.5 13 2
      vertex 9.5 13 12
      vertex 10.125 13 2
    endloop
  endfacet
  facet normal 0 1 0
    outer loop
      vertex 9.5 13 12
      vertex 10.125 13 12
      vertex 10.125 13 2
    endloop
  endfacet
  facet normal 0 1 0
    outer loop
      vertex 10.125 13 2
      vertex 10.125 13 12
      vertex 13.5 13 2
    endloop
  endfacet
  facet normal 0 1 0
    outer loop
      vertex 10.125 13 12
      vertex 13.5 13 12
      vertex 13.5 13 2
    endloop
  endfacet
  facet normal 0 1 0
    outer loop
      vertex 13.5 13 2
      vertex 13.5 13 12
      vertex 16.5 13 2
    endloop
  endfacet
  facet normal 0 1 0
    outer loop
      vertex 13.5 13 12
      vertex 16.5 13 12
      vertex 16.5 13 2
    endloop
  endfacet
  facet normal 0 1 0
    outer loop
      vertex 16.5 13 2
      vertex 16.5 13 12
      vertex 19.5 13 2
    endloop
  endfacet
  facet normal 0 1 0
    outer loop
      vertex 16.5 13 12
      vertex 19.5 13 12
      vertex 19.5 13 2
    endloop
  endfacet
  facet normal 0 1 0
    outer loop
      vertex 19.5 13 2
      vertex 19.5 13 12
      vertex 22.5 13 2
    endloop
  endfacet
  facet normal 0 1 0
    outer loop
      vertex 19.5 13 12
      vertex 22.5 13 12
      vertex 22.5 13 2
    endloop
  endfacet
  facet normal 0 1 0
    outer loop
      vertex 22.5 13 2
      vertex 22.5 13 12
      vertex 25.5 13 2
    endloop
  endfacet
  facet normal 0 1 0
    outer loop
      vertex 22.5 13 12
      vertex 25.5 13 12
      vertex 25.5 13 2
    endloop
  endfacet
  facet normal 0 1 0
    outer loop
      vertex 25.5 13 2
      vertex 25.5 13 12
      vertex 29.5 13 2
    endloop
  endfacet
  facet normal 0 1 0
    outer loop
      vertex 25.5 13 12
      vertex 29.5 13 12
      vertex 29.5 13 2
    endloop
  endfacet
  facet normal 0 -1 0
    outer loop
      vertex 29.5 6 2
      vertex 29.5 6 12
      vertex 25.5 6 2
    endloop
  endfacet
  facet normal 0 -1 0
    outer loop
      vertex 29.5 6 12
      vertex 25.5 6 12
      vertex 25.5 6 2
    endloop
  endfacet
  facet normal 0 -1 0
    outer loop
      vertex 25.5 6 2
      vertex 25.5 6 12
      vertex 22.5 6 2
    endloop
  endfacet
  facet normal 0 -1 0
    outer loop
      vertex 25.5 6 12
      vertex 22.5 6 12
      vertex 22.5 6 2
    endloop
  endfacet
  facet normal 0 -1 0
    outer loop
      vertex 22.5 6 2
      vertex 22.5 6 12
      vertex 19.5 6 2
    endloop
  endfacet
  facet normal 0 -1 0
    outer loop
      vertex 22.5 6 12
      vertex 19.5 6 12
      vertex 19.5 6 2
    endloop
  endfacet
  facet normal 0 -1 0
    outer loop
      vertex 19.5 6 2
      vertex 19.5 6 12
      vertex 16.5 6 2
    endloop
  endfacet
  facet normal 0 -1 0
    outer loop
      vertex 19.5 6 12
      vertex 16.5 6 12
      vertex 16.5 6 2
    endloop
  endfacet
  facet normal 0 -1 0
    outer loop
      vertex 16.5 6 2
      vertex 16.5 6 12
      vertex 13.5 6 2
    endloop
  endfacet
  facet normal 0 -1 0
    outer loop
      vertex 16.5 6 12
      vertex 13.5 6 12
      vertex 13.5 6 2
    endloop
  endfacet
  facet normal 0 -1 0
    outer loop
      vertex 13.5 6 2
      vertex 13.5 6 12
      vertex 10.125 6 2
    endloop
  endfacet
  facet normal 0 -1 0
    outer loop
      vertex 13.5 6 12
      vertex 10.125 6 12
      vertex 10.125 6 2
    endloop
  endfacet
  facet normal 0 -1 0
    outer loop
      vertex 10.125 6 2
      vertex 10.125 6 12
      vertex 9.5 6 2
    endloop
  endfacet
  facet normal 0 -1 0
    outer loop
      vertex 10.125 6 12
      vertex 9.5 6 12
      vertex 9.5 6 2
    endloop
  endfacet
  facet normal 0 -1 0
    outer loop
      vertex 25.25 12.25 12
      vertex 22.75 12.25 12
      vertex 25.25 12.25 2
    endloop
  endfacet
  facet normal 0 -1 0
    outer loop
      vertex 22.75 12.25 12
      vertex 22.75 12.25 2
      vertex 25.25 12.25 2
    endloop
  endfacet
  facet normal 1 0 0
    outer loop
      vertex 16.75 12.25 12
      vertex 16.75 9.75 12
      vertex 16.75 12.25 2
    endloop
  endfacet
  facet normal 1 0 0
    outer loop
      vertex 16.75 9.75 12
      vertex 16.75 9.75 2
      vertex 16.75 12.25 2
    endloop
  endfacet
  facet normal 1 0 0
    outer loop
      vertex 10.75 12.25 12
      vertex 10.75 9.75 12
      vertex 10.75 12.25 2
    endloop
  endfacet
  facet normal 1 0 0
    outer loop
      vertex 10.75 9.75 12
      vertex 10.75 9.75 2
      vertex 10.75 12.25 2
    endloop
  endfacet
  facet normal 0 -1 0
    outer loop
      vertex 13.25 12.25 12
      vertex 10.75 12.25 12
      vertex 13.25 12.25 2
    endloop
  endfacet
  facet normal 0 -1 0
    outer loop
      vertex 10.75 12.25 12
      vertex 10.75 12.25 2
      vertex 13.25 12.25 2
    endloop
  endfacet
  facet normal 1 0 0
    outer loop
      vertex 22.75 9.25 12
      vertex 22.75 6.75 12
      vertex 22.75 9.25 2
    endloop
  endfacet
  facet normal 1 0 0
    outer loop
      vertex 22.75 6.75 12
      vertex 22.75 6.75 2
      vertex 22.75 9.25 2
    endloop
  endfacet
  facet normal -1 0 0
    outer loop
      vertex 13.25 9.75 12
      vertex 13.25 12.25 12
      vertex 13.25 9.75 2
    endloop
  endfacet
  facet normal -1 0 0
    outer loop
      vertex 13.25 12.25 12
      vertex 13.25 12.25 2
      vertex 13.25 9.75 2
    endloop
  endfacet
  facet normal 0 1 0
    outer loop
      vertex 25.75 9.75 12
      vertex 28.25 9.75 12
      vertex 25.75 9.75 2
    endloop
  endfacet
  facet normal 0 1 0
    outer loop
      vertex 28.25 9.75 12
      vertex 28.25 9.75 2
      vertex 25.75 9.75 2
    endloop
  endfacet
  facet normal 1 0 0
    outer loop
      vertex 19.75 12.25 12
      vertex 19.75 9.75 12
      vertex 19.75 12.25 2
    endloop
  endfacet
  facet normal 1 0 0
    outer loop
      vertex 19.75 9.75 12
      vertex 19.75 9.75 2
      vertex 19.75 12.25 2
    endloop
  endfacet
  facet normal 0 -1 0
    outer loop
      vertex 22.25 12.25 12
      vertex 19.75 12.25 12
      vertex 22.25 12.25 2
    endloop
  endfacet
  facet normal 0 -1 0
    outer loop
      vertex 19.75 12.25 12
      vertex 19.75 12.25 2
      vertex 22.25 12.25 2
    endloop
  endfacet
  facet normal 0 1 0
    outer loop
      vertex 22.75 9.75 12
      vertex 25.25 9.75 12
      vertex 22.75 9.75 2
    endloop
  endfacet
  facet normal 0 1 0
    outer loop
      vertex 25.25 9.75 12
      vertex 25.25 9.75 2
      vertex 22.75 9.75 2
    endloop
  endfacet
  facet normal 0 -1 0
    outer loop
      vertex 28.25 12.25 12
      vertex 25.75 12.25 12
      vertex 28.25 12.25 2
    endloop
  endfacet
  facet normal 0 -1 0
    outer loop
      vertex 25.75 12.25 12
      vertex 25.75 12.25 2
      vertex 28.25 12.25 2
    endloop
  endfacet
  facet normal -1 0 0
    outer loop
      vertex 28.25 6.75 12
      vertex 28.25 9.25 12
      vertex 28.25 6.75 2
    endloop
  endfacet
  facet normal -1 0 0
    outer loop
      vertex 28.25 9.25 12
      vertex 28.25 9.25 2
      vertex 28.25 6.75 2
    endloop
  endfacet
  facet normal 0 -1 0
    outer loop
      vertex 25.25 9.25 12
      vertex 22.75 9.25 12
      vertex 25.25 9.25 2
    endloop
  endfacet
  facet normal 0 -1 0
    outer loop
      vertex 22.75 9.25 12
      vertex 22.75 9.25 2
      vertex 25.25 9.25 2
    endloop
  endfacet
  facet normal -1 0 0
    outer loop
      vertex 25.25 6.75 12
      vertex 25.25 9.25 12
      vertex 25.25 6.75 2
    endloop
  endfacet
  facet normal -1 0 0
    outer loop
      vertex 25.25 9.25 12
      vertex 25.25 9.25 2
      vertex 25.25 6.75 2
    endloop
  endfacet
  facet normal 1 0 0
    outer loop
      vertex 19.75 9.25 12
      vertex 19.75 6.75 12
      vertex 19.75 9.25 2
    endloop
  endfacet
  facet normal 1 0 0
    outer loop
      vertex 19.75 6.75 12
      vertex 19.75 6.75 2
      vertex 19.75 9.25 2
    endloop
  endfacet
  facet normal 0 -1 0
    outer loop
      vertex 22.25 9.25 12
      vertex 19.75 9.25 12
      vertex 22.25 9.25 2
    endloop
  endfacet
  facet normal 0 -1 0
    outer loop
      vertex 19.75 9.25 12
      vertex 19.75 9.25 2
      vertex 22.25 9.25 2
    endloop
  endfacet
  facet normal -1 0 0
    outer loop
      vertex 22.25 6.75 12
      vertex 22.25 9.25 12
      vertex 22.25 6.75 2
    endloop
  endfacet
  facet normal -1 0 0
    outer loop
      vertex 22.25 9.25 12
      vertex 22.25 9.25 2
      vertex 22.25 6.75 2
    endloop
  endfacet
  facet normal 1 0 0
    outer loop
      vertex 16.75 9.25 12
      vertex 16.75 6.75 12
      vertex 16.75 9.25 2
    endloop
  endfacet
  facet normal 1 0 0
    outer loop
      vertex 16.75 6.75 12
      vertex 16.75 6.75 2
      vertex 16.75 9.25 2
    endloop
  endfacet
  facet normal 0 -1 0
    outer loop
      vertex 19.25 9.25 12
      vertex 16.75 9.25 12
      vertex 19.25 9.25 2
    endloop
  endfacet
  facet normal 0 -1 0
    outer loop
      vertex 16.75 9.25 12
      vertex 16.75 9.25 2
      vertex 19.25 9.25 2
    endloop
  endfacet
  facet normal -1 0 0
    outer loop
      vertex 19.25 6.75 12
      vertex 19.25 9.25 12
      vertex 19.25 6.75 2
    endloop
  endfacet
  facet normal -1 0 0
    outer loop
      vertex 19.25 9.25 12
      vertex 19.25 9.25 2
      vertex 19.25 6.75 2
    endloop
  endfacet
endsolid Onshape
