solid Onshape
  facet normal 0 0 -1
    outer loop
      vertex 70 20 2
      vertex 56 20 2
      vertex 70 34 2
    endloop
  endfacet
  facet normal 0 0 -1
    outer loop
      vertex 56 20 2
      vertex 56 34 2
      vertex 70 34 2
    endloop
  endfacet
  facet normal 0 0 1
    outer loop
      vertex 56 20 3
      vertex 70 20 3
      vertex 56 34 3
    endloop
  endfacet
  facet normal 0 0 1
    outer loop
      vertex 70 20 3
      vertex 70 34 3
      vertex 56 34 3
    endloop
  endfacet
  facet normal 1 0 0
    outer loop
      vertex 70 34 3
      vertex 70 20 3
      vertex 70 34 2
    endloop
  endfacet
  facet normal 1 0 0
    outer loop
      vertex 70 20 3
      vertex 70 20 2
      vertex 70 34 2
    endloop
  endfacet
  facet normal 0 -1 0
    outer loop
      vertex 70 20 3
      vertex 56 20 3
      vertex 70 20 2
    endloop
  endfacet
  facet normal 0 -1 0
    outer loop
      vertex 56 20 3
      vertex 56 20 2
      vertex 70 20 2
    endloop
  endfacet
  facet normal 0 1 0
    outer loop
      vertex 56 34 3
      vertex 70 34 3
      vertex 56 34 2
    endloop
  endfacet
  facet normal 0 1 0
    outer loop
      vertex 70 34 3
      vertex 70 34 2
      vertex 56 34 2
    endloop
  endfacet
  facet normal -1 0 0
    outer loop
      vertex 56 20 3
      vertex 56 34 3
      vertex 56 20 2
    endloop
  endfacet
  facet normal -1 0 0
    outer loop
      vertex 56 34 3
      vertex 56 34 2
      vertex 56 20 2
    endloop
  endfacet
endsolid Onshape
