solid Onshape
  facet normal 0 0 -1
    outer loop
      vertex 7.5 -15.45 1.2
      vertex 14.5 -15.45 1.2
      vertex 7.5 -27.95 1.2
    endloop
  endfacet
  facet normal 0 0 -1
    outer loop
      vertex 14.5 -15.45 1.2
      vertex 14.5 -27.95 1.2
      vertex 7.5 -27.95 1.2
    endloop
  endfacet
  facet normal 1 0 0
    outer loop
      vertex 14.5 -15.45 7.2
      vertex 14.5 -27.95 7.2
      vertex 14.5 -15.45 1.2
    endloop
  endfacet
  facet normal 1 0 0
    outer loop
      vertex 14.5 -27.95 7.2
      vertex 14.5 -27.95 1.2
      vertex 14.5 -15.45 1.2
    endloop
  endfacet
  facet normal 0 1 0
    outer loop
      vertex 7.5 -15.45 7.2
      vertex 14.5 -15.45 7.2
      vertex 7.5 -15.45 1.2
    endloop
  endfacet
  facet normal 0 1 0
    outer loop
      vertex 14.5 -15.45 7.2
      vertex 14.5 -15.45 1.2
      vertex 7.5 -15.45 1.2
    endloop
  endfacet
  facet normal -1 0 0
    outer loop
      vertex 7.5 -27.95 7.2
      vertex 7.5 -15.45 7.2
      vertex 7.5 -27.95 1.2
    endloop
  endfacet
  facet normal -1 0 0
    outer loop
      vertex 7.5 -15.45 7.2
      vertex 7.5 -15.45 1.2
      vertex 7.5 -27.95 1.2
    endloop
  endfacet
  facet normal 0 -1 0
    outer loop
      vertex 12.8 -16.55 4.225
      vertex 12.7894 -16.55 4.41961
      vertex 11 -16.55 4.225
    endloop
  endfacet
  facet normal 0 -1 0
    outer loop
      vertex 12.7058 -16.55 3.65026
      vertex 12.7579 -16.55 3.83805
      vertex 11 -16.55 4.225
    endloop
  endfacet
  facet normal 0 -1 0
    outer loop
      vertex 12.7579 -16.55 3.83805
      vertex 12.7894 -16.55 4.03039
      vertex 11 -16.55 4.225
    endloop
  endfacet
  facet normal 0 -1 0
    outer loop
      vertex 11 -16.55 4.225
      vertex 12.7894 -16.55 4.03039
      vertex 12.8 -16.55 4.225
    endloop
  endfacet
  facet normal 0 -1 0
    outer loop
      vertex 12.433 -16.55 3.13569
      vertex 12.5423 -16.55 3.297
      vertex 11 -16.55 4.225
    endloop
  endfacet
  facet normal 0 -1 0
    outer loop
      vertex 12.5423 -16.55 3.297
      vertex 12.6336 -16.55 3.4692
      vertex 11 -16.55 4.225
    endloop
  endfacet
  facet normal 0 -1 0
    outer loop
      vertex 11 -16.55 4.225
      vertex 12.6336 -16.55 3.4692
      vertex 12.7058 -16.55 3.65026
    endloop
  endfacet
  facet normal 0 -1 0
    outer loop
      vertex 12.0101 -16.55 2.73516
      vertex 12.1653 -16.55 2.85311
      vertex 11 -16.55 4.225
    endloop
  endfacet
  facet normal 0 -1 0
    outer loop
      vertex 12.1653 -16.55 2.85311
      vertex 12.3068 -16.55 2.98714
      vertex 11 -16.55 4.225
    endloop
  endfacet
  facet normal 0 -1 0
    outer loop
      vertex 11 -16.55 4.225
      vertex 12.3068 -16.55 2.98714
      vertex 12.433 -16.55 3.13569
    endloop
  endfacet
  facet normal 0 -1 0
    outer loop
      vertex 11.4816 -16.55 2.49061
      vertex 11.6662 -16.55 2.55284
      vertex 11 -16.55 4.225
    endloop
  endfacet
  facet normal 0 -1 0
    outer loop
      vertex 11.6662 -16.55 2.55284
      vertex 11.8431 -16.55 2.63468
      vertex 11 -16.55 4.225
    endloop
  endfacet
  facet normal 0 -1 0
    outer loop
      vertex 11 -16.55 4.225
      vertex 11.8431 -16.55 2.63468
      vertex 12.0101 -16.55 2.73516
    endloop
  endfacet
  facet normal 0 -1 0
    outer loop
      vertex 10.9026 -16.55 2.42764
      vertex 11.0974 -16.55 2.42764
      vertex 11 -16.55 4.225
    endloop
  endfacet
  facet normal 0 -1 0
    outer loop
      vertex 11.0974 -16.55 2.42764
      vertex 11.2912 -16.55 2.44871
      vertex 11 -16.55 4.225
    endloop
  endfacet
  facet normal 0 -1 0
    outer loop
      vertex 11 -16.55 4.225
      vertex 11.2912 -16.55 2.44871
      vertex 11.4816 -16.55 2.49061
    endloop
  endfacet
  facet normal 0 -1 0
    outer loop
      vertex 10.3338 -16.55 2.55284
      vertex 10.5184 -16.55 2.49061
      vertex 11 -16.55 4.225
    endloop
  endfacet
  facet normal 0 -1 0
    outer loop
      vertex 10.5184 -16.55 2.49061
      vertex 10.7088 -16.55 2.44871
      vertex 11 -16.55 4.225
    endloop
  endfacet
  facet normal 0 -1 0
    outer loop
      vertex 11 -16.55 4.225
      vertex 10.7088 -16.55 2.44871
      vertex 10.9026 -16.55 2.42764
    endloop
  endfacet
  facet normal 0 -1 0
    outer loop
      vertex 9.8347 -16.55 2.85311
      vertex 9.98986 -16.55 2.73516
      vertex 11 -16.55 4.225
    endloop
  endfacet
  facet normal 0 -1 0
    outer loop
      vertex 9.98986 -16.55 2.73516
      vertex 10.1569 -16.55 2.63468
      vertex 11 -16.55 4.225
    endloop
  endfacet
  facet normal 0 -1 0
    outer loop
      vertex 11 -16.55 4.225
      vertex 10.1569 -16.55 2.63468
      vertex 10.3338 -16.55 2.55284
    endloop
  endfacet
  facet normal 0 -1 0
    outer loop
      vertex 9.45766 -16.55 3.297
      vertex 9.56703 -16.55 3.13569
      vertex 11 -16.55 4.225
    endloop
  endfacet
  facet normal 0 -1 0
    outer loop
      vertex 9.56703 -16.55 3.13569
      vertex 9.69321 -16.55 2.98714
      vertex 11 -16.55 4.225
    endloop
  endfacet
  facet normal 0 -1 0
    outer loop
      vertex 11 -16.55 4.225
      vertex 9.69321 -16.55 2.98714
      vertex 9.8347 -16.55 2.85311
    endloop
  endfacet
  facet normal 0 -1 0
    outer loop
      vertex 9.24208 -16.55 3.83805
      vertex 9.29422 -16.55 3.65026
      vertex 11 -16.55 4.225
    endloop
  endfacet
  facet normal 0 -1 0
    outer loop
      vertex 9.29422 -16.55 3.65026
      vertex 9.36636 -16.55 3.4692
      vertex 11 -16.55 4.225
    endloop
  endfacet
  facet normal 0 -1 0
    outer loop
      vertex 11 -16.55 4.225
      vertex 9.36636 -16.55 3.4692
      vertex 9.45766 -16.55 3.297
    endloop
  endfacet
  facet normal 0 -1 0
    outer loop
      vertex 9.21055 -16.55 4.41961
      vertex 9.2 -16.55 4.225
      vertex 11 -16.55 4.225
    endloop
  endfacet
  facet normal 0 -1 0
    outer loop
      vertex 9.2 -16.55 4.225
      vertex 9.21055 -16.55 4.03039
      vertex 11 -16.55 4.225
    endloop
  endfacet
  facet normal 0 -1 0
    outer loop
      vertex 11 -16.55 4.225
      vertex 9.21055 -16.55 4.03039
      vertex 9.24208 -16.55 3.83805
    endloop
  endfacet
  facet normal 0 -1 0
    outer loop
      vertex 9.36636 -16.55 4.9808
      vertex 9.29422 -16.55 4.79974
      vertex 11 -16.55 4.225
    endloop
  endfacet
  facet normal 0 -1 0
    outer loop
      vertex 9.29422 -16.55 4.79974
      vertex 9.24208 -16.55 4.61195
      vertex 11 -16.55 4.225
    endloop
  endfacet
  facet normal 0 -1 0
    outer loop
      vertex 11 -16.55 4.225
      vertex 9.24208 -16.55 4.61195
      vertex 9.21055 -16.55 4.41961
    endloop
  endfacet
  facet normal 0 -1 0
    outer loop
      vertex 9.69321 -16.55 5.46286
      vertex 9.56703 -16.55 5.31431
      vertex 11 -16.55 4.225
    endloop
  endfacet
  facet normal 0 -1 0
    outer loop
      vertex 9.56703 -16.55 5.31431
      vertex 9.45766 -16.55 5.153
      vertex 11 -16.55 4.225
    endloop
  endfacet
  facet normal 0 -1 0
    outer loop
      vertex 11 -16.55 4.225
      vertex 9.45766 -16.55 5.153
      vertex 9.36636 -16.55 4.9808
    endloop
  endfacet
  facet normal 0 -1 0
    outer loop
      vertex 10.1569 -16.55 5.81532
      vertex 9.98986 -16.55 5.71484
      vertex 11 -16.55 4.225
    endloop
  endfacet
  facet normal 0 -1 0
    outer loop
      vertex 9.98986 -16.55 5.71484
      vertex 9.8347 -16.55 5.59689
      vertex 11 -16.55 4.225
    endloop
  endfacet
  facet normal 0 -1 0
    outer loop
      vertex 11 -16.55 4.225
      vertex 9.8347 -16.55 5.59689
      vertex 9.69321 -16.55 5.46286
    endloop
  endfacet
  facet normal 0 -1 0
    outer loop
      vertex 10.7088 -16.55 6.00129
      vertex 10.5184 -16.55 5.95939
      vertex 11 -16.55 4.225
    endloop
  endfacet
  facet normal 0 -1 0
    outer loop
      vertex 10.5184 -16.55 5.95939
      vertex 10.3338 -16.55 5.89716
      vertex 11 -16.55 4.225
    endloop
  endfacet
  facet normal 0 -1 0
    outer loop
      vertex 11 -16.55 4.225
      vertex 10.3338 -16.55 5.89716
      vertex 10.1569 -16.55 5.81532
    endloop
  endfacet
  facet normal 0 -1 0
    outer loop
      vertex 11.2912 -16.55 6.00129
      vertex 11.0974 -16.55 6.02236
      vertex 11 -16.55 4.225
    endloop
  endfacet
  facet normal 0 -1 0
    outer loop
      vertex 11.0974 -16.55 6.02236
      vertex 10.9026 -16.55 6.02236
      vertex 11 -16.55 4.225
    endloop
  endfacet
  facet normal 0 -1 0
    outer loop
      vertex 11 -16.55 4.225
      vertex 10.9026 -16.55 6.02236
      vertex 10.7088 -16.55 6.00129
    endloop
  endfacet
  facet normal 0 -1 0
    outer loop
      vertex 11.8431 -16.55 5.81532
      vertex 11.6662 -16.55 5.89716
      vertex 11 -16.55 4.225
    endloop
  endfacet
  facet normal 0 -1 0
    outer loop
      vertex 11.6662 -16.55 5.89716
      vertex 11.4816 -16.55 5.95939
      vertex 11 -16.55 4.225
    endloop
  endfacet
  facet normal 0 -1 0
    outer loop
      vertex 11 -16.55 4.225
      vertex 11.4816 -16.55 5.95939
      vertex 11.2912 -16.55 6.00129
    endloop
  endfacet
  facet normal 0 -1 0
    outer loop
      vertex 12.3068 -16.55 5.46286
      vertex 12.1653 -16.55 5.59689
      vertex 11 -16.55 4.225
    endloop
  endfacet
  facet normal 0 -1 0
    outer loop
      vertex 12.1653 -16.55 5.59689
      vertex 12.0101 -16.55 5.71484
      vertex 11 -16.55 4.225
    endloop
  endfacet
  facet normal 0 -1 0
    outer loop
      vertex 11 -16.55 4.225
      vertex 12.0101 -16.55 5.71484
      vertex 11.8431 -16.55 5.81532
    endloop
  endfacet
  facet normal 0 -1 0
    outer loop
      vertex 12.6336 -16.55 4.9808
      vertex 12.5423 -16.55 5.153
      vertex 11 -16.55 4.225
    endloop
  endfacet
  facet normal 0 -1 0
    outer loop
      vertex 12.5423 -16.55 5.153
      vertex 12.433 -16.55 5.31431
      vertex 11 -16.55 4.225
    endloop
  endfacet
  facet normal 0 -1 0
    outer loop
      vertex 11 -16.55 4.225
      vertex 12.433 -16.55 5.31431
      vertex 12.3068 -16.55 5.46286
    endloop
  endfacet
  facet normal 0 -1 0
    outer loop
      vertex 12.7894 -16.55 4.41961
      vertex 12.7579 -16.55 4.61195
      vertex 11 -16.55 4.225
    endloop
  endfacet
  facet normal 0 -1 0
    outer loop
      vertex 12.7579 -16.55 4.61195
      vertex 12.7058 -16.55 4.79974
      vertex 11 -16.55 4.225
    endloop
  endfacet
  facet normal 0 -1 0
    outer loop
      vertex 11 -16.55 4.225
      vertex 12.7058 -16.55 4.79974
      vertex 12.6336 -16.55 4.9808
    endloop
  endfacet
  facet normal 0 -1 0
    outer loop
      vertex 11.0974 -30.35 6.02236
      vertex 11.1611 -30.35 7.19564
      vertex 10.9026 -30.35 6.02236
    endloop
  endfacet
  facet normal 0 -1 0
    outer loop
      vertex 11.1611 -30.35 7.19564
      vertex 10.8389 -30.35 7.19564
      vertex 10.9026 -30.35 6.02236
    endloop
  endfacet
  facet normal 0 -1 0
    outer loop
      vertex 10.9026 -30.35 6.02236
      vertex 10.8389 -30.35 7.19564
      vertex 10.7088 -30.35 6.00129
    endloop
  endfacet
  facet normal 0 -1 0
    outer loop
      vertex 10.8389 -30.35 7.19564
      vertex 10.5187 -30.35 7.16081
      vertex 10.7088 -30.35 6.00129
    endloop
  endfacet
  facet normal 0 -1 0
    outer loop
      vertex 10.7088 -30.35 6.00129
      vertex 10.5187 -30.35 7.16081
      vertex 10.5184 -30.35 5.95939
    endloop
  endfacet
  facet normal 0 -1 0
    outer loop
      vertex 10.5187 -30.35 7.16081
      vertex 10.2041 -30.35 7.09156
      vertex 10.5184 -30.35 5.95939
    endloop
  endfacet
  facet normal 0 -1 0
    outer loop
      vertex 10.5184 -30.35 5.95939
      vertex 10.2041 -30.35 7.09156
      vertex 10.3338 -30.35 5.89716
    endloop
  endfacet
  facet normal 0 -1 0
    outer loop
      vertex 10.2041 -30.35 7.09156
      vertex 9.89884 -30.35 6.98871
      vertex 10.3338 -30.35 5.89716
    endloop
  endfacet
  facet normal 0 -1 0
    outer loop
      vertex 10.3338 -30.35 5.89716
      vertex 9.89884 -30.35 6.98871
      vertex 10.1569 -30.35 5.81532
    endloop
  endfacet
  facet normal 0 -1 0
    outer loop
      vertex 9.89884 -30.35 6.98871
      vertex 9.60649 -30.35 6.85345
      vertex 10.1569 -30.35 5.81532
    endloop
  endfacet
  facet normal 0 -1 0
    outer loop
      vertex 10.1569 -30.35 5.81532
      vertex 9.60649 -30.35 6.85345
      vertex 9.98986 -30.35 5.71484
    endloop
  endfacet
  facet normal 0 -1 0
    outer loop
      vertex 9.60649 -30.35 6.85345
      vertex 9.33047 -30.35 6.68737
      vertex 9.98986 -30.35 5.71484
    endloop
  endfacet
  facet normal 0 -1 0
    outer loop
      vertex 9.98986 -30.35 5.71484
      vertex 9.33047 -30.35 6.68737
      vertex 9.8347 -30.35 5.59689
    endloop
  endfacet
  facet normal 0 -1 0
    outer loop
      vertex 9.33047 -30.35 6.68737
      vertex 9.07403 -30.35 6.49243
      vertex 9.8347 -30.35 5.59689
    endloop
  endfacet
  facet normal 0 -1 0
    outer loop
      vertex 9.8347 -30.35 5.59689
      vertex 9.07403 -30.35 6.49243
      vertex 9.69321 -30.35 5.46286
    endloop
  endfacet
  facet normal 0 -1 0
    outer loop
      vertex 9.07403 -30.35 6.49243
      vertex 8.84016 -30.35 6.27091
      vertex 9.69321 -30.35 5.46286
    endloop
  endfacet
  facet normal 0 -1 0
    outer loop
      vertex 9.69321 -30.35 5.46286
      vertex 8.84016 -30.35 6.27091
      vertex 9.56703 -30.35 5.31431
    endloop
  endfacet
  facet normal 0 -1 0
    outer loop
      vertex 8.84016 -30.35 6.27091
      vertex 8.63162 -30.35 6.02539
      vertex 9.56703 -30.35 5.31431
    endloop
  endfacet
  facet normal 0 -1 0
    outer loop
      vertex 9.56703 -30.35 5.31431
      vertex 8.63162 -30.35 6.02539
      vertex 9.45766 -30.35 5.153
    endloop
  endfacet
  facet normal 0 -1 0
    outer loop
      vertex 8.63162 -30.35 6.02539
      vertex 8.45085 -30.35 5.75877
      vertex 9.45766 -30.35 5.153
    endloop
  endfacet
  facet normal 0 -1 0
    outer loop
      vertex 9.45766 -30.35 5.153
      vertex 8.45085 -30.35 5.75877
      vertex 9.36636 -30.35 4.9808
    endloop
  endfacet
  facet normal 0 -1 0
    outer loop
      vertex 8.45085 -30.35 5.75877
      vertex 8.29996 -30.35 5.47417
      vertex 9.36636 -30.35 4.9808
    endloop
  endfacet
  facet normal 0 -1 0
    outer loop
      vertex 9.36636 -30.35 4.9808
      vertex 8.29996 -30.35 5.47417
      vertex 9.29422 -30.35 4.79974
    endloop
  endfacet
  facet normal 0 -1 0
    outer loop
      vertex 8.29996 -30.35 5.47417
      vertex 8.18073 -30.35 5.17492
      vertex 9.29422 -30.35 4.79974
    endloop
  endfacet
  facet normal 0 -1 0
    outer loop
      vertex 9.29422 -30.35 4.79974
      vertex 8.18073 -30.35 5.17492
      vertex 9.24208 -30.35 4.61195
    endloop
  endfacet
  facet normal 0 -1 0
    outer loop
      vertex 8.18073 -30.35 5.17492
      vertex 8.09455 -30.35 4.86454
      vertex 9.24208 -30.35 4.61195
    endloop
  endfacet
  facet normal 0 -1 0
    outer loop
      vertex 9.24208 -30.35 4.61195
      vertex 8.09455 -30.35 4.86454
      vertex 9.21055 -30.35 4.41961
    endloop
  endfacet
  facet normal 0 -1 0
    outer loop
      vertex 8.09455 -30.35 4.86454
      vertex 8.04244 -30.35 4.54665
      vertex 9.21055 -30.35 4.41961
    endloop
  endfacet
  facet normal 0 -1 0
    outer loop
      vertex 9.21055 -30.35 4.41961
      vertex 8.04244 -30.35 4.54665
      vertex 9.2 -30.35 4.225
    endloop
  endfacet
  facet normal 0 -1 0
    outer loop
      vertex 8.04244 -30.35 4.54665
      vertex 8.025 -30.35 4.225
      vertex 9.2 -30.35 4.225
    endloop
  endfacet
  facet normal 0 -1 0
    outer loop
      vertex 9.2 -30.35 4.225
      vertex 8.025 -30.35 4.225
      vertex 9.21055 -30.35 4.03039
    endloop
  endfacet
  facet normal 0 -1 0
    outer loop
      vertex 8.025 -30.35 4.225
      vertex 8.04244 -30.35 3.90335
      vertex 9.21055 -30.35 4.03039
    endloop
  endfacet
  facet normal 0 -1 0
    outer loop
      vertex 9.21055 -30.35 4.03039
      vertex 8.04244 -30.35 3.90335
      vertex 9.24208 -30.35 3.83805
    endloop
  endfacet
  facet normal 0 -1 0
    outer loop
      vertex 8.04244 -30.35 3.90335
      vertex 8.09455 -30.35 3.58546
      vertex 9.24208 -30.35 3.83805
    endloop
  endfacet
  facet normal 0 -1 0
    outer loop
      vertex 9.24208 -30.35 3.83805
      vertex 8.09455 -30.35 3.58546
      vertex 9.29422 -30.35 3.65026
    endloop
  endfacet
  facet normal 0 -1 0
    outer loop
      vertex 8.09455 -30.35 3.58546
      vertex 8.18073 -30.35 3.27508
      vertex 9.29422 -30.35 3.65026
    endloop
  endfacet
  facet normal 0 -1 0
    outer loop
      vertex 9.29422 -30.35 3.65026
      vertex 8.18073 -30.35 3.27508
      vertex 9.36636 -30.35 3.4692
    endloop
  endfacet
  facet normal 0 -1 0
    outer loop
      vertex 8.18073 -30.35 3.27508
      vertex 8.29996 -30.35 2.97583
      vertex 9.36636 -30.35 3.4692
    endloop
  endfacet
  facet normal 0 -1 0
    outer loop
      vertex 9.36636 -30.35 3.4692
      vertex 8.29996 -30.35 2.97583
      vertex 9.45766 -30.35 3.297
    endloop
  endfacet
  facet normal 0 -1 0
    outer loop
      vertex 8.29996 -30.35 2.97583
      vertex 8.45085 -30.35 2.69123
      vertex 9.45766 -30.35 3.297
    endloop
  endfacet
  facet normal 0 -1 0
    outer loop
      vertex 9.45766 -30.35 3.297
      vertex 8.45085 -30.35 2.69123
      vertex 9.56703 -30.35 3.13569
    endloop
  endfacet
  facet normal 0 -1 0
    outer loop
      vertex 8.45085 -30.35 2.69123
      vertex 8.63162 -30.35 2.42461
      vertex 9.56703 -30.35 3.13569
    endloop
  endfacet
  facet normal 0 -1 0
    outer loop
      vertex 9.56703 -30.35 3.13569
      vertex 8.63162 -30.35 2.42461
      vertex 9.69321 -30.35 2.98714
    endloop
  endfacet
  facet normal 0 -1 0
    outer loop
      vertex 8.63162 -30.35 2.42461
      vertex 8.84016 -30.35 2.17909
      vertex 9.69321 -30.35 2.98714
    endloop
  endfacet
  facet normal 0 -1 0
    outer loop
      vertex 9.69321 -30.35 2.98714
      vertex 8.84016 -30.35 2.17909
      vertex 9.8347 -30.35 2.85311
    endloop
  endfacet
  facet normal 0 -1 0
    outer loop
      vertex 8.84016 -30.35 2.17909
      vertex 9.07403 -30.35 1.95757
      vertex 9.8347 -30.35 2.85311
    endloop
  endfacet
  facet normal 0 -1 0
    outer loop
      vertex 9.8347 -30.35 2.85311
      vertex 9.07403 -30.35 1.95757
      vertex 9.98986 -30.35 2.73516
    endloop
  endfacet
  facet normal 0 -1 0
    outer loop
      vertex 9.07403 -30.35 1.95757
      vertex 9.33047 -30.35 1.76263
      vertex 9.98986 -30.35 2.73516
    endloop
  endfacet
  facet normal 0 -1 0
    outer loop
      vertex 9.98986 -30.35 2.73516
      vertex 9.33047 -30.35 1.76263
      vertex 10.1569 -30.35 2.63468
    endloop
  endfacet
  facet normal 0 -1 0
    outer loop
      vertex 9.33047 -30.35 1.76263
      vertex 9.60649 -30.35 1.59655
      vertex 10.1569 -30.35 2.63468
    endloop
  endfacet
  facet normal 0 -1 0
    outer loop
      vertex 10.1569 -30.35 2.63468
      vertex 9.60649 -30.35 1.59655
      vertex 10.3338 -30.35 2.55284
    endloop
  endfacet
  facet normal 0 -1 0
    outer loop
      vertex 9.60649 -30.35 1.59655
      vertex 9.89884 -30.35 1.46129
      vertex 10.3338 -30.35 2.55284
    endloop
  endfacet
  facet normal 0 -1 0
    outer loop
      vertex 10.3338 -30.35 2.55284
      vertex 9.89884 -30.35 1.46129
      vertex 10.5184 -30.35 2.49061
    endloop
  endfacet
  facet normal 0 -1 0
    outer loop
      vertex 9.89884 -30.35 1.46129
      vertex 10.2041 -30.35 1.35844
      vertex 10.5184 -30.35 2.49061
    endloop
  endfacet
  facet normal 0 -1 0
    outer loop
      vertex 10.5184 -30.35 2.49061
      vertex 10.2041 -30.35 1.35844
      vertex 10.7088 -30.35 2.44871
    endloop
  endfacet
  facet normal 0 -1 0
    outer loop
      vertex 10.2041 -30.35 1.35844
      vertex 10.5187 -30.35 1.28919
      vertex 10.7088 -30.35 2.44871
    endloop
  endfacet
  facet normal 0 -1 0
    outer loop
      vertex 10.7088 -30.35 2.44871
      vertex 10.5187 -30.35 1.28919
      vertex 10.9026 -30.35 2.42764
    endloop
  endfacet
  facet normal 0 -1 0
    outer loop
      vertex 10.5187 -30.35 1.28919
      vertex 10.8389 -30.35 1.25436
      vertex 10.9026 -30.35 2.42764
    endloop
  endfacet
  facet normal 0 -1 0
    outer loop
      vertex 10.9026 -30.35 2.42764
      vertex 10.8389 -30.35 1.25436
      vertex 11.0974 -30.35 2.42764
    endloop
  endfacet
  facet normal 0 -1 0
    outer loop
      vertex 10.8389 -30.35 1.25436
      vertex 11.1611 -30.35 1.25436
      vertex 11.0974 -30.35 2.42764
    endloop
  endfacet
  facet normal 0 -1 0
    outer loop
      vertex 11.0974 -30.35 2.42764
      vertex 11.1611 -30.35 1.25436
      vertex 11.2912 -30.35 2.44871
    endloop
  endfacet
  facet normal 0 -1 0
    outer loop
      vertex 11.1611 -30.35 1.25436
      vertex 11.4813 -30.35 1.28919
      vertex 11.2912 -30.35 2.44871
    endloop
  endfacet
  facet normal 0 -1 0
    outer loop
      vertex 11.2912 -30.35 2.44871
      vertex 11.4813 -30.35 1.28919
      vertex 11.4816 -30.35 2.49061
    endloop
  endfacet
  facet normal 0 -1 0
    outer loop
      vertex 11.4813 -30.35 1.28919
      vertex 11.7959 -30.35 1.35844
      vertex 11.4816 -30.35 2.49061
    endloop
  endfacet
  facet normal 0 -1 0
    outer loop
      vertex 11.4816 -30.35 2.49061
      vertex 11.7959 -30.35 1.35844
      vertex 11.6662 -30.35 2.55284
    endloop
  endfacet
  facet normal 0 -1 0
    outer loop
      vertex 11.7959 -30.35 1.35844
      vertex 12.1012 -30.35 1.46129
      vertex 11.6662 -30.35 2.55284
    endloop
  endfacet
  facet normal 0 -1 0
    outer loop
      vertex 11.6662 -30.35 2.55284
      vertex 12.1012 -30.35 1.46129
      vertex 11.8431 -30.35 2.63468
    endloop
  endfacet
  facet normal 0 -1 0
    outer loop
      vertex 12.1012 -30.35 1.46129
      vertex 12.3935 -30.35 1.59655
      vertex 11.8431 -30.35 2.63468
    endloop
  endfacet
  facet normal 0 -1 0
    outer loop
      vertex 11.8431 -30.35 2.63468
      vertex 12.3935 -30.35 1.59655
      vertex 12.0101 -30.35 2.73516
    endloop
  endfacet
  facet normal 0 -1 0
    outer loop
      vertex 12.3935 -30.35 1.59655
      vertex 12.6695 -30.35 1.76263
      vertex 12.0101 -30.35 2.73516
    endloop
  endfacet
  facet normal 0 -1 0
    outer loop
      vertex 12.0101 -30.35 2.73516
      vertex 12.6695 -30.35 1.76263
      vertex 12.1653 -30.35 2.85311
    endloop
  endfacet
  facet normal 0 -1 0
    outer loop
      vertex 12.6695 -30.35 1.76263
      vertex 12.926 -30.35 1.95757
      vertex 12.1653 -30.35 2.85311
    endloop
  endfacet
  facet normal 0 -1 0
    outer loop
      vertex 12.1653 -30.35 2.85311
      vertex 12.926 -30.35 1.95757
      vertex 12.3068 -30.35 2.98714
    endloop
  endfacet
  facet normal 0 -1 0
    outer loop
      vertex 12.926 -30.35 1.95757
      vertex 13.1598 -30.35 2.17909
      vertex 12.3068 -30.35 2.98714
    endloop
  endfacet
  facet normal 0 -1 0
    outer loop
      vertex 12.3068 -30.35 2.98714
      vertex 13.1598 -30.35 2.17909
      vertex 12.433 -30.35 3.13569
    endloop
  endfacet
  facet normal 0 -1 0
    outer loop
      vertex 13.1598 -30.35 2.17909
      vertex 13.3684 -30.35 2.42461
      vertex 12.433 -30.35 3.13569
    endloop
  endfacet
  facet normal 0 -1 0
    outer loop
      vertex 12.433 -30.35 3.13569
      vertex 13.3684 -30.35 2.42461
      vertex 12.5423 -30.35 3.297
    endloop
  endfacet
  facet normal 0 -1 0
    outer loop
      vertex 13.3684 -30.35 2.42461
      vertex 13.5491 -30.35 2.69123
      vertex 12.5423 -30.35 3.297
    endloop
  endfacet
  facet normal 0 -1 0
    outer loop
      vertex 12.5423 -30.35 3.297
      vertex 13.5491 -30.35 2.69123
      vertex 12.6336 -30.35 3.4692
    endloop
  endfacet
  facet normal 0 -1 0
    outer loop
      vertex 13.5491 -30.35 2.69123
      vertex 13.7 -30.35 2.97583
      vertex 12.6336 -30.35 3.4692
    endloop
  endfacet
  facet normal 0 -1 0
    outer loop
      vertex 12.6336 -30.35 3.4692
      vertex 13.7 -30.35 2.97583
      vertex 12.7058 -30.35 3.65026
    endloop
  endfacet
  facet normal 0 -1 0
    outer loop
      vertex 13.7 -30.35 2.97583
      vertex 13.8193 -30.35 3.27508
      vertex 12.7058 -30.35 3.65026
    endloop
  endfacet
  facet normal 0 -1 0
    outer loop
      vertex 12.7058 -30.35 3.65026
      vertex 13.8193 -30.35 3.27508
      vertex 12.7579 -30.35 3.83805
    endloop
  endfacet
  facet normal 0 -1 0
    outer loop
      vertex 13.8193 -30.35 3.27508
      vertex 13.9054 -30.35 3.58546
      vertex 12.7579 -30.35 3.83805
    endloop
  endfacet
  facet normal 0 -1 0
    outer loop
      vertex 12.7579 -30.35 3.83805
      vertex 13.9054 -30.35 3.58546
      vertex 12.7894 -30.35 4.03039
    endloop
  endfacet
  facet normal 0 -1 0
    outer loop
      vertex 13.9054 -30.35 3.58546
      vertex 13.9576 -30.35 3.90335
      vertex 12.7894 -30.35 4.03039
    endloop
  endfacet
  facet normal 0 -1 0
    outer loop
      vertex 12.7894 -30.35 4.03039
      vertex 13.9576 -30.35 3.90335
      vertex 12.8 -30.35 4.225
    endloop
  endfacet
  facet normal 0 -1 0
    outer loop
      vertex 13.9576 -30.35 3.90335
      vertex 13.975 -30.35 4.225
      vertex 12.8 -30.35 4.225
    endloop
  endfacet
  facet normal 0 -1 0
    outer loop
      vertex 12.8 -30.35 4.225
      vertex 13.975 -30.35 4.225
      vertex 12.7894 -30.35 4.41961
    endloop
  endfacet
  facet normal 0 -1 0
    outer loop
      vertex 13.975 -30.35 4.225
      vertex 13.9576 -30.35 4.54665
      vertex 12.7894 -30.35 4.41961
    endloop
  endfacet
  facet normal 0 -1 0
    outer loop
      vertex 12.7894 -30.35 4.41961
      vertex 13.9576 -30.35 4.54665
      vertex 12.7579 -30.35 4.61195
    endloop
  endfacet
  facet normal 0 -1 0
    outer loop
      vertex 13.9576 -30.35 4.54665
      vertex 13.9054 -30.35 4.86454
      vertex 12.7579 -30.35 4.61195
    endloop
  endfacet
  facet normal 0 -1 0
    outer loop
      vertex 12.7579 -30.35 4.61195
      vertex 13.9054 -30.35 4.86454
      vertex 12.7058 -30.35 4.79974
    endloop
  endfacet
  facet normal 0 -1 0
    outer loop
      vertex 13.9054 -30.35 4.86454
      vertex 13.8193 -30.35 5.17492
      vertex 12.7058 -30.35 4.79974
    endloop
  endfacet
  facet normal 0 -1 0
    outer loop
      vertex 12.7058 -30.35 4.79974
      vertex 13.8193 -30.35 5.17492
      vertex 12.6336 -30.35 4.9808
    endloop
  endfacet
  facet normal 0 -1 0
    outer loop
      vertex 13.8193 -30.35 5.17492
      vertex 13.7 -30.35 5.47417
      vertex 12.6336 -30.35 4.9808
    endloop
  endfacet
  facet normal 0 -1 0
    outer loop
      vertex 12.6336 -30.35 4.9808
      vertex 13.7 -30.35 5.47417
      vertex 12.5423 -30.35 5.153
    endloop
  endfacet
  facet normal 0 -1 0
    outer loop
      vertex 13.7 -30.35 5.47417
      vertex 13.5491 -30.35 5.75877
      vertex 12.5423 -30.35 5.153
    endloop
  endfacet
  facet normal 0 -1 0
    outer loop
      vertex 12.5423 -30.35 5.153
      vertex 13.5491 -30.35 5.75877
      vertex 12.433 -30.35 5.31431
    endloop
  endfacet
  facet normal 0 -1 0
    outer loop
      vertex 13.5491 -30.35 5.75877
      vertex 13.3684 -30.35 6.02539
      vertex 12.433 -30.35 5.31431
    endloop
  endfacet
  facet normal 0 -1 0
    outer loop
      vertex 12.433 -30.35 5.31431
      vertex 13.3684 -30.35 6.02539
      vertex 12.3068 -30.35 5.46286
    endloop
  endfacet
  facet normal 0 -1 0
    outer loop
      vertex 13.3684 -30.35 6.02539
      vertex 13.1598 -30.35 6.27091
      vertex 12.3068 -30.35 5.46286
    endloop
  endfacet
  facet normal 0 -1 0
    outer loop
      vertex 12.3068 -30.35 5.46286
      vertex 13.1598 -30.35 6.27091
      vertex 12.1653 -30.35 5.59689
    endloop
  endfacet
  facet normal 0 -1 0
    outer loop
      vertex 13.1598 -30.35 6.27091
      vertex 12.926 -30.35 6.49243
      vertex 12.1653 -30.35 5.59689
    endloop
  endfacet
  facet normal 0 -1 0
    outer loop
      vertex 12.1653 -30.35 5.59689
      vertex 12.926 -30.35 6.49243
      vertex 12.0101 -30.35 5.71484
    endloop
  endfacet
  facet normal 0 -1 0
    outer loop
      vertex 12.926 -30.35 6.49243
      vertex 12.6695 -30.35 6.68737
      vertex 12.0101 -30.35 5.71484
    endloop
  endfacet
  facet normal 0 -1 0
    outer loop
      vertex 12.0101 -30.35 5.71484
      vertex 12.6695 -30.35 6.68737
      vertex 11.8431 -30.35 5.81532
    endloop
  endfacet
  facet normal 0 -1 0
    outer loop
      vertex 12.6695 -30.35 6.68737
      vertex 12.3935 -30.35 6.85345
      vertex 11.8431 -30.35 5.81532
    endloop
  endfacet
  facet normal 0 -1 0
    outer loop
      vertex 11.8431 -30.35 5.81532
      vertex 12.3935 -30.35 6.85345
      vertex 11.6662 -30.35 5.89716
    endloop
  endfacet
  facet normal 0 -1 0
    outer loop
      vertex 12.3935 -30.35 6.85345
      vertex 12.1012 -30.35 6.98871
      vertex 11.6662 -30.35 5.89716
    endloop
  endfacet
  facet normal 0 -1 0
    outer loop
      vertex 11.6662 -30.35 5.89716
      vertex 12.1012 -30.35 6.98871
      vertex 11.4816 -30.35 5.95939
    endloop
  endfacet
  facet normal 0 -1 0
    outer loop
      vertex 12.1012 -30.35 6.98871
      vertex 11.7959 -30.35 7.09156
      vertex 11.4816 -30.35 5.95939
    endloop
  endfacet
  facet normal 0 -1 0
    outer loop
      vertex 11.4816 -30.35 5.95939
      vertex 11.7959 -30.35 7.09156
      vertex 11.2912 -30.35 6.00129
    endloop
  endfacet
  facet normal 0 -1 0
    outer loop
      vertex 11.7959 -30.35 7.09156
      vertex 11.4813 -30.35 7.16081
      vertex 11.2912 -30.35 6.00129
    endloop
  endfacet
  facet normal 0 -1 0
    outer loop
      vertex 11.2912 -30.35 6.00129
      vertex 11.4813 -30.35 7.16081
      vertex 11.0974 -30.35 6.02236
    endloop
  endfacet
  facet normal 0 -1 0
    outer loop
      vertex 11.4813 -30.35 7.16081
      vertex 11.1611 -30.35 7.19564
      vertex 11.0974 -30.35 6.02236
    endloop
  endfacet
  facet normal -0.0270775 0 0.999633
    outer loop
      vertex 11 -27.95 7.2
      vertex 10.8389 -27.95 7.19564
      vertex 10.8389 -30.35 7.19564
    endloop
  endfacet
  facet normal -0.10812 0 0.994138
    outer loop
      vertex 10.8389 -27.95 7.19564
      vertex 10.5187 -27.95 7.16081
      vertex 10.8389 -30.35 7.19564
    endloop
  endfacet
  facet normal -0.10812 0 0.994138
    outer loop
      vertex 10.8389 -30.35 7.19564
      vertex 10.5187 -27.95 7.16081
      vertex 10.5187 -30.35 7.16081
    endloop
  endfacet
  facet normal -0.21497 0 0.976621
    outer loop
      vertex 10.5187 -27.95 7.16081
      vertex 10.2041 -27.95 7.09156
      vertex 10.5187 -30.35 7.16081
    endloop
  endfacet
  facet normal -0.21497 0 0.976621
    outer loop
      vertex 10.5187 -30.35 7.16081
      vertex 10.2041 -27.95 7.09156
      vertex 10.2041 -30.35 7.09156
    endloop
  endfacet
  facet normal -0.319302 0 0.947653
    outer loop
      vertex 10.2041 -27.95 7.09156
      vertex 9.89884 -27.95 6.98871
      vertex 10.2041 -30.35 7.09156
    endloop
  endfacet
  facet normal -0.319302 0 0.947653
    outer loop
      vertex 10.2041 -30.35 7.09156
      vertex 9.89884 -27.95 6.98871
      vertex 9.89884 -30.35 6.98871
    endloop
  endfacet
  facet normal -0.41989 0 0.907575
    outer loop
      vertex 9.89884 -27.95 6.98871
      vertex 9.60649 -27.95 6.85345
      vertex 9.89884 -30.35 6.98871
    endloop
  endfacet
  facet normal -0.41989 0 0.907575
    outer loop
      vertex 9.89884 -30.35 6.98871
      vertex 9.60649 -27.95 6.85345
      vertex 9.60649 -30.35 6.85345
    endloop
  endfacet
  facet normal -0.515553 0 0.856858
    outer loop
      vertex 9.60649 -27.95 6.85345
      vertex 9.33047 -27.95 6.68737
      vertex 9.60649 -30.35 6.85345
    endloop
  endfacet
  facet normal -0.515553 0 0.856858
    outer loop
      vertex 9.60649 -30.35 6.85345
      vertex 9.33047 -27.95 6.68737
      vertex 9.33047 -30.35 6.68737
    endloop
  endfacet
  facet normal -0.605174 0 0.796093
    outer loop
      vertex 9.33047 -27.95 6.68737
      vertex 9.07403 -27.95 6.49243
      vertex 9.33047 -30.35 6.68737
    endloop
  endfacet
  facet normal -0.605174 0 0.796093
    outer loop
      vertex 9.33047 -30.35 6.68737
      vertex 9.07403 -27.95 6.49243
      vertex 9.07403 -30.35 6.49243
    endloop
  endfacet
  facet normal -0.687699 0 0.725996
    outer loop
      vertex 9.07403 -27.95 6.49243
      vertex 8.84016 -27.95 6.27091
      vertex 9.07403 -30.35 6.49243
    endloop
  endfacet
  facet normal -0.687699 0 0.725996
    outer loop
      vertex 9.07403 -30.35 6.49243
      vertex 8.84016 -27.95 6.27091
      vertex 8.84016 -30.35 6.27091
    endloop
  endfacet
  facet normal -0.762162 0 0.647386
    outer loop
      vertex 8.84016 -27.95 6.27091
      vertex 8.63162 -27.95 6.02539
      vertex 8.84016 -30.35 6.27091
    endloop
  endfacet
  facet normal -0.762162 0 0.647386
    outer loop
      vertex 8.84016 -30.35 6.27091
      vertex 8.63162 -27.95 6.02539
      vertex 8.63162 -30.35 6.02539
    endloop
  endfacet
  facet normal -0.827689 0 0.561187
    outer loop
      vertex 8.63162 -27.95 6.02539
      vertex 8.45085 -27.95 5.75877
      vertex 8.63162 -30.35 6.02539
    endloop
  endfacet
  facet normal -0.827689 0 0.561187
    outer loop
      vertex 8.63162 -30.35 6.02539
      vertex 8.45085 -27.95 5.75877
      vertex 8.45085 -30.35 5.75877
    endloop
  endfacet
  facet normal -0.883512 0 0.468408
    outer loop
      vertex 8.45085 -27.95 5.75877
      vertex 8.29996 -27.95 5.47417
      vertex 8.45085 -30.35 5.75877
    endloop
  endfacet
  facet normal -0.883512 0 0.468408
    outer loop
      vertex 8.45085 -30.35 5.75877
      vertex 8.29996 -27.95 5.47417
      vertex 8.29996 -30.35 5.47417
    endloop
  endfacet
  facet normal -0.928977 0 0.370139
    outer loop
      vertex 8.29996 -27.95 5.47417
      vertex 8.18073 -27.95 5.17492
      vertex 8.29996 -30.35 5.47417
    endloop
  endfacet
  facet normal -0.928977 0 0.370139
    outer loop
      vertex 8.29996 -30.35 5.47417
      vertex 8.18073 -27.95 5.17492
      vertex 8.18073 -30.35 5.17492
    endloop
  endfacet
  facet normal -0.96355 0 0.267529
    outer loop
      vertex 8.18073 -27.95 5.17492
      vertex 8.09455 -27.95 4.86454
      vertex 8.18073 -30.35 5.17492
    endloop
  endfacet
  facet normal -0.96355 0 0.267529
    outer loop
      vertex 8.18073 -30.35 5.17492
      vertex 8.09455 -27.95 4.86454
      vertex 8.09455 -30.35 4.86454
    endloop
  endfacet
  facet normal -0.986827 0 0.161781
    outer loop
      vertex 8.09455 -27.95 4.86454
      vertex 8.04244 -27.95 4.54665
      vertex 8.09455 -30.35 4.86454
    endloop
  endfacet
  facet normal -0.986827 0 0.161781
    outer loop
      vertex 8.09455 -30.35 4.86454
      vertex 8.04244 -27.95 4.54665
      vertex 8.04244 -30.35 4.54665
    endloop
  endfacet
  facet normal -0.998533 0 0.05414
    outer loop
      vertex 8.04244 -27.95 4.54665
      vertex 8.025 -27.95 4.225
      vertex 8.04244 -30.35 4.54665
    endloop
  endfacet
  facet normal -0.998533 0 0.05414
    outer loop
      vertex 8.04244 -30.35 4.54665
      vertex 8.025 -27.95 4.225
      vertex 8.025 -30.35 4.225
    endloop
  endfacet
  facet normal -0.998533 0 -0.0541401
    outer loop
      vertex 8.025 -27.95 4.225
      vertex 8.04244 -27.95 3.90335
      vertex 8.025 -30.35 4.225
    endloop
  endfacet
  facet normal -0.998533 0 -0.0541401
    outer loop
      vertex 8.025 -30.35 4.225
      vertex 8.04244 -27.95 3.90335
      vertex 8.04244 -30.35 3.90335
    endloop
  endfacet
  facet normal -0.986827 0 -0.161781
    outer loop
      vertex 8.04244 -27.95 3.90335
      vertex 8.09455 -27.95 3.58546
      vertex 8.04244 -30.35 3.90335
    endloop
  endfacet
  facet normal -0.986827 0 -0.161781
    outer loop
      vertex 8.04244 -30.35 3.90335
      vertex 8.09455 -27.95 3.58546
      vertex 8.09455 -30.35 3.58546
    endloop
  endfacet
  facet normal -0.96355 0 -0.267529
    outer loop
      vertex 8.09455 -27.95 3.58546
      vertex 8.18073 -27.95 3.27508
      vertex 8.09455 -30.35 3.58546
    endloop
  endfacet
  facet normal -0.96355 0 -0.267529
    outer loop
      vertex 8.09455 -30.35 3.58546
      vertex 8.18073 -27.95 3.27508
      vertex 8.18073 -30.35 3.27508
    endloop
  endfacet
  facet normal -0.928976 0 -0.370139
    outer loop
      vertex 8.18073 -27.95 3.27508
      vertex 8.29996 -27.95 2.97583
      vertex 8.18073 -30.35 3.27508
    endloop
  endfacet
  facet normal -0.928976 0 -0.370139
    outer loop
      vertex 8.18073 -30.35 3.27508
      vertex 8.29996 -27.95 2.97583
      vertex 8.29996 -30.35 2.97583
    endloop
  endfacet
  facet normal -0.883513 0 -0.468407
    outer loop
      vertex 8.29996 -27.95 2.97583
      vertex 8.45085 -27.95 2.69123
      vertex 8.29996 -30.35 2.97583
    endloop
  endfacet
  facet normal -0.883513 0 -0.468407
    outer loop
      vertex 8.29996 -30.35 2.97583
      vertex 8.45085 -27.95 2.69123
      vertex 8.45085 -30.35 2.69123
    endloop
  endfacet
  facet normal -0.827689 0 -0.561188
    outer loop
      vertex 8.45085 -27.95 2.69123
      vertex 8.63162 -27.95 2.42461
      vertex 8.45085 -30.35 2.69123
    endloop
  endfacet
  facet normal -0.827689 0 -0.561188
    outer loop
      vertex 8.45085 -30.35 2.69123
      vertex 8.63162 -27.95 2.42461
      vertex 8.63162 -30.35 2.42461
    endloop
  endfacet
  facet normal -0.762163 0 -0.647385
    outer loop
      vertex 8.63162 -27.95 2.42461
      vertex 8.84016 -27.95 2.17909
      vertex 8.63162 -30.35 2.42461
    endloop
  endfacet
  facet normal -0.762163 0 -0.647385
    outer loop
      vertex 8.63162 -30.35 2.42461
      vertex 8.84016 -27.95 2.17909
      vertex 8.84016 -30.35 2.17909
    endloop
  endfacet
  facet normal -0.687699 0 -0.725996
    outer loop
      vertex 8.84016 -27.95 2.17909
      vertex 9.07403 -27.95 1.95757
      vertex 8.84016 -30.35 2.17909
    endloop
  endfacet
  facet normal -0.687699 0 -0.725996
    outer loop
      vertex 8.84016 -30.35 2.17909
      vertex 9.07403 -27.95 1.95757
      vertex 9.07403 -30.35 1.95757
    endloop
  endfacet
  facet normal -0.605175 0 -0.796093
    outer loop
      vertex 9.07403 -27.95 1.95757
      vertex 9.33047 -27.95 1.76263
      vertex 9.07403 -30.35 1.95757
    endloop
  endfacet
  facet normal -0.605175 0 -0.796093
    outer loop
      vertex 9.07403 -30.35 1.95757
      vertex 9.33047 -27.95 1.76263
      vertex 9.33047 -30.35 1.76263
    endloop
  endfacet
  facet normal -0.515553 0 -0.856858
    outer loop
      vertex 9.33047 -27.95 1.76263
      vertex 9.60649 -27.95 1.59655
      vertex 9.33047 -30.35 1.76263
    endloop
  endfacet
  facet normal -0.515553 0 -0.856858
    outer loop
      vertex 9.33047 -30.35 1.76263
      vertex 9.60649 -27.95 1.59655
      vertex 9.60649 -30.35 1.59655
    endloop
  endfacet
  facet normal -0.41989 0 -0.907575
    outer loop
      vertex 9.60649 -27.95 1.59655
      vertex 9.89884 -27.95 1.46129
      vertex 9.60649 -30.35 1.59655
    endloop
  endfacet
  facet normal -0.41989 0 -0.907575
    outer loop
      vertex 9.60649 -30.35 1.59655
      vertex 9.89884 -27.95 1.46129
      vertex 9.89884 -30.35 1.46129
    endloop
  endfacet
  facet normal -0.319302 0 -0.947653
    outer loop
      vertex 9.89884 -27.95 1.46129
      vertex 10.2041 -27.95 1.35844
      vertex 9.89884 -30.35 1.46129
    endloop
  endfacet
  facet normal -0.319302 0 -0.947653
    outer loop
      vertex 9.89884 -30.35 1.46129
      vertex 10.2041 -27.95 1.35844
      vertex 10.2041 -30.35 1.35844
    endloop
  endfacet
  facet normal -0.21497 0 -0.976621
    outer loop
      vertex 10.2041 -27.95 1.35844
      vertex 10.5187 -27.95 1.28919
      vertex 10.2041 -30.35 1.35844
    endloop
  endfacet
  facet normal -0.21497 0 -0.976621
    outer loop
      vertex 10.2041 -30.35 1.35844
      vertex 10.5187 -27.95 1.28919
      vertex 10.5187 -30.35 1.28919
    endloop
  endfacet
  facet normal -0.108119 0 -0.994138
    outer loop
      vertex 10.5187 -27.95 1.28919
      vertex 10.8389 -27.95 1.25436
      vertex 10.5187 -30.35 1.28919
    endloop
  endfacet
  facet normal -0.108119 0 -0.994138
    outer loop
      vertex 10.5187 -30.35 1.28919
      vertex 10.8389 -27.95 1.25436
      vertex 10.8389 -30.35 1.25436
    endloop
  endfacet
  facet normal 0 0 -1
    outer loop
      vertex 10.8389 -27.95 1.25436
      vertex 11.1611 -27.95 1.25436
      vertex 10.8389 -30.35 1.25436
    endloop
  endfacet
  facet normal 0 0 -1
    outer loop
      vertex 10.8389 -30.35 1.25436
      vertex 11.1611 -27.95 1.25436
      vertex 11.1611 -30.35 1.25436
    endloop
  endfacet
  facet normal 0.108119 0 -0.994138
    outer loop
      vertex 11.1611 -27.95 1.25436
      vertex 11.4813 -27.95 1.28919
      vertex 11.1611 -30.35 1.25436
    endloop
  endfacet
  facet normal 0.108119 0 -0.994138
    outer loop
      vertex 11.1611 -30.35 1.25436
      vertex 11.4813 -27.95 1.28919
      vertex 11.4813 -30.35 1.28919
    endloop
  endfacet
  facet normal 0.214971 0 -0.976621
    outer loop
      vertex 11.4813 -27.95 1.28919
      vertex 11.7959 -27.95 1.35844
      vertex 11.4813 -30.35 1.28919
    endloop
  endfacet
  facet normal 0.214971 0 -0.976621
    outer loop
      vertex 11.4813 -30.35 1.28919
      vertex 11.7959 -27.95 1.35844
      vertex 11.7959 -30.35 1.35844
    endloop
  endfacet
  facet normal 0.319302 0 -0.947653
    outer loop
      vertex 11.7959 -27.95 1.35844
      vertex 12.1012 -27.95 1.46129
      vertex 11.7959 -30.35 1.35844
    endloop
  endfacet
  facet normal 0.319302 0 -0.947653
    outer loop
      vertex 11.7959 -30.35 1.35844
      vertex 12.1012 -27.95 1.46129
      vertex 12.1012 -30.35 1.46129
    endloop
  endfacet
  facet normal 0.419889 0 -0.907576
    outer loop
      vertex 12.1012 -27.95 1.46129
      vertex 12.3935 -27.95 1.59655
      vertex 12.1012 -30.35 1.46129
    endloop
  endfacet
  facet normal 0.419889 0 -0.907576
    outer loop
      vertex 12.1012 -30.35 1.46129
      vertex 12.3935 -27.95 1.59655
      vertex 12.3935 -30.35 1.59655
    endloop
  endfacet
  facet normal 0.515554 0 -0.856857
    outer loop
      vertex 12.3935 -27.95 1.59655
      vertex 12.6695 -27.95 1.76263
      vertex 12.3935 -30.35 1.59655
    endloop
  endfacet
  facet normal 0.515554 0 -0.856857
    outer loop
      vertex 12.3935 -30.35 1.59655
      vertex 12.6695 -27.95 1.76263
      vertex 12.6695 -30.35 1.76263
    endloop
  endfacet
  facet normal 0.605175 0 -0.796093
    outer loop
      vertex 12.6695 -27.95 1.76263
      vertex 12.926 -27.95 1.95757
      vertex 12.6695 -30.35 1.76263
    endloop
  endfacet
  facet normal 0.605175 0 -0.796093
    outer loop
      vertex 12.6695 -30.35 1.76263
      vertex 12.926 -27.95 1.95757
      vertex 12.926 -30.35 1.95757
    endloop
  endfacet
  facet normal 0.687699 0 -0.725996
    outer loop
      vertex 12.926 -27.95 1.95757
      vertex 13.1598 -27.95 2.17909
      vertex 12.926 -30.35 1.95757
    endloop
  endfacet
  facet normal 0.687699 0 -0.725996
    outer loop
      vertex 12.926 -30.35 1.95757
      vertex 13.1598 -27.95 2.17909
      vertex 13.1598 -30.35 2.17909
    endloop
  endfacet
  facet normal 0.762163 0 -0.647385
    outer loop
      vertex 13.1598 -27.95 2.17909
      vertex 13.3684 -27.95 2.42461
      vertex 13.1598 -30.35 2.17909
    endloop
  endfacet
  facet normal 0.762163 0 -0.647385
    outer loop
      vertex 13.1598 -30.35 2.17909
      vertex 13.3684 -27.95 2.42461
      vertex 13.3684 -30.35 2.42461
    endloop
  endfacet
  facet normal 0.827689 0 -0.561188
    outer loop
      vertex 13.3684 -27.95 2.42461
      vertex 13.5491 -27.95 2.69123
      vertex 13.3684 -30.35 2.42461
    endloop
  endfacet
  facet normal 0.827689 0 -0.561188
    outer loop
      vertex 13.3684 -30.35 2.42461
      vertex 13.5491 -27.95 2.69123
      vertex 13.5491 -30.35 2.69123
    endloop
  endfacet
  facet normal 0.883511 0 -0.46841
    outer loop
      vertex 13.5491 -27.95 2.69123
      vertex 13.7 -27.95 2.97583
      vertex 13.5491 -30.35 2.69123
    endloop
  endfacet
  facet normal 0.883511 0 -0.46841
    outer loop
      vertex 13.5491 -30.35 2.69123
      vertex 13.7 -27.95 2.97583
      vertex 13.7 -30.35 2.97583
    endloop
  endfacet
  facet normal 0.928977 0 -0.370136
    outer loop
      vertex 13.7 -27.95 2.97583
      vertex 13.8193 -27.95 3.27508
      vertex 13.7 -30.35 2.97583
    endloop
  endfacet
  facet normal 0.928977 0 -0.370136
    outer loop
      vertex 13.7 -30.35 2.97583
      vertex 13.8193 -27.95 3.27508
      vertex 13.8193 -30.35 3.27508
    endloop
  endfacet
  facet normal 0.96355 0 -0.267529
    outer loop
      vertex 13.8193 -27.95 3.27508
      vertex 13.9054 -27.95 3.58546
      vertex 13.8193 -30.35 3.27508
    endloop
  endfacet
  facet normal 0.96355 0 -0.267529
    outer loop
      vertex 13.8193 -30.35 3.27508
      vertex 13.9054 -27.95 3.58546
      vertex 13.9054 -30.35 3.58546
    endloop
  endfacet
  facet normal 0.986827 0 -0.161781
    outer loop
      vertex 13.9054 -27.95 3.58546
      vertex 13.9576 -27.95 3.90335
      vertex 13.9054 -30.35 3.58546
    endloop
  endfacet
  facet normal 0.986827 0 -0.161781
    outer loop
      vertex 13.9054 -30.35 3.58546
      vertex 13.9576 -27.95 3.90335
      vertex 13.9576 -30.35 3.90335
    endloop
  endfacet
  facet normal 0.998533 0 -0.0541401
    outer loop
      vertex 13.9576 -27.95 3.90335
      vertex 13.975 -27.95 4.225
      vertex 13.9576 -30.35 3.90335
    endloop
  endfacet
  facet normal 0.998533 0 -0.0541401
    outer loop
      vertex 13.9576 -30.35 3.90335
      vertex 13.975 -27.95 4.225
      vertex 13.975 -30.35 4.225
    endloop
  endfacet
  facet normal 0.998533 0 0.05414
    outer loop
      vertex 13.975 -27.95 4.225
      vertex 13.9576 -27.95 4.54665
      vertex 13.975 -30.35 4.225
    endloop
  endfacet
  facet normal 0.998533 0 0.05414
    outer loop
      vertex 13.975 -30.35 4.225
      vertex 13.9576 -27.95 4.54665
      vertex 13.9576 -30.35 4.54665
    endloop
  endfacet
  facet normal 0.986827 0 0.161781
    outer loop
      vertex 13.9576 -27.95 4.54665
      vertex 13.9054 -27.95 4.86454
      vertex 13.9576 -30.35 4.54665
    endloop
  endfacet
  facet normal 0.986827 0 0.161781
    outer loop
      vertex 13.9576 -30.35 4.54665
      vertex 13.9054 -27.95 4.86454
      vertex 13.9054 -30.35 4.86454
    endloop
  endfacet
  facet normal 0.96355 0 0.267529
    outer loop
      vertex 13.9054 -27.95 4.86454
      vertex 13.8193 -27.95 5.17492
      vertex 13.9054 -30.35 4.86454
    endloop
  endfacet
  facet normal 0.96355 0 0.267529
    outer loop
      vertex 13.9054 -30.35 4.86454
      vertex 13.8193 -27.95 5.17492
      vertex 13.8193 -30.35 5.17492
    endloop
  endfacet
  facet normal 0.928978 0 0.370136
    outer loop
      vertex 13.8193 -27.95 5.17492
      vertex 13.7 -27.95 5.47417
      vertex 13.8193 -30.35 5.17492
    endloop
  endfacet
  facet normal 0.928978 0 0.370136
    outer loop
      vertex 13.8193 -30.35 5.17492
      vertex 13.7 -27.95 5.47417
      vertex 13.7 -30.35 5.47417
    endloop
  endfacet
  facet normal 0.883511 0 0.46841
    outer loop
      vertex 13.7 -27.95 5.47417
      vertex 13.5491 -27.95 5.75877
      vertex 13.7 -30.35 5.47417
    endloop
  endfacet
  facet normal 0.883511 0 0.46841
    outer loop
      vertex 13.7 -30.35 5.47417
      vertex 13.5491 -27.95 5.75877
      vertex 13.5491 -30.35 5.75877
    endloop
  endfacet
  facet normal 0.827689 0 0.561187
    outer loop
      vertex 13.5491 -27.95 5.75877
      vertex 13.3684 -27.95 6.02539
      vertex 13.5491 -30.35 5.75877
    endloop
  endfacet
  facet normal 0.827689 0 0.561187
    outer loop
      vertex 13.5491 -30.35 5.75877
      vertex 13.3684 -27.95 6.02539
      vertex 13.3684 -30.35 6.02539
    endloop
  endfacet
  facet normal 0.762162 0 0.647386
    outer loop
      vertex 13.3684 -27.95 6.02539
      vertex 13.1598 -27.95 6.27091
      vertex 13.3684 -30.35 6.02539
    endloop
  endfacet
  facet normal 0.762162 0 0.647386
    outer loop
      vertex 13.3684 -30.35 6.02539
      vertex 13.1598 -27.95 6.27091
      vertex 13.1598 -30.35 6.27091
    endloop
  endfacet
  facet normal 0.687699 0 0.725996
    outer loop
      vertex 13.1598 -27.95 6.27091
      vertex 12.926 -27.95 6.49243
      vertex 13.1598 -30.35 6.27091
    endloop
  endfacet
  facet normal 0.687699 0 0.725996
    outer loop
      vertex 13.1598 -30.35 6.27091
      vertex 12.926 -27.95 6.49243
      vertex 12.926 -30.35 6.49243
    endloop
  endfacet
  facet normal 0.605174 0 0.796093
    outer loop
      vertex 12.926 -27.95 6.49243
      vertex 12.6695 -27.95 6.68737
      vertex 12.926 -30.35 6.49243
    endloop
  endfacet
  facet normal 0.605174 0 0.796093
    outer loop
      vertex 12.926 -30.35 6.49243
      vertex 12.6695 -27.95 6.68737
      vertex 12.6695 -30.35 6.68737
    endloop
  endfacet
  facet normal 0.515554 0 0.856857
    outer loop
      vertex 12.6695 -27.95 6.68737
      vertex 12.3935 -27.95 6.85345
      vertex 12.6695 -30.35 6.68737
    endloop
  endfacet
  facet normal 0.515554 0 0.856857
    outer loop
      vertex 12.6695 -30.35 6.68737
      vertex 12.3935 -27.95 6.85345
      vertex 12.3935 -30.35 6.85345
    endloop
  endfacet
  facet normal 0.419889 0 0.907576
    outer loop
      vertex 12.3935 -27.95 6.85345
      vertex 12.1012 -27.95 6.98871
      vertex 12.3935 -30.35 6.85345
    endloop
  endfacet
  facet normal 0.419889 0 0.907576
    outer loop
      vertex 12.3935 -30.35 6.85345
      vertex 12.1012 -27.95 6.98871
      vertex 12.1012 -30.35 6.98871
    endloop
  endfacet
  facet normal 0.319302 0 0.947653
    outer loop
      vertex 12.1012 -27.95 6.98871
      vertex 11.7959 -27.95 7.09156
      vertex 12.1012 -30.35 6.98871
    endloop
  endfacet
  facet normal 0.319302 0 0.947653
    outer loop
      vertex 12.1012 -30.35 6.98871
      vertex 11.7959 -27.95 7.09156
      vertex 11.7959 -30.35 7.09156
    endloop
  endfacet
  facet normal 0.21497 0 0.976621
    outer loop
      vertex 11.7959 -27.95 7.09156
      vertex 11.4813 -27.95 7.16081
      vertex 11.7959 -30.35 7.09156
    endloop
  endfacet
  facet normal 0.21497 0 0.976621
    outer loop
      vertex 11.7959 -30.35 7.09156
      vertex 11.4813 -27.95 7.16081
      vertex 11.4813 -30.35 7.16081
    endloop
  endfacet
  facet normal 0.108119 0 0.994138
    outer loop
      vertex 11.4813 -27.95 7.16081
      vertex 11.1611 -27.95 7.19564
      vertex 11.4813 -30.35 7.16081
    endloop
  endfacet
  facet normal 0.108119 0 0.994138
    outer loop
      vertex 11.4813 -30.35 7.16081
      vertex 11.1611 -27.95 7.19564
      vertex 11.1611 -30.35 7.19564
    endloop
  endfacet
  facet normal 0.0270775 0 0.999633
    outer loop
      vertex 11.1611 -27.95 7.19564
      vertex 11 -27.95 7.2
      vertex 11.1611 -30.35 7.19564
    endloop
  endfacet
  facet normal 0 -0.00181782 0.999998
    outer loop
      vertex 11.1611 -30.35 7.19564
      vertex 11 -27.95 7.2
      vertex 10.8389 -30.35 7.19564
    endloop
  endfacet
  facet normal 0.998533 0 -0.05414
    outer loop
      vertex 9.2 -30.35 4.225
      vertex 9.2 -16.55 4.225
      vertex 9.21055 -30.35 4.41961
    endloop
  endfacet
  facet normal 0.998533 0 -0.05414
    outer loop
      vertex 9.2 -16.55 4.225
      vertex 9.21055 -16.55 4.41961
      vertex 9.21055 -30.35 4.41961
    endloop
  endfacet
  facet normal 0.986827 0 -0.16178
    outer loop
      vertex 9.21055 -30.35 4.41961
      vertex 9.21055 -16.55 4.41961
      vertex 9.24208 -30.35 4.61195
    endloop
  endfacet
  facet normal 0.986827 0 -0.16178
    outer loop
      vertex 9.21055 -16.55 4.41961
      vertex 9.24208 -16.55 4.61195
      vertex 9.24208 -30.35 4.61195
    endloop
  endfacet
  facet normal 0.96355 0 -0.267527
    outer loop
      vertex 9.24208 -30.35 4.61195
      vertex 9.24208 -16.55 4.61195
      vertex 9.29422 -30.35 4.79974
    endloop
  endfacet
  facet normal 0.96355 0 -0.267527
    outer loop
      vertex 9.24208 -16.55 4.61195
      vertex 9.29422 -16.55 4.79974
      vertex 9.29422 -30.35 4.79974
    endloop
  endfacet
  facet normal 0.928976 0 -0.37014
    outer loop
      vertex 9.29422 -30.35 4.79974
      vertex 9.29422 -16.55 4.79974
      vertex 9.36636 -30.35 4.9808
    endloop
  endfacet
  facet normal 0.928976 0 -0.37014
    outer loop
      vertex 9.29422 -16.55 4.79974
      vertex 9.36636 -16.55 4.9808
      vertex 9.36636 -30.35 4.9808
    endloop
  endfacet
  facet normal 0.883512 0 -0.468408
    outer loop
      vertex 9.36636 -30.35 4.9808
      vertex 9.36636 -16.55 4.9808
      vertex 9.45766 -30.35 5.153
    endloop
  endfacet
  facet normal 0.883512 0 -0.468408
    outer loop
      vertex 9.36636 -16.55 4.9808
      vertex 9.45766 -16.55 5.153
      vertex 9.45766 -30.35 5.153
    endloop
  endfacet
  facet normal 0.827689 0 -0.561187
    outer loop
      vertex 9.45766 -30.35 5.153
      vertex 9.45766 -16.55 5.153
      vertex 9.56703 -30.35 5.31431
    endloop
  endfacet
  facet normal 0.827689 0 -0.561187
    outer loop
      vertex 9.45766 -16.55 5.153
      vertex 9.56703 -16.55 5.31431
      vertex 9.56703 -30.35 5.31431
    endloop
  endfacet
  facet normal 0.762161 0 -0.647387
    outer loop
      vertex 9.56703 -30.35 5.31431
      vertex 9.56703 -16.55 5.31431
      vertex 9.69321 -30.35 5.46286
    endloop
  endfacet
  facet normal 0.762161 0 -0.647387
    outer loop
      vertex 9.56703 -16.55 5.31431
      vertex 9.69321 -16.55 5.46286
      vertex 9.69321 -30.35 5.46286
    endloop
  endfacet
  facet normal 0.687699 0 -0.725996
    outer loop
      vertex 9.69321 -30.35 5.46286
      vertex 9.69321 -16.55 5.46286
      vertex 9.8347 -30.35 5.59689
    endloop
  endfacet
  facet normal 0.687699 0 -0.725996
    outer loop
      vertex 9.69321 -16.55 5.46286
      vertex 9.8347 -16.55 5.59689
      vertex 9.8347 -30.35 5.59689
    endloop
  endfacet
  facet normal 0.605176 0 -0.796092
    outer loop
      vertex 9.8347 -30.35 5.59689
      vertex 9.8347 -16.55 5.59689
      vertex 9.98986 -30.35 5.71484
    endloop
  endfacet
  facet normal 0.605176 0 -0.796092
    outer loop
      vertex 9.8347 -16.55 5.59689
      vertex 9.98986 -16.55 5.71484
      vertex 9.98986 -30.35 5.71484
    endloop
  endfacet
  facet normal 0.515552 0 -0.856858
    outer loop
      vertex 9.98986 -30.35 5.71484
      vertex 9.98986 -16.55 5.71484
      vertex 10.1569 -30.35 5.81532
    endloop
  endfacet
  facet normal 0.515552 0 -0.856858
    outer loop
      vertex 9.98986 -16.55 5.71484
      vertex 10.1569 -16.55 5.81532
      vertex 10.1569 -30.35 5.81532
    endloop
  endfacet
  facet normal 0.419891 0 -0.907574
    outer loop
      vertex 10.1569 -30.35 5.81532
      vertex 10.1569 -16.55 5.81532
      vertex 10.3338 -30.35 5.89716
    endloop
  endfacet
  facet normal 0.419891 0 -0.907574
    outer loop
      vertex 10.1569 -16.55 5.81532
      vertex 10.3338 -16.55 5.89716
      vertex 10.3338 -30.35 5.89716
    endloop
  endfacet
  facet normal 0.319301 0 -0.947653
    outer loop
      vertex 10.3338 -30.35 5.89716
      vertex 10.3338 -16.55 5.89716
      vertex 10.5184 -30.35 5.95939
    endloop
  endfacet
  facet normal 0.319301 0 -0.947653
    outer loop
      vertex 10.3338 -16.55 5.89716
      vertex 10.5184 -16.55 5.95939
      vertex 10.5184 -30.35 5.95939
    endloop
  endfacet
  facet normal 0.214969 0 -0.976621
    outer loop
      vertex 10.5184 -30.35 5.95939
      vertex 10.5184 -16.55 5.95939
      vertex 10.7088 -30.35 6.00129
    endloop
  endfacet
  facet normal 0.214969 0 -0.976621
    outer loop
      vertex 10.5184 -16.55 5.95939
      vertex 10.7088 -16.55 6.00129
      vertex 10.7088 -30.35 6.00129
    endloop
  endfacet
  facet normal 0.10812 0 -0.994138
    outer loop
      vertex 10.7088 -30.35 6.00129
      vertex 10.7088 -16.55 6.00129
      vertex 10.9026 -30.35 6.02236
    endloop
  endfacet
  facet normal 0.10812 0 -0.994138
    outer loop
      vertex 10.7088 -16.55 6.00129
      vertex 10.9026 -16.55 6.02236
      vertex 10.9026 -30.35 6.02236
    endloop
  endfacet
  facet normal 0 0 -1
    outer loop
      vertex 10.9026 -30.35 6.02236
      vertex 10.9026 -16.55 6.02236
      vertex 11.0974 -30.35 6.02236
    endloop
  endfacet
  facet normal 0 0 -1
    outer loop
      vertex 10.9026 -16.55 6.02236
      vertex 11.0974 -16.55 6.02236
      vertex 11.0974 -30.35 6.02236
    endloop
  endfacet
  facet normal -0.10812 0 -0.994138
    outer loop
      vertex 11.0974 -30.35 6.02236
      vertex 11.0974 -16.55 6.02236
      vertex 11.2912 -30.35 6.00129
    endloop
  endfacet
  facet normal -0.10812 0 -0.994138
    outer loop
      vertex 11.0974 -16.55 6.02236
      vertex 11.2912 -16.55 6.00129
      vertex 11.2912 -30.35 6.00129
    endloop
  endfacet
  facet normal -0.214968 0 -0.976621
    outer loop
      vertex 11.2912 -30.35 6.00129
      vertex 11.2912 -16.55 6.00129
      vertex 11.4816 -30.35 5.95939
    endloop
  endfacet
  facet normal -0.214968 0 -0.976621
    outer loop
      vertex 11.2912 -16.55 6.00129
      vertex 11.4816 -16.55 5.95939
      vertex 11.4816 -30.35 5.95939
    endloop
  endfacet
  facet normal -0.319302 0 -0.947653
    outer loop
      vertex 11.4816 -30.35 5.95939
      vertex 11.4816 -16.55 5.95939
      vertex 11.6662 -30.35 5.89716
    endloop
  endfacet
  facet normal -0.319302 0 -0.947653
    outer loop
      vertex 11.4816 -16.55 5.95939
      vertex 11.6662 -16.55 5.89716
      vertex 11.6662 -30.35 5.89716
    endloop
  endfacet
  facet normal -0.419889 0 -0.907575
    outer loop
      vertex 11.6662 -30.35 5.89716
      vertex 11.6662 -16.55 5.89716
      vertex 11.8431 -30.35 5.81532
    endloop
  endfacet
  facet normal -0.419889 0 -0.907575
    outer loop
      vertex 11.6662 -16.55 5.89716
      vertex 11.8431 -16.55 5.81532
      vertex 11.8431 -30.35 5.81532
    endloop
  endfacet
  facet normal -0.515554 0 -0.856857
    outer loop
      vertex 11.8431 -30.35 5.81532
      vertex 11.8431 -16.55 5.81532
      vertex 12.0101 -30.35 5.71484
    endloop
  endfacet
  facet normal -0.515554 0 -0.856857
    outer loop
      vertex 11.8431 -16.55 5.81532
      vertex 12.0101 -16.55 5.71484
      vertex 12.0101 -30.35 5.71484
    endloop
  endfacet
  facet normal -0.605176 0 -0.796092
    outer loop
      vertex 12.0101 -30.35 5.71484
      vertex 12.0101 -16.55 5.71484
      vertex 12.1653 -30.35 5.59689
    endloop
  endfacet
  facet normal -0.605176 0 -0.796092
    outer loop
      vertex 12.0101 -16.55 5.71484
      vertex 12.1653 -16.55 5.59689
      vertex 12.1653 -30.35 5.59689
    endloop
  endfacet
  facet normal -0.687699 0 -0.725996
    outer loop
      vertex 12.1653 -30.35 5.59689
      vertex 12.1653 -16.55 5.59689
      vertex 12.3068 -30.35 5.46286
    endloop
  endfacet
  facet normal -0.687699 0 -0.725996
    outer loop
      vertex 12.1653 -16.55 5.59689
      vertex 12.3068 -16.55 5.46286
      vertex 12.3068 -30.35 5.46286
    endloop
  endfacet
  facet normal -0.762161 0 -0.647387
    outer loop
      vertex 12.3068 -30.35 5.46286
      vertex 12.3068 -16.55 5.46286
      vertex 12.433 -30.35 5.31431
    endloop
  endfacet
  facet normal -0.762161 0 -0.647387
    outer loop
      vertex 12.3068 -16.55 5.46286
      vertex 12.433 -16.55 5.31431
      vertex 12.433 -30.35 5.31431
    endloop
  endfacet
  facet normal -0.827689 0 -0.561187
    outer loop
      vertex 12.433 -30.35 5.31431
      vertex 12.433 -16.55 5.31431
      vertex 12.5423 -30.35 5.153
    endloop
  endfacet
  facet normal -0.827689 0 -0.561187
    outer loop
      vertex 12.433 -16.55 5.31431
      vertex 12.5423 -16.55 5.153
      vertex 12.5423 -30.35 5.153
    endloop
  endfacet
  facet normal -0.883512 0 -0.468408
    outer loop
      vertex 12.5423 -30.35 5.153
      vertex 12.5423 -16.55 5.153
      vertex 12.6336 -30.35 4.9808
    endloop
  endfacet
  facet normal -0.883512 0 -0.468408
    outer loop
      vertex 12.5423 -16.55 5.153
      vertex 12.6336 -16.55 4.9808
      vertex 12.6336 -30.35 4.9808
    endloop
  endfacet
  facet normal -0.928976 0 -0.37014
    outer loop
      vertex 12.6336 -30.35 4.9808
      vertex 12.6336 -16.55 4.9808
      vertex 12.7058 -30.35 4.79974
    endloop
  endfacet
  facet normal -0.928976 0 -0.37014
    outer loop
      vertex 12.6336 -16.55 4.9808
      vertex 12.7058 -16.55 4.79974
      vertex 12.7058 -30.35 4.79974
    endloop
  endfacet
  facet normal -0.96355 0 -0.267527
    outer loop
      vertex 12.7058 -30.35 4.79974
      vertex 12.7058 -16.55 4.79974
      vertex 12.7579 -30.35 4.61195
    endloop
  endfacet
  facet normal -0.96355 0 -0.267527
    outer loop
      vertex 12.7058 -16.55 4.79974
      vertex 12.7579 -16.55 4.61195
      vertex 12.7579 -30.35 4.61195
    endloop
  endfacet
  facet normal -0.986826 0 -0.161784
    outer loop
      vertex 12.7579 -30.35 4.61195
      vertex 12.7579 -16.55 4.61195
      vertex 12.7894 -30.35 4.41961
    endloop
  endfacet
  facet normal -0.986826 0 -0.161784
    outer loop
      vertex 12.7579 -16.55 4.61195
      vertex 12.7894 -16.55 4.41961
      vertex 12.7894 -30.35 4.41961
    endloop
  endfacet
  facet normal -0.998534 0 -0.0541352
    outer loop
      vertex 12.7894 -30.35 4.41961
      vertex 12.7894 -16.55 4.41961
      vertex 12.8 -30.35 4.225
    endloop
  endfacet
  facet normal -0.998534 0 -0.0541352
    outer loop
      vertex 12.7894 -16.55 4.41961
      vertex 12.8 -16.55 4.225
      vertex 12.8 -30.35 4.225
    endloop
  endfacet
  facet normal -0.998534 0 0.0541353
    outer loop
      vertex 12.8 -30.35 4.225
      vertex 12.8 -16.55 4.225
      vertex 12.7894 -30.35 4.03039
    endloop
  endfacet
  facet normal -0.998534 0 0.0541353
    outer loop
      vertex 12.8 -16.55 4.225
      vertex 12.7894 -16.55 4.03039
      vertex 12.7894 -30.35 4.03039
    endloop
  endfacet
  facet normal -0.986826 0 0.161784
    outer loop
      vertex 12.7894 -30.35 4.03039
      vertex 12.7894 -16.55 4.03039
      vertex 12.7579 -30.35 3.83805
    endloop
  endfacet
  facet normal -0.986826 0 0.161784
    outer loop
      vertex 12.7894 -16.55 4.03039
      vertex 12.7579 -16.55 3.83805
      vertex 12.7579 -30.35 3.83805
    endloop
  endfacet
  facet normal -0.96355 0 0.267527
    outer loop
      vertex 12.7579 -30.35 3.83805
      vertex 12.7579 -16.55 3.83805
      vertex 12.7058 -30.35 3.65026
    endloop
  endfacet
  facet normal -0.96355 0 0.267527
    outer loop
      vertex 12.7579 -16.55 3.83805
      vertex 12.7058 -16.55 3.65026
      vertex 12.7058 -30.35 3.65026
    endloop
  endfacet
  facet normal -0.928976 0 0.37014
    outer loop
      vertex 12.7058 -30.35 3.65026
      vertex 12.7058 -16.55 3.65026
      vertex 12.6336 -30.35 3.4692
    endloop
  endfacet
  facet normal -0.928976 0 0.37014
    outer loop
      vertex 12.7058 -16.55 3.65026
      vertex 12.6336 -16.55 3.4692
      vertex 12.6336 -30.35 3.4692
    endloop
  endfacet
  facet normal -0.883512 0 0.468408
    outer loop
      vertex 12.6336 -30.35 3.4692
      vertex 12.6336 -16.55 3.4692
      vertex 12.5423 -30.35 3.297
    endloop
  endfacet
  facet normal -0.883512 0 0.468408
    outer loop
      vertex 12.6336 -16.55 3.4692
      vertex 12.5423 -16.55 3.297
      vertex 12.5423 -30.35 3.297
    endloop
  endfacet
  facet normal -0.827689 0 0.561188
    outer loop
      vertex 12.5423 -30.35 3.297
      vertex 12.5423 -16.55 3.297
      vertex 12.433 -30.35 3.13569
    endloop
  endfacet
  facet normal -0.827689 0 0.561188
    outer loop
      vertex 12.5423 -16.55 3.297
      vertex 12.433 -16.55 3.13569
      vertex 12.433 -30.35 3.13569
    endloop
  endfacet
  facet normal -0.762162 0 0.647386
    outer loop
      vertex 12.433 -30.35 3.13569
      vertex 12.433 -16.55 3.13569
      vertex 12.3068 -30.35 2.98714
    endloop
  endfacet
  facet normal -0.762162 0 0.647386
    outer loop
      vertex 12.433 -16.55 3.13569
      vertex 12.3068 -16.55 2.98714
      vertex 12.3068 -30.35 2.98714
    endloop
  endfacet
  facet normal -0.687699 0 0.725996
    outer loop
      vertex 12.3068 -30.35 2.98714
      vertex 12.3068 -16.55 2.98714
      vertex 12.1653 -30.35 2.85311
    endloop
  endfacet
  facet normal -0.687699 0 0.725996
    outer loop
      vertex 12.3068 -16.55 2.98714
      vertex 12.1653 -16.55 2.85311
      vertex 12.1653 -30.35 2.85311
    endloop
  endfacet
  facet normal -0.605175 0 0.796093
    outer loop
      vertex 12.1653 -30.35 2.85311
      vertex 12.1653 -16.55 2.85311
      vertex 12.0101 -30.35 2.73516
    endloop
  endfacet
  facet normal -0.605175 0 0.796093
    outer loop
      vertex 12.1653 -16.55 2.85311
      vertex 12.0101 -16.55 2.73516
      vertex 12.0101 -30.35 2.73516
    endloop
  endfacet
  facet normal -0.515555 0 0.856856
    outer loop
      vertex 12.0101 -30.35 2.73516
      vertex 12.0101 -16.55 2.73516
      vertex 11.8431 -30.35 2.63468
    endloop
  endfacet
  facet normal -0.515555 0 0.856856
    outer loop
      vertex 12.0101 -16.55 2.73516
      vertex 11.8431 -16.55 2.63468
      vertex 11.8431 -30.35 2.63468
    endloop
  endfacet
  facet normal -0.419888 0 0.907576
    outer loop
      vertex 11.8431 -30.35 2.63468
      vertex 11.8431 -16.55 2.63468
      vertex 11.6662 -30.35 2.55284
    endloop
  endfacet
  facet normal -0.419888 0 0.907576
    outer loop
      vertex 11.8431 -16.55 2.63468
      vertex 11.6662 -16.55 2.55284
      vertex 11.6662 -30.35 2.55284
    endloop
  endfacet
  facet normal -0.319301 0 0.947653
    outer loop
      vertex 11.6662 -30.35 2.55284
      vertex 11.6662 -16.55 2.55284
      vertex 11.4816 -30.35 2.49061
    endloop
  endfacet
  facet normal -0.319301 0 0.947653
    outer loop
      vertex 11.6662 -16.55 2.55284
      vertex 11.4816 -16.55 2.49061
      vertex 11.4816 -30.35 2.49061
    endloop
  endfacet
  facet normal -0.214971 0 0.97662
    outer loop
      vertex 11.4816 -30.35 2.49061
      vertex 11.4816 -16.55 2.49061
      vertex 11.2912 -30.35 2.44871
    endloop
  endfacet
  facet normal -0.214971 0 0.97662
    outer loop
      vertex 11.4816 -16.55 2.49061
      vertex 11.2912 -16.55 2.44871
      vertex 11.2912 -30.35 2.44871
    endloop
  endfacet
  facet normal -0.108118 0 0.994138
    outer loop
      vertex 11.2912 -30.35 2.44871
      vertex 11.2912 -16.55 2.44871
      vertex 11.0974 -30.35 2.42764
    endloop
  endfacet
  facet normal -0.108118 0 0.994138
    outer loop
      vertex 11.2912 -16.55 2.44871
      vertex 11.0974 -16.55 2.42764
      vertex 11.0974 -30.35 2.42764
    endloop
  endfacet
  facet normal 0 0 1
    outer loop
      vertex 11.0974 -30.35 2.42764
      vertex 11.0974 -16.55 2.42764
      vertex 10.9026 -30.35 2.42764
    endloop
  endfacet
  facet normal 0 0 1
    outer loop
      vertex 11.0974 -16.55 2.42764
      vertex 10.9026 -16.55 2.42764
      vertex 10.9026 -30.35 2.42764
    endloop
  endfacet
  facet normal 0.108118 0 0.994138
    outer loop
      vertex 10.9026 -30.35 2.42764
      vertex 10.9026 -16.55 2.42764
      vertex 10.7088 -30.35 2.44871
    endloop
  endfacet
  facet normal 0.108118 0 0.994138
    outer loop
      vertex 10.9026 -16.55 2.42764
      vertex 10.7088 -16.55 2.44871
      vertex 10.7088 -30.35 2.44871
    endloop
  endfacet
  facet normal 0.214972 0 0.97662
    outer loop
      vertex 10.7088 -30.35 2.44871
      vertex 10.7088 -16.55 2.44871
      vertex 10.5184 -30.35 2.49061
    endloop
  endfacet
  facet normal 0.214972 0 0.97662
    outer loop
      vertex 10.7088 -16.55 2.44871
      vertex 10.5184 -16.55 2.49061
      vertex 10.5184 -30.35 2.49061
    endloop
  endfacet
  facet normal 0.3193 0 0.947654
    outer loop
      vertex 10.5184 -30.35 2.49061
      vertex 10.5184 -16.55 2.49061
      vertex 10.3338 -30.35 2.55284
    endloop
  endfacet
  facet normal 0.3193 0 0.947654
    outer loop
      vertex 10.5184 -16.55 2.49061
      vertex 10.3338 -16.55 2.55284
      vertex 10.3338 -30.35 2.55284
    endloop
  endfacet
  facet normal 0.41989 0 0.907575
    outer loop
      vertex 10.3338 -30.35 2.55284
      vertex 10.3338 -16.55 2.55284
      vertex 10.1569 -30.35 2.63468
    endloop
  endfacet
  facet normal 0.41989 0 0.907575
    outer loop
      vertex 10.3338 -16.55 2.55284
      vertex 10.1569 -16.55 2.63468
      vertex 10.1569 -30.35 2.63468
    endloop
  endfacet
  facet normal 0.515553 0 0.856858
    outer loop
      vertex 10.1569 -30.35 2.63468
      vertex 10.1569 -16.55 2.63468
      vertex 9.98986 -30.35 2.73516
    endloop
  endfacet
  facet normal 0.515553 0 0.856858
    outer loop
      vertex 10.1569 -16.55 2.63468
      vertex 9.98986 -16.55 2.73516
      vertex 9.98986 -30.35 2.73516
    endloop
  endfacet
  facet normal 0.605175 0 0.796093
    outer loop
      vertex 9.98986 -30.35 2.73516
      vertex 9.98986 -16.55 2.73516
      vertex 9.8347 -30.35 2.85311
    endloop
  endfacet
  facet normal 0.605175 0 0.796093
    outer loop
      vertex 9.98986 -16.55 2.73516
      vertex 9.8347 -16.55 2.85311
      vertex 9.8347 -30.35 2.85311
    endloop
  endfacet
  facet normal 0.687699 0 0.725996
    outer loop
      vertex 9.8347 -30.35 2.85311
      vertex 9.8347 -16.55 2.85311
      vertex 9.69321 -30.35 2.98714
    endloop
  endfacet
  facet normal 0.687699 0 0.725996
    outer loop
      vertex 9.8347 -16.55 2.85311
      vertex 9.69321 -16.55 2.98714
      vertex 9.69321 -30.35 2.98714
    endloop
  endfacet
  facet normal 0.762162 0 0.647386
    outer loop
      vertex 9.69321 -30.35 2.98714
      vertex 9.69321 -16.55 2.98714
      vertex 9.56703 -30.35 3.13569
    endloop
  endfacet
  facet normal 0.762162 0 0.647386
    outer loop
      vertex 9.69321 -16.55 2.98714
      vertex 9.56703 -16.55 3.13569
      vertex 9.56703 -30.35 3.13569
    endloop
  endfacet
  facet normal 0.827689 0 0.561188
    outer loop
      vertex 9.56703 -30.35 3.13569
      vertex 9.56703 -16.55 3.13569
      vertex 9.45766 -30.35 3.297
    endloop
  endfacet
  facet normal 0.827689 0 0.561188
    outer loop
      vertex 9.56703 -16.55 3.13569
      vertex 9.45766 -16.55 3.297
      vertex 9.45766 -30.35 3.297
    endloop
  endfacet
  facet normal 0.883512 0 0.468408
    outer loop
      vertex 9.45766 -30.35 3.297
      vertex 9.45766 -16.55 3.297
      vertex 9.36636 -30.35 3.4692
    endloop
  endfacet
  facet normal 0.883512 0 0.468408
    outer loop
      vertex 9.45766 -16.55 3.297
      vertex 9.36636 -16.55 3.4692
      vertex 9.36636 -30.35 3.4692
    endloop
  endfacet
  facet normal 0.928976 0 0.37014
    outer loop
      vertex 9.36636 -30.35 3.4692
      vertex 9.36636 -16.55 3.4692
      vertex 9.29422 -30.35 3.65026
    endloop
  endfacet
  facet normal 0.928976 0 0.37014
    outer loop
      vertex 9.36636 -16.55 3.4692
      vertex 9.29422 -16.55 3.65026
      vertex 9.29422 -30.35 3.65026
    endloop
  endfacet
  facet normal 0.96355 0 0.267527
    outer loop
      vertex 9.29422 -30.35 3.65026
      vertex 9.29422 -16.55 3.65026
      vertex 9.24208 -30.35 3.83805
    endloop
  endfacet
  facet normal 0.96355 0 0.267527
    outer loop
      vertex 9.29422 -16.55 3.65026
      vertex 9.24208 -16.55 3.83805
      vertex 9.24208 -30.35 3.83805
    endloop
  endfacet
  facet normal 0.986827 0 0.161779
    outer loop
      vertex 9.24208 -30.35 3.83805
      vertex 9.24208 -16.55 3.83805
      vertex 9.21055 -30.35 4.03039
    endloop
  endfacet
  facet normal 0.986827 0 0.161779
    outer loop
      vertex 9.24208 -16.55 3.83805
      vertex 9.21055 -16.55 4.03039
      vertex 9.21055 -30.35 4.03039
    endloop
  endfacet
  facet normal 0.998533 0 0.0541401
    outer loop
      vertex 9.21055 -30.35 4.03039
      vertex 9.21055 -16.55 4.03039
      vertex 9.2 -30.35 4.225
    endloop
  endfacet
  facet normal 0.998533 0 0.0541401
    outer loop
      vertex 9.21055 -16.55 4.03039
      vertex 9.2 -16.55 4.225
      vertex 9.2 -30.35 4.225
    endloop
  endfacet
  facet normal 0 0 1
    outer loop
      vertex 14.5 -27.95 7.2
      vertex 14.5 -15.45 7.2
      vertex 11 -27.95 7.2
    endloop
  endfacet
  facet normal 0 0 1
    outer loop
      vertex 14.5 -15.45 7.2
      vertex 7.5 -15.45 7.2
      vertex 11 -27.95 7.2
    endloop
  endfacet
  facet normal 0 0 1
    outer loop
      vertex 11 -27.95 7.2
      vertex 7.5 -15.45 7.2
      vertex 7.5 -27.95 7.2
    endloop
  endfacet
  facet normal 0 -1 0
    outer loop
      vertex 8.45085 -27.95 5.75877
      vertex 8.63162 -27.95 6.02539
      vertex 7.5 -27.95 7.2
    endloop
  endfacet
  facet normal 0 -1 0
    outer loop
      vertex 13.8193 -27.95 5.17492
      vertex 13.9054 -27.95 4.86454
      vertex 14.5 -27.95 7.2
    endloop
  endfacet
  facet normal 0 -1 0
    outer loop
      vertex 14.5 -27.95 7.2
      vertex 12.3935 -27.95 6.85345
      vertex 12.6695 -27.95 6.68737
    endloop
  endfacet
  facet normal 0 -1 0
    outer loop
      vertex 12.6695 -27.95 6.68737
      vertex 12.926 -27.95 6.49243
      vertex 14.5 -27.95 7.2
    endloop
  endfacet
  facet normal 0 -1 0
    outer loop
      vertex 12.926 -27.95 6.49243
      vertex 13.1598 -27.95 6.27091
      vertex 14.5 -27.95 7.2
    endloop
  endfacet
  facet normal 0 -1 0
    outer loop
      vertex 14.5 -27.95 7.2
      vertex 13.1598 -27.95 6.27091
      vertex 13.3684 -27.95 6.02539
    endloop
  endfacet
  facet normal 0 -1 0
    outer loop
      vertex 9.60649 -27.95 1.59655
      vertex 9.33047 -27.95 1.76263
      vertex 7.5 -27.95 1.2
    endloop
  endfacet
  facet normal 0 -1 0
    outer loop
      vertex 9.33047 -27.95 1.76263
      vertex 9.07403 -27.95 1.95757
      vertex 7.5 -27.95 1.2
    endloop
  endfacet
  facet normal 0 -1 0
    outer loop
      vertex 13.3684 -27.95 6.02539
      vertex 13.5491 -27.95 5.75877
      vertex 14.5 -27.95 7.2
    endloop
  endfacet
  facet normal 0 -1 0
    outer loop
      vertex 13.5491 -27.95 5.75877
      vertex 13.7 -27.95 5.47417
      vertex 14.5 -27.95 7.2
    endloop
  endfacet
  facet normal 0 -1 0
    outer loop
      vertex 14.5 -27.95 7.2
      vertex 13.7 -27.95 5.47417
      vertex 13.8193 -27.95 5.17492
    endloop
  endfacet
  facet normal 0 -1 0
    outer loop
      vertex 13.9054 -27.95 3.58546
      vertex 13.8193 -27.95 3.27508
      vertex 14.5 -27.95 1.2
    endloop
  endfacet
  facet normal 0 -1 0
    outer loop
      vertex 8.63162 -27.95 6.02539
      vertex 8.84016 -27.95 6.27091
      vertex 7.5 -27.95 7.2
    endloop
  endfacet
  facet normal 0 -1 0
    outer loop
      vertex 8.84016 -27.95 6.27091
      vertex 9.07403 -27.95 6.49243
      vertex 7.5 -27.95 7.2
    endloop
  endfacet
  facet normal 0 -1 0
    outer loop
      vertex 7.5 -27.95 7.2
      vertex 9.07403 -27.95 6.49243
      vertex 9.33047 -27.95 6.68737
    endloop
  endfacet
  facet normal 0 -1 0
    outer loop
      vertex 11.4813 -27.95 7.16081
      vertex 14.5 -27.95 7.2
      vertex 11.1611 -27.95 7.19564
    endloop
  endfacet
  facet normal 0 -1 0
    outer loop
      vertex 14.5 -27.95 7.2
      vertex 11 -27.95 7.2
      vertex 11.1611 -27.95 7.19564
    endloop
  endfacet
  facet normal 0 -1 0
    outer loop
      vertex 11.4813 -27.95 7.16081
      vertex 11.7959 -27.95 7.09156
      vertex 14.5 -27.95 7.2
    endloop
  endfacet
  facet normal 0 -1 0
    outer loop
      vertex 11.7959 -27.95 7.09156
      vertex 12.1012 -27.95 6.98871
      vertex 14.5 -27.95 7.2
    endloop
  endfacet
  facet normal 0 -1 0
    outer loop
      vertex 14.5 -27.95 7.2
      vertex 12.1012 -27.95 6.98871
      vertex 12.3935 -27.95 6.85345
    endloop
  endfacet
  facet normal 0 -1 0
    outer loop
      vertex 13.9054 -27.95 4.86454
      vertex 13.9576 -27.95 4.54665
      vertex 14.5 -27.95 7.2
    endloop
  endfacet
  facet normal 0 -1 0
    outer loop
      vertex 13.9576 -27.95 4.54665
      vertex 13.975 -27.95 4.225
      vertex 14.5 -27.95 7.2
    endloop
  endfacet
  facet normal 0 -1 0
    outer loop
      vertex 14.5 -27.95 7.2
      vertex 13.975 -27.95 4.225
      vertex 14.5 -27.95 1.2
    endloop
  endfacet
  facet normal 0 -1 0
    outer loop
      vertex 13.975 -27.95 4.225
      vertex 13.9576 -27.95 3.90335
      vertex 14.5 -27.95 1.2
    endloop
  endfacet
  facet normal 0 -1 0
    outer loop
      vertex 14.5 -27.95 1.2
      vertex 13.9576 -27.95 3.90335
      vertex 13.9054 -27.95 3.58546
    endloop
  endfacet
  facet normal 0 -1 0
    outer loop
      vertex 13.8193 -27.95 3.27508
      vertex 13.7 -27.95 2.97583
      vertex 14.5 -27.95 1.2
    endloop
  endfacet
  facet normal 0 -1 0
    outer loop
      vertex 13.7 -27.95 2.97583
      vertex 13.5491 -27.95 2.69123
      vertex 14.5 -27.95 1.2
    endloop
  endfacet
  facet normal 0 -1 0
    outer loop
      vertex 14.5 -27.95 1.2
      vertex 13.5491 -27.95 2.69123
      vertex 13.3684 -27.95 2.42461
    endloop
  endfacet
  facet normal 0 -1 0
    outer loop
      vertex 13.3684 -27.95 2.42461
      vertex 13.1598 -27.95 2.17909
      vertex 14.5 -27.95 1.2
    endloop
  endfacet
  facet normal 0 -1 0
    outer loop
      vertex 13.1598 -27.95 2.17909
      vertex 12.926 -27.95 1.95757
      vertex 14.5 -27.95 1.2
    endloop
  endfacet
  facet normal 0 -1 0
    outer loop
      vertex 14.5 -27.95 1.2
      vertex 12.926 -27.95 1.95757
      vertex 12.6695 -27.95 1.76263
    endloop
  endfacet
  facet normal 0 -1 0
    outer loop
      vertex 9.07403 -27.95 1.95757
      vertex 8.84016 -27.95 2.17909
      vertex 7.5 -27.95 1.2
    endloop
  endfacet
  facet normal 0 -1 0
    outer loop
      vertex 8.84016 -27.95 2.17909
      vertex 8.63162 -27.95 2.42461
      vertex 7.5 -27.95 1.2
    endloop
  endfacet
  facet normal 0 -1 0
    outer loop
      vertex 7.5 -27.95 1.2
      vertex 8.63162 -27.95 2.42461
      vertex 8.45085 -27.95 2.69123
    endloop
  endfacet
  facet normal 0 -1 0
    outer loop
      vertex 8.45085 -27.95 2.69123
      vertex 8.29996 -27.95 2.97583
      vertex 7.5 -27.95 1.2
    endloop
  endfacet
  facet normal 0 -1 0
    outer loop
      vertex 8.29996 -27.95 2.97583
      vertex 8.18073 -27.95 3.27508
      vertex 7.5 -27.95 1.2
    endloop
  endfacet
  facet normal 0 -1 0
    outer loop
      vertex 7.5 -27.95 1.2
      vertex 8.18073 -27.95 3.27508
      vertex 8.09455 -27.95 3.58546
    endloop
  endfacet
  facet normal 0 -1 0
    outer loop
      vertex 8.09455 -27.95 3.58546
      vertex 8.04244 -27.95 3.90335
      vertex 7.5 -27.95 1.2
    endloop
  endfacet
  facet normal 0 -1 0
    outer loop
      vertex 8.04244 -27.95 3.90335
      vertex 8.025 -27.95 4.225
      vertex 7.5 -27.95 1.2
    endloop
  endfacet
  facet normal 0 -1 0
    outer loop
      vertex 7.5 -27.95 1.2
      vertex 8.025 -27.95 4.225
      vertex 7.5 -27.95 7.2
    endloop
  endfacet
  facet normal 0 -1 0
    outer loop
      vertex 8.025 -27.95 4.225
      vertex 8.04244 -27.95 4.54665
      vertex 7.5 -27.95 7.2
    endloop
  endfacet
  facet normal 0 -1 0
    outer loop
      vertex 7.5 -27.95 7.2
      vertex 8.04244 -27.95 4.54665
      vertex 8.09455 -27.95 4.86454
    endloop
  endfacet
  facet normal 0 -1 0
    outer loop
      vertex 8.09455 -27.95 4.86454
      vertex 8.18073 -27.95 5.17492
      vertex 7.5 -27.95 7.2
    endloop
  endfacet
  facet normal 0 -1 0
    outer loop
      vertex 8.18073 -27.95 5.17492
      vertex 8.29996 -27.95 5.47417
      vertex 7.5 -27.95 7.2
    endloop
  endfacet
  facet normal 0 -1 0
    outer loop
      vertex 7.5 -27.95 7.2
      vertex 8.29996 -27.95 5.47417
      vertex 8.45085 -27.95 5.75877
    endloop
  endfacet
  facet normal 0 -1 0
    outer loop
      vertex 12.6695 -27.95 1.76263
      vertex 12.3935 -27.95 1.59655
      vertex 14.5 -27.95 1.2
    endloop
  endfacet
  facet normal 0 -1 0
    outer loop
      vertex 12.3935 -27.95 1.59655
      vertex 12.1012 -27.95 1.46129
      vertex 14.5 -27.95 1.2
    endloop
  endfacet
  facet normal 0 -1 0
    outer loop
      vertex 14.5 -27.95 1.2
      vertex 12.1012 -27.95 1.46129
      vertex 11.7959 -27.95 1.35844
    endloop
  endfacet
  facet normal 0 -1 0
    outer loop
      vertex 9.33047 -27.95 6.68737
      vertex 9.60649 -27.95 6.85345
      vertex 7.5 -27.95 7.2
    endloop
  endfacet
  facet normal 0 -1 0
    outer loop
      vertex 9.60649 -27.95 6.85345
      vertex 9.89884 -27.95 6.98871
      vertex 7.5 -27.95 7.2
    endloop
  endfacet
  facet normal 0 -1 0
    outer loop
      vertex 7.5 -27.95 7.2
      vertex 9.89884 -27.95 6.98871
      vertex 10.2041 -27.95 7.09156
    endloop
  endfacet
  facet normal 0 -1 0
    outer loop
      vertex 10.2041 -27.95 7.09156
      vertex 10.5187 -27.95 7.16081
      vertex 7.5 -27.95 7.2
    endloop
  endfacet
  facet normal 0 -1 0
    outer loop
      vertex 10.5187 -27.95 7.16081
      vertex 10.8389 -27.95 7.19564
      vertex 7.5 -27.95 7.2
    endloop
  endfacet
  facet normal 0 -1 0
    outer loop
      vertex 7.5 -27.95 7.2
      vertex 10.8389 -27.95 7.19564
      vertex 11 -27.95 7.2
    endloop
  endfacet
  facet normal 0 -1 0
    outer loop
      vertex 11.7959 -27.95 1.35844
      vertex 11.4813 -27.95 1.28919
      vertex 14.5 -27.95 1.2
    endloop
  endfacet
  facet normal 0 -1 0
    outer loop
      vertex 11.4813 -27.95 1.28919
      vertex 11.1611 -27.95 1.25436
      vertex 14.5 -27.95 1.2
    endloop
  endfacet
  facet normal 0 -1 0
    outer loop
      vertex 14.5 -27.95 1.2
      vertex 11.1611 -27.95 1.25436
      vertex 7.5 -27.95 1.2
    endloop
  endfacet
  facet normal 0 -1 0
    outer loop
      vertex 11.1611 -27.95 1.25436
      vertex 10.8389 -27.95 1.25436
      vertex 7.5 -27.95 1.2
    endloop
  endfacet
  facet normal 0 -1 0
    outer loop
      vertex 7.5 -27.95 1.2
      vertex 10.8389 -27.95 1.25436
      vertex 10.5187 -27.95 1.28919
    endloop
  endfacet
  facet normal 0 -1 0
    outer loop
      vertex 10.5187 -27.95 1.28919
      vertex 10.2041 -27.95 1.35844
      vertex 7.5 -27.95 1.2
    endloop
  endfacet
  facet normal 0 -1 0
    outer loop
      vertex 10.2041 -27.95 1.35844
      vertex 9.89884 -27.95 1.46129
      vertex 7.5 -27.95 1.2
    endloop
  endfacet
  facet normal 0 -1 0
    outer loop
      vertex 7.5 -27.95 1.2
      vertex 9.89884 -27.95 1.46129
      vertex 9.60649 -27.95 1.59655
    endloop
  endfacet
endsolid Onshape
