solid Onshape
  facet normal 0 0 -1
    outer loop
      vertex -2960 1450 0
      vertex 2960 1450 0
      vertex -2960 -1450 0
    endloop
  endfacet
  facet normal 0 0 -1
    outer loop
      vertex 2960 1450 0
      vertex 2960 -1450 0
      vertex -2960 -1450 0
    endloop
  endfacet
  facet normal 0 0 1
    outer loop
      vertex 2960 1450 300
      vertex -2960 1450 300
      vertex 2960 -1450 300
    endloop
  endfacet
  facet normal 0 0 1
    outer loop
      vertex -2960 1450 300
      vertex -2960 -1450 300
      vertex 2960 -1450 300
    endloop
  endfacet
  facet normal -1 0 0
    outer loop
      vertex -2960 -1450 300
      vertex -2960 1450 300
      vertex -2960 -1450 0
    endloop
  endfacet
  facet normal -1 0 0
    outer loop
      vertex -2960 1450 300
      vertex -2960 1450 0
      vertex -2960 -1450 0
    endloop
  endfacet
  facet normal 0 1 0
    outer loop
      vertex -2960 1450 300
      vertex 2960 1450 300
      vertex -2960 1450 0
    endloop
  endfacet
  facet normal 0 1 0
    outer loop
      vertex 2960 1450 300
      vertex 2960 1450 0
      vertex -2960 1450 0
    endloop
  endfacet
  facet normal 0 -1 0
    outer loop
      vertex 2960 -1450 300
      vertex -2960 -1450 300
      vertex 2960 -1450 0
    endloop
  endfacet
  facet normal 0 -1 0
    outer loop
      vertex -2960 -1450 300
      vertex -2960 -1450 0
      vertex 2960 -1450 0
    endloop
  endfacet
  facet normal 1 0 0
    outer loop
      vertex 2960 1450 300
      vertex 2960 -1450 300
      vertex 2960 1450 0
    endloop
  endfacet
  facet normal 1 0 0
    outer loop
      vertex 2960 -1450 300
      vertex 2960 -1450 0
      vertex 2960 1450 0
    endloop
  endfacet
endsolid Onshape
