solid Onshape
  facet normal -1 0 0
    outer loop
      vertex 2960 -1450 350
      vertex 2960 1450 350
      vertex 2960 -1450 0
    endloop
  endfacet
  facet normal -1 0 0
    outer loop
      vertex 2960 1450 350
      vertex 2960 1450 0
      vertex 2960 -1450 0
    endloop
  endfacet
  facet normal 1 0 0
    outer loop
      vertex 3000 1450 350
      vertex 3000 -1450 350
      vertex 3000 1450 0
    endloop
  endfacet
  facet normal 1 0 0
    outer loop
      vertex 3000 -1450 350
      vertex 3000 -1450 0
      vertex 3000 1450 0
    endloop
  endfacet
  facet normal 0 -1 0
    outer loop
      vertex 3000 -1450 0
      vertex 3000 -1450 350
      vertex 2960 -1450 0
    endloop
  endfacet
  facet normal 0 -1 0
    outer loop
      vertex 3000 -1450 350
      vertex 2960 -1450 350
      vertex 2960 -1450 0
    endloop
  endfacet
  facet normal 0 0 1
    outer loop
      vertex 3000 -1450 350
      vertex 3000 1450 350
      vertex 2960 -1450 350
    endloop
  endfacet
  facet normal 0 0 1
    outer loop
      vertex 3000 1450 350
      vertex 2960 1450 350
      vertex 2960 -1450 350
    endloop
  endfacet
  facet normal 0 0 -1
    outer loop
      vertex 3000 1450 0
      vertex 3000 -1450 0
      vertex 2960 1450 0
    endloop
  endfacet
  facet normal 0 0 -1
    outer loop
      vertex 3000 -1450 0
      vertex 2960 -1450 0
      vertex 2960 1450 0
    endloop
  endfacet
  facet normal 0 1 0
    outer loop
      vertex 3000 1450 350
      vertex 3000 1450 0
      vertex 2960 1450 350
    endloop
  endfacet
  facet normal 0 1 0
    outer loop
      vertex 3000 1450 0
      vertex 2960 1450 0
      vertex 2960 1450 350
    endloop
  endfacet
endsolid Onshape
