solid Onshape
  facet normal -0.707106 0 0.707107
    outer loop
      vertex 3.56 4.06 15.5
      vertex 3.31 4.31 15.25
      vertex 3.56 3.56 15.5
    endloop
  endfacet
  facet normal -0.707106 0 0.707107
    outer loop
      vertex 3.31 4.31 15.25
      vertex 3.31 3.31 15.25
      vertex 3.56 3.56 15.5
    endloop
  endfacet
  facet normal 0.707106 0 0.707107
    outer loop
      vertex 4.06 3.56 15.5
      vertex 4.31 3.31 15.25
      vertex 4.06 4.06 15.5
    endloop
  endfacet
  facet normal 0.707106 0 0.707107
    outer loop
      vertex 4.31 3.31 15.25
      vertex 4.31 4.31 15.25
      vertex 4.06 4.06 15.5
    endloop
  endfacet
  facet normal 0 1 0
    outer loop
      vertex 4.31 4.31 15.25
      vertex 4.31 4.31 7.5
      vertex 3.31 4.31 15.25
    endloop
  endfacet
  facet normal 0 1 0
    outer loop
      vertex 4.31 4.31 7.5
      vertex 3.31 4.31 7.5
      vertex 3.31 4.31 15.25
    endloop
  endfacet
  facet normal -0.707106 0 0.707107
    outer loop
      vertex 1.02 4.06 15.5
      vertex 0.77 4.31 15.25
      vertex 1.02 3.56 15.5
    endloop
  endfacet
  facet normal -0.707106 0 0.707107
    outer loop
      vertex 0.77 4.31 15.25
      vertex 0.77 3.31 15.25
      vertex 1.02 3.56 15.5
    endloop
  endfacet
  facet normal 0.707106 0 0.707107
    outer loop
      vertex 1.52 3.56 15.5
      vertex 1.77 3.31 15.25
      vertex 1.52 4.06 15.5
    endloop
  endfacet
  facet normal 0.707106 0 0.707107
    outer loop
      vertex 1.77 3.31 15.25
      vertex 1.77 4.31 15.25
      vertex 1.52 4.06 15.5
    endloop
  endfacet
  facet normal 0 0 1
    outer loop
      vertex 1.02 4.06 15.5
      vertex 1.02 3.56 15.5
      vertex 1.52 4.06 15.5
    endloop
  endfacet
  facet normal 0 0 1
    outer loop
      vertex 1.02 3.56 15.5
      vertex 1.52 3.56 15.5
      vertex 1.52 4.06 15.5
    endloop
  endfacet
  facet normal 0 1 0
    outer loop
      vertex 1.77 4.31 15.25
      vertex 1.77 4.31 7.5
      vertex 0.77 4.31 15.25
    endloop
  endfacet
  facet normal 0 1 0
    outer loop
      vertex 1.77 4.31 7.5
      vertex 0.77 4.31 7.5
      vertex 0.77 4.31 15.25
    endloop
  endfacet
  facet normal 1 0 0
    outer loop
      vertex 1.77 3.31 15.25
      vertex 1.77 3.31 7.5
      vertex 1.77 4.31 15.25
    endloop
  endfacet
  facet normal 1 0 0
    outer loop
      vertex 1.77 3.31 7.5
      vertex 1.77 4.31 7.5
      vertex 1.77 4.31 15.25
    endloop
  endfacet
  facet normal 0 -1 0
    outer loop
      vertex 0.77 3.31 15.25
      vertex 0.77 3.31 7.5
      vertex 1.77 3.31 15.25
    endloop
  endfacet
  facet normal 0 -1 0
    outer loop
      vertex 0.77 3.31 7.5
      vertex 1.77 3.31 7.5
      vertex 1.77 3.31 15.25
    endloop
  endfacet
  facet normal -0.707106 0 0.707107
    outer loop
      vertex -1.52 4.06 15.5
      vertex -1.77 4.31 15.25
      vertex -1.52 3.56 15.5
    endloop
  endfacet
  facet normal -0.707106 0 0.707107
    outer loop
      vertex -1.77 4.31 15.25
      vertex -1.77 3.31 15.25
      vertex -1.52 3.56 15.5
    endloop
  endfacet
  facet normal 0.707106 0 0.707107
    outer loop
      vertex -1.02 3.56 15.5
      vertex -0.77 3.31 15.25
      vertex -1.02 4.06 15.5
    endloop
  endfacet
  facet normal 0.707106 0 0.707107
    outer loop
      vertex -0.77 3.31 15.25
      vertex -0.77 4.31 15.25
      vertex -1.02 4.06 15.5
    endloop
  endfacet
  facet normal 0 0 1
    outer loop
      vertex -1.52 4.06 15.5
      vertex -1.52 3.56 15.5
      vertex -1.02 4.06 15.5
    endloop
  endfacet
  facet normal 0 0 1
    outer loop
      vertex -1.52 3.56 15.5
      vertex -1.02 3.56 15.5
      vertex -1.02 4.06 15.5
    endloop
  endfacet
  facet normal -1 0 0
    outer loop
      vertex -1.77 4.31 15.25
      vertex -1.77 4.31 7.5
      vertex -1.77 3.31 15.25
    endloop
  endfacet
  facet normal -1 0 0
    outer loop
      vertex -1.77 4.31 7.5
      vertex -1.77 3.31 7.5
      vertex -1.77 3.31 15.25
    endloop
  endfacet
  facet normal 0 1 0
    outer loop
      vertex -0.77 4.31 15.25
      vertex -0.77 4.31 7.5
      vertex -1.77 4.31 15.25
    endloop
  endfacet
  facet normal 0 1 0
    outer loop
      vertex -0.77 4.31 7.5
      vertex -1.77 4.31 7.5
      vertex -1.77 4.31 15.25
    endloop
  endfacet
  facet normal 1 0 0
    outer loop
      vertex -0.77 3.31 15.25
      vertex -0.77 3.31 7.5
      vertex -0.77 4.31 15.25
    endloop
  endfacet
  facet normal 1 0 0
    outer loop
      vertex -0.77 3.31 7.5
      vertex -0.77 4.31 7.5
      vertex -0.77 4.31 15.25
    endloop
  endfacet
  facet normal 0 -1 0
    outer loop
      vertex -1.77 3.31 15.25
      vertex -1.77 3.31 7.5
      vertex -0.77 3.31 15.25
    endloop
  endfacet
  facet normal 0 -1 0
    outer loop
      vertex -1.77 3.31 7.5
      vertex -0.77 3.31 7.5
      vertex -0.77 3.31 15.25
    endloop
  endfacet
  facet normal -0.707106 0 0.707107
    outer loop
      vertex -4.06 4.06 15.5
      vertex -4.31 4.31 15.25
      vertex -4.06 3.56 15.5
    endloop
  endfacet
  facet normal -0.707106 0 0.707107
    outer loop
      vertex -4.31 4.31 15.25
      vertex -4.31 3.31 15.25
      vertex -4.06 3.56 15.5
    endloop
  endfacet
  facet normal 0 0.707106 0.707107
    outer loop
      vertex -4.31 4.31 15.25
      vertex -4.06 4.06 15.5
      vertex -3.31 4.31 15.25
    endloop
  endfacet
  facet normal 0 0.707106 0.707107
    outer loop
      vertex -4.06 4.06 15.5
      vertex -3.56 4.06 15.5
      vertex -3.31 4.31 15.25
    endloop
  endfacet
  facet normal 0 -0.707106 0.707107
    outer loop
      vertex -4.06 3.56 15.5
      vertex -4.31 3.31 15.25
      vertex -3.56 3.56 15.5
    endloop
  endfacet
  facet normal 0 -0.707106 0.707107
    outer loop
      vertex -4.31 3.31 15.25
      vertex -3.31 3.31 15.25
      vertex -3.56 3.56 15.5
    endloop
  endfacet
  facet normal 0.707106 0 0.707107
    outer loop
      vertex -3.56 3.56 15.5
      vertex -3.31 3.31 15.25
      vertex -3.56 4.06 15.5
    endloop
  endfacet
  facet normal 0.707106 0 0.707107
    outer loop
      vertex -3.31 3.31 15.25
      vertex -3.31 4.31 15.25
      vertex -3.56 4.06 15.5
    endloop
  endfacet
  facet normal 0 0 1
    outer loop
      vertex -4.06 4.06 15.5
      vertex -4.06 3.56 15.5
      vertex -3.56 4.06 15.5
    endloop
  endfacet
  facet normal 0 0 1
    outer loop
      vertex -4.06 3.56 15.5
      vertex -3.56 3.56 15.5
      vertex -3.56 4.06 15.5
    endloop
  endfacet
  facet normal -1 0 0
    outer loop
      vertex -4.31 4.31 15.25
      vertex -4.31 4.31 7.5
      vertex -4.31 3.31 15.25
    endloop
  endfacet
  facet normal -1 0 0
    outer loop
      vertex -4.31 4.31 7.5
      vertex -4.31 3.31 7.5
      vertex -4.31 3.31 15.25
    endloop
  endfacet
  facet normal -0.707106 0 0.707107
    outer loop
      vertex -1.52 1.52 15.5
      vertex -1.77 1.77 15.25
      vertex -1.52 1.02 15.5
    endloop
  endfacet
  facet normal -0.707106 0 0.707107
    outer loop
      vertex -1.77 1.77 15.25
      vertex -1.77 0.77 15.25
      vertex -1.52 1.02 15.5
    endloop
  endfacet
  facet normal 0 -1 0
    outer loop
      vertex 0.77 0.77 15.25
      vertex 0.77 0.77 7.5
      vertex 1.77 0.77 15.25
    endloop
  endfacet
  facet normal 0 -1 0
    outer loop
      vertex 0.77 0.77 7.5
      vertex 1.77 0.77 7.5
      vertex 1.77 0.77 15.25
    endloop
  endfacet
  facet normal 1 0 0
    outer loop
      vertex 5.08 5.08 4.5
      vertex 5.08 5.08 7.5
      vertex 5.08 2.54 7.5
    endloop
  endfacet
  facet normal 1 0 0
    outer loop
      vertex 5.08 5.08 4.5
      vertex 5.08 2.54 7.5
      vertex 5.08 0 4.5
    endloop
  endfacet
  facet normal 1 0 0
    outer loop
      vertex 5.08 2.54 7.5
      vertex 5.08 0.385 7.5
      vertex 5.08 0 4.5
    endloop
  endfacet
  facet normal 1 0 0
    outer loop
      vertex 5.08 0 4.5
      vertex 5.08 0.385 7.5
      vertex 5.08 0 7.5
    endloop
  endfacet
  facet normal 0 0.707106 0.707107
    outer loop
      vertex -1.77 1.77 15.25
      vertex -1.52 1.52 15.5
      vertex -0.77 1.77 15.25
    endloop
  endfacet
  facet normal 0 0.707106 0.707107
    outer loop
      vertex -1.52 1.52 15.5
      vertex -1.02 1.52 15.5
      vertex -0.77 1.77 15.25
    endloop
  endfacet
  facet normal 0 -0.707106 0.707107
    outer loop
      vertex -1.52 1.02 15.5
      vertex -1.77 0.77 15.25
      vertex -1.02 1.02 15.5
    endloop
  endfacet
  facet normal 0 -0.707106 0.707107
    outer loop
      vertex -1.77 0.77 15.25
      vertex -0.77 0.77 15.25
      vertex -1.02 1.02 15.5
    endloop
  endfacet
  facet normal 0.707106 0 0.707107
    outer loop
      vertex -1.02 1.02 15.5
      vertex -0.77 0.77 15.25
      vertex -1.02 1.52 15.5
    endloop
  endfacet
  facet normal 0.707106 0 0.707107
    outer loop
      vertex -0.77 0.77 15.25
      vertex -0.77 1.77 15.25
      vertex -1.02 1.52 15.5
    endloop
  endfacet
  facet normal 0 0 1
    outer loop
      vertex -1.52 1.52 15.5
      vertex -1.52 1.02 15.5
      vertex -1.02 1.52 15.5
    endloop
  endfacet
  facet normal 0 0 1
    outer loop
      vertex -1.52 1.02 15.5
      vertex -1.02 1.02 15.5
      vertex -1.02 1.52 15.5
    endloop
  endfacet
  facet normal 0 0.707106 0.707107
    outer loop
      vertex -1.77 4.31 15.25
      vertex -1.52 4.06 15.5
      vertex -0.77 4.31 15.25
    endloop
  endfacet
  facet normal 0 0.707106 0.707107
    outer loop
      vertex -1.52 4.06 15.5
      vertex -1.02 4.06 15.5
      vertex -0.77 4.31 15.25
    endloop
  endfacet
  facet normal -1 0 0
    outer loop
      vertex -1.77 1.77 15.25
      vertex -1.77 1.77 7.5
      vertex -1.77 0.77 15.25
    endloop
  endfacet
  facet normal -1 0 0
    outer loop
      vertex -1.77 1.77 7.5
      vertex -1.77 0.77 7.5
      vertex -1.77 0.77 15.25
    endloop
  endfacet
  facet normal 0 1 0
    outer loop
      vertex -0.77 1.77 15.25
      vertex -0.77 1.77 7.5
      vertex -1.77 1.77 15.25
    endloop
  endfacet
  facet normal 0 1 0
    outer loop
      vertex -0.77 1.77 7.5
      vertex -1.77 1.77 7.5
      vertex -1.77 1.77 15.25
    endloop
  endfacet
  facet normal 0 -0.707106 0.707107
    outer loop
      vertex -1.52 3.56 15.5
      vertex -1.77 3.31 15.25
      vertex -1.02 3.56 15.5
    endloop
  endfacet
  facet normal 0 -0.707106 0.707107
    outer loop
      vertex -1.77 3.31 15.25
      vertex -0.77 3.31 15.25
      vertex -1.02 3.56 15.5
    endloop
  endfacet
  facet normal 1 0 0
    outer loop
      vertex -0.77 0.77 15.25
      vertex -0.77 0.77 7.5
      vertex -0.77 1.77 15.25
    endloop
  endfacet
  facet normal 1 0 0
    outer loop
      vertex -0.77 0.77 7.5
      vertex -0.77 1.77 7.5
      vertex -0.77 1.77 15.25
    endloop
  endfacet
  facet normal 0 -1 0
    outer loop
      vertex -1.77 0.77 15.25
      vertex -1.77 0.77 7.5
      vertex -0.77 0.77 15.25
    endloop
  endfacet
  facet normal 0 -1 0
    outer loop
      vertex -1.77 0.77 7.5
      vertex -0.77 0.77 7.5
      vertex -0.77 0.77 15.25
    endloop
  endfacet
  facet normal 1 0 0
    outer loop
      vertex 4.31 3.31 15.25
      vertex 4.31 3.31 7.5
      vertex 4.31 4.31 15.25
    endloop
  endfacet
  facet normal 1 0 0
    outer loop
      vertex 4.31 3.31 7.5
      vertex 4.31 4.31 7.5
      vertex 4.31 4.31 15.25
    endloop
  endfacet
  facet normal 0 -1 0
    outer loop
      vertex -4.695 0 7.5
      vertex -5.08 0 7.5
      vertex -5.08 0 4.5
    endloop
  endfacet
  facet normal 0 -1 0
    outer loop
      vertex 5.08 0 7.5
      vertex 2.54 0 7.5
      vertex 5.08 0 4.5
    endloop
  endfacet
  facet normal 0 -1 0
    outer loop
      vertex 2.54 0 7.5
      vertex 0 0 7.5
      vertex 5.08 0 4.5
    endloop
  endfacet
  facet normal 0 -1 0
    outer loop
      vertex 5.08 0 4.5
      vertex 0 0 7.5
      vertex -5.08 0 4.5
    endloop
  endfacet
  facet normal 0 -1 0
    outer loop
      vertex 0 0 7.5
      vertex -2.54 0 7.5
      vertex -5.08 0 4.5
    endloop
  endfacet
  facet normal 0 -1 0
    outer loop
      vertex -5.08 0 4.5
      vertex -2.54 0 7.5
      vertex -4.695 0 7.5
    endloop
  endfacet
  facet normal 0.707106 0 0.707107
    outer loop
      vertex 1.52 1.02 15.5
      vertex 1.77 0.77 15.25
      vertex 1.52 1.52 15.5
    endloop
  endfacet
  facet normal 0.707106 0 0.707107
    outer loop
      vertex 1.77 0.77 15.25
      vertex 1.77 1.77 15.25
      vertex 1.52 1.52 15.5
    endloop
  endfacet
  facet normal -1 0 0
    outer loop
      vertex 0.77 4.31 15.25
      vertex 0.77 4.31 7.5
      vertex 0.77 3.31 15.25
    endloop
  endfacet
  facet normal -1 0 0
    outer loop
      vertex 0.77 4.31 7.5
      vertex 0.77 3.31 7.5
      vertex 0.77 3.31 15.25
    endloop
  endfacet
  facet normal 0 0 1
    outer loop
      vertex 5.08 0 7.5
      vertex 5.08 0.385 7.5
      vertex 2.54 0.385 7.5
    endloop
  endfacet
  facet normal 0 0 1
    outer loop
      vertex 4.31 4.31 7.5
      vertex 5.08 5.08 7.5
      vertex 3.31 4.31 7.5
    endloop
  endfacet
  facet normal 0 0 1
    outer loop
      vertex 5.08 5.08 7.5
      vertex 2.54 5.08 7.5
      vertex 3.31 4.31 7.5
    endloop
  endfacet
  facet normal 0 0 1
    outer loop
      vertex 3.31 4.31 7.5
      vertex 2.54 5.08 7.5
      vertex 3.31 3.31 7.5
    endloop
  endfacet
  facet normal 0 0 1
    outer loop
      vertex 2.54 5.08 7.5
      vertex 2.54 2.54 7.5
      vertex 3.31 3.31 7.5
    endloop
  endfacet
  facet normal 0 0 1
    outer loop
      vertex 3.31 3.31 7.5
      vertex 2.54 2.54 7.5
      vertex 4.31 3.31 7.5
    endloop
  endfacet
  facet normal 0 0 1
    outer loop
      vertex 2.54 2.54 7.5
      vertex 5.08 2.54 7.5
      vertex 4.31 3.31 7.5
    endloop
  endfacet
  facet normal 0 0 1
    outer loop
      vertex 4.31 3.31 7.5
      vertex 5.08 2.54 7.5
      vertex 4.31 4.31 7.5
    endloop
  endfacet
  facet normal 0 0 1
    outer loop
      vertex 5.08 2.54 7.5
      vertex 5.08 5.08 7.5
      vertex 4.31 4.31 7.5
    endloop
  endfacet
  facet normal 0 0 1
    outer loop
      vertex 1.77 4.31 7.5
      vertex 2.54 5.08 7.5
      vertex 0.77 4.31 7.5
    endloop
  endfacet
  facet normal 0 0 1
    outer loop
      vertex 2.54 5.08 7.5
      vertex 0 5.08 7.5
      vertex 0.77 4.31 7.5
    endloop
  endfacet
  facet normal 0 0 1
    outer loop
      vertex 0.77 4.31 7.5
      vertex 0 5.08 7.5
      vertex 0.77 3.31 7.5
    endloop
  endfacet
  facet normal 0 0 1
    outer loop
      vertex 0 5.08 7.5
      vertex 0 2.54 7.5
      vertex 0.77 3.31 7.5
    endloop
  endfacet
  facet normal 0 0 1
    outer loop
      vertex 0.77 3.31 7.5
      vertex 0 2.54 7.5
      vertex 1.77 3.31 7.5
    endloop
  endfacet
  facet normal 0 0 1
    outer loop
      vertex 0 2.54 7.5
      vertex 2.54 2.54 7.5
      vertex 1.77 3.31 7.5
    endloop
  endfacet
  facet normal 0 0 1
    outer loop
      vertex 1.77 3.31 7.5
      vertex 2.54 2.54 7.5
      vertex 1.77 4.31 7.5
    endloop
  endfacet
  facet normal 0 0 1
    outer loop
      vertex 2.54 2.54 7.5
      vertex 2.54 5.08 7.5
      vertex 1.77 4.31 7.5
    endloop
  endfacet
  facet normal 0 0 1
    outer loop
      vertex -0.77 4.31 7.5
      vertex 0 5.08 7.5
      vertex -1.77 4.31 7.5
    endloop
  endfacet
  facet normal 0 0 1
    outer loop
      vertex 0 5.08 7.5
      vertex -2.54 5.08 7.5
      vertex -1.77 4.31 7.5
    endloop
  endfacet
  facet normal 0 0 1
    outer loop
      vertex -1.77 4.31 7.5
      vertex -2.54 5.08 7.5
      vertex -1.77 3.31 7.5
    endloop
  endfacet
  facet normal 0 0 1
    outer loop
      vertex -2.54 5.08 7.5
      vertex -2.54 2.54 7.5
      vertex -1.77 3.31 7.5
    endloop
  endfacet
  facet normal 0 0 1
    outer loop
      vertex -1.77 3.31 7.5
      vertex -2.54 2.54 7.5
      vertex -0.77 3.31 7.5
    endloop
  endfacet
  facet normal 0 0 1
    outer loop
      vertex -2.54 2.54 7.5
      vertex 0 2.54 7.5
      vertex -0.77 3.31 7.5
    endloop
  endfacet
  facet normal 0 0 1
    outer loop
      vertex -0.77 3.31 7.5
      vertex 0 2.54 7.5
      vertex -0.77 4.31 7.5
    endloop
  endfacet
  facet normal 0 0 1
    outer loop
      vertex 0 2.54 7.5
      vertex 0 5.08 7.5
      vertex -0.77 4.31 7.5
    endloop
  endfacet
  facet normal 0 0 1
    outer loop
      vertex -4.31 3.31 7.5
      vertex -4.695 2.54 7.5
      vertex -3.31 3.31 7.5
    endloop
  endfacet
  facet normal 0 0 1
    outer loop
      vertex -4.695 2.54 7.5
      vertex -2.54 2.54 7.5
      vertex -3.31 3.31 7.5
    endloop
  endfacet
  facet normal 0 0 1
    outer loop
      vertex -3.31 3.31 7.5
      vertex -2.54 2.54 7.5
      vertex -3.31 4.31 7.5
    endloop
  endfacet
  facet normal 0 0 1
    outer loop
      vertex -2.54 2.54 7.5
      vertex -2.54 5.08 7.5
      vertex -3.31 4.31 7.5
    endloop
  endfacet
  facet normal 0 0 1
    outer loop
      vertex -3.31 4.31 7.5
      vertex -2.54 5.08 7.5
      vertex -4.31 4.31 7.5
    endloop
  endfacet
  facet normal 0 0 1
    outer loop
      vertex -2.54 5.08 7.5
      vertex -4.695 5.08 7.5
      vertex -4.31 4.31 7.5
    endloop
  endfacet
  facet normal 0 0 1
    outer loop
      vertex -4.31 4.31 7.5
      vertex -4.695 5.08 7.5
      vertex -4.31 3.31 7.5
    endloop
  endfacet
  facet normal 0 0 1
    outer loop
      vertex -4.31 3.31 7.5
      vertex -4.695 5.08 7.5
      vertex -4.695 2.54 7.5
    endloop
  endfacet
  facet normal 0 0 1
    outer loop
      vertex -4.695 5.08 7.5
      vertex -5.08 5.08 7.5
      vertex -4.695 2.54 7.5
    endloop
  endfacet
  facet normal 0 0 1
    outer loop
      vertex -4.695 2.54 7.5
      vertex -5.08 5.08 7.5
      vertex -5.08 2.54 7.5
    endloop
  endfacet
  facet normal 0 0 1
    outer loop
      vertex 4.31 1.77 7.5
      vertex 5.08 2.54 7.5
      vertex 3.31 1.77 7.5
    endloop
  endfacet
  facet normal 0 0 1
    outer loop
      vertex 5.08 2.54 7.5
      vertex 2.54 2.54 7.5
      vertex 3.31 1.77 7.5
    endloop
  endfacet
  facet normal 0 0 1
    outer loop
      vertex 3.31 1.77 7.5
      vertex 2.54 2.54 7.5
      vertex 3.31 0.77 7.5
    endloop
  endfacet
  facet normal 0 0 1
    outer loop
      vertex 2.54 2.54 7.5
      vertex 2.54 0.385 7.5
      vertex 3.31 0.77 7.5
    endloop
  endfacet
  facet normal 0 0 1
    outer loop
      vertex 3.31 0.77 7.5
      vertex 2.54 0.385 7.5
      vertex 4.31 0.77 7.5
    endloop
  endfacet
  facet normal 0 0 1
    outer loop
      vertex 2.54 0.385 7.5
      vertex 5.08 0.385 7.5
      vertex 4.31 0.77 7.5
    endloop
  endfacet
  facet normal 0 0 1
    outer loop
      vertex 4.31 0.77 7.5
      vertex 5.08 0.385 7.5
      vertex 4.31 1.77 7.5
    endloop
  endfacet
  facet normal 0 0 1
    outer loop
      vertex 5.08 0.385 7.5
      vertex 5.08 2.54 7.5
      vertex 4.31 1.77 7.5
    endloop
  endfacet
  facet normal 0 0 1
    outer loop
      vertex 1.77 1.77 7.5
      vertex 2.54 2.54 7.5
      vertex 0.77 1.77 7.5
    endloop
  endfacet
  facet normal 0 0 1
    outer loop
      vertex 2.54 2.54 7.5
      vertex 0 2.54 7.5
      vertex 0.77 1.77 7.5
    endloop
  endfacet
  facet normal 0 0 1
    outer loop
      vertex 0.77 1.77 7.5
      vertex 0 2.54 7.5
      vertex 0.77 0.77 7.5
    endloop
  endfacet
  facet normal 0 0 1
    outer loop
      vertex 0 2.54 7.5
      vertex 0 0.385 7.5
      vertex 0.77 0.77 7.5
    endloop
  endfacet
  facet normal 0 0 1
    outer loop
      vertex 0.77 0.77 7.5
      vertex 0 0.385 7.5
      vertex 1.77 0.77 7.5
    endloop
  endfacet
  facet normal 0 0 1
    outer loop
      vertex 0 0.385 7.5
      vertex 2.54 0.385 7.5
      vertex 1.77 0.77 7.5
    endloop
  endfacet
  facet normal 0 0 1
    outer loop
      vertex 1.77 0.77 7.5
      vertex 2.54 0.385 7.5
      vertex 1.77 1.77 7.5
    endloop
  endfacet
  facet normal 0 0 1
    outer loop
      vertex 2.54 0.385 7.5
      vertex 2.54 2.54 7.5
      vertex 1.77 1.77 7.5
    endloop
  endfacet
  facet normal 0 0 1
    outer loop
      vertex -1.77 0.77 7.5
      vertex -2.54 0.385 7.5
      vertex -0.77 0.77 7.5
    endloop
  endfacet
  facet normal 0 0 1
    outer loop
      vertex -2.54 0.385 7.5
      vertex 0 0.385 7.5
      vertex -0.77 0.77 7.5
    endloop
  endfacet
  facet normal 0 0 1
    outer loop
      vertex -0.77 0.77 7.5
      vertex 0 0.385 7.5
      vertex -0.77 1.77 7.5
    endloop
  endfacet
  facet normal 0 0 1
    outer loop
      vertex 0 0.385 7.5
      vertex 0 2.54 7.5
      vertex -0.77 1.77 7.5
    endloop
  endfacet
  facet normal 0 0 1
    outer loop
      vertex -0.77 1.77 7.5
      vertex 0 2.54 7.5
      vertex -1.77 1.77 7.5
    endloop
  endfacet
  facet normal 0 0 1
    outer loop
      vertex 0 2.54 7.5
      vertex -2.54 2.54 7.5
      vertex -1.77 1.77 7.5
    endloop
  endfacet
  facet normal 0 0 1
    outer loop
      vertex -1.77 1.77 7.5
      vertex -2.54 2.54 7.5
      vertex -1.77 0.77 7.5
    endloop
  endfacet
  facet normal 0 0 1
    outer loop
      vertex -1.77 0.77 7.5
      vertex -2.54 2.54 7.5
      vertex -2.54 0.385 7.5
    endloop
  endfacet
  facet normal 0 0 1
    outer loop
      vertex -2.54 2.54 7.5
      vertex -4.695 2.54 7.5
      vertex -2.54 0.385 7.5
    endloop
  endfacet
  facet normal 0 0 1
    outer loop
      vertex -2.54 0.385 7.5
      vertex -4.695 2.54 7.5
      vertex -4.695 0.385 7.5
    endloop
  endfacet
  facet normal 0 0 1
    outer loop
      vertex -4.695 2.54 7.5
      vertex -5.08 2.54 7.5
      vertex -4.695 0.385 7.5
    endloop
  endfacet
  facet normal 0 0 1
    outer loop
      vertex -4.695 0.385 7.5
      vertex -5.08 2.54 7.5
      vertex -5.08 0.385 7.5
    endloop
  endfacet
  facet normal 0 0 1
    outer loop
      vertex 5.08 0 7.5
      vertex 2.54 0.385 7.5
      vertex 2.54 0 7.5
    endloop
  endfacet
  facet normal 0 0 1
    outer loop
      vertex 2.54 0.385 7.5
      vertex 0 0.385 7.5
      vertex 2.54 0 7.5
    endloop
  endfacet
  facet normal 0 0 1
    outer loop
      vertex 2.54 0 7.5
      vertex 0 0.385 7.5
      vertex 0 0 7.5
    endloop
  endfacet
  facet normal 0 0 1
    outer loop
      vertex 0 0.385 7.5
      vertex -2.54 0.385 7.5
      vertex 0 0 7.5
    endloop
  endfacet
  facet normal 0 0 1
    outer loop
      vertex 0 0 7.5
      vertex -2.54 0.385 7.5
      vertex -2.54 0 7.5
    endloop
  endfacet
  facet normal 0 0 1
    outer loop
      vertex -2.54 0.385 7.5
      vertex -4.695 0.385 7.5
      vertex -2.54 0 7.5
    endloop
  endfacet
  facet normal 0 0 1
    outer loop
      vertex -2.54 0 7.5
      vertex -4.695 0.385 7.5
      vertex -4.695 0 7.5
    endloop
  endfacet
  facet normal 0 0 1
    outer loop
      vertex -4.695 0.385 7.5
      vertex -5.08 0.385 7.5
      vertex -4.695 0 7.5
    endloop
  endfacet
  facet normal 0 0 1
    outer loop
      vertex -4.695 0 7.5
      vertex -5.08 0.385 7.5
      vertex -5.08 0 7.5
    endloop
  endfacet
  facet normal 0 0 1
    outer loop
      vertex 3.56 4.06 15.5
      vertex 3.56 3.56 15.5
      vertex 4.06 4.06 15.5
    endloop
  endfacet
  facet normal 0 0 1
    outer loop
      vertex 3.56 3.56 15.5
      vertex 4.06 3.56 15.5
      vertex 4.06 4.06 15.5
    endloop
  endfacet
  facet normal 0 0 -1
    outer loop
      vertex -5.08 5.08 4.5
      vertex 5.08 5.08 4.5
      vertex -5.08 0 4.5
    endloop
  endfacet
  facet normal 0 0 -1
    outer loop
      vertex 5.08 5.08 4.5
      vertex 5.08 0 4.5
      vertex -5.08 0 4.5
    endloop
  endfacet
  facet normal 0 -0.707106 0.707107
    outer loop
      vertex 1.02 1.02 15.5
      vertex 0.77 0.77 15.25
      vertex 1.52 1.02 15.5
    endloop
  endfacet
  facet normal 0 -0.707106 0.707107
    outer loop
      vertex 0.77 0.77 15.25
      vertex 1.77 0.77 15.25
      vertex 1.52 1.02 15.5
    endloop
  endfacet
  facet normal 0 -1 0
    outer loop
      vertex 3.31 3.31 15.25
      vertex 3.31 3.31 7.5
      vertex 4.31 3.31 15.25
    endloop
  endfacet
  facet normal 0 -1 0
    outer loop
      vertex 3.31 3.31 7.5
      vertex 4.31 3.31 7.5
      vertex 4.31 3.31 15.25
    endloop
  endfacet
  facet normal 0 1 0
    outer loop
      vertex -5.08 5.08 4.5
      vertex -5.08 5.08 7.5
      vertex -4.695 5.08 7.5
    endloop
  endfacet
  facet normal 0 1 0
    outer loop
      vertex -4.695 5.08 7.5
      vertex -2.54 5.08 7.5
      vertex -5.08 5.08 4.5
    endloop
  endfacet
  facet normal 0 1 0
    outer loop
      vertex -2.54 5.08 7.5
      vertex 0 5.08 7.5
      vertex -5.08 5.08 4.5
    endloop
  endfacet
  facet normal 0 1 0
    outer loop
      vertex -5.08 5.08 4.5
      vertex 0 5.08 7.5
      vertex 5.08 5.08 4.5
    endloop
  endfacet
  facet normal 0 1 0
    outer loop
      vertex 0 5.08 7.5
      vertex 2.54 5.08 7.5
      vertex 5.08 5.08 4.5
    endloop
  endfacet
  facet normal 0 1 0
    outer loop
      vertex 5.08 5.08 4.5
      vertex 2.54 5.08 7.5
      vertex 5.08 5.08 7.5
    endloop
  endfacet
  facet normal 0 0.707106 0.707107
    outer loop
      vertex 3.31 4.31 15.25
      vertex 3.56 4.06 15.5
      vertex 4.31 4.31 15.25
    endloop
  endfacet
  facet normal 0 0.707106 0.707107
    outer loop
      vertex 3.56 4.06 15.5
      vertex 4.06 4.06 15.5
      vertex 4.31 4.31 15.25
    endloop
  endfacet
  facet normal -1 0 0
    outer loop
      vertex 3.31 1.77 15.25
      vertex 3.31 1.77 7.5
      vertex 3.31 0.77 15.25
    endloop
  endfacet
  facet normal -1 0 0
    outer loop
      vertex 3.31 1.77 7.5
      vertex 3.31 0.77 7.5
      vertex 3.31 0.77 15.25
    endloop
  endfacet
  facet normal -1 0 0
    outer loop
      vertex 3.31 4.31 15.25
      vertex 3.31 4.31 7.5
      vertex 3.31 3.31 15.25
    endloop
  endfacet
  facet normal -1 0 0
    outer loop
      vertex 3.31 4.31 7.5
      vertex 3.31 3.31 7.5
      vertex 3.31 3.31 15.25
    endloop
  endfacet
  facet normal -1 0 0
    outer loop
      vertex -5.08 5.08 7.5
      vertex -5.08 5.08 4.5
      vertex -5.08 2.54 7.5
    endloop
  endfacet
  facet normal -1 0 0
    outer loop
      vertex -5.08 5.08 4.5
      vertex -5.08 0 4.5
      vertex -5.08 2.54 7.5
    endloop
  endfacet
  facet normal -1 0 0
    outer loop
      vertex -5.08 2.54 7.5
      vertex -5.08 0 4.5
      vertex -5.08 0.385 7.5
    endloop
  endfacet
  facet normal -1 0 0
    outer loop
      vertex -5.08 0 4.5
      vertex -5.08 0 7.5
      vertex -5.08 0.385 7.5
    endloop
  endfacet
  facet normal -0.707106 0 0.707107
    outer loop
      vertex 1.02 1.52 15.5
      vertex 0.77 1.77 15.25
      vertex 1.02 1.02 15.5
    endloop
  endfacet
  facet normal -0.707106 0 0.707107
    outer loop
      vertex 0.77 1.77 15.25
      vertex 0.77 0.77 15.25
      vertex 1.02 1.02 15.5
    endloop
  endfacet
  facet normal 0 -0.707106 0.707107
    outer loop
      vertex 1.02 3.56 15.5
      vertex 0.77 3.31 15.25
      vertex 1.52 3.56 15.5
    endloop
  endfacet
  facet normal 0 -0.707106 0.707107
    outer loop
      vertex 0.77 3.31 15.25
      vertex 1.77 3.31 15.25
      vertex 1.52 3.56 15.5
    endloop
  endfacet
  facet normal 1 0 0
    outer loop
      vertex 1.77 0.77 15.25
      vertex 1.77 0.77 7.5
      vertex 1.77 1.77 15.25
    endloop
  endfacet
  facet normal 1 0 0
    outer loop
      vertex 1.77 0.77 7.5
      vertex 1.77 1.77 7.5
      vertex 1.77 1.77 15.25
    endloop
  endfacet
  facet normal 0 1 0
    outer loop
      vertex 1.77 1.77 15.25
      vertex 1.77 1.77 7.5
      vertex 0.77 1.77 15.25
    endloop
  endfacet
  facet normal 0 1 0
    outer loop
      vertex 1.77 1.77 7.5
      vertex 0.77 1.77 7.5
      vertex 0.77 1.77 15.25
    endloop
  endfacet
  facet normal 0 0.707106 0.707107
    outer loop
      vertex 0.77 4.31 15.25
      vertex 1.02 4.06 15.5
      vertex 1.77 4.31 15.25
    endloop
  endfacet
  facet normal 0 0.707106 0.707107
    outer loop
      vertex 1.02 4.06 15.5
      vertex 1.52 4.06 15.5
      vertex 1.77 4.31 15.25
    endloop
  endfacet
  facet normal -1 0 0
    outer loop
      vertex 0.77 1.77 15.25
      vertex 0.77 1.77 7.5
      vertex 0.77 0.77 15.25
    endloop
  endfacet
  facet normal -1 0 0
    outer loop
      vertex 0.77 1.77 7.5
      vertex 0.77 0.77 7.5
      vertex 0.77 0.77 15.25
    endloop
  endfacet
  facet normal 0 0 1
    outer loop
      vertex 1.02 1.52 15.5
      vertex 1.02 1.02 15.5
      vertex 1.52 1.52 15.5
    endloop
  endfacet
  facet normal 0 0 1
    outer loop
      vertex 1.02 1.02 15.5
      vertex 1.52 1.02 15.5
      vertex 1.52 1.52 15.5
    endloop
  endfacet
  facet normal 0 0.707106 0.707107
    outer loop
      vertex 0.77 1.77 15.25
      vertex 1.02 1.52 15.5
      vertex 1.77 1.77 15.25
    endloop
  endfacet
  facet normal 0 0.707106 0.707107
    outer loop
      vertex 1.02 1.52 15.5
      vertex 1.52 1.52 15.5
      vertex 1.77 1.77 15.25
    endloop
  endfacet
  facet normal 0 -1 0
    outer loop
      vertex 3.31 0.77 15.25
      vertex 3.31 0.77 7.5
      vertex 4.31 0.77 15.25
    endloop
  endfacet
  facet normal 0 -1 0
    outer loop
      vertex 3.31 0.77 7.5
      vertex 4.31 0.77 7.5
      vertex 4.31 0.77 15.25
    endloop
  endfacet
  facet normal 0 -0.707106 0.707107
    outer loop
      vertex 3.56 3.56 15.5
      vertex 3.31 3.31 15.25
      vertex 4.06 3.56 15.5
    endloop
  endfacet
  facet normal 0 -0.707106 0.707107
    outer loop
      vertex 3.31 3.31 15.25
      vertex 4.31 3.31 15.25
      vertex 4.06 3.56 15.5
    endloop
  endfacet
  facet normal 1 0 0
    outer loop
      vertex 4.31 0.77 15.25
      vertex 4.31 0.77 7.5
      vertex 4.31 1.77 15.25
    endloop
  endfacet
  facet normal 1 0 0
    outer loop
      vertex 4.31 0.77 7.5
      vertex 4.31 1.77 7.5
      vertex 4.31 1.77 15.25
    endloop
  endfacet
  facet normal 0 1 0
    outer loop
      vertex 4.31 1.77 15.25
      vertex 4.31 1.77 7.5
      vertex 3.31 1.77 15.25
    endloop
  endfacet
  facet normal 0 1 0
    outer loop
      vertex 4.31 1.77 7.5
      vertex 3.31 1.77 7.5
      vertex 3.31 1.77 15.25
    endloop
  endfacet
  facet normal 0 0 1
    outer loop
      vertex 3.56 1.52 15.5
      vertex 3.56 1.02 15.5
      vertex 4.06 1.52 15.5
    endloop
  endfacet
  facet normal 0 0 1
    outer loop
      vertex 3.56 1.02 15.5
      vertex 4.06 1.02 15.5
      vertex 4.06 1.52 15.5
    endloop
  endfacet
  facet normal 0.707106 0 0.707107
    outer loop
      vertex 4.06 1.02 15.5
      vertex 4.31 0.77 15.25
      vertex 4.06 1.52 15.5
    endloop
  endfacet
  facet normal 0.707106 0 0.707107
    outer loop
      vertex 4.31 0.77 15.25
      vertex 4.31 1.77 15.25
      vertex 4.06 1.52 15.5
    endloop
  endfacet
  facet normal 0 -0.707106 0.707107
    outer loop
      vertex 3.56 1.02 15.5
      vertex 3.31 0.77 15.25
      vertex 4.06 1.02 15.5
    endloop
  endfacet
  facet normal 0 -0.707106 0.707107
    outer loop
      vertex 3.31 0.77 15.25
      vertex 4.31 0.77 15.25
      vertex 4.06 1.02 15.5
    endloop
  endfacet
  facet normal 0 0.707106 0.707107
    outer loop
      vertex 3.31 1.77 15.25
      vertex 3.56 1.52 15.5
      vertex 4.31 1.77 15.25
    endloop
  endfacet
  facet normal 0 0.707106 0.707107
    outer loop
      vertex 3.56 1.52 15.5
      vertex 4.06 1.52 15.5
      vertex 4.31 1.77 15.25
    endloop
  endfacet
  facet normal -0.707106 0 0.707107
    outer loop
      vertex 3.56 1.52 15.5
      vertex 3.31 1.77 15.25
      vertex 3.56 1.02 15.5
    endloop
  endfacet
  facet normal -0.707106 0 0.707107
    outer loop
      vertex 3.31 1.77 15.25
      vertex 3.31 0.77 15.25
      vertex 3.56 1.02 15.5
    endloop
  endfacet
  facet normal 0 -1 0
    outer loop
      vertex -4.31 3.31 15.25
      vertex -4.31 3.31 7.5
      vertex -3.31 3.31 15.25
    endloop
  endfacet
  facet normal 0 -1 0
    outer loop
      vertex -4.31 3.31 7.5
      vertex -3.31 3.31 7.5
      vertex -3.31 3.31 15.25
    endloop
  endfacet
  facet normal 1 0 0
    outer loop
      vertex -3.31 3.31 15.25
      vertex -3.31 3.31 7.5
      vertex -3.31 4.31 15.25
    endloop
  endfacet
  facet normal 1 0 0
    outer loop
      vertex -3.31 3.31 7.5
      vertex -3.31 4.31 7.5
      vertex -3.31 4.31 15.25
    endloop
  endfacet
  facet normal 0 1 0
    outer loop
      vertex -3.31 4.31 15.25
      vertex -3.31 4.31 7.5
      vertex -4.31 4.31 15.25
    endloop
  endfacet
  facet normal 0 1 0
    outer loop
      vertex -3.31 4.31 7.5
      vertex -4.31 4.31 7.5
      vertex -4.31 4.31 15.25
    endloop
  endfacet
endsolid Onshape
