solid Onshape
  facet normal -0.707106 0 0.707107
    outer loop
      vertex 2.04 -1.77 15.25
      vertex 2.29 -1.52 15.5
      vertex 2.04 -0.77 15.25
    endloop
  endfacet
  facet normal -0.707106 0 0.707107
    outer loop
      vertex 2.29 -1.52 15.5
      vertex 2.29 -1.02 15.5
      vertex 2.04 -0.77 15.25
    endloop
  endfacet
  facet normal 0.707106 0 0.707107
    outer loop
      vertex 3.04 -0.77 15.25
      vertex 2.79 -1.02 15.5
      vertex 3.04 -1.77 15.25
    endloop
  endfacet
  facet normal 0.707106 0 0.707107
    outer loop
      vertex 2.79 -1.02 15.5
      vertex 2.79 -1.52 15.5
      vertex 3.04 -1.77 15.25
    endloop
  endfacet
  facet normal 0 0 1
    outer loop
      vertex 2.79 -1.52 15.5
      vertex 2.79 -1.02 15.5
      vertex 2.29 -1.52 15.5
    endloop
  endfacet
  facet normal 0 0 1
    outer loop
      vertex 2.79 -1.02 15.5
      vertex 2.29 -1.02 15.5
      vertex 2.29 -1.52 15.5
    endloop
  endfacet
  facet normal 0 -1 0
    outer loop
      vertex 2.04 -1.77 15.25
      vertex 2.04 -1.77 7.5
      vertex 3.04 -1.77 15.25
    endloop
  endfacet
  facet normal 0 -1 0
    outer loop
      vertex 2.04 -1.77 7.5
      vertex 3.04 -1.77 7.5
      vertex 3.04 -1.77 15.25
    endloop
  endfacet
  facet normal -1 0 0
    outer loop
      vertex 2.04 -0.77 15.25
      vertex 2.04 -0.77 7.5
      vertex 2.04 -1.77 15.25
    endloop
  endfacet
  facet normal -1 0 0
    outer loop
      vertex 2.04 -0.77 7.5
      vertex 2.04 -1.77 7.5
      vertex 2.04 -1.77 15.25
    endloop
  endfacet
  facet normal 0 1 0
    outer loop
      vertex 3.04 -0.77 15.25
      vertex 3.04 -0.77 7.5
      vertex 2.04 -0.77 15.25
    endloop
  endfacet
  facet normal 0 1 0
    outer loop
      vertex 3.04 -0.77 7.5
      vertex 2.04 -0.77 7.5
      vertex 2.04 -0.77 15.25
    endloop
  endfacet
  facet normal 1 0 0
    outer loop
      vertex 3.04 -1.77 15.25
      vertex 3.04 -1.77 7.5
      vertex 3.04 -0.77 15.25
    endloop
  endfacet
  facet normal 1 0 0
    outer loop
      vertex 3.04 -1.77 7.5
      vertex 3.04 -0.77 7.5
      vertex 3.04 -0.77 15.25
    endloop
  endfacet
  facet normal -0.707106 0 0.707107
    outer loop
      vertex -0.5 -1.77 15.25
      vertex -0.25 -1.52 15.5
      vertex -0.5 -0.77 15.25
    endloop
  endfacet
  facet normal -0.707106 0 0.707107
    outer loop
      vertex -0.25 -1.52 15.5
      vertex -0.25 -1.02 15.5
      vertex -0.5 -0.77 15.25
    endloop
  endfacet
  facet normal 0 -0.707106 0.707107
    outer loop
      vertex -0.25 -1.52 15.5
      vertex -0.5 -1.77 15.25
      vertex 0.25 -1.52 15.5
    endloop
  endfacet
  facet normal 0 -0.707106 0.707107
    outer loop
      vertex -0.5 -1.77 15.25
      vertex 0.5 -1.77 15.25
      vertex 0.25 -1.52 15.5
    endloop
  endfacet
  facet normal 0 0.707106 0.707107
    outer loop
      vertex -0.5 -0.77 15.25
      vertex -0.25 -1.02 15.5
      vertex 0.5 -0.77 15.25
    endloop
  endfacet
  facet normal 0 0.707106 0.707107
    outer loop
      vertex -0.25 -1.02 15.5
      vertex 0.25 -1.02 15.5
      vertex 0.5 -0.77 15.25
    endloop
  endfacet
  facet normal 0.707106 0 0.707107
    outer loop
      vertex 0.5 -0.77 15.25
      vertex 0.25 -1.02 15.5
      vertex 0.5 -1.77 15.25
    endloop
  endfacet
  facet normal 0.707106 0 0.707107
    outer loop
      vertex 0.25 -1.02 15.5
      vertex 0.25 -1.52 15.5
      vertex 0.5 -1.77 15.25
    endloop
  endfacet
  facet normal 0 0 1
    outer loop
      vertex 0.25 -1.52 15.5
      vertex 0.25 -1.02 15.5
      vertex -0.25 -1.52 15.5
    endloop
  endfacet
  facet normal 0 0 1
    outer loop
      vertex 0.25 -1.02 15.5
      vertex -0.25 -1.02 15.5
      vertex -0.25 -1.52 15.5
    endloop
  endfacet
  facet normal 0 -1 0
    outer loop
      vertex -0.5 -1.77 15.25
      vertex -0.5 -1.77 7.5
      vertex 0.5 -1.77 15.25
    endloop
  endfacet
  facet normal 0 -1 0
    outer loop
      vertex -0.5 -1.77 7.5
      vertex 0.5 -1.77 7.5
      vertex 0.5 -1.77 15.25
    endloop
  endfacet
  facet normal 0 0.707106 0.707107
    outer loop
      vertex -0.5 -3.31 15.25
      vertex -0.25 -3.56 15.5
      vertex 0.5 -3.31 15.25
    endloop
  endfacet
  facet normal 0 0.707106 0.707107
    outer loop
      vertex -0.25 -3.56 15.5
      vertex 0.25 -3.56 15.5
      vertex 0.5 -3.31 15.25
    endloop
  endfacet
  facet normal 0 0 1
    outer loop
      vertex 0.25 -4.06 15.5
      vertex 0.25 -3.56 15.5
      vertex -0.25 -4.06 15.5
    endloop
  endfacet
  facet normal 0 0 1
    outer loop
      vertex 0.25 -3.56 15.5
      vertex -0.25 -3.56 15.5
      vertex -0.25 -4.06 15.5
    endloop
  endfacet
  facet normal 0 -1 0
    outer loop
      vertex -0.5 -4.31 15.25
      vertex -0.5 -4.31 7.5
      vertex 0.5 -4.31 15.25
    endloop
  endfacet
  facet normal 0 -1 0
    outer loop
      vertex -0.5 -4.31 7.5
      vertex 0.5 -4.31 7.5
      vertex 0.5 -4.31 15.25
    endloop
  endfacet
  facet normal 0 -0.707106 0.707107
    outer loop
      vertex 2.29 -1.52 15.5
      vertex 2.04 -1.77 15.25
      vertex 2.79 -1.52 15.5
    endloop
  endfacet
  facet normal 0 -0.707106 0.707107
    outer loop
      vertex 2.04 -1.77 15.25
      vertex 3.04 -1.77 15.25
      vertex 2.79 -1.52 15.5
    endloop
  endfacet
  facet normal -1 0 0
    outer loop
      vertex -0.5 -3.31 15.25
      vertex -0.5 -3.31 7.5
      vertex -0.5 -4.31 15.25
    endloop
  endfacet
  facet normal -1 0 0
    outer loop
      vertex -0.5 -3.31 7.5
      vertex -0.5 -4.31 7.5
      vertex -0.5 -4.31 15.25
    endloop
  endfacet
  facet normal 1 0 0
    outer loop
      vertex 3.04 -4.31 15.25
      vertex 3.04 -4.31 7.5
      vertex 3.04 -3.31 15.25
    endloop
  endfacet
  facet normal 1 0 0
    outer loop
      vertex 3.04 -4.31 7.5
      vertex 3.04 -3.31 7.5
      vertex 3.04 -3.31 15.25
    endloop
  endfacet
  facet normal 0 1 0
    outer loop
      vertex 0.5 -3.31 15.25
      vertex 0.5 -3.31 7.5
      vertex -0.5 -3.31 15.25
    endloop
  endfacet
  facet normal 0 1 0
    outer loop
      vertex 0.5 -3.31 7.5
      vertex -0.5 -3.31 7.5
      vertex -0.5 -3.31 15.25
    endloop
  endfacet
  facet normal 0 0.707106 0.707107
    outer loop
      vertex 2.04 -0.77 15.25
      vertex 2.29 -1.02 15.5
      vertex 3.04 -0.77 15.25
    endloop
  endfacet
  facet normal 0 0.707106 0.707107
    outer loop
      vertex 2.29 -1.02 15.5
      vertex 2.79 -1.02 15.5
      vertex 3.04 -0.77 15.25
    endloop
  endfacet
  facet normal 1 0 0
    outer loop
      vertex 0.5 -4.31 15.25
      vertex 0.5 -4.31 7.5
      vertex 0.5 -3.31 15.25
    endloop
  endfacet
  facet normal 1 0 0
    outer loop
      vertex 0.5 -4.31 7.5
      vertex 0.5 -3.31 7.5
      vertex 0.5 -3.31 15.25
    endloop
  endfacet
  facet normal 0 1 0
    outer loop
      vertex -3.81 0 4.5
      vertex -3.81 0 7.5
      vertex 3.81 0 4.5
    endloop
  endfacet
  facet normal 0 1 0
    outer loop
      vertex -3.81 0 7.5
      vertex 1.27 0 7.5
      vertex 3.81 0 4.5
    endloop
  endfacet
  facet normal 0 1 0
    outer loop
      vertex 3.81 0 4.5
      vertex 1.27 0 7.5
      vertex 3.81 0 7.5
    endloop
  endfacet
  facet normal -0.707106 0 0.707107
    outer loop
      vertex -3.04 -1.77 15.25
      vertex -2.79 -1.52 15.5
      vertex -3.04 -0.77 15.25
    endloop
  endfacet
  facet normal -0.707106 0 0.707107
    outer loop
      vertex -2.79 -1.52 15.5
      vertex -2.79 -1.02 15.5
      vertex -3.04 -0.77 15.25
    endloop
  endfacet
  facet normal 0.707106 0 0.707107
    outer loop
      vertex 0.5 -3.31 15.25
      vertex 0.25 -3.56 15.5
      vertex 0.5 -4.31 15.25
    endloop
  endfacet
  facet normal 0.707106 0 0.707107
    outer loop
      vertex 0.25 -3.56 15.5
      vertex 0.25 -4.06 15.5
      vertex 0.5 -4.31 15.25
    endloop
  endfacet
  facet normal 1 0 0
    outer loop
      vertex 3.81 -5.08 7.5
      vertex 3.81 -5.08 4.5
      vertex 3.81 -2.54 7.5
    endloop
  endfacet
  facet normal 1 0 0
    outer loop
      vertex 3.81 -5.08 4.5
      vertex 3.81 0 4.5
      vertex 3.81 -2.54 7.5
    endloop
  endfacet
  facet normal 1 0 0
    outer loop
      vertex 3.81 -2.54 7.5
      vertex 3.81 0 4.5
      vertex 3.81 0 7.5
    endloop
  endfacet
  facet normal -1 0 0
    outer loop
      vertex -3.04 -0.77 15.25
      vertex -3.04 -0.77 7.5
      vertex -3.04 -1.77 15.25
    endloop
  endfacet
  facet normal -1 0 0
    outer loop
      vertex -3.04 -0.77 7.5
      vertex -3.04 -1.77 7.5
      vertex -3.04 -1.77 15.25
    endloop
  endfacet
  facet normal 0 -1 0
    outer loop
      vertex -3.81 -5.08 7.5
      vertex -3.81 -5.08 4.5
      vertex 1.27 -5.08 7.5
    endloop
  endfacet
  facet normal 0 -1 0
    outer loop
      vertex -3.81 -5.08 4.5
      vertex 3.81 -5.08 4.5
      vertex 1.27 -5.08 7.5
    endloop
  endfacet
  facet normal 0 -1 0
    outer loop
      vertex 1.27 -5.08 7.5
      vertex 3.81 -5.08 4.5
      vertex 3.81 -5.08 7.5
    endloop
  endfacet
  facet normal 1 0 0
    outer loop
      vertex -2.04 -1.77 15.25
      vertex -2.04 -1.77 7.5
      vertex -2.04 -0.77 15.25
    endloop
  endfacet
  facet normal 1 0 0
    outer loop
      vertex -2.04 -1.77 7.5
      vertex -2.04 -0.77 7.5
      vertex -2.04 -0.77 15.25
    endloop
  endfacet
  facet normal 0 -0.707106 0.707107
    outer loop
      vertex -0.25 -4.06 15.5
      vertex -0.5 -4.31 15.25
      vertex 0.25 -4.06 15.5
    endloop
  endfacet
  facet normal 0 -0.707106 0.707107
    outer loop
      vertex -0.5 -4.31 15.25
      vertex 0.5 -4.31 15.25
      vertex 0.25 -4.06 15.5
    endloop
  endfacet
  facet normal -1 0 0
    outer loop
      vertex -3.81 0 7.5
      vertex -3.81 0 4.5
      vertex -3.81 -2.54 7.5
    endloop
  endfacet
  facet normal -1 0 0
    outer loop
      vertex -3.81 0 4.5
      vertex -3.81 -5.08 4.5
      vertex -3.81 -2.54 7.5
    endloop
  endfacet
  facet normal -1 0 0
    outer loop
      vertex -3.81 -2.54 7.5
      vertex -3.81 -5.08 4.5
      vertex -3.81 -5.08 7.5
    endloop
  endfacet
  facet normal 0 -1 0
    outer loop
      vertex -3.04 -1.77 15.25
      vertex -3.04 -1.77 7.5
      vertex -2.04 -1.77 15.25
    endloop
  endfacet
  facet normal 0 -1 0
    outer loop
      vertex -3.04 -1.77 7.5
      vertex -2.04 -1.77 7.5
      vertex -2.04 -1.77 15.25
    endloop
  endfacet
  facet normal -0.707106 0 0.707107
    outer loop
      vertex -0.5 -4.31 15.25
      vertex -0.25 -4.06 15.5
      vertex -0.5 -3.31 15.25
    endloop
  endfacet
  facet normal -0.707106 0 0.707107
    outer loop
      vertex -0.25 -4.06 15.5
      vertex -0.25 -3.56 15.5
      vertex -0.5 -3.31 15.25
    endloop
  endfacet
  facet normal 0 0 -1
    outer loop
      vertex 3.81 -5.08 4.5
      vertex -3.81 -5.08 4.5
      vertex 3.81 0 4.5
    endloop
  endfacet
  facet normal 0 0 -1
    outer loop
      vertex -3.81 -5.08 4.5
      vertex -3.81 0 4.5
      vertex 3.81 0 4.5
    endloop
  endfacet
  facet normal 0 1 0
    outer loop
      vertex -2.04 -0.77 15.25
      vertex -2.04 -0.77 7.5
      vertex -3.04 -0.77 15.25
    endloop
  endfacet
  facet normal 0 1 0
    outer loop
      vertex -2.04 -0.77 7.5
      vertex -3.04 -0.77 7.5
      vertex -3.04 -0.77 15.25
    endloop
  endfacet
  facet normal 0 1 0
    outer loop
      vertex 3.04 -3.31 15.25
      vertex 3.04 -3.31 7.5
      vertex 2.04 -3.31 15.25
    endloop
  endfacet
  facet normal 0 1 0
    outer loop
      vertex 3.04 -3.31 7.5
      vertex 2.04 -3.31 7.5
      vertex 2.04 -3.31 15.25
    endloop
  endfacet
  facet normal -1 0 0
    outer loop
      vertex 2.04 -3.31 15.25
      vertex 2.04 -3.31 7.5
      vertex 2.04 -4.31 15.25
    endloop
  endfacet
  facet normal -1 0 0
    outer loop
      vertex 2.04 -3.31 7.5
      vertex 2.04 -4.31 7.5
      vertex 2.04 -4.31 15.25
    endloop
  endfacet
  facet normal 0 -1 0
    outer loop
      vertex 2.04 -4.31 15.25
      vertex 2.04 -4.31 7.5
      vertex 3.04 -4.31 15.25
    endloop
  endfacet
  facet normal 0 -1 0
    outer loop
      vertex 2.04 -4.31 7.5
      vertex 3.04 -4.31 7.5
      vertex 3.04 -4.31 15.25
    endloop
  endfacet
  facet normal 0 0 1
    outer loop
      vertex 2.79 -4.06 15.5
      vertex 2.79 -3.56 15.5
      vertex 2.29 -4.06 15.5
    endloop
  endfacet
  facet normal 0 0 1
    outer loop
      vertex 2.79 -3.56 15.5
      vertex 2.29 -3.56 15.5
      vertex 2.29 -4.06 15.5
    endloop
  endfacet
  facet normal 0 0 1
    outer loop
      vertex -2.04 -0.77 7.5
      vertex 1.27 0 7.5
      vertex -3.81 0 7.5
    endloop
  endfacet
  facet normal 0 0 1
    outer loop
      vertex 2.04 -0.77 7.5
      vertex 1.27 0 7.5
      vertex 2.04 -1.77 7.5
    endloop
  endfacet
  facet normal 0 0 1
    outer loop
      vertex 1.27 0 7.5
      vertex 1.27 -2.54 7.5
      vertex 2.04 -1.77 7.5
    endloop
  endfacet
  facet normal 0 0 1
    outer loop
      vertex 2.04 -1.77 7.5
      vertex 1.27 -2.54 7.5
      vertex 3.04 -1.77 7.5
    endloop
  endfacet
  facet normal 0 0 1
    outer loop
      vertex 1.27 -2.54 7.5
      vertex 3.81 -2.54 7.5
      vertex 3.04 -1.77 7.5
    endloop
  endfacet
  facet normal 0 0 1
    outer loop
      vertex 3.04 -1.77 7.5
      vertex 3.81 -2.54 7.5
      vertex 3.04 -0.77 7.5
    endloop
  endfacet
  facet normal 0 0 1
    outer loop
      vertex 3.81 -2.54 7.5
      vertex 3.81 0 7.5
      vertex 3.04 -0.77 7.5
    endloop
  endfacet
  facet normal 0 0 1
    outer loop
      vertex 3.04 -0.77 7.5
      vertex 3.81 0 7.5
      vertex 2.04 -0.77 7.5
    endloop
  endfacet
  facet normal 0 0 1
    outer loop
      vertex 3.81 0 7.5
      vertex 1.27 0 7.5
      vertex 2.04 -0.77 7.5
    endloop
  endfacet
  facet normal 0 0 1
    outer loop
      vertex -2.04 -1.77 7.5
      vertex -3.04 -1.77 7.5
      vertex -3.81 -2.54 7.5
    endloop
  endfacet
  facet normal 0 0 1
    outer loop
      vertex -3.81 -2.54 7.5
      vertex -3.04 -1.77 7.5
      vertex -3.81 0 7.5
    endloop
  endfacet
  facet normal 0 0 1
    outer loop
      vertex -3.04 -1.77 7.5
      vertex -3.04 -0.77 7.5
      vertex -3.81 0 7.5
    endloop
  endfacet
  facet normal 0 0 1
    outer loop
      vertex -3.81 0 7.5
      vertex -3.04 -0.77 7.5
      vertex -2.04 -0.77 7.5
    endloop
  endfacet
  facet normal 0 0 1
    outer loop
      vertex 1.27 -5.08 7.5
      vertex 3.81 -5.08 7.5
      vertex 3.04 -4.31 7.5
    endloop
  endfacet
  facet normal 0 0 1
    outer loop
      vertex 3.04 -4.31 7.5
      vertex 3.81 -5.08 7.5
      vertex 3.04 -3.31 7.5
    endloop
  endfacet
  facet normal 0 0 1
    outer loop
      vertex 3.81 -5.08 7.5
      vertex 3.81 -2.54 7.5
      vertex 3.04 -3.31 7.5
    endloop
  endfacet
  facet normal 0 0 1
    outer loop
      vertex 3.04 -3.31 7.5
      vertex 3.81 -2.54 7.5
      vertex 2.04 -3.31 7.5
    endloop
  endfacet
  facet normal 0 0 1
    outer loop
      vertex 3.81 -2.54 7.5
      vertex 1.27 -2.54 7.5
      vertex 2.04 -3.31 7.5
    endloop
  endfacet
  facet normal 0 0 1
    outer loop
      vertex 2.04 -3.31 7.5
      vertex 1.27 -2.54 7.5
      vertex 2.04 -4.31 7.5
    endloop
  endfacet
  facet normal 0 0 1
    outer loop
      vertex -0.5 -3.31 7.5
      vertex 0.5 -3.31 7.5
      vertex 1.27 -2.54 7.5
    endloop
  endfacet
  facet normal 0 0 1
    outer loop
      vertex 0.5 -3.31 7.5
      vertex 1.27 -5.08 7.5
      vertex 1.27 -2.54 7.5
    endloop
  endfacet
  facet normal 0 0 1
    outer loop
      vertex 1.27 -2.54 7.5
      vertex 1.27 -5.08 7.5
      vertex 2.04 -4.31 7.5
    endloop
  endfacet
  facet normal 0 0 1
    outer loop
      vertex 1.27 -5.08 7.5
      vertex 3.04 -4.31 7.5
      vertex 2.04 -4.31 7.5
    endloop
  endfacet
  facet normal 0 0 1
    outer loop
      vertex 0.5 -3.31 7.5
      vertex 0.5 -4.31 7.5
      vertex 1.27 -5.08 7.5
    endloop
  endfacet
  facet normal 0 0 1
    outer loop
      vertex 0.5 -4.31 7.5
      vertex -0.5 -4.31 7.5
      vertex 1.27 -5.08 7.5
    endloop
  endfacet
  facet normal 0 0 1
    outer loop
      vertex 1.27 -5.08 7.5
      vertex -0.5 -4.31 7.5
      vertex -3.81 -5.08 7.5
    endloop
  endfacet
  facet normal 0 0 1
    outer loop
      vertex -0.5 -4.31 7.5
      vertex -3.81 -2.54 7.5
      vertex -3.81 -5.08 7.5
    endloop
  endfacet
  facet normal 0 0 1
    outer loop
      vertex -0.5 -4.31 7.5
      vertex -0.5 -3.31 7.5
      vertex -3.81 -2.54 7.5
    endloop
  endfacet
  facet normal 0 0 1
    outer loop
      vertex -0.5 -3.31 7.5
      vertex 1.27 -2.54 7.5
      vertex -3.81 -2.54 7.5
    endloop
  endfacet
  facet normal 0 0 1
    outer loop
      vertex -3.81 -2.54 7.5
      vertex 1.27 -2.54 7.5
      vertex -2.04 -1.77 7.5
    endloop
  endfacet
  facet normal 0 0 1
    outer loop
      vertex 1.27 -2.54 7.5
      vertex -0.5 -1.77 7.5
      vertex -2.04 -1.77 7.5
    endloop
  endfacet
  facet normal 0 0 1
    outer loop
      vertex -2.04 -1.77 7.5
      vertex -0.5 -1.77 7.5
      vertex -2.04 -0.77 7.5
    endloop
  endfacet
  facet normal 0 0 1
    outer loop
      vertex -0.5 -1.77 7.5
      vertex -0.5 -0.77 7.5
      vertex -2.04 -0.77 7.5
    endloop
  endfacet
  facet normal 0 0 1
    outer loop
      vertex -2.04 -0.77 7.5
      vertex -0.5 -0.77 7.5
      vertex 1.27 0 7.5
    endloop
  endfacet
  facet normal 0 0 1
    outer loop
      vertex -0.5 -0.77 7.5
      vertex 0.5 -0.77 7.5
      vertex 1.27 0 7.5
    endloop
  endfacet
  facet normal 0 0 1
    outer loop
      vertex 1.27 0 7.5
      vertex 0.5 -0.77 7.5
      vertex 1.27 -2.54 7.5
    endloop
  endfacet
  facet normal 0 0 1
    outer loop
      vertex 0.5 -0.77 7.5
      vertex 0.5 -1.77 7.5
      vertex 1.27 -2.54 7.5
    endloop
  endfacet
  facet normal 0 0 1
    outer loop
      vertex 1.27 -2.54 7.5
      vertex 0.5 -1.77 7.5
      vertex -0.5 -1.77 7.5
    endloop
  endfacet
  facet normal 0.707106 0 0.707107
    outer loop
      vertex 3.04 -3.31 15.25
      vertex 2.79 -3.56 15.5
      vertex 3.04 -4.31 15.25
    endloop
  endfacet
  facet normal 0.707106 0 0.707107
    outer loop
      vertex 2.79 -3.56 15.5
      vertex 2.79 -4.06 15.5
      vertex 3.04 -4.31 15.25
    endloop
  endfacet
  facet normal 0 0.707106 0.707107
    outer loop
      vertex 2.04 -3.31 15.25
      vertex 2.29 -3.56 15.5
      vertex 3.04 -3.31 15.25
    endloop
  endfacet
  facet normal 0 0.707106 0.707107
    outer loop
      vertex 2.29 -3.56 15.5
      vertex 2.79 -3.56 15.5
      vertex 3.04 -3.31 15.25
    endloop
  endfacet
  facet normal 0 -0.707106 0.707107
    outer loop
      vertex 2.29 -4.06 15.5
      vertex 2.04 -4.31 15.25
      vertex 2.79 -4.06 15.5
    endloop
  endfacet
  facet normal 0 -0.707106 0.707107
    outer loop
      vertex 2.04 -4.31 15.25
      vertex 3.04 -4.31 15.25
      vertex 2.79 -4.06 15.5
    endloop
  endfacet
  facet normal -0.707106 0 0.707107
    outer loop
      vertex 2.04 -4.31 15.25
      vertex 2.29 -4.06 15.5
      vertex 2.04 -3.31 15.25
    endloop
  endfacet
  facet normal -0.707106 0 0.707107
    outer loop
      vertex 2.29 -4.06 15.5
      vertex 2.29 -3.56 15.5
      vertex 2.04 -3.31 15.25
    endloop
  endfacet
  facet normal 0 0 1
    outer loop
      vertex -2.29 -1.52 15.5
      vertex -2.29 -1.02 15.5
      vertex -2.79 -1.52 15.5
    endloop
  endfacet
  facet normal 0 0 1
    outer loop
      vertex -2.29 -1.02 15.5
      vertex -2.79 -1.02 15.5
      vertex -2.79 -1.52 15.5
    endloop
  endfacet
  facet normal 0.707106 0 0.707107
    outer loop
      vertex -2.04 -0.77 15.25
      vertex -2.29 -1.02 15.5
      vertex -2.04 -1.77 15.25
    endloop
  endfacet
  facet normal 0.707106 0 0.707107
    outer loop
      vertex -2.29 -1.02 15.5
      vertex -2.29 -1.52 15.5
      vertex -2.04 -1.77 15.25
    endloop
  endfacet
  facet normal 0 0.707106 0.707107
    outer loop
      vertex -3.04 -0.77 15.25
      vertex -2.79 -1.02 15.5
      vertex -2.04 -0.77 15.25
    endloop
  endfacet
  facet normal 0 0.707106 0.707107
    outer loop
      vertex -2.79 -1.02 15.5
      vertex -2.29 -1.02 15.5
      vertex -2.04 -0.77 15.25
    endloop
  endfacet
  facet normal 0 -0.707106 0.707107
    outer loop
      vertex -2.79 -1.52 15.5
      vertex -3.04 -1.77 15.25
      vertex -2.29 -1.52 15.5
    endloop
  endfacet
  facet normal 0 -0.707106 0.707107
    outer loop
      vertex -3.04 -1.77 15.25
      vertex -2.04 -1.77 15.25
      vertex -2.29 -1.52 15.5
    endloop
  endfacet
  facet normal 1 0 0
    outer loop
      vertex 0.5 -1.77 15.25
      vertex 0.5 -1.77 7.5
      vertex 0.5 -0.77 15.25
    endloop
  endfacet
  facet normal 1 0 0
    outer loop
      vertex 0.5 -1.77 7.5
      vertex 0.5 -0.77 7.5
      vertex 0.5 -0.77 15.25
    endloop
  endfacet
  facet normal 0 1 0
    outer loop
      vertex 0.5 -0.77 15.25
      vertex 0.5 -0.77 7.5
      vertex -0.5 -0.77 15.25
    endloop
  endfacet
  facet normal 0 1 0
    outer loop
      vertex 0.5 -0.77 7.5
      vertex -0.5 -0.77 7.5
      vertex -0.5 -0.77 15.25
    endloop
  endfacet
  facet normal -1 0 0
    outer loop
      vertex -0.5 -0.77 15.25
      vertex -0.5 -0.77 7.5
      vertex -0.5 -1.77 15.25
    endloop
  endfacet
  facet normal -1 0 0
    outer loop
      vertex -0.5 -0.77 7.5
      vertex -0.5 -1.77 7.5
      vertex -0.5 -1.77 15.25
    endloop
  endfacet
endsolid Onshape
