solid Onshape
  facet normal 0 0 -1
    outer loop
      vertex 2.26894 1.04972 0
      vertex 3.40341 1.57458 0
      vertex 2.36913 0.798254 0
    endloop
  endfacet
  facet normal 0 0 -1
    outer loop
      vertex 3.40341 1.57458 0
      vertex 3.5537 1.19738 0
      vertex 2.36913 0.798254 0
    endloop
  endfacet
  facet normal 0 0 -1
    outer loop
      vertex 2.36913 0.798254 0
      vertex 3.5537 1.19738 0
      vertex 2.44155 0.537426 0
    endloop
  endfacet
  facet normal 0 0 -1
    outer loop
      vertex 3.5537 1.19738 0
      vertex 3.66233 0.806139 0
      vertex 2.44155 0.537426 0
    endloop
  endfacet
  facet normal 0 0 -1
    outer loop
      vertex 2.44155 0.537426 0
      vertex 3.66233 0.806139 0
      vertex 2.48534 0.270298 0
    endloop
  endfacet
  facet normal 0 0 -1
    outer loop
      vertex 3.66233 0.806139 0
      vertex 3.72802 0.405446 0
      vertex 2.48534 0.270298 0
    endloop
  endfacet
  facet normal 0 0 -1
    outer loop
      vertex 2.48534 0.270298 0
      vertex 3.72802 0.405446 0
      vertex 2.5 1.07157e-15 0
    endloop
  endfacet
  facet normal 0 0 -1
    outer loop
      vertex 3.72802 0.405446 0
      vertex 3.75 6.88864e-16 0
      vertex 2.5 1.07157e-15 0
    endloop
  endfacet
  facet normal 0 0 -1
    outer loop
      vertex 2.5 1.07157e-15 0
      vertex 3.75 6.88864e-16 0
      vertex 2.48534 -0.270298 0
    endloop
  endfacet
  facet normal 0 0 -1
    outer loop
      vertex 3.75 6.88864e-16 0
      vertex 3.72802 -0.405446 0
      vertex 2.48534 -0.270298 0
    endloop
  endfacet
  facet normal 0 0 -1
    outer loop
      vertex 2.48534 -0.270298 0
      vertex 3.72802 -0.405446 0
      vertex 2.44155 -0.537426 0
    endloop
  endfacet
  facet normal 0 0 -1
    outer loop
      vertex 3.72802 -0.405446 0
      vertex 3.66233 -0.806139 0
      vertex 2.44155 -0.537426 0
    endloop
  endfacet
  facet normal 0 0 -1
    outer loop
      vertex 2.44155 -0.537426 0
      vertex 3.66233 -0.806139 0
      vertex 2.36913 -0.798254 0
    endloop
  endfacet
  facet normal 0 0 -1
    outer loop
      vertex 3.66233 -0.806139 0
      vertex 3.5537 -1.19738 0
      vertex 2.36913 -0.798254 0
    endloop
  endfacet
  facet normal 0 0 -1
    outer loop
      vertex 2.36913 -0.798254 0
      vertex 3.5537 -1.19738 0
      vertex 2.26894 -1.04972 0
    endloop
  endfacet
  facet normal 0 0 -1
    outer loop
      vertex 3.5537 -1.19738 0
      vertex 3.40341 -1.57458 0
      vertex 2.26894 -1.04972 0
    endloop
  endfacet
  facet normal 0 0 -1
    outer loop
      vertex 2.26894 -1.04972 0
      vertex 3.40341 -1.57458 0
      vertex 2.14214 -1.28888 0
    endloop
  endfacet
  facet normal 0 0 -1
    outer loop
      vertex 3.40341 -1.57458 0
      vertex 3.21321 -1.93333 0
      vertex 2.14214 -1.28888 0
    endloop
  endfacet
  facet normal 0 0 -1
    outer loop
      vertex 2.14214 -1.28888 0
      vertex 3.21321 -1.93333 0
      vertex 1.99023 -1.51294 0
    endloop
  endfacet
  facet normal 0 0 -1
    outer loop
      vertex 3.21321 -1.93333 0
      vertex 2.98535 -2.2694 0
      vertex 1.99023 -1.51294 0
    endloop
  endfacet
  facet normal 0 0 -1
    outer loop
      vertex 1.99023 -1.51294 0
      vertex 2.98535 -2.2694 0
      vertex 1.81499 -1.71925 0
    endloop
  endfacet
  facet normal 0 0 -1
    outer loop
      vertex 2.98535 -2.2694 0
      vertex 2.72248 -2.57887 0
      vertex 1.81499 -1.71925 0
    endloop
  endfacet
  facet normal 0 0 -1
    outer loop
      vertex 1.81499 -1.71925 0
      vertex 2.72248 -2.57887 0
      vertex 1.61847 -1.90541 0
    endloop
  endfacet
  facet normal 0 0 -1
    outer loop
      vertex 2.72248 -2.57887 0
      vertex 2.4277 -2.85811 0
      vertex 1.61847 -1.90541 0
    endloop
  endfacet
  facet normal 0 0 -1
    outer loop
      vertex 1.61847 -1.90541 0
      vertex 2.4277 -2.85811 0
      vertex 1.40297 -2.06922 0
    endloop
  endfacet
  facet normal 0 0 -1
    outer loop
      vertex 2.4277 -2.85811 0
      vertex 2.10445 -3.10383 0
      vertex 1.40297 -2.06922 0
    endloop
  endfacet
  facet normal 0 0 -1
    outer loop
      vertex 1.40297 -2.06922 0
      vertex 2.10445 -3.10383 0
      vertex 1.17102 -2.20878 0
    endloop
  endfacet
  facet normal 0 0 -1
    outer loop
      vertex 2.10445 -3.10383 0
      vertex 1.75653 -3.31317 0
      vertex 1.17102 -2.20878 0
    endloop
  endfacet
  facet normal 0 0 -1
    outer loop
      vertex 1.17102 -2.20878 0
      vertex 1.75653 -3.31317 0
      vertex 0.925345 -2.32244 0
    endloop
  endfacet
  facet normal 0 0 -1
    outer loop
      vertex 1.75653 -3.31317 0
      vertex 1.38802 -3.48366 0
      vertex 0.925345 -2.32244 0
    endloop
  endfacet
  facet normal 0 0 -1
    outer loop
      vertex 0.925345 -2.32244 0
      vertex 1.38802 -3.48366 0
      vertex 0.668821 -2.40887 0
    endloop
  endfacet
  facet normal 0 0 -1
    outer loop
      vertex 1.38802 -3.48366 0
      vertex 1.00323 -3.61331 0
      vertex 0.668821 -2.40887 0
    endloop
  endfacet
  facet normal 0 0 -1
    outer loop
      vertex 0.668821 -2.40887 0
      vertex 1.00323 -3.61331 0
      vertex 0.404455 -2.46707 0
    endloop
  endfacet
  facet normal 0 0 -1
    outer loop
      vertex 1.00323 -3.61331 0
      vertex 0.606683 -3.7006 0
      vertex 0.404455 -2.46707 0
    endloop
  endfacet
  facet normal 0 0 -1
    outer loop
      vertex 0.404455 -2.46707 0
      vertex 0.606683 -3.7006 0
      vertex 0.135347 -2.49633 0
    endloop
  endfacet
  facet normal 0 0 -1
    outer loop
      vertex 0.606683 -3.7006 0
      vertex 0.203021 -3.7445 0
      vertex 0.135347 -2.49633 0
    endloop
  endfacet
  facet normal 0 0 -1
    outer loop
      vertex 0.135347 -2.49633 0
      vertex 0.203021 -3.7445 0
      vertex -0.135347 -2.49633 0
    endloop
  endfacet
  facet normal 0 0 -1
    outer loop
      vertex 0.203021 -3.7445 0
      vertex -0.203021 -3.7445 0
      vertex -0.135347 -2.49633 0
    endloop
  endfacet
  facet normal 0 0 -1
    outer loop
      vertex -0.135347 -2.49633 0
      vertex -0.203021 -3.7445 0
      vertex -0.404455 -2.46707 0
    endloop
  endfacet
  facet normal 0 0 -1
    outer loop
      vertex -0.203021 -3.7445 0
      vertex -0.606683 -3.7006 0
      vertex -0.404455 -2.46707 0
    endloop
  endfacet
  facet normal 0 0 -1
    outer loop
      vertex -0.404455 -2.46707 0
      vertex -0.606683 -3.7006 0
      vertex -0.668821 -2.40887 0
    endloop
  endfacet
  facet normal 0 0 -1
    outer loop
      vertex -0.606683 -3.7006 0
      vertex -1.00323 -3.61331 0
      vertex -0.668821 -2.40887 0
    endloop
  endfacet
  facet normal 0 0 -1
    outer loop
      vertex -0.668821 -2.40887 0
      vertex -1.00323 -3.61331 0
      vertex -0.925345 -2.32244 0
    endloop
  endfacet
  facet normal 0 0 -1
    outer loop
      vertex -1.00323 -3.61331 0
      vertex -1.38802 -3.48366 0
      vertex -0.925345 -2.32244 0
    endloop
  endfacet
  facet normal 0 0 -1
    outer loop
      vertex -0.925345 -2.32244 0
      vertex -1.38802 -3.48366 0
      vertex -1.17102 -2.20878 0
    endloop
  endfacet
  facet normal 0 0 -1
    outer loop
      vertex -1.38802 -3.48366 0
      vertex -1.75653 -3.31317 0
      vertex -1.17102 -2.20878 0
    endloop
  endfacet
  facet normal 0 0 -1
    outer loop
      vertex -1.17102 -2.20878 0
      vertex -1.75653 -3.31317 0
      vertex -1.40297 -2.06922 0
    endloop
  endfacet
  facet normal 0 0 -1
    outer loop
      vertex -1.75653 -3.31317 0
      vertex -2.10445 -3.10383 0
      vertex -1.40297 -2.06922 0
    endloop
  endfacet
  facet normal 0 0 -1
    outer loop
      vertex -1.40297 -2.06922 0
      vertex -2.10445 -3.10383 0
      vertex -1.61847 -1.90541 0
    endloop
  endfacet
  facet normal 0 0 -1
    outer loop
      vertex -2.10445 -3.10383 0
      vertex -2.4277 -2.85811 0
      vertex -1.61847 -1.90541 0
    endloop
  endfacet
  facet normal 0 0 -1
    outer loop
      vertex -1.61847 -1.90541 0
      vertex -2.4277 -2.85811 0
      vertex -1.81499 -1.71925 0
    endloop
  endfacet
  facet normal 0 0 -1
    outer loop
      vertex -2.4277 -2.85811 0
      vertex -2.72248 -2.57887 0
      vertex -1.81499 -1.71925 0
    endloop
  endfacet
  facet normal 0 0 -1
    outer loop
      vertex -1.81499 -1.71925 0
      vertex -2.72248 -2.57887 0
      vertex -1.99023 -1.51294 0
    endloop
  endfacet
  facet normal 0 0 -1
    outer loop
      vertex -2.72248 -2.57887 0
      vertex -2.98535 -2.2694 0
      vertex -1.99023 -1.51294 0
    endloop
  endfacet
  facet normal 0 0 -1
    outer loop
      vertex -1.99023 -1.51294 0
      vertex -2.98535 -2.2694 0
      vertex -2.14214 -1.28888 0
    endloop
  endfacet
  facet normal 0 0 -1
    outer loop
      vertex -2.98535 -2.2694 0
      vertex -3.21321 -1.93333 0
      vertex -2.14214 -1.28888 0
    endloop
  endfacet
  facet normal 0 0 -1
    outer loop
      vertex -2.14214 -1.28888 0
      vertex -3.21321 -1.93333 0
      vertex -2.26894 -1.04972 0
    endloop
  endfacet
  facet normal 0 0 -1
    outer loop
      vertex -3.21321 -1.93333 0
      vertex -3.40341 -1.57458 0
      vertex -2.26894 -1.04972 0
    endloop
  endfacet
  facet normal 0 0 -1
    outer loop
      vertex -2.26894 -1.04972 0
      vertex -3.40341 -1.57458 0
      vertex -2.36913 -0.798254 0
    endloop
  endfacet
  facet normal 0 0 -1
    outer loop
      vertex -3.40341 -1.57458 0
      vertex -3.5537 -1.19738 0
      vertex -2.36913 -0.798254 0
    endloop
  endfacet
  facet normal 0 0 -1
    outer loop
      vertex -2.36913 -0.798254 0
      vertex -3.5537 -1.19738 0
      vertex -2.44155 -0.537426 0
    endloop
  endfacet
  facet normal 0 0 -1
    outer loop
      vertex -3.5537 -1.19738 0
      vertex -3.66233 -0.806139 0
      vertex -2.44155 -0.537426 0
    endloop
  endfacet
  facet normal 0 0 -1
    outer loop
      vertex -2.44155 -0.537426 0
      vertex -3.66233 -0.806139 0
      vertex -2.48534 -0.270298 0
    endloop
  endfacet
  facet normal 0 0 -1
    outer loop
      vertex -3.66233 -0.806139 0
      vertex -3.72802 -0.405446 0
      vertex -2.48534 -0.270298 0
    endloop
  endfacet
  facet normal 0 0 -1
    outer loop
      vertex -2.48534 -0.270298 0
      vertex -3.72802 -0.405446 0
      vertex -2.5 1.53081e-16 0
    endloop
  endfacet
  facet normal 0 0 -1
    outer loop
      vertex -3.72802 -0.405446 0
      vertex -3.75 2.29621e-16 0
      vertex -2.5 1.53081e-16 0
    endloop
  endfacet
  facet normal 0 0 -1
    outer loop
      vertex -2.5 1.53081e-16 0
      vertex -3.75 2.29621e-16 0
      vertex -2.48534 0.270298 0
    endloop
  endfacet
  facet normal 0 0 -1
    outer loop
      vertex -3.75 2.29621e-16 0
      vertex -3.72802 0.405446 0
      vertex -2.48534 0.270298 0
    endloop
  endfacet
  facet normal 0 0 -1
    outer loop
      vertex -2.48534 0.270298 0
      vertex -3.72802 0.405446 0
      vertex -2.44155 0.537426 0
    endloop
  endfacet
  facet normal 0 0 -1
    outer loop
      vertex -3.72802 0.405446 0
      vertex -3.66233 0.806139 0
      vertex -2.44155 0.537426 0
    endloop
  endfacet
  facet normal 0 0 -1
    outer loop
      vertex -2.44155 0.537426 0
      vertex -3.66233 0.806139 0
      vertex -2.36913 0.798254 0
    endloop
  endfacet
  facet normal 0 0 -1
    outer loop
      vertex -3.66233 0.806139 0
      vertex -3.5537 1.19738 0
      vertex -2.36913 0.798254 0
    endloop
  endfacet
  facet normal 0 0 -1
    outer loop
      vertex -2.36913 0.798254 0
      vertex -3.5537 1.19738 0
      vertex -2.26894 1.04972 0
    endloop
  endfacet
  facet normal 0 0 -1
    outer loop
      vertex -3.5537 1.19738 0
      vertex -3.40341 1.57458 0
      vertex -2.26894 1.04972 0
    endloop
  endfacet
  facet normal 0 0 -1
    outer loop
      vertex -2.26894 1.04972 0
      vertex -3.40341 1.57458 0
      vertex -2.14214 1.28888 0
    endloop
  endfacet
  facet normal 0 0 -1
    outer loop
      vertex -3.40341 1.57458 0
      vertex -3.21321 1.93333 0
      vertex -2.14214 1.28888 0
    endloop
  endfacet
  facet normal 0 0 -1
    outer loop
      vertex -2.14214 1.28888 0
      vertex -3.21321 1.93333 0
      vertex -1.99023 1.51294 0
    endloop
  endfacet
  facet normal 0 0 -1
    outer loop
      vertex -3.21321 1.93333 0
      vertex -2.98535 2.2694 0
      vertex -1.99023 1.51294 0
    endloop
  endfacet
  facet normal 0 0 -1
    outer loop
      vertex -1.99023 1.51294 0
      vertex -2.98535 2.2694 0
      vertex -1.81499 1.71925 0
    endloop
  endfacet
  facet normal 0 0 -1
    outer loop
      vertex -2.98535 2.2694 0
      vertex -2.72248 2.57887 0
      vertex -1.81499 1.71925 0
    endloop
  endfacet
  facet normal 0 0 -1
    outer loop
      vertex -1.81499 1.71925 0
      vertex -2.72248 2.57887 0
      vertex -1.61847 1.90541 0
    endloop
  endfacet
  facet normal 0 0 -1
    outer loop
      vertex -2.72248 2.57887 0
      vertex -2.4277 2.85811 0
      vertex -1.61847 1.90541 0
    endloop
  endfacet
  facet normal 0 0 -1
    outer loop
      vertex -1.61847 1.90541 0
      vertex -2.4277 2.85811 0
      vertex -1.40297 2.06922 0
    endloop
  endfacet
  facet normal 0 0 -1
    outer loop
      vertex -2.4277 2.85811 0
      vertex -2.10445 3.10383 0
      vertex -1.40297 2.06922 0
    endloop
  endfacet
  facet normal 0 0 -1
    outer loop
      vertex -1.40297 2.06922 0
      vertex -2.10445 3.10383 0
      vertex -1.17102 2.20878 0
    endloop
  endfacet
  facet normal 0 0 -1
    outer loop
      vertex -2.10445 3.10383 0
      vertex -1.75653 3.31317 0
      vertex -1.17102 2.20878 0
    endloop
  endfacet
  facet normal 0 0 -1
    outer loop
      vertex -1.17102 2.20878 0
      vertex -1.75653 3.31317 0
      vertex -0.925345 2.32244 0
    endloop
  endfacet
  facet normal 0 0 -1
    outer loop
      vertex -1.75653 3.31317 0
      vertex -1.38802 3.48366 0
      vertex -0.925345 2.32244 0
    endloop
  endfacet
  facet normal 0 0 -1
    outer loop
      vertex -0.925345 2.32244 0
      vertex -1.38802 3.48366 0
      vertex -0.668821 2.40887 0
    endloop
  endfacet
  facet normal 0 0 -1
    outer loop
      vertex -1.38802 3.48366 0
      vertex -1.00323 3.61331 0
      vertex -0.668821 2.40887 0
    endloop
  endfacet
  facet normal 0 0 -1
    outer loop
      vertex -0.668821 2.40887 0
      vertex -1.00323 3.61331 0
      vertex -0.404455 2.46707 0
    endloop
  endfacet
  facet normal 0 0 -1
    outer loop
      vertex -1.00323 3.61331 0
      vertex -0.606683 3.7006 0
      vertex -0.404455 2.46707 0
    endloop
  endfacet
  facet normal 0 0 -1
    outer loop
      vertex -0.404455 2.46707 0
      vertex -0.606683 3.7006 0
      vertex -0.135347 2.49633 0
    endloop
  endfacet
  facet normal 0 0 -1
    outer loop
      vertex -0.606683 3.7006 0
      vertex -0.203021 3.7445 0
      vertex -0.135347 2.49633 0
    endloop
  endfacet
  facet normal 0 0 -1
    outer loop
      vertex -0.135347 2.49633 0
      vertex -0.203021 3.7445 0
      vertex 0.135347 2.49633 0
    endloop
  endfacet
  facet normal 0 0 -1
    outer loop
      vertex -0.203021 3.7445 0
      vertex 0.203021 3.7445 0
      vertex 0.135347 2.49633 0
    endloop
  endfacet
  facet normal 0 0 -1
    outer loop
      vertex 0.135347 2.49633 0
      vertex 0.203021 3.7445 0
      vertex 0.404455 2.46707 0
    endloop
  endfacet
  facet normal 0 0 -1
    outer loop
      vertex 0.203021 3.7445 0
      vertex 0.606683 3.7006 0
      vertex 0.404455 2.46707 0
    endloop
  endfacet
  facet normal 0 0 -1
    outer loop
      vertex 0.404455 2.46707 0
      vertex 0.606683 3.7006 0
      vertex 0.668821 2.40887 0
    endloop
  endfacet
  facet normal 0 0 -1
    outer loop
      vertex 0.606683 3.7006 0
      vertex 1.00323 3.61331 0
      vertex 0.668821 2.40887 0
    endloop
  endfacet
  facet normal 0 0 -1
    outer loop
      vertex 0.668821 2.40887 0
      vertex 1.00323 3.61331 0
      vertex 0.925345 2.32244 0
    endloop
  endfacet
  facet normal 0 0 -1
    outer loop
      vertex 1.00323 3.61331 0
      vertex 1.38802 3.48366 0
      vertex 0.925345 2.32244 0
    endloop
  endfacet
  facet normal 0 0 -1
    outer loop
      vertex 0.925345 2.32244 0
      vertex 1.38802 3.48366 0
      vertex 1.17102 2.20878 0
    endloop
  endfacet
  facet normal 0 0 -1
    outer loop
      vertex 1.38802 3.48366 0
      vertex 1.75653 3.31317 0
      vertex 1.17102 2.20878 0
    endloop
  endfacet
  facet normal 0 0 -1
    outer loop
      vertex 1.17102 2.20878 0
      vertex 1.75653 3.31317 0
      vertex 1.40297 2.06922 0
    endloop
  endfacet
  facet normal 0 0 -1
    outer loop
      vertex 1.75653 3.31317 0
      vertex 2.10445 3.10383 0
      vertex 1.40297 2.06922 0
    endloop
  endfacet
  facet normal 0 0 -1
    outer loop
      vertex 1.40297 2.06922 0
      vertex 2.10445 3.10383 0
      vertex 1.61847 1.90541 0
    endloop
  endfacet
  facet normal 0 0 -1
    outer loop
      vertex 2.10445 3.10383 0
      vertex 2.4277 2.85811 0
      vertex 1.61847 1.90541 0
    endloop
  endfacet
  facet normal 0 0 -1
    outer loop
      vertex 1.61847 1.90541 0
      vertex 2.4277 2.85811 0
      vertex 1.81499 1.71925 0
    endloop
  endfacet
  facet normal 0 0 -1
    outer loop
      vertex 2.4277 2.85811 0
      vertex 2.72248 2.57887 0
      vertex 1.81499 1.71925 0
    endloop
  endfacet
  facet normal 0 0 -1
    outer loop
      vertex 1.81499 1.71925 0
      vertex 2.72248 2.57887 0
      vertex 1.99023 1.51294 0
    endloop
  endfacet
  facet normal 0 0 -1
    outer loop
      vertex 2.72248 2.57887 0
      vertex 2.98535 2.2694 0
      vertex 1.99023 1.51294 0
    endloop
  endfacet
  facet normal 0 0 -1
    outer loop
      vertex 1.99023 1.51294 0
      vertex 2.98535 2.2694 0
      vertex 2.14214 1.28888 0
    endloop
  endfacet
  facet normal 0 0 -1
    outer loop
      vertex 2.98535 2.2694 0
      vertex 3.21321 1.93333 0
      vertex 2.14214 1.28888 0
    endloop
  endfacet
  facet normal 0 0 -1
    outer loop
      vertex 2.14214 1.28888 0
      vertex 3.21321 1.93333 0
      vertex 2.26894 1.04972 0
    endloop
  endfacet
  facet normal 0 0 -1
    outer loop
      vertex 3.21321 1.93333 0
      vertex 3.40341 1.57458 0
      vertex 2.26894 1.04972 0
    endloop
  endfacet
  facet normal 0 0 1
    outer loop
      vertex 0.135347 2.49633 10
      vertex 0.203021 3.7445 10
      vertex -0.135347 2.49633 10
    endloop
  endfacet
  facet normal 0 0 1
    outer loop
      vertex 0.203021 3.7445 10
      vertex -0.203021 3.7445 10
      vertex -0.135347 2.49633 10
    endloop
  endfacet
  facet normal 0 0 1
    outer loop
      vertex -0.135347 2.49633 10
      vertex -0.203021 3.7445 10
      vertex -0.404455 2.46707 10
    endloop
  endfacet
  facet normal 0 0 1
    outer loop
      vertex -0.203021 3.7445 10
      vertex -0.606683 3.7006 10
      vertex -0.404455 2.46707 10
    endloop
  endfacet
  facet normal 0 0 1
    outer loop
      vertex -0.404455 2.46707 10
      vertex -0.606683 3.7006 10
      vertex -0.668821 2.40887 10
    endloop
  endfacet
  facet normal 0 0 1
    outer loop
      vertex -0.606683 3.7006 10
      vertex -1.00323 3.61331 10
      vertex -0.668821 2.40887 10
    endloop
  endfacet
  facet normal 0 0 1
    outer loop
      vertex -0.668821 2.40887 10
      vertex -1.00323 3.61331 10
      vertex -0.925345 2.32244 10
    endloop
  endfacet
  facet normal 0 0 1
    outer loop
      vertex -1.00323 3.61331 10
      vertex -1.38802 3.48366 10
      vertex -0.925345 2.32244 10
    endloop
  endfacet
  facet normal 0 0 1
    outer loop
      vertex -0.925345 2.32244 10
      vertex -1.38802 3.48366 10
      vertex -1.17102 2.20878 10
    endloop
  endfacet
  facet normal 0 0 1
    outer loop
      vertex -1.38802 3.48366 10
      vertex -1.75653 3.31317 10
      vertex -1.17102 2.20878 10
    endloop
  endfacet
  facet normal 0 0 1
    outer loop
      vertex -1.17102 2.20878 10
      vertex -1.75653 3.31317 10
      vertex -1.40297 2.06922 10
    endloop
  endfacet
  facet normal 0 0 1
    outer loop
      vertex -1.75653 3.31317 10
      vertex -2.10445 3.10383 10
      vertex -1.40297 2.06922 10
    endloop
  endfacet
  facet normal 0 0 1
    outer loop
      vertex -1.40297 2.06922 10
      vertex -2.10445 3.10383 10
      vertex -1.61847 1.90541 10
    endloop
  endfacet
  facet normal 0 0 1
    outer loop
      vertex -2.10445 3.10383 10
      vertex -2.4277 2.85811 10
      vertex -1.61847 1.90541 10
    endloop
  endfacet
  facet normal 0 0 1
    outer loop
      vertex -1.61847 1.90541 10
      vertex -2.4277 2.85811 10
      vertex -1.81499 1.71925 10
    endloop
  endfacet
  facet normal 0 0 1
    outer loop
      vertex -2.4277 2.85811 10
      vertex -2.72248 2.57887 10
      vertex -1.81499 1.71925 10
    endloop
  endfacet
  facet normal 0 0 1
    outer loop
      vertex -1.81499 1.71925 10
      vertex -2.72248 2.57887 10
      vertex -1.99023 1.51294 10
    endloop
  endfacet
  facet normal 0 0 1
    outer loop
      vertex -2.72248 2.57887 10
      vertex -2.98535 2.2694 10
      vertex -1.99023 1.51294 10
    endloop
  endfacet
  facet normal 0 0 1
    outer loop
      vertex -1.99023 1.51294 10
      vertex -2.98535 2.2694 10
      vertex -2.14214 1.28888 10
    endloop
  endfacet
  facet normal 0 0 1
    outer loop
      vertex -2.98535 2.2694 10
      vertex -3.21321 1.93333 10
      vertex -2.14214 1.28888 10
    endloop
  endfacet
  facet normal 0 0 1
    outer loop
      vertex -2.14214 1.28888 10
      vertex -3.21321 1.93333 10
      vertex -2.26894 1.04972 10
    endloop
  endfacet
  facet normal 0 0 1
    outer loop
      vertex -3.21321 1.93333 10
      vertex -3.40341 1.57458 10
      vertex -2.26894 1.04972 10
    endloop
  endfacet
  facet normal 0 0 1
    outer loop
      vertex -2.26894 1.04972 10
      vertex -3.40341 1.57458 10
      vertex -2.36913 0.798254 10
    endloop
  endfacet
  facet normal 0 0 1
    outer loop
      vertex -3.40341 1.57458 10
      vertex -3.5537 1.19738 10
      vertex -2.36913 0.798254 10
    endloop
  endfacet
  facet normal 0 0 1
    outer loop
      vertex -2.36913 0.798254 10
      vertex -3.5537 1.19738 10
      vertex -2.44155 0.537426 10
    endloop
  endfacet
  facet normal 0 0 1
    outer loop
      vertex -3.5537 1.19738 10
      vertex -3.66233 0.806139 10
      vertex -2.44155 0.537426 10
    endloop
  endfacet
  facet normal 0 0 1
    outer loop
      vertex -2.44155 0.537426 10
      vertex -3.66233 0.806139 10
      vertex -2.48534 0.270298 10
    endloop
  endfacet
  facet normal 0 0 1
    outer loop
      vertex -3.66233 0.806139 10
      vertex -3.72802 0.405446 10
      vertex -2.48534 0.270298 10
    endloop
  endfacet
  facet normal 0 0 1
    outer loop
      vertex -2.48534 0.270298 10
      vertex -3.72802 0.405446 10
      vertex -2.5 1.53081e-16 10
    endloop
  endfacet
  facet normal 0 0 1
    outer loop
      vertex -3.72802 0.405446 10
      vertex -3.75 2.29621e-16 10
      vertex -2.5 1.53081e-16 10
    endloop
  endfacet
  facet normal 0 0 1
    outer loop
      vertex -2.5 1.53081e-16 10
      vertex -3.75 2.29621e-16 10
      vertex -2.48534 -0.270298 10
    endloop
  endfacet
  facet normal 0 0 1
    outer loop
      vertex -3.75 2.29621e-16 10
      vertex -3.72802 -0.405446 10
      vertex -2.48534 -0.270298 10
    endloop
  endfacet
  facet normal 0 0 1
    outer loop
      vertex -2.48534 -0.270298 10
      vertex -3.72802 -0.405446 10
      vertex -2.44155 -0.537426 10
    endloop
  endfacet
  facet normal 0 0 1
    outer loop
      vertex -3.72802 -0.405446 10
      vertex -3.66233 -0.806139 10
      vertex -2.44155 -0.537426 10
    endloop
  endfacet
  facet normal 0 0 1
    outer loop
      vertex -2.44155 -0.537426 10
      vertex -3.66233 -0.806139 10
      vertex -2.36913 -0.798254 10
    endloop
  endfacet
  facet normal 0 0 1
    outer loop
      vertex -3.66233 -0.806139 10
      vertex -3.5537 -1.19738 10
      vertex -2.36913 -0.798254 10
    endloop
  endfacet
  facet normal 0 0 1
    outer loop
      vertex -2.36913 -0.798254 10
      vertex -3.5537 -1.19738 10
      vertex -2.26894 -1.04972 10
    endloop
  endfacet
  facet normal 0 0 1
    outer loop
      vertex -3.5537 -1.19738 10
      vertex -3.40341 -1.57458 10
      vertex -2.26894 -1.04972 10
    endloop
  endfacet
  facet normal 0 0 1
    outer loop
      vertex -2.26894 -1.04972 10
      vertex -3.40341 -1.57458 10
      vertex -2.14214 -1.28888 10
    endloop
  endfacet
  facet normal 0 0 1
    outer loop
      vertex -3.40341 -1.57458 10
      vertex -3.21321 -1.93333 10
      vertex -2.14214 -1.28888 10
    endloop
  endfacet
  facet normal 0 0 1
    outer loop
      vertex -2.14214 -1.28888 10
      vertex -3.21321 -1.93333 10
      vertex -1.99023 -1.51294 10
    endloop
  endfacet
  facet normal 0 0 1
    outer loop
      vertex -3.21321 -1.93333 10
      vertex -2.98535 -2.2694 10
      vertex -1.99023 -1.51294 10
    endloop
  endfacet
  facet normal 0 0 1
    outer loop
      vertex -1.99023 -1.51294 10
      vertex -2.98535 -2.2694 10
      vertex -1.81499 -1.71925 10
    endloop
  endfacet
  facet normal 0 0 1
    outer loop
      vertex -2.98535 -2.2694 10
      vertex -2.72248 -2.57887 10
      vertex -1.81499 -1.71925 10
    endloop
  endfacet
  facet normal 0 0 1
    outer loop
      vertex -1.81499 -1.71925 10
      vertex -2.72248 -2.57887 10
      vertex -1.61847 -1.90541 10
    endloop
  endfacet
  facet normal 0 0 1
    outer loop
      vertex -2.72248 -2.57887 10
      vertex -2.4277 -2.85811 10
      vertex -1.61847 -1.90541 10
    endloop
  endfacet
  facet normal 0 0 1
    outer loop
      vertex -1.61847 -1.90541 10
      vertex -2.4277 -2.85811 10
      vertex -1.40297 -2.06922 10
    endloop
  endfacet
  facet normal 0 0 1
    outer loop
      vertex -2.4277 -2.85811 10
      vertex -2.10445 -3.10383 10
      vertex -1.40297 -2.06922 10
    endloop
  endfacet
  facet normal 0 0 1
    outer loop
      vertex -1.40297 -2.06922 10
      vertex -2.10445 -3.10383 10
      vertex -1.17102 -2.20878 10
    endloop
  endfacet
  facet normal 0 0 1
    outer loop
      vertex -2.10445 -3.10383 10
      vertex -1.75653 -3.31317 10
      vertex -1.17102 -2.20878 10
    endloop
  endfacet
  facet normal 0 0 1
    outer loop
      vertex -1.17102 -2.20878 10
      vertex -1.75653 -3.31317 10
      vertex -0.925345 -2.32244 10
    endloop
  endfacet
  facet normal 0 0 1
    outer loop
      vertex -1.75653 -3.31317 10
      vertex -1.38802 -3.48366 10
      vertex -0.925345 -2.32244 10
    endloop
  endfacet
  facet normal 0 0 1
    outer loop
      vertex -0.925345 -2.32244 10
      vertex -1.38802 -3.48366 10
      vertex -0.668821 -2.40887 10
    endloop
  endfacet
  facet normal 0 0 1
    outer loop
      vertex -1.38802 -3.48366 10
      vertex -1.00323 -3.61331 10
      vertex -0.668821 -2.40887 10
    endloop
  endfacet
  facet normal 0 0 1
    outer loop
      vertex -0.668821 -2.40887 10
      vertex -1.00323 -3.61331 10
      vertex -0.404455 -2.46707 10
    endloop
  endfacet
  facet normal 0 0 1
    outer loop
      vertex -1.00323 -3.61331 10
      vertex -0.606683 -3.7006 10
      vertex -0.404455 -2.46707 10
    endloop
  endfacet
  facet normal 0 0 1
    outer loop
      vertex -0.404455 -2.46707 10
      vertex -0.606683 -3.7006 10
      vertex -0.135347 -2.49633 10
    endloop
  endfacet
  facet normal 0 0 1
    outer loop
      vertex -0.606683 -3.7006 10
      vertex -0.203021 -3.7445 10
      vertex -0.135347 -2.49633 10
    endloop
  endfacet
  facet normal 0 0 1
    outer loop
      vertex -0.135347 -2.49633 10
      vertex -0.203021 -3.7445 10
      vertex 0.135347 -2.49633 10
    endloop
  endfacet
  facet normal 0 0 1
    outer loop
      vertex -0.203021 -3.7445 10
      vertex 0.203021 -3.7445 10
      vertex 0.135347 -2.49633 10
    endloop
  endfacet
  facet normal 0 0 1
    outer loop
      vertex 0.135347 -2.49633 10
      vertex 0.203021 -3.7445 10
      vertex 0.404455 -2.46707 10
    endloop
  endfacet
  facet normal 0 0 1
    outer loop
      vertex 0.203021 -3.7445 10
      vertex 0.606683 -3.7006 10
      vertex 0.404455 -2.46707 10
    endloop
  endfacet
  facet normal 0 0 1
    outer loop
      vertex 0.404455 -2.46707 10
      vertex 0.606683 -3.7006 10
      vertex 0.668821 -2.40887 10
    endloop
  endfacet
  facet normal 0 0 1
    outer loop
      vertex 0.606683 -3.7006 10
      vertex 1.00323 -3.61331 10
      vertex 0.668821 -2.40887 10
    endloop
  endfacet
  facet normal 0 0 1
    outer loop
      vertex 0.668821 -2.40887 10
      vertex 1.00323 -3.61331 10
      vertex 0.925345 -2.32244 10
    endloop
  endfacet
  facet normal 0 0 1
    outer loop
      vertex 1.00323 -3.61331 10
      vertex 1.38802 -3.48366 10
      vertex 0.925345 -2.32244 10
    endloop
  endfacet
  facet normal 0 0 1
    outer loop
      vertex 0.925345 -2.32244 10
      vertex 1.38802 -3.48366 10
      vertex 1.17102 -2.20878 10
    endloop
  endfacet
  facet normal 0 0 1
    outer loop
      vertex 1.38802 -3.48366 10
      vertex 1.75653 -3.31317 10
      vertex 1.17102 -2.20878 10
    endloop
  endfacet
  facet normal 0 0 1
    outer loop
      vertex 1.17102 -2.20878 10
      vertex 1.75653 -3.31317 10
      vertex 1.40297 -2.06922 10
    endloop
  endfacet
  facet normal 0 0 1
    outer loop
      vertex 1.75653 -3.31317 10
      vertex 2.10445 -3.10383 10
      vertex 1.40297 -2.06922 10
    endloop
  endfacet
  facet normal 0 0 1
    outer loop
      vertex 1.40297 -2.06922 10
      vertex 2.10445 -3.10383 10
      vertex 1.61847 -1.90541 10
    endloop
  endfacet
  facet normal 0 0 1
    outer loop
      vertex 2.10445 -3.10383 10
      vertex 2.4277 -2.85811 10
      vertex 1.61847 -1.90541 10
    endloop
  endfacet
  facet normal 0 0 1
    outer loop
      vertex 1.61847 -1.90541 10
      vertex 2.4277 -2.85811 10
      vertex 1.81499 -1.71925 10
    endloop
  endfacet
  facet normal 0 0 1
    outer loop
      vertex 2.4277 -2.85811 10
      vertex 2.72248 -2.57887 10
      vertex 1.81499 -1.71925 10
    endloop
  endfacet
  facet normal 0 0 1
    outer loop
      vertex 1.81499 -1.71925 10
      vertex 2.72248 -2.57887 10
      vertex 1.99023 -1.51294 10
    endloop
  endfacet
  facet normal 0 0 1
    outer loop
      vertex 2.72248 -2.57887 10
      vertex 2.98535 -2.2694 10
      vertex 1.99023 -1.51294 10
    endloop
  endfacet
  facet normal 0 0 1
    outer loop
      vertex 1.99023 -1.51294 10
      vertex 2.98535 -2.2694 10
      vertex 2.14214 -1.28888 10
    endloop
  endfacet
  facet normal 0 0 1
    outer loop
      vertex 2.98535 -2.2694 10
      vertex 3.21321 -1.93333 10
      vertex 2.14214 -1.28888 10
    endloop
  endfacet
  facet normal 0 0 1
    outer loop
      vertex 2.14214 -1.28888 10
      vertex 3.21321 -1.93333 10
      vertex 2.26894 -1.04972 10
    endloop
  endfacet
  facet normal 0 0 1
    outer loop
      vertex 3.21321 -1.93333 10
      vertex 3.40341 -1.57458 10
      vertex 2.26894 -1.04972 10
    endloop
  endfacet
  facet normal 0 0 1
    outer loop
      vertex 2.26894 -1.04972 10
      vertex 3.40341 -1.57458 10
      vertex 2.36913 -0.798254 10
    endloop
  endfacet
  facet normal 0 0 1
    outer loop
      vertex 3.40341 -1.57458 10
      vertex 3.5537 -1.19738 10
      vertex 2.36913 -0.798254 10
    endloop
  endfacet
  facet normal 0 0 1
    outer loop
      vertex 2.36913 -0.798254 10
      vertex 3.5537 -1.19738 10
      vertex 2.44155 -0.537426 10
    endloop
  endfacet
  facet normal 0 0 1
    outer loop
      vertex 3.5537 -1.19738 10
      vertex 3.66233 -0.806139 10
      vertex 2.44155 -0.537426 10
    endloop
  endfacet
  facet normal 0 0 1
    outer loop
      vertex 2.44155 -0.537426 10
      vertex 3.66233 -0.806139 10
      vertex 2.48534 -0.270298 10
    endloop
  endfacet
  facet normal 0 0 1
    outer loop
      vertex 3.66233 -0.806139 10
      vertex 3.72802 -0.405446 10
      vertex 2.48534 -0.270298 10
    endloop
  endfacet
  facet normal 0 0 1
    outer loop
      vertex 2.48534 -0.270298 10
      vertex 3.72802 -0.405446 10
      vertex 2.5 4.59243e-16 10
    endloop
  endfacet
  facet normal 0 0 1
    outer loop
      vertex 3.72802 -0.405446 10
      vertex 3.75 1.60735e-15 10
      vertex 2.5 4.59243e-16 10
    endloop
  endfacet
  facet normal 0 0 1
    outer loop
      vertex 2.5 4.59243e-16 10
      vertex 3.75 1.60735e-15 10
      vertex 2.48534 0.270298 10
    endloop
  endfacet
  facet normal 0 0 1
    outer loop
      vertex 3.75 1.60735e-15 10
      vertex 3.72802 0.405446 10
      vertex 2.48534 0.270298 10
    endloop
  endfacet
  facet normal 0 0 1
    outer loop
      vertex 2.48534 0.270298 10
      vertex 3.72802 0.405446 10
      vertex 2.44155 0.537426 10
    endloop
  endfacet
  facet normal 0 0 1
    outer loop
      vertex 3.72802 0.405446 10
      vertex 3.66233 0.806139 10
      vertex 2.44155 0.537426 10
    endloop
  endfacet
  facet normal 0 0 1
    outer loop
      vertex 2.44155 0.537426 10
      vertex 3.66233 0.806139 10
      vertex 2.36913 0.798254 10
    endloop
  endfacet
  facet normal 0 0 1
    outer loop
      vertex 3.66233 0.806139 10
      vertex 3.5537 1.19738 10
      vertex 2.36913 0.798254 10
    endloop
  endfacet
  facet normal 0 0 1
    outer loop
      vertex 2.36913 0.798254 10
      vertex 3.5537 1.19738 10
      vertex 2.26894 1.04972 10
    endloop
  endfacet
  facet normal 0 0 1
    outer loop
      vertex 3.5537 1.19738 10
      vertex 3.40341 1.57458 10
      vertex 2.26894 1.04972 10
    endloop
  endfacet
  facet normal 0 0 1
    outer loop
      vertex 2.26894 1.04972 10
      vertex 3.40341 1.57458 10
      vertex 2.14214 1.28888 10
    endloop
  endfacet
  facet normal 0 0 1
    outer loop
      vertex 3.40341 1.57458 10
      vertex 3.21321 1.93333 10
      vertex 2.14214 1.28888 10
    endloop
  endfacet
  facet normal 0 0 1
    outer loop
      vertex 2.14214 1.28888 10
      vertex 3.21321 1.93333 10
      vertex 1.99023 1.51294 10
    endloop
  endfacet
  facet normal 0 0 1
    outer loop
      vertex 3.21321 1.93333 10
      vertex 2.98535 2.2694 10
      vertex 1.99023 1.51294 10
    endloop
  endfacet
  facet normal 0 0 1
    outer loop
      vertex 1.99023 1.51294 10
      vertex 2.98535 2.2694 10
      vertex 1.81499 1.71925 10
    endloop
  endfacet
  facet normal 0 0 1
    outer loop
      vertex 2.98535 2.2694 10
      vertex 2.72248 2.57887 10
      vertex 1.81499 1.71925 10
    endloop
  endfacet
  facet normal 0 0 1
    outer loop
      vertex 1.81499 1.71925 10
      vertex 2.72248 2.57887 10
      vertex 1.61847 1.90541 10
    endloop
  endfacet
  facet normal 0 0 1
    outer loop
      vertex 2.72248 2.57887 10
      vertex 2.4277 2.85811 10
      vertex 1.61847 1.90541 10
    endloop
  endfacet
  facet normal 0 0 1
    outer loop
      vertex 1.61847 1.90541 10
      vertex 2.4277 2.85811 10
      vertex 1.40297 2.06922 10
    endloop
  endfacet
  facet normal 0 0 1
    outer loop
      vertex 2.4277 2.85811 10
      vertex 2.10445 3.10383 10
      vertex 1.40297 2.06922 10
    endloop
  endfacet
  facet normal 0 0 1
    outer loop
      vertex 1.40297 2.06922 10
      vertex 2.10445 3.10383 10
      vertex 1.17102 2.20878 10
    endloop
  endfacet
  facet normal 0 0 1
    outer loop
      vertex 2.10445 3.10383 10
      vertex 1.75653 3.31317 10
      vertex 1.17102 2.20878 10
    endloop
  endfacet
  facet normal 0 0 1
    outer loop
      vertex 1.17102 2.20878 10
      vertex 1.75653 3.31317 10
      vertex 0.925345 2.32244 10
    endloop
  endfacet
  facet normal 0 0 1
    outer loop
      vertex 1.75653 3.31317 10
      vertex 1.38802 3.48366 10
      vertex 0.925345 2.32244 10
    endloop
  endfacet
  facet normal 0 0 1
    outer loop
      vertex 0.925345 2.32244 10
      vertex 1.38802 3.48366 10
      vertex 0.668821 2.40887 10
    endloop
  endfacet
  facet normal 0 0 1
    outer loop
      vertex 1.38802 3.48366 10
      vertex 1.00323 3.61331 10
      vertex 0.668821 2.40887 10
    endloop
  endfacet
  facet normal 0 0 1
    outer loop
      vertex 0.668821 2.40887 10
      vertex 1.00323 3.61331 10
      vertex 0.404455 2.46707 10
    endloop
  endfacet
  facet normal 0 0 1
    outer loop
      vertex 1.00323 3.61331 10
      vertex 0.606683 3.7006 10
      vertex 0.404455 2.46707 10
    endloop
  endfacet
  facet normal 0 0 1
    outer loop
      vertex 0.404455 2.46707 10
      vertex 0.606683 3.7006 10
      vertex 0.135347 2.49633 10
    endloop
  endfacet
  facet normal 0 0 1
    outer loop
      vertex 0.606683 3.7006 10
      vertex 0.203021 3.7445 10
      vertex 0.135347 2.49633 10
    endloop
  endfacet
  facet normal 0.998533 -0.0541387 0
    outer loop
      vertex -2.5 1.53081e-16 10
      vertex -2.5 1.53081e-16 0
      vertex -2.48534 0.270298 10
    endloop
  endfacet
  facet normal 0.998533 -0.0541387 0
    outer loop
      vertex -2.5 1.53081e-16 0
      vertex -2.48534 0.270298 0
      vertex -2.48534 0.270298 10
    endloop
  endfacet
  facet normal 0.986826 -0.161782 0
    outer loop
      vertex -2.48534 0.270298 10
      vertex -2.48534 0.270298 0
      vertex -2.44155 0.537426 10
    endloop
  endfacet
  facet normal 0.986826 -0.161782 0
    outer loop
      vertex -2.48534 0.270298 0
      vertex -2.44155 0.537426 0
      vertex -2.44155 0.537426 10
    endloop
  endfacet
  facet normal 0.96355 -0.267528 0
    outer loop
      vertex -2.44155 0.537426 10
      vertex -2.44155 0.537426 0
      vertex -2.36913 0.798254 10
    endloop
  endfacet
  facet normal 0.96355 -0.267528 0
    outer loop
      vertex -2.44155 0.537426 0
      vertex -2.36913 0.798254 0
      vertex -2.36913 0.798254 10
    endloop
  endfacet
  facet normal 0.928977 -0.370138 0
    outer loop
      vertex -2.36913 0.798254 10
      vertex -2.36913 0.798254 0
      vertex -2.26894 1.04972 10
    endloop
  endfacet
  facet normal 0.928977 -0.370138 0
    outer loop
      vertex -2.36913 0.798254 0
      vertex -2.26894 1.04972 0
      vertex -2.26894 1.04972 10
    endloop
  endfacet
  facet normal 0.883512 -0.468408 0
    outer loop
      vertex -2.26894 1.04972 10
      vertex -2.26894 1.04972 0
      vertex -2.14214 1.28888 10
    endloop
  endfacet
  facet normal 0.883512 -0.468408 0
    outer loop
      vertex -2.26894 1.04972 0
      vertex -2.14214 1.28888 0
      vertex -2.14214 1.28888 10
    endloop
  endfacet
  facet normal 0.827689 -0.561187 0
    outer loop
      vertex -2.14214 1.28888 10
      vertex -2.14214 1.28888 0
      vertex -1.99023 1.51294 10
    endloop
  endfacet
  facet normal 0.827689 -0.561187 0
    outer loop
      vertex -2.14214 1.28888 0
      vertex -1.99023 1.51294 0
      vertex -1.99023 1.51294 10
    endloop
  endfacet
  facet normal 0.762162 -0.647386 0
    outer loop
      vertex -1.99023 1.51294 10
      vertex -1.99023 1.51294 0
      vertex -1.81499 1.71925 10
    endloop
  endfacet
  facet normal 0.762162 -0.647386 0
    outer loop
      vertex -1.99023 1.51294 0
      vertex -1.81499 1.71925 0
      vertex -1.81499 1.71925 10
    endloop
  endfacet
  facet normal 0.6877 -0.725995 0
    outer loop
      vertex -1.81499 1.71925 10
      vertex -1.81499 1.71925 0
      vertex -1.61847 1.90541 10
    endloop
  endfacet
  facet normal 0.6877 -0.725995 0
    outer loop
      vertex -1.81499 1.71925 0
      vertex -1.61847 1.90541 0
      vertex -1.61847 1.90541 10
    endloop
  endfacet
  facet normal 0.605174 -0.796093 0
    outer loop
      vertex -1.61847 1.90541 10
      vertex -1.61847 1.90541 0
      vertex -1.40297 2.06922 10
    endloop
  endfacet
  facet normal 0.605174 -0.796093 0
    outer loop
      vertex -1.61847 1.90541 0
      vertex -1.40297 2.06922 0
      vertex -1.40297 2.06922 10
    endloop
  endfacet
  facet normal 0.515554 -0.856857 0
    outer loop
      vertex -1.40297 2.06922 10
      vertex -1.40297 2.06922 0
      vertex -1.17102 2.20878 10
    endloop
  endfacet
  facet normal 0.515554 -0.856857 0
    outer loop
      vertex -1.40297 2.06922 0
      vertex -1.17102 2.20878 0
      vertex -1.17102 2.20878 10
    endloop
  endfacet
  facet normal 0.41989 -0.907575 0
    outer loop
      vertex -1.17102 2.20878 10
      vertex -1.17102 2.20878 0
      vertex -0.925345 2.32244 10
    endloop
  endfacet
  facet normal 0.41989 -0.907575 0
    outer loop
      vertex -1.17102 2.20878 0
      vertex -0.925345 2.32244 0
      vertex -0.925345 2.32244 10
    endloop
  endfacet
  facet normal 0.319301 -0.947653 0
    outer loop
      vertex -0.925345 2.32244 10
      vertex -0.925345 2.32244 0
      vertex -0.668821 2.40887 10
    endloop
  endfacet
  facet normal 0.319301 -0.947653 0
    outer loop
      vertex -0.925345 2.32244 0
      vertex -0.668821 2.40887 0
      vertex -0.668821 2.40887 10
    endloop
  endfacet
  facet normal 0.214971 -0.976621 0
    outer loop
      vertex -0.668821 2.40887 10
      vertex -0.668821 2.40887 0
      vertex -0.404455 2.46707 10
    endloop
  endfacet
  facet normal 0.214971 -0.976621 0
    outer loop
      vertex -0.668821 2.40887 0
      vertex -0.404455 2.46707 0
      vertex -0.404455 2.46707 10
    endloop
  endfacet
  facet normal 0.108119 -0.994138 0
    outer loop
      vertex -0.404455 2.46707 10
      vertex -0.404455 2.46707 0
      vertex -0.135347 2.49633 10
    endloop
  endfacet
  facet normal 0.108119 -0.994138 0
    outer loop
      vertex -0.404455 2.46707 0
      vertex -0.135347 2.49633 0
      vertex -0.135347 2.49633 10
    endloop
  endfacet
  facet normal 0 -1 0
    outer loop
      vertex -0.135347 2.49633 10
      vertex -0.135347 2.49633 0
      vertex 0.135347 2.49633 10
    endloop
  endfacet
  facet normal 0 -1 0
    outer loop
      vertex -0.135347 2.49633 0
      vertex 0.135347 2.49633 0
      vertex 0.135347 2.49633 10
    endloop
  endfacet
  facet normal -0.108119 -0.994138 0
    outer loop
      vertex 0.135347 2.49633 10
      vertex 0.135347 2.49633 0
      vertex 0.404455 2.46707 10
    endloop
  endfacet
  facet normal -0.108119 -0.994138 0
    outer loop
      vertex 0.135347 2.49633 0
      vertex 0.404455 2.46707 0
      vertex 0.404455 2.46707 10
    endloop
  endfacet
  facet normal -0.214971 -0.976621 0
    outer loop
      vertex 0.404455 2.46707 10
      vertex 0.404455 2.46707 0
      vertex 0.668821 2.40887 10
    endloop
  endfacet
  facet normal -0.214971 -0.976621 0
    outer loop
      vertex 0.404455 2.46707 0
      vertex 0.668821 2.40887 0
      vertex 0.668821 2.40887 10
    endloop
  endfacet
  facet normal -0.319301 -0.947653 0
    outer loop
      vertex 0.668821 2.40887 10
      vertex 0.668821 2.40887 0
      vertex 0.925345 2.32244 10
    endloop
  endfacet
  facet normal -0.319301 -0.947653 0
    outer loop
      vertex 0.668821 2.40887 0
      vertex 0.925345 2.32244 0
      vertex 0.925345 2.32244 10
    endloop
  endfacet
  facet normal -0.41989 -0.907575 0
    outer loop
      vertex 0.925345 2.32244 10
      vertex 0.925345 2.32244 0
      vertex 1.17102 2.20878 10
    endloop
  endfacet
  facet normal -0.41989 -0.907575 0
    outer loop
      vertex 0.925345 2.32244 0
      vertex 1.17102 2.20878 0
      vertex 1.17102 2.20878 10
    endloop
  endfacet
  facet normal -0.515554 -0.856857 0
    outer loop
      vertex 1.17102 2.20878 10
      vertex 1.17102 2.20878 0
      vertex 1.40297 2.06922 10
    endloop
  endfacet
  facet normal -0.515554 -0.856857 0
    outer loop
      vertex 1.17102 2.20878 0
      vertex 1.40297 2.06922 0
      vertex 1.40297 2.06922 10
    endloop
  endfacet
  facet normal -0.605174 -0.796093 0
    outer loop
      vertex 1.40297 2.06922 10
      vertex 1.40297 2.06922 0
      vertex 1.61847 1.90541 10
    endloop
  endfacet
  facet normal -0.605174 -0.796093 0
    outer loop
      vertex 1.40297 2.06922 0
      vertex 1.61847 1.90541 0
      vertex 1.61847 1.90541 10
    endloop
  endfacet
  facet normal -0.6877 -0.725995 0
    outer loop
      vertex 1.61847 1.90541 10
      vertex 1.61847 1.90541 0
      vertex 1.81499 1.71925 10
    endloop
  endfacet
  facet normal -0.6877 -0.725995 0
    outer loop
      vertex 1.61847 1.90541 0
      vertex 1.81499 1.71925 0
      vertex 1.81499 1.71925 10
    endloop
  endfacet
  facet normal -0.762162 -0.647386 0
    outer loop
      vertex 1.81499 1.71925 10
      vertex 1.81499 1.71925 0
      vertex 1.99023 1.51294 10
    endloop
  endfacet
  facet normal -0.762162 -0.647386 0
    outer loop
      vertex 1.81499 1.71925 0
      vertex 1.99023 1.51294 0
      vertex 1.99023 1.51294 10
    endloop
  endfacet
  facet normal -0.827689 -0.561187 0
    outer loop
      vertex 1.99023 1.51294 10
      vertex 1.99023 1.51294 0
      vertex 2.14214 1.28888 10
    endloop
  endfacet
  facet normal -0.827689 -0.561187 0
    outer loop
      vertex 1.99023 1.51294 0
      vertex 2.14214 1.28888 0
      vertex 2.14214 1.28888 10
    endloop
  endfacet
  facet normal -0.883512 -0.468408 0
    outer loop
      vertex 2.14214 1.28888 10
      vertex 2.14214 1.28888 0
      vertex 2.26894 1.04972 10
    endloop
  endfacet
  facet normal -0.883512 -0.468408 0
    outer loop
      vertex 2.14214 1.28888 0
      vertex 2.26894 1.04972 0
      vertex 2.26894 1.04972 10
    endloop
  endfacet
  facet normal -0.928977 -0.370138 0
    outer loop
      vertex 2.26894 1.04972 10
      vertex 2.26894 1.04972 0
      vertex 2.36913 0.798254 10
    endloop
  endfacet
  facet normal -0.928977 -0.370138 0
    outer loop
      vertex 2.26894 1.04972 0
      vertex 2.36913 0.798254 0
      vertex 2.36913 0.798254 10
    endloop
  endfacet
  facet normal -0.96355 -0.267528 0
    outer loop
      vertex 2.36913 0.798254 10
      vertex 2.36913 0.798254 0
      vertex 2.44155 0.537426 10
    endloop
  endfacet
  facet normal -0.96355 -0.267528 0
    outer loop
      vertex 2.36913 0.798254 0
      vertex 2.44155 0.537426 0
      vertex 2.44155 0.537426 10
    endloop
  endfacet
  facet normal -0.986826 -0.161782 0
    outer loop
      vertex 2.44155 0.537426 10
      vertex 2.44155 0.537426 0
      vertex 2.48534 0.270298 10
    endloop
  endfacet
  facet normal -0.986826 -0.161782 0
    outer loop
      vertex 2.44155 0.537426 0
      vertex 2.48534 0.270298 0
      vertex 2.48534 0.270298 10
    endloop
  endfacet
  facet normal -0.998533 -0.0541387 0
    outer loop
      vertex 2.48534 0.270298 10
      vertex 2.48534 0.270298 0
      vertex 2.5 4.59243e-16 10
    endloop
  endfacet
  facet normal -0.998533 -0.0541387 -3.36135e-18
    outer loop
      vertex 2.48534 0.270298 0
      vertex 2.5 1.07157e-15 0
      vertex 2.5 4.59243e-16 10
    endloop
  endfacet
  facet normal -0.998533 0.0541387 3.31504e-18
    outer loop
      vertex 2.5 4.59243e-16 10
      vertex 2.5 1.07157e-15 0
      vertex 2.48534 -0.270298 10
    endloop
  endfacet
  facet normal -0.998533 0.0541387 0
    outer loop
      vertex 2.5 1.07157e-15 0
      vertex 2.48534 -0.270298 0
      vertex 2.48534 -0.270298 10
    endloop
  endfacet
  facet normal -0.986826 0.161782 0
    outer loop
      vertex 2.48534 -0.270298 10
      vertex 2.48534 -0.270298 0
      vertex 2.44155 -0.537426 10
    endloop
  endfacet
  facet normal -0.986826 0.161782 0
    outer loop
      vertex 2.48534 -0.270298 0
      vertex 2.44155 -0.537426 0
      vertex 2.44155 -0.537426 10
    endloop
  endfacet
  facet normal -0.96355 0.267528 0
    outer loop
      vertex 2.44155 -0.537426 10
      vertex 2.44155 -0.537426 0
      vertex 2.36913 -0.798254 10
    endloop
  endfacet
  facet normal -0.96355 0.267528 0
    outer loop
      vertex 2.44155 -0.537426 0
      vertex 2.36913 -0.798254 0
      vertex 2.36913 -0.798254 10
    endloop
  endfacet
  facet normal -0.928977 0.370138 0
    outer loop
      vertex 2.36913 -0.798254 10
      vertex 2.36913 -0.798254 0
      vertex 2.26894 -1.04972 10
    endloop
  endfacet
  facet normal -0.928977 0.370138 0
    outer loop
      vertex 2.36913 -0.798254 0
      vertex 2.26894 -1.04972 0
      vertex 2.26894 -1.04972 10
    endloop
  endfacet
  facet normal -0.883512 0.468408 0
    outer loop
      vertex 2.26894 -1.04972 10
      vertex 2.26894 -1.04972 0
      vertex 2.14214 -1.28888 10
    endloop
  endfacet
  facet normal -0.883512 0.468408 0
    outer loop
      vertex 2.26894 -1.04972 0
      vertex 2.14214 -1.28888 0
      vertex 2.14214 -1.28888 10
    endloop
  endfacet
  facet normal -0.827689 0.561187 0
    outer loop
      vertex 2.14214 -1.28888 10
      vertex 2.14214 -1.28888 0
      vertex 1.99023 -1.51294 10
    endloop
  endfacet
  facet normal -0.827689 0.561187 0
    outer loop
      vertex 2.14214 -1.28888 0
      vertex 1.99023 -1.51294 0
      vertex 1.99023 -1.51294 10
    endloop
  endfacet
  facet normal -0.762162 0.647386 0
    outer loop
      vertex 1.99023 -1.51294 10
      vertex 1.99023 -1.51294 0
      vertex 1.81499 -1.71925 10
    endloop
  endfacet
  facet normal -0.762162 0.647386 0
    outer loop
      vertex 1.99023 -1.51294 0
      vertex 1.81499 -1.71925 0
      vertex 1.81499 -1.71925 10
    endloop
  endfacet
  facet normal -0.6877 0.725995 0
    outer loop
      vertex 1.81499 -1.71925 10
      vertex 1.81499 -1.71925 0
      vertex 1.61847 -1.90541 10
    endloop
  endfacet
  facet normal -0.6877 0.725995 0
    outer loop
      vertex 1.81499 -1.71925 0
      vertex 1.61847 -1.90541 0
      vertex 1.61847 -1.90541 10
    endloop
  endfacet
  facet normal -0.605174 0.796093 0
    outer loop
      vertex 1.61847 -1.90541 10
      vertex 1.61847 -1.90541 0
      vertex 1.40297 -2.06922 10
    endloop
  endfacet
  facet normal -0.605174 0.796093 0
    outer loop
      vertex 1.61847 -1.90541 0
      vertex 1.40297 -2.06922 0
      vertex 1.40297 -2.06922 10
    endloop
  endfacet
  facet normal -0.515554 0.856857 0
    outer loop
      vertex 1.40297 -2.06922 10
      vertex 1.40297 -2.06922 0
      vertex 1.17102 -2.20878 10
    endloop
  endfacet
  facet normal -0.515554 0.856857 0
    outer loop
      vertex 1.40297 -2.06922 0
      vertex 1.17102 -2.20878 0
      vertex 1.17102 -2.20878 10
    endloop
  endfacet
  facet normal -0.41989 0.907575 0
    outer loop
      vertex 1.17102 -2.20878 10
      vertex 1.17102 -2.20878 0
      vertex 0.925345 -2.32244 10
    endloop
  endfacet
  facet normal -0.41989 0.907575 0
    outer loop
      vertex 1.17102 -2.20878 0
      vertex 0.925345 -2.32244 0
      vertex 0.925345 -2.32244 10
    endloop
  endfacet
  facet normal -0.319301 0.947653 0
    outer loop
      vertex 0.925345 -2.32244 10
      vertex 0.925345 -2.32244 0
      vertex 0.668821 -2.40887 10
    endloop
  endfacet
  facet normal -0.319301 0.947653 0
    outer loop
      vertex 0.925345 -2.32244 0
      vertex 0.668821 -2.40887 0
      vertex 0.668821 -2.40887 10
    endloop
  endfacet
  facet normal -0.214971 0.976621 0
    outer loop
      vertex 0.668821 -2.40887 10
      vertex 0.668821 -2.40887 0
      vertex 0.404455 -2.46707 10
    endloop
  endfacet
  facet normal -0.214971 0.976621 0
    outer loop
      vertex 0.668821 -2.40887 0
      vertex 0.404455 -2.46707 0
      vertex 0.404455 -2.46707 10
    endloop
  endfacet
  facet normal -0.108119 0.994138 0
    outer loop
      vertex 0.404455 -2.46707 10
      vertex 0.404455 -2.46707 0
      vertex 0.135347 -2.49633 10
    endloop
  endfacet
  facet normal -0.108119 0.994138 0
    outer loop
      vertex 0.404455 -2.46707 0
      vertex 0.135347 -2.49633 0
      vertex 0.135347 -2.49633 10
    endloop
  endfacet
  facet normal 0 1 0
    outer loop
      vertex 0.135347 -2.49633 10
      vertex 0.135347 -2.49633 0
      vertex -0.135347 -2.49633 10
    endloop
  endfacet
  facet normal 0 1 0
    outer loop
      vertex 0.135347 -2.49633 0
      vertex -0.135347 -2.49633 0
      vertex -0.135347 -2.49633 10
    endloop
  endfacet
  facet normal 0.108119 0.994138 0
    outer loop
      vertex -0.135347 -2.49633 10
      vertex -0.135347 -2.49633 0
      vertex -0.404455 -2.46707 10
    endloop
  endfacet
  facet normal 0.108119 0.994138 0
    outer loop
      vertex -0.135347 -2.49633 0
      vertex -0.404455 -2.46707 0
      vertex -0.404455 -2.46707 10
    endloop
  endfacet
  facet normal 0.214971 0.976621 0
    outer loop
      vertex -0.404455 -2.46707 10
      vertex -0.404455 -2.46707 0
      vertex -0.668821 -2.40887 10
    endloop
  endfacet
  facet normal 0.214971 0.976621 0
    outer loop
      vertex -0.404455 -2.46707 0
      vertex -0.668821 -2.40887 0
      vertex -0.668821 -2.40887 10
    endloop
  endfacet
  facet normal 0.319301 0.947653 0
    outer loop
      vertex -0.668821 -2.40887 10
      vertex -0.668821 -2.40887 0
      vertex -0.925345 -2.32244 10
    endloop
  endfacet
  facet normal 0.319301 0.947653 0
    outer loop
      vertex -0.668821 -2.40887 0
      vertex -0.925345 -2.32244 0
      vertex -0.925345 -2.32244 10
    endloop
  endfacet
  facet normal 0.41989 0.907575 0
    outer loop
      vertex -0.925345 -2.32244 10
      vertex -0.925345 -2.32244 0
      vertex -1.17102 -2.20878 10
    endloop
  endfacet
  facet normal 0.41989 0.907575 0
    outer loop
      vertex -0.925345 -2.32244 0
      vertex -1.17102 -2.20878 0
      vertex -1.17102 -2.20878 10
    endloop
  endfacet
  facet normal 0.515554 0.856857 0
    outer loop
      vertex -1.17102 -2.20878 10
      vertex -1.17102 -2.20878 0
      vertex -1.40297 -2.06922 10
    endloop
  endfacet
  facet normal 0.515554 0.856857 0
    outer loop
      vertex -1.17102 -2.20878 0
      vertex -1.40297 -2.06922 0
      vertex -1.40297 -2.06922 10
    endloop
  endfacet
  facet normal 0.605174 0.796093 0
    outer loop
      vertex -1.40297 -2.06922 10
      vertex -1.40297 -2.06922 0
      vertex -1.61847 -1.90541 10
    endloop
  endfacet
  facet normal 0.605174 0.796093 0
    outer loop
      vertex -1.40297 -2.06922 0
      vertex -1.61847 -1.90541 0
      vertex -1.61847 -1.90541 10
    endloop
  endfacet
  facet normal 0.6877 0.725995 0
    outer loop
      vertex -1.61847 -1.90541 10
      vertex -1.61847 -1.90541 0
      vertex -1.81499 -1.71925 10
    endloop
  endfacet
  facet normal 0.6877 0.725995 0
    outer loop
      vertex -1.61847 -1.90541 0
      vertex -1.81499 -1.71925 0
      vertex -1.81499 -1.71925 10
    endloop
  endfacet
  facet normal 0.762162 0.647386 0
    outer loop
      vertex -1.81499 -1.71925 10
      vertex -1.81499 -1.71925 0
      vertex -1.99023 -1.51294 10
    endloop
  endfacet
  facet normal 0.762162 0.647386 0
    outer loop
      vertex -1.81499 -1.71925 0
      vertex -1.99023 -1.51294 0
      vertex -1.99023 -1.51294 10
    endloop
  endfacet
  facet normal 0.827689 0.561187 0
    outer loop
      vertex -1.99023 -1.51294 10
      vertex -1.99023 -1.51294 0
      vertex -2.14214 -1.28888 10
    endloop
  endfacet
  facet normal 0.827689 0.561187 0
    outer loop
      vertex -1.99023 -1.51294 0
      vertex -2.14214 -1.28888 0
      vertex -2.14214 -1.28888 10
    endloop
  endfacet
  facet normal 0.883512 0.468408 0
    outer loop
      vertex -2.14214 -1.28888 10
      vertex -2.14214 -1.28888 0
      vertex -2.26894 -1.04972 10
    endloop
  endfacet
  facet normal 0.883512 0.468408 0
    outer loop
      vertex -2.14214 -1.28888 0
      vertex -2.26894 -1.04972 0
      vertex -2.26894 -1.04972 10
    endloop
  endfacet
  facet normal 0.928977 0.370138 0
    outer loop
      vertex -2.26894 -1.04972 10
      vertex -2.26894 -1.04972 0
      vertex -2.36913 -0.798254 10
    endloop
  endfacet
  facet normal 0.928977 0.370138 0
    outer loop
      vertex -2.26894 -1.04972 0
      vertex -2.36913 -0.798254 0
      vertex -2.36913 -0.798254 10
    endloop
  endfacet
  facet normal 0.96355 0.267528 0
    outer loop
      vertex -2.36913 -0.798254 10
      vertex -2.36913 -0.798254 0
      vertex -2.44155 -0.537426 10
    endloop
  endfacet
  facet normal 0.96355 0.267528 0
    outer loop
      vertex -2.36913 -0.798254 0
      vertex -2.44155 -0.537426 0
      vertex -2.44155 -0.537426 10
    endloop
  endfacet
  facet normal 0.986826 0.161782 0
    outer loop
      vertex -2.44155 -0.537426 10
      vertex -2.44155 -0.537426 0
      vertex -2.48534 -0.270298 10
    endloop
  endfacet
  facet normal 0.986826 0.161782 0
    outer loop
      vertex -2.44155 -0.537426 0
      vertex -2.48534 -0.270298 0
      vertex -2.48534 -0.270298 10
    endloop
  endfacet
  facet normal 0.998533 0.0541387 0
    outer loop
      vertex -2.48534 -0.270298 10
      vertex -2.48534 -0.270298 0
      vertex -2.5 1.53081e-16 10
    endloop
  endfacet
  facet normal 0.998533 0.0541387 0
    outer loop
      vertex -2.48534 -0.270298 0
      vertex -2.5 1.53081e-16 0
      vertex -2.5 1.53081e-16 10
    endloop
  endfacet
  facet normal -0.998533 0.0541384 0
    outer loop
      vertex -3.75 2.29621e-16 0
      vertex -3.72802 0.405446 10
      vertex -3.72802 0.405446 0
    endloop
  endfacet
  facet normal -0.986826 0.161782 0
    outer loop
      vertex -3.72802 0.405446 10
      vertex -3.66233 0.806139 10
      vertex -3.72802 0.405446 0
    endloop
  endfacet
  facet normal -0.986826 0.161782 0
    outer loop
      vertex -3.72802 0.405446 0
      vertex -3.66233 0.806139 10
      vertex -3.66233 0.806139 0
    endloop
  endfacet
  facet normal -0.96355 0.267528 0
    outer loop
      vertex -3.66233 0.806139 10
      vertex -3.5537 1.19738 10
      vertex -3.66233 0.806139 0
    endloop
  endfacet
  facet normal -0.96355 0.267528 0
    outer loop
      vertex -3.66233 0.806139 0
      vertex -3.5537 1.19738 10
      vertex -3.5537 1.19738 0
    endloop
  endfacet
  facet normal -0.928977 0.370138 0
    outer loop
      vertex -3.5537 1.19738 10
      vertex -3.40341 1.57458 10
      vertex -3.5537 1.19738 0
    endloop
  endfacet
  facet normal -0.928977 0.370138 0
    outer loop
      vertex -3.5537 1.19738 0
      vertex -3.40341 1.57458 10
      vertex -3.40341 1.57458 0
    endloop
  endfacet
  facet normal -0.883512 0.468408 0
    outer loop
      vertex -3.40341 1.57458 10
      vertex -3.21321 1.93333 10
      vertex -3.40341 1.57458 0
    endloop
  endfacet
  facet normal -0.883512 0.468408 0
    outer loop
      vertex -3.40341 1.57458 0
      vertex -3.21321 1.93333 10
      vertex -3.21321 1.93333 0
    endloop
  endfacet
  facet normal -0.827689 0.561187 0
    outer loop
      vertex -3.21321 1.93333 10
      vertex -2.98535 2.2694 10
      vertex -3.21321 1.93333 0
    endloop
  endfacet
  facet normal -0.827689 0.561187 0
    outer loop
      vertex -3.21321 1.93333 0
      vertex -2.98535 2.2694 10
      vertex -2.98535 2.2694 0
    endloop
  endfacet
  facet normal -0.762162 0.647386 0
    outer loop
      vertex -2.98535 2.2694 10
      vertex -2.72248 2.57887 10
      vertex -2.98535 2.2694 0
    endloop
  endfacet
  facet normal -0.762162 0.647386 0
    outer loop
      vertex -2.98535 2.2694 0
      vertex -2.72248 2.57887 10
      vertex -2.72248 2.57887 0
    endloop
  endfacet
  facet normal -0.687699 0.725996 0
    outer loop
      vertex -2.72248 2.57887 10
      vertex -2.4277 2.85811 10
      vertex -2.72248 2.57887 0
    endloop
  endfacet
  facet normal -0.687699 0.725996 0
    outer loop
      vertex -2.72248 2.57887 0
      vertex -2.4277 2.85811 10
      vertex -2.4277 2.85811 0
    endloop
  endfacet
  facet normal -0.605174 0.796093 0
    outer loop
      vertex -2.4277 2.85811 10
      vertex -2.10445 3.10383 10
      vertex -2.4277 2.85811 0
    endloop
  endfacet
  facet normal -0.605174 0.796093 0
    outer loop
      vertex -2.4277 2.85811 0
      vertex -2.10445 3.10383 10
      vertex -2.10445 3.10383 0
    endloop
  endfacet
  facet normal -0.515554 0.856857 0
    outer loop
      vertex -2.10445 3.10383 10
      vertex -1.75653 3.31317 10
      vertex -2.10445 3.10383 0
    endloop
  endfacet
  facet normal -0.515554 0.856857 0
    outer loop
      vertex -2.10445 3.10383 0
      vertex -1.75653 3.31317 10
      vertex -1.75653 3.31317 0
    endloop
  endfacet
  facet normal -0.419889 0.907576 0
    outer loop
      vertex -1.75653 3.31317 10
      vertex -1.38802 3.48366 10
      vertex -1.75653 3.31317 0
    endloop
  endfacet
  facet normal -0.419889 0.907576 0
    outer loop
      vertex -1.75653 3.31317 0
      vertex -1.38802 3.48366 10
      vertex -1.38802 3.48366 0
    endloop
  endfacet
  facet normal -0.319302 0.947653 0
    outer loop
      vertex -1.38802 3.48366 10
      vertex -1.00323 3.61331 10
      vertex -1.38802 3.48366 0
    endloop
  endfacet
  facet normal -0.319302 0.947653 0
    outer loop
      vertex -1.38802 3.48366 0
      vertex -1.00323 3.61331 10
      vertex -1.00323 3.61331 0
    endloop
  endfacet
  facet normal -0.214971 0.976621 0
    outer loop
      vertex -1.00323 3.61331 10
      vertex -0.606683 3.7006 10
      vertex -1.00323 3.61331 0
    endloop
  endfacet
  facet normal -0.214971 0.976621 0
    outer loop
      vertex -1.00323 3.61331 0
      vertex -0.606683 3.7006 10
      vertex -0.606683 3.7006 0
    endloop
  endfacet
  facet normal -0.108119 0.994138 0
    outer loop
      vertex -0.606683 3.7006 10
      vertex -0.203021 3.7445 10
      vertex -0.606683 3.7006 0
    endloop
  endfacet
  facet normal -0.108119 0.994138 0
    outer loop
      vertex -0.606683 3.7006 0
      vertex -0.203021 3.7445 10
      vertex -0.203021 3.7445 0
    endloop
  endfacet
  facet normal 0 1 0
    outer loop
      vertex -0.203021 3.7445 10
      vertex 0.203021 3.7445 10
      vertex -0.203021 3.7445 0
    endloop
  endfacet
  facet normal 0 1 0
    outer loop
      vertex -0.203021 3.7445 0
      vertex 0.203021 3.7445 10
      vertex 0.203021 3.7445 0
    endloop
  endfacet
  facet normal 0.108119 0.994138 0
    outer loop
      vertex 0.203021 3.7445 10
      vertex 0.606683 3.7006 10
      vertex 0.203021 3.7445 0
    endloop
  endfacet
  facet normal 0.108119 0.994138 0
    outer loop
      vertex 0.203021 3.7445 0
      vertex 0.606683 3.7006 10
      vertex 0.606683 3.7006 0
    endloop
  endfacet
  facet normal 0.214971 0.976621 0
    outer loop
      vertex 0.606683 3.7006 10
      vertex 1.00323 3.61331 10
      vertex 0.606683 3.7006 0
    endloop
  endfacet
  facet normal 0.214971 0.976621 0
    outer loop
      vertex 0.606683 3.7006 0
      vertex 1.00323 3.61331 10
      vertex 1.00323 3.61331 0
    endloop
  endfacet
  facet normal 0.319302 0.947653 0
    outer loop
      vertex 1.00323 3.61331 10
      vertex 1.38802 3.48366 10
      vertex 1.00323 3.61331 0
    endloop
  endfacet
  facet normal 0.319302 0.947653 0
    outer loop
      vertex 1.00323 3.61331 0
      vertex 1.38802 3.48366 10
      vertex 1.38802 3.48366 0
    endloop
  endfacet
  facet normal 0.419889 0.907576 0
    outer loop
      vertex 1.38802 3.48366 10
      vertex 1.75653 3.31317 10
      vertex 1.38802 3.48366 0
    endloop
  endfacet
  facet normal 0.419889 0.907576 0
    outer loop
      vertex 1.38802 3.48366 0
      vertex 1.75653 3.31317 10
      vertex 1.75653 3.31317 0
    endloop
  endfacet
  facet normal 0.515554 0.856857 0
    outer loop
      vertex 1.75653 3.31317 10
      vertex 2.10445 3.10383 10
      vertex 1.75653 3.31317 0
    endloop
  endfacet
  facet normal 0.515554 0.856857 0
    outer loop
      vertex 1.75653 3.31317 0
      vertex 2.10445 3.10383 10
      vertex 2.10445 3.10383 0
    endloop
  endfacet
  facet normal 0.605174 0.796093 0
    outer loop
      vertex 2.10445 3.10383 10
      vertex 2.4277 2.85811 10
      vertex 2.10445 3.10383 0
    endloop
  endfacet
  facet normal 0.605174 0.796093 0
    outer loop
      vertex 2.10445 3.10383 0
      vertex 2.4277 2.85811 10
      vertex 2.4277 2.85811 0
    endloop
  endfacet
  facet normal 0.687699 0.725996 0
    outer loop
      vertex 2.4277 2.85811 10
      vertex 2.72248 2.57887 10
      vertex 2.4277 2.85811 0
    endloop
  endfacet
  facet normal 0.687699 0.725996 0
    outer loop
      vertex 2.4277 2.85811 0
      vertex 2.72248 2.57887 10
      vertex 2.72248 2.57887 0
    endloop
  endfacet
  facet normal 0.762162 0.647386 0
    outer loop
      vertex 2.72248 2.57887 10
      vertex 2.98535 2.2694 10
      vertex 2.72248 2.57887 0
    endloop
  endfacet
  facet normal 0.762162 0.647386 0
    outer loop
      vertex 2.72248 2.57887 0
      vertex 2.98535 2.2694 10
      vertex 2.98535 2.2694 0
    endloop
  endfacet
  facet normal 0.827689 0.561187 0
    outer loop
      vertex 2.98535 2.2694 10
      vertex 3.21321 1.93333 10
      vertex 2.98535 2.2694 0
    endloop
  endfacet
  facet normal 0.827689 0.561187 0
    outer loop
      vertex 2.98535 2.2694 0
      vertex 3.21321 1.93333 10
      vertex 3.21321 1.93333 0
    endloop
  endfacet
  facet normal 0.883512 0.468408 0
    outer loop
      vertex 3.21321 1.93333 10
      vertex 3.40341 1.57458 10
      vertex 3.21321 1.93333 0
    endloop
  endfacet
  facet normal 0.883512 0.468408 0
    outer loop
      vertex 3.21321 1.93333 0
      vertex 3.40341 1.57458 10
      vertex 3.40341 1.57458 0
    endloop
  endfacet
  facet normal 0.928977 0.370138 0
    outer loop
      vertex 3.40341 1.57458 10
      vertex 3.5537 1.19738 10
      vertex 3.40341 1.57458 0
    endloop
  endfacet
  facet normal 0.928977 0.370138 0
    outer loop
      vertex 3.40341 1.57458 0
      vertex 3.5537 1.19738 10
      vertex 3.5537 1.19738 0
    endloop
  endfacet
  facet normal 0.96355 0.267528 0
    outer loop
      vertex 3.5537 1.19738 10
      vertex 3.66233 0.806139 10
      vertex 3.5537 1.19738 0
    endloop
  endfacet
  facet normal 0.96355 0.267528 0
    outer loop
      vertex 3.5537 1.19738 0
      vertex 3.66233 0.806139 10
      vertex 3.66233 0.806139 0
    endloop
  endfacet
  facet normal 0.986826 0.161782 0
    outer loop
      vertex 3.66233 0.806139 10
      vertex 3.72802 0.405446 10
      vertex 3.66233 0.806139 0
    endloop
  endfacet
  facet normal 0.986826 0.161782 0
    outer loop
      vertex 3.66233 0.806139 0
      vertex 3.72802 0.405446 10
      vertex 3.72802 0.405446 0
    endloop
  endfacet
  facet normal 0.998533 0.0541384 0
    outer loop
      vertex 3.72802 0.405446 10
      vertex 3.75 1.60735e-15 10
      vertex 3.72802 0.405446 0
    endloop
  endfacet
  facet normal 0.998533 0.0541384 -5.29667e-18
    outer loop
      vertex 3.72802 0.405446 0
      vertex 3.75 1.60735e-15 10
      vertex 3.75 6.88864e-16 0
    endloop
  endfacet
  facet normal 0.998533 -0.0541384 4.97254e-18
    outer loop
      vertex 3.75 1.60735e-15 10
      vertex 3.72802 -0.405446 10
      vertex 3.75 6.88864e-16 0
    endloop
  endfacet
  facet normal 0.998533 -0.0541384 0
    outer loop
      vertex 3.75 6.88864e-16 0
      vertex 3.72802 -0.405446 10
      vertex 3.72802 -0.405446 0
    endloop
  endfacet
  facet normal 0.986826 -0.161782 0
    outer loop
      vertex 3.72802 -0.405446 10
      vertex 3.66233 -0.806139 10
      vertex 3.72802 -0.405446 0
    endloop
  endfacet
  facet normal 0.986826 -0.161782 0
    outer loop
      vertex 3.72802 -0.405446 0
      vertex 3.66233 -0.806139 10
      vertex 3.66233 -0.806139 0
    endloop
  endfacet
  facet normal 0.96355 -0.267528 0
    outer loop
      vertex 3.66233 -0.806139 10
      vertex 3.5537 -1.19738 10
      vertex 3.66233 -0.806139 0
    endloop
  endfacet
  facet normal 0.96355 -0.267528 0
    outer loop
      vertex 3.66233 -0.806139 0
      vertex 3.5537 -1.19738 10
      vertex 3.5537 -1.19738 0
    endloop
  endfacet
  facet normal 0.928977 -0.370138 0
    outer loop
      vertex 3.5537 -1.19738 10
      vertex 3.40341 -1.57458 10
      vertex 3.5537 -1.19738 0
    endloop
  endfacet
  facet normal 0.928977 -0.370138 0
    outer loop
      vertex 3.5537 -1.19738 0
      vertex 3.40341 -1.57458 10
      vertex 3.40341 -1.57458 0
    endloop
  endfacet
  facet normal 0.883512 -0.468408 0
    outer loop
      vertex 3.40341 -1.57458 10
      vertex 3.21321 -1.93333 10
      vertex 3.40341 -1.57458 0
    endloop
  endfacet
  facet normal 0.883512 -0.468408 0
    outer loop
      vertex 3.40341 -1.57458 0
      vertex 3.21321 -1.93333 10
      vertex 3.21321 -1.93333 0
    endloop
  endfacet
  facet normal 0.827689 -0.561187 0
    outer loop
      vertex 3.21321 -1.93333 10
      vertex 2.98535 -2.2694 10
      vertex 3.21321 -1.93333 0
    endloop
  endfacet
  facet normal 0.827689 -0.561187 0
    outer loop
      vertex 3.21321 -1.93333 0
      vertex 2.98535 -2.2694 10
      vertex 2.98535 -2.2694 0
    endloop
  endfacet
  facet normal 0.762162 -0.647386 0
    outer loop
      vertex 2.98535 -2.2694 10
      vertex 2.72248 -2.57887 10
      vertex 2.98535 -2.2694 0
    endloop
  endfacet
  facet normal 0.762162 -0.647386 0
    outer loop
      vertex 2.98535 -2.2694 0
      vertex 2.72248 -2.57887 10
      vertex 2.72248 -2.57887 0
    endloop
  endfacet
  facet normal 0.687699 -0.725996 0
    outer loop
      vertex 2.72248 -2.57887 10
      vertex 2.4277 -2.85811 10
      vertex 2.72248 -2.57887 0
    endloop
  endfacet
  facet normal 0.687699 -0.725996 0
    outer loop
      vertex 2.72248 -2.57887 0
      vertex 2.4277 -2.85811 10
      vertex 2.4277 -2.85811 0
    endloop
  endfacet
  facet normal 0.605174 -0.796093 0
    outer loop
      vertex 2.4277 -2.85811 10
      vertex 2.10445 -3.10383 10
      vertex 2.4277 -2.85811 0
    endloop
  endfacet
  facet normal 0.605174 -0.796093 0
    outer loop
      vertex 2.4277 -2.85811 0
      vertex 2.10445 -3.10383 10
      vertex 2.10445 -3.10383 0
    endloop
  endfacet
  facet normal 0.515554 -0.856857 0
    outer loop
      vertex 2.10445 -3.10383 10
      vertex 1.75653 -3.31317 10
      vertex 2.10445 -3.10383 0
    endloop
  endfacet
  facet normal 0.515554 -0.856857 0
    outer loop
      vertex 2.10445 -3.10383 0
      vertex 1.75653 -3.31317 10
      vertex 1.75653 -3.31317 0
    endloop
  endfacet
  facet normal 0.419889 -0.907576 0
    outer loop
      vertex 1.75653 -3.31317 10
      vertex 1.38802 -3.48366 10
      vertex 1.75653 -3.31317 0
    endloop
  endfacet
  facet normal 0.419889 -0.907576 0
    outer loop
      vertex 1.75653 -3.31317 0
      vertex 1.38802 -3.48366 10
      vertex 1.38802 -3.48366 0
    endloop
  endfacet
  facet normal 0.319302 -0.947653 0
    outer loop
      vertex 1.38802 -3.48366 10
      vertex 1.00323 -3.61331 10
      vertex 1.38802 -3.48366 0
    endloop
  endfacet
  facet normal 0.319302 -0.947653 0
    outer loop
      vertex 1.38802 -3.48366 0
      vertex 1.00323 -3.61331 10
      vertex 1.00323 -3.61331 0
    endloop
  endfacet
  facet normal 0.214971 -0.976621 0
    outer loop
      vertex 1.00323 -3.61331 10
      vertex 0.606683 -3.7006 10
      vertex 1.00323 -3.61331 0
    endloop
  endfacet
  facet normal 0.214971 -0.976621 0
    outer loop
      vertex 1.00323 -3.61331 0
      vertex 0.606683 -3.7006 10
      vertex 0.606683 -3.7006 0
    endloop
  endfacet
  facet normal 0.108119 -0.994138 0
    outer loop
      vertex 0.606683 -3.7006 10
      vertex 0.203021 -3.7445 10
      vertex 0.606683 -3.7006 0
    endloop
  endfacet
  facet normal 0.108119 -0.994138 0
    outer loop
      vertex 0.606683 -3.7006 0
      vertex 0.203021 -3.7445 10
      vertex 0.203021 -3.7445 0
    endloop
  endfacet
  facet normal 0 -1 0
    outer loop
      vertex 0.203021 -3.7445 10
      vertex -0.203021 -3.7445 10
      vertex 0.203021 -3.7445 0
    endloop
  endfacet
  facet normal 0 -1 0
    outer loop
      vertex 0.203021 -3.7445 0
      vertex -0.203021 -3.7445 10
      vertex -0.203021 -3.7445 0
    endloop
  endfacet
  facet normal -0.108119 -0.994138 0
    outer loop
      vertex -0.203021 -3.7445 10
      vertex -0.606683 -3.7006 10
      vertex -0.203021 -3.7445 0
    endloop
  endfacet
  facet normal -0.108119 -0.994138 0
    outer loop
      vertex -0.203021 -3.7445 0
      vertex -0.606683 -3.7006 10
      vertex -0.606683 -3.7006 0
    endloop
  endfacet
  facet normal -0.214971 -0.976621 0
    outer loop
      vertex -0.606683 -3.7006 10
      vertex -1.00323 -3.61331 10
      vertex -0.606683 -3.7006 0
    endloop
  endfacet
  facet normal -0.214971 -0.976621 0
    outer loop
      vertex -0.606683 -3.7006 0
      vertex -1.00323 -3.61331 10
      vertex -1.00323 -3.61331 0
    endloop
  endfacet
  facet normal -0.319302 -0.947653 0
    outer loop
      vertex -1.00323 -3.61331 10
      vertex -1.38802 -3.48366 10
      vertex -1.00323 -3.61331 0
    endloop
  endfacet
  facet normal -0.319302 -0.947653 0
    outer loop
      vertex -1.00323 -3.61331 0
      vertex -1.38802 -3.48366 10
      vertex -1.38802 -3.48366 0
    endloop
  endfacet
  facet normal -0.419889 -0.907576 0
    outer loop
      vertex -1.38802 -3.48366 10
      vertex -1.75653 -3.31317 10
      vertex -1.38802 -3.48366 0
    endloop
  endfacet
  facet normal -0.419889 -0.907576 0
    outer loop
      vertex -1.38802 -3.48366 0
      vertex -1.75653 -3.31317 10
      vertex -1.75653 -3.31317 0
    endloop
  endfacet
  facet normal -0.515554 -0.856857 0
    outer loop
      vertex -1.75653 -3.31317 10
      vertex -2.10445 -3.10383 10
      vertex -1.75653 -3.31317 0
    endloop
  endfacet
  facet normal -0.515554 -0.856857 0
    outer loop
      vertex -1.75653 -3.31317 0
      vertex -2.10445 -3.10383 10
      vertex -2.10445 -3.10383 0
    endloop
  endfacet
  facet normal -0.605174 -0.796093 0
    outer loop
      vertex -2.10445 -3.10383 10
      vertex -2.4277 -2.85811 10
      vertex -2.10445 -3.10383 0
    endloop
  endfacet
  facet normal -0.605174 -0.796093 0
    outer loop
      vertex -2.10445 -3.10383 0
      vertex -2.4277 -2.85811 10
      vertex -2.4277 -2.85811 0
    endloop
  endfacet
  facet normal -0.687699 -0.725996 0
    outer loop
      vertex -2.4277 -2.85811 10
      vertex -2.72248 -2.57887 10
      vertex -2.4277 -2.85811 0
    endloop
  endfacet
  facet normal -0.687699 -0.725996 0
    outer loop
      vertex -2.4277 -2.85811 0
      vertex -2.72248 -2.57887 10
      vertex -2.72248 -2.57887 0
    endloop
  endfacet
  facet normal -0.762162 -0.647386 0
    outer loop
      vertex -2.72248 -2.57887 10
      vertex -2.98535 -2.2694 10
      vertex -2.72248 -2.57887 0
    endloop
  endfacet
  facet normal -0.762162 -0.647386 0
    outer loop
      vertex -2.72248 -2.57887 0
      vertex -2.98535 -2.2694 10
      vertex -2.98535 -2.2694 0
    endloop
  endfacet
  facet normal -0.827689 -0.561187 0
    outer loop
      vertex -2.98535 -2.2694 10
      vertex -3.21321 -1.93333 10
      vertex -2.98535 -2.2694 0
    endloop
  endfacet
  facet normal -0.827689 -0.561187 0
    outer loop
      vertex -2.98535 -2.2694 0
      vertex -3.21321 -1.93333 10
      vertex -3.21321 -1.93333 0
    endloop
  endfacet
  facet normal -0.883512 -0.468408 0
    outer loop
      vertex -3.21321 -1.93333 10
      vertex -3.40341 -1.57458 10
      vertex -3.21321 -1.93333 0
    endloop
  endfacet
  facet normal -0.883512 -0.468408 0
    outer loop
      vertex -3.21321 -1.93333 0
      vertex -3.40341 -1.57458 10
      vertex -3.40341 -1.57458 0
    endloop
  endfacet
  facet normal -0.928977 -0.370138 0
    outer loop
      vertex -3.40341 -1.57458 10
      vertex -3.5537 -1.19738 10
      vertex -3.40341 -1.57458 0
    endloop
  endfacet
  facet normal -0.928977 -0.370138 0
    outer loop
      vertex -3.40341 -1.57458 0
      vertex -3.5537 -1.19738 10
      vertex -3.5537 -1.19738 0
    endloop
  endfacet
  facet normal -0.96355 -0.267528 0
    outer loop
      vertex -3.5537 -1.19738 10
      vertex -3.66233 -0.806139 10
      vertex -3.5537 -1.19738 0
    endloop
  endfacet
  facet normal -0.96355 -0.267528 0
    outer loop
      vertex -3.5537 -1.19738 0
      vertex -3.66233 -0.806139 10
      vertex -3.66233 -0.806139 0
    endloop
  endfacet
  facet normal -0.986826 -0.161782 0
    outer loop
      vertex -3.66233 -0.806139 10
      vertex -3.72802 -0.405446 10
      vertex -3.66233 -0.806139 0
    endloop
  endfacet
  facet normal -0.986826 -0.161782 0
    outer loop
      vertex -3.66233 -0.806139 0
      vertex -3.72802 -0.405446 10
      vertex -3.72802 -0.405446 0
    endloop
  endfacet
  facet normal -0.998533 -0.0541384 0
    outer loop
      vertex -3.72802 -0.405446 10
      vertex -3.75 2.29621e-16 10
      vertex -3.72802 -0.405446 0
    endloop
  endfacet
  facet normal -0.998533 -0.0541384 0
    outer loop
      vertex -3.72802 -0.405446 0
      vertex -3.75 2.29621e-16 10
      vertex -3.75 2.29621e-16 0
    endloop
  endfacet
  facet normal -0.998533 0.0541384 0
    outer loop
      vertex -3.75 2.29621e-16 10
      vertex -3.72802 0.405446 10
      vertex -3.75 2.29621e-16 0
    endloop
  endfacet
endsolid Onshape
