solid Onshape
  facet normal 0 0 -1
    outer loop
      vertex 1.42148 0.478952 0
      vertex 1.36136 0.629834 0
      vertex 2.3094 0 0
    endloop
  endfacet
  facet normal 0 0 -1
    outer loop
      vertex -1.46493 -0.322456 0
      vertex -2.3094 -2.1684e-16 0
      vertex -1.49121 -0.162179 0
    endloop
  endfacet
  facet normal 0 0 -1
    outer loop
      vertex -2.3094 -2.1684e-16 0
      vertex -1.5 9.18485e-17 0
      vertex -1.49121 -0.162179 0
    endloop
  endfacet
  facet normal 0 0 -1
    outer loop
      vertex -1.46493 -0.322456 0
      vertex -1.42148 -0.478952 0
      vertex -2.3094 -2.1684e-16 0
    endloop
  endfacet
  facet normal 0 0 -1
    outer loop
      vertex -1.42148 -0.478952 0
      vertex -1.36136 -0.629834 0
      vertex -2.3094 -2.1684e-16 0
    endloop
  endfacet
  facet normal 0 0 -1
    outer loop
      vertex -2.3094 -2.1684e-16 0
      vertex -1.36136 -0.629834 0
      vertex -1.1547 -2 0
    endloop
  endfacet
  facet normal 0 0 -1
    outer loop
      vertex -1.36136 -0.629834 0
      vertex -1.28529 -0.773331 0
      vertex -1.1547 -2 0
    endloop
  endfacet
  facet normal 0 0 -1
    outer loop
      vertex -1.1547 -2 0
      vertex -1.28529 -0.773331 0
      vertex -1.19414 -0.907761 0
    endloop
  endfacet
  facet normal 0 0 -1
    outer loop
      vertex 2.3094 0 0
      vertex 1.36136 0.629834 0
      vertex 1.1547 2 0
    endloop
  endfacet
  facet normal 0 0 -1
    outer loop
      vertex 1.36136 0.629834 0
      vertex 1.28529 0.773331 0
      vertex 1.1547 2 0
    endloop
  endfacet
  facet normal 0 0 -1
    outer loop
      vertex 1.1547 2 0
      vertex 1.28529 0.773331 0
      vertex 1.19414 0.907761 0
    endloop
  endfacet
  facet normal 0 0 -1
    outer loop
      vertex -0.242673 1.48024 0
      vertex -0.401293 1.44532 0
      vertex -1.1547 2 0
    endloop
  endfacet
  facet normal 0 0 -1
    outer loop
      vertex -0.401293 1.44532 0
      vertex -0.555207 1.39347 0
      vertex -1.1547 2 0
    endloop
  endfacet
  facet normal 0 0 -1
    outer loop
      vertex -1.1547 2 0
      vertex -0.555207 1.39347 0
      vertex -0.702613 1.32527 0
    endloop
  endfacet
  facet normal 0 0 -1
    outer loop
      vertex -1.19414 -0.907761 0
      vertex -1.08899 -1.03155 0
      vertex -1.1547 -2 0
    endloop
  endfacet
  facet normal 0 0 -1
    outer loop
      vertex -1.08899 -1.03155 0
      vertex -0.971079 -1.14324 0
      vertex -1.1547 -2 0
    endloop
  endfacet
  facet normal 0 0 -1
    outer loop
      vertex -1.1547 -2 0
      vertex -0.971079 -1.14324 0
      vertex -0.841781 -1.24153 0
    endloop
  endfacet
  facet normal 0 0 -1
    outer loop
      vertex 0.702613 -1.32527 0
      vertex 0.841781 -1.24153 0
      vertex 1.1547 -2 0
    endloop
  endfacet
  facet normal 0 0 -1
    outer loop
      vertex 0.841781 -1.24153 0
      vertex 0.971079 -1.14324 0
      vertex 1.1547 -2 0
    endloop
  endfacet
  facet normal 0 0 -1
    outer loop
      vertex 1.1547 -2 0
      vertex 0.971079 -1.14324 0
      vertex 1.08899 -1.03155 0
    endloop
  endfacet
  facet normal 0 0 -1
    outer loop
      vertex 1.19414 0.907761 0
      vertex 1.08899 1.03155 0
      vertex 1.1547 2 0
    endloop
  endfacet
  facet normal 0 0 -1
    outer loop
      vertex 1.08899 1.03155 0
      vertex 0.971079 1.14324 0
      vertex 1.1547 2 0
    endloop
  endfacet
  facet normal 0 0 -1
    outer loop
      vertex 1.1547 2 0
      vertex 0.971079 1.14324 0
      vertex 0.841781 1.24153 0
    endloop
  endfacet
  facet normal 0 0 -1
    outer loop
      vertex -1.42148 0.478952 0
      vertex -1.46493 0.322456 0
      vertex -2.3094 -2.1684e-16 0
    endloop
  endfacet
  facet normal 0 0 -1
    outer loop
      vertex -1.46493 0.322456 0
      vertex -1.49121 0.162179 0
      vertex -2.3094 -2.1684e-16 0
    endloop
  endfacet
  facet normal 0 0 -1
    outer loop
      vertex -2.3094 -2.1684e-16 0
      vertex -1.49121 0.162179 0
      vertex -1.5 9.18485e-17 0
    endloop
  endfacet
  facet normal 0 0 -1
    outer loop
      vertex -0.841781 -1.24153 0
      vertex -0.702613 -1.32527 0
      vertex -1.1547 -2 0
    endloop
  endfacet
  facet normal 0 0 -1
    outer loop
      vertex -0.702613 -1.32527 0
      vertex -0.555207 -1.39347 0
      vertex -1.1547 -2 0
    endloop
  endfacet
  facet normal 0 0 -1
    outer loop
      vertex -1.1547 -2 0
      vertex -0.555207 -1.39347 0
      vertex -0.401293 -1.44532 0
    endloop
  endfacet
  facet normal 0 0 -1
    outer loop
      vertex 1.42148 -0.478952 0
      vertex 1.46493 -0.322456 0
      vertex 2.3094 0 0
    endloop
  endfacet
  facet normal 0 0 -1
    outer loop
      vertex 1.46493 -0.322456 0
      vertex 1.49121 -0.162179 0
      vertex 2.3094 0 0
    endloop
  endfacet
  facet normal 0 0 -1
    outer loop
      vertex 2.3094 0 0
      vertex 1.49121 -0.162179 0
      vertex 1.5 6.4294e-16 0
    endloop
  endfacet
  facet normal 0 0 -1
    outer loop
      vertex 1.5 6.4294e-16 0
      vertex 1.49121 0.162179 0
      vertex 2.3094 0 0
    endloop
  endfacet
  facet normal 0 0 -1
    outer loop
      vertex 1.49121 0.162179 0
      vertex 1.46493 0.322456 0
      vertex 2.3094 0 0
    endloop
  endfacet
  facet normal 0 0 -1
    outer loop
      vertex 2.3094 0 0
      vertex 1.46493 0.322456 0
      vertex 1.42148 0.478952 0
    endloop
  endfacet
  facet normal 0 0 -1
    outer loop
      vertex 0.841781 1.24153 0
      vertex 0.702613 1.32527 0
      vertex 1.1547 2 0
    endloop
  endfacet
  facet normal 0 0 -1
    outer loop
      vertex 0.702613 1.32527 0
      vertex 0.555207 1.39347 0
      vertex 1.1547 2 0
    endloop
  endfacet
  facet normal 0 0 -1
    outer loop
      vertex 1.1547 2 0
      vertex 0.555207 1.39347 0
      vertex 0.401293 1.44532 0
    endloop
  endfacet
  facet normal 0 0 -1
    outer loop
      vertex -0.702613 1.32527 0
      vertex -0.841781 1.24153 0
      vertex -1.1547 2 0
    endloop
  endfacet
  facet normal 0 0 -1
    outer loop
      vertex -0.841781 1.24153 0
      vertex -0.971079 1.14324 0
      vertex -1.1547 2 0
    endloop
  endfacet
  facet normal 0 0 -1
    outer loop
      vertex -1.1547 2 0
      vertex -0.971079 1.14324 0
      vertex -1.08899 1.03155 0
    endloop
  endfacet
  facet normal 0 0 -1
    outer loop
      vertex -0.401293 -1.44532 0
      vertex -0.242673 -1.48024 0
      vertex -1.1547 -2 0
    endloop
  endfacet
  facet normal 0 0 -1
    outer loop
      vertex -0.242673 -1.48024 0
      vertex -0.0812084 -1.4978 0
      vertex -1.1547 -2 0
    endloop
  endfacet
  facet normal 0 0 -1
    outer loop
      vertex -1.1547 -2 0
      vertex -0.0812084 -1.4978 0
      vertex 1.1547 -2 0
    endloop
  endfacet
  facet normal 0 0 -1
    outer loop
      vertex -0.0812084 -1.4978 0
      vertex 0.0812084 -1.4978 0
      vertex 1.1547 -2 0
    endloop
  endfacet
  facet normal 0 0 -1
    outer loop
      vertex 1.1547 -2 0
      vertex 0.0812084 -1.4978 0
      vertex 0.242673 -1.48024 0
    endloop
  endfacet
  facet normal 0 0 -1
    outer loop
      vertex 0.242673 -1.48024 0
      vertex 0.401293 -1.44532 0
      vertex 1.1547 -2 0
    endloop
  endfacet
  facet normal 0 0 -1
    outer loop
      vertex 0.401293 -1.44532 0
      vertex 0.555207 -1.39347 0
      vertex 1.1547 -2 0
    endloop
  endfacet
  facet normal 0 0 -1
    outer loop
      vertex 1.1547 -2 0
      vertex 0.555207 -1.39347 0
      vertex 0.702613 -1.32527 0
    endloop
  endfacet
  facet normal 0 0 -1
    outer loop
      vertex -1.08899 1.03155 0
      vertex -1.19414 0.907761 0
      vertex -1.1547 2 0
    endloop
  endfacet
  facet normal 0 0 -1
    outer loop
      vertex -1.19414 0.907761 0
      vertex -1.28529 0.773331 0
      vertex -1.1547 2 0
    endloop
  endfacet
  facet normal 0 0 -1
    outer loop
      vertex -1.1547 2 0
      vertex -1.28529 0.773331 0
      vertex -2.3094 -2.1684e-16 0
    endloop
  endfacet
  facet normal 0 0 -1
    outer loop
      vertex -1.28529 0.773331 0
      vertex -1.36136 0.629834 0
      vertex -2.3094 -2.1684e-16 0
    endloop
  endfacet
  facet normal 0 0 -1
    outer loop
      vertex -2.3094 -2.1684e-16 0
      vertex -1.36136 0.629834 0
      vertex -1.42148 0.478952 0
    endloop
  endfacet
  facet normal 0 0 -1
    outer loop
      vertex 1.08899 -1.03155 0
      vertex 1.19414 -0.907761 0
      vertex 1.1547 -2 0
    endloop
  endfacet
  facet normal 0 0 -1
    outer loop
      vertex 1.19414 -0.907761 0
      vertex 1.28529 -0.773331 0
      vertex 1.1547 -2 0
    endloop
  endfacet
  facet normal 0 0 -1
    outer loop
      vertex 1.1547 -2 0
      vertex 1.28529 -0.773331 0
      vertex 2.3094 0 0
    endloop
  endfacet
  facet normal 0 0 -1
    outer loop
      vertex 1.28529 -0.773331 0
      vertex 1.36136 -0.629834 0
      vertex 2.3094 0 0
    endloop
  endfacet
  facet normal 0 0 -1
    outer loop
      vertex 2.3094 0 0
      vertex 1.36136 -0.629834 0
      vertex 1.42148 -0.478952 0
    endloop
  endfacet
  facet normal 0 0 -1
    outer loop
      vertex 0.401293 1.44532 0
      vertex 0.242673 1.48024 0
      vertex 1.1547 2 0
    endloop
  endfacet
  facet normal 0 0 -1
    outer loop
      vertex 0.242673 1.48024 0
      vertex 0.0812084 1.4978 0
      vertex 1.1547 2 0
    endloop
  endfacet
  facet normal 0 0 -1
    outer loop
      vertex 1.1547 2 0
      vertex 0.0812084 1.4978 0
      vertex -1.1547 2 0
    endloop
  endfacet
  facet normal 0 0 -1
    outer loop
      vertex 0.0812084 1.4978 0
      vertex -0.0812084 1.4978 0
      vertex -1.1547 2 0
    endloop
  endfacet
  facet normal 0 0 -1
    outer loop
      vertex -1.1547 2 0
      vertex -0.0812084 1.4978 0
      vertex -0.242673 1.48024 0
    endloop
  endfacet
  facet normal 0 0 1
    outer loop
      vertex 1.42148 0.478952 1
      vertex 1.46493 0.322456 1
      vertex 2.3094 0 1
    endloop
  endfacet
  facet normal 0 0 1
    outer loop
      vertex 1.46493 0.322456 1
      vertex 1.49121 0.162179 1
      vertex 2.3094 0 1
    endloop
  endfacet
  facet normal 0 0 1
    outer loop
      vertex -1.42148 -0.478952 1
      vertex -1.46493 -0.322456 1
      vertex -2.3094 -2.1684e-16 1
    endloop
  endfacet
  facet normal 0 0 1
    outer loop
      vertex -1.46493 -0.322456 1
      vertex -1.49121 -0.162179 1
      vertex -2.3094 -2.1684e-16 1
    endloop
  endfacet
  facet normal 0 0 1
    outer loop
      vertex 1.49121 0.162179 1
      vertex 1.5 2.75546e-16 1
      vertex 2.3094 0 1
    endloop
  endfacet
  facet normal 0 0 1
    outer loop
      vertex 1.5 2.75546e-16 1
      vertex 1.49121 -0.162179 1
      vertex 2.3094 0 1
    endloop
  endfacet
  facet normal 0 0 1
    outer loop
      vertex 2.3094 0 1
      vertex 1.49121 -0.162179 1
      vertex 1.46493 -0.322456 1
    endloop
  endfacet
  facet normal 0 0 1
    outer loop
      vertex 1.19414 -0.907761 1
      vertex 1.08899 -1.03155 1
      vertex 1.1547 -2 1
    endloop
  endfacet
  facet normal 0 0 1
    outer loop
      vertex 1.08899 -1.03155 1
      vertex 0.971079 -1.14324 1
      vertex 1.1547 -2 1
    endloop
  endfacet
  facet normal 0 0 1
    outer loop
      vertex 1.1547 -2 1
      vertex 0.971079 -1.14324 1
      vertex 0.841781 -1.24153 1
    endloop
  endfacet
  facet normal 0 0 1
    outer loop
      vertex -1.19414 -0.907761 1
      vertex -1.28529 -0.773331 1
      vertex -1.1547 -2 1
    endloop
  endfacet
  facet normal 0 0 1
    outer loop
      vertex -1.49121 -0.162179 1
      vertex -1.5 9.18485e-17 1
      vertex -2.3094 -2.1684e-16 1
    endloop
  endfacet
  facet normal 0 0 1
    outer loop
      vertex -1.5 9.18485e-17 1
      vertex -1.49121 0.162179 1
      vertex -2.3094 -2.1684e-16 1
    endloop
  endfacet
  facet normal 0 0 1
    outer loop
      vertex -2.3094 -2.1684e-16 1
      vertex -1.49121 0.162179 1
      vertex -1.46493 0.322456 1
    endloop
  endfacet
  facet normal 0 0 1
    outer loop
      vertex -1.46493 0.322456 1
      vertex -1.42148 0.478952 1
      vertex -2.3094 -2.1684e-16 1
    endloop
  endfacet
  facet normal 0 0 1
    outer loop
      vertex -1.42148 0.478952 1
      vertex -1.36136 0.629834 1
      vertex -2.3094 -2.1684e-16 1
    endloop
  endfacet
  facet normal 0 0 1
    outer loop
      vertex -2.3094 -2.1684e-16 1
      vertex -1.36136 0.629834 1
      vertex -1.1547 2 1
    endloop
  endfacet
  facet normal 0 0 1
    outer loop
      vertex -1.36136 0.629834 1
      vertex -1.28529 0.773331 1
      vertex -1.1547 2 1
    endloop
  endfacet
  facet normal 0 0 1
    outer loop
      vertex -1.1547 2 1
      vertex -1.28529 0.773331 1
      vertex -1.19414 0.907761 1
    endloop
  endfacet
  facet normal 0 0 1
    outer loop
      vertex -1.19414 0.907761 1
      vertex -1.08899 1.03155 1
      vertex -1.1547 2 1
    endloop
  endfacet
  facet normal 0 0 1
    outer loop
      vertex -1.08899 1.03155 1
      vertex -0.971079 1.14324 1
      vertex -1.1547 2 1
    endloop
  endfacet
  facet normal 0 0 1
    outer loop
      vertex -1.1547 2 1
      vertex -0.971079 1.14324 1
      vertex -0.841781 1.24153 1
    endloop
  endfacet
  facet normal 0 0 1
    outer loop
      vertex -0.841781 1.24153 1
      vertex -0.702613 1.32527 1
      vertex -1.1547 2 1
    endloop
  endfacet
  facet normal 0 0 1
    outer loop
      vertex -0.702613 1.32527 1
      vertex -0.555207 1.39347 1
      vertex -1.1547 2 1
    endloop
  endfacet
  facet normal 0 0 1
    outer loop
      vertex -1.1547 2 1
      vertex -0.555207 1.39347 1
      vertex -0.401293 1.44532 1
    endloop
  endfacet
  facet normal 0 0 1
    outer loop
      vertex 1.46493 -0.322456 1
      vertex 1.42148 -0.478952 1
      vertex 2.3094 0 1
    endloop
  endfacet
  facet normal 0 0 1
    outer loop
      vertex 1.42148 -0.478952 1
      vertex 1.36136 -0.629834 1
      vertex 2.3094 0 1
    endloop
  endfacet
  facet normal 0 0 1
    outer loop
      vertex 2.3094 0 1
      vertex 1.36136 -0.629834 1
      vertex 1.1547 -2 1
    endloop
  endfacet
  facet normal 0 0 1
    outer loop
      vertex 1.36136 -0.629834 1
      vertex 1.28529 -0.773331 1
      vertex 1.1547 -2 1
    endloop
  endfacet
  facet normal 0 0 1
    outer loop
      vertex 1.1547 -2 1
      vertex 1.28529 -0.773331 1
      vertex 1.19414 -0.907761 1
    endloop
  endfacet
  facet normal 0 0 1
    outer loop
      vertex 0.841781 -1.24153 1
      vertex 0.702613 -1.32527 1
      vertex 1.1547 -2 1
    endloop
  endfacet
  facet normal 0 0 1
    outer loop
      vertex 0.702613 -1.32527 1
      vertex 0.555207 -1.39347 1
      vertex 1.1547 -2 1
    endloop
  endfacet
  facet normal 0 0 1
    outer loop
      vertex 1.1547 -2 1
      vertex 0.555207 -1.39347 1
      vertex 0.401293 -1.44532 1
    endloop
  endfacet
  facet normal 0 0 1
    outer loop
      vertex -1.1547 -2 1
      vertex -0.702613 -1.32527 1
      vertex -0.841781 -1.24153 1
    endloop
  endfacet
  facet normal 0 0 1
    outer loop
      vertex -1.1547 -2 1
      vertex -1.28529 -0.773331 1
      vertex -2.3094 -2.1684e-16 1
    endloop
  endfacet
  facet normal 0 0 1
    outer loop
      vertex -1.28529 -0.773331 1
      vertex -1.36136 -0.629834 1
      vertex -2.3094 -2.1684e-16 1
    endloop
  endfacet
  facet normal 0 0 1
    outer loop
      vertex -2.3094 -2.1684e-16 1
      vertex -1.36136 -0.629834 1
      vertex -1.42148 -0.478952 1
    endloop
  endfacet
  facet normal 0 0 1
    outer loop
      vertex 0.401293 -1.44532 1
      vertex 0.242673 -1.48024 1
      vertex 1.1547 -2 1
    endloop
  endfacet
  facet normal 0 0 1
    outer loop
      vertex 0.242673 -1.48024 1
      vertex 0.0812084 -1.4978 1
      vertex 1.1547 -2 1
    endloop
  endfacet
  facet normal 0 0 1
    outer loop
      vertex 1.1547 -2 1
      vertex 0.0812084 -1.4978 1
      vertex -1.1547 -2 1
    endloop
  endfacet
  facet normal 0 0 1
    outer loop
      vertex 0.0812084 -1.4978 1
      vertex -0.0812084 -1.4978 1
      vertex -1.1547 -2 1
    endloop
  endfacet
  facet normal 0 0 1
    outer loop
      vertex -1.1547 -2 1
      vertex -0.0812084 -1.4978 1
      vertex -0.242673 -1.48024 1
    endloop
  endfacet
  facet normal 0 0 1
    outer loop
      vertex -0.841781 -1.24153 1
      vertex -0.971079 -1.14324 1
      vertex -1.1547 -2 1
    endloop
  endfacet
  facet normal 0 0 1
    outer loop
      vertex -0.971079 -1.14324 1
      vertex -1.08899 -1.03155 1
      vertex -1.1547 -2 1
    endloop
  endfacet
  facet normal 0 0 1
    outer loop
      vertex -1.1547 -2 1
      vertex -1.08899 -1.03155 1
      vertex -1.19414 -0.907761 1
    endloop
  endfacet
  facet normal 0 0 1
    outer loop
      vertex -0.242673 -1.48024 1
      vertex -0.401293 -1.44532 1
      vertex -1.1547 -2 1
    endloop
  endfacet
  facet normal 0 0 1
    outer loop
      vertex -0.401293 -1.44532 1
      vertex -0.555207 -1.39347 1
      vertex -1.1547 -2 1
    endloop
  endfacet
  facet normal 0 0 1
    outer loop
      vertex -1.1547 -2 1
      vertex -0.555207 -1.39347 1
      vertex -0.702613 -1.32527 1
    endloop
  endfacet
  facet normal 0 0 1
    outer loop
      vertex 0.242673 1.48024 1
      vertex 0.401293 1.44532 1
      vertex 1.1547 2 1
    endloop
  endfacet
  facet normal 0 0 1
    outer loop
      vertex 0.401293 1.44532 1
      vertex 0.555207 1.39347 1
      vertex 1.1547 2 1
    endloop
  endfacet
  facet normal 0 0 1
    outer loop
      vertex 1.1547 2 1
      vertex 0.555207 1.39347 1
      vertex 0.702613 1.32527 1
    endloop
  endfacet
  facet normal 0 0 1
    outer loop
      vertex -0.401293 1.44532 1
      vertex -0.242673 1.48024 1
      vertex -1.1547 2 1
    endloop
  endfacet
  facet normal 0 0 1
    outer loop
      vertex -0.242673 1.48024 1
      vertex -0.0812084 1.4978 1
      vertex -1.1547 2 1
    endloop
  endfacet
  facet normal 0 0 1
    outer loop
      vertex -1.1547 2 1
      vertex -0.0812084 1.4978 1
      vertex 1.1547 2 1
    endloop
  endfacet
  facet normal 0 0 1
    outer loop
      vertex -0.0812084 1.4978 1
      vertex 0.0812084 1.4978 1
      vertex 1.1547 2 1
    endloop
  endfacet
  facet normal 0 0 1
    outer loop
      vertex 1.1547 2 1
      vertex 0.0812084 1.4978 1
      vertex 0.242673 1.48024 1
    endloop
  endfacet
  facet normal 0 0 1
    outer loop
      vertex 0.702613 1.32527 1
      vertex 0.841781 1.24153 1
      vertex 1.1547 2 1
    endloop
  endfacet
  facet normal 0 0 1
    outer loop
      vertex 0.841781 1.24153 1
      vertex 0.971079 1.14324 1
      vertex 1.1547 2 1
    endloop
  endfacet
  facet normal 0 0 1
    outer loop
      vertex 1.1547 2 1
      vertex 0.971079 1.14324 1
      vertex 1.08899 1.03155 1
    endloop
  endfacet
  facet normal 0 0 1
    outer loop
      vertex 1.08899 1.03155 1
      vertex 1.19414 0.907761 1
      vertex 1.1547 2 1
    endloop
  endfacet
  facet normal 0 0 1
    outer loop
      vertex 1.19414 0.907761 1
      vertex 1.28529 0.773331 1
      vertex 1.1547 2 1
    endloop
  endfacet
  facet normal 0 0 1
    outer loop
      vertex 1.1547 2 1
      vertex 1.28529 0.773331 1
      vertex 2.3094 0 1
    endloop
  endfacet
  facet normal 0 0 1
    outer loop
      vertex 1.28529 0.773331 1
      vertex 1.36136 0.629834 1
      vertex 2.3094 0 1
    endloop
  endfacet
  facet normal 0 0 1
    outer loop
      vertex 2.3094 0 1
      vertex 1.36136 0.629834 1
      vertex 1.42148 0.478952 1
    endloop
  endfacet
  facet normal 0.998533 -0.054139 0
    outer loop
      vertex -1.5 9.18485e-17 1
      vertex -1.5 9.18485e-17 0
      vertex -1.49121 0.162179 1
    endloop
  endfacet
  facet normal 0.998533 -0.054139 0
    outer loop
      vertex -1.5 9.18485e-17 0
      vertex -1.49121 0.162179 0
      vertex -1.49121 0.162179 1
    endloop
  endfacet
  facet normal 0.986827 -0.161782 0
    outer loop
      vertex -1.49121 0.162179 1
      vertex -1.49121 0.162179 0
      vertex -1.46493 0.322456 1
    endloop
  endfacet
  facet normal 0.986827 -0.161782 0
    outer loop
      vertex -1.49121 0.162179 0
      vertex -1.46493 0.322456 0
      vertex -1.46493 0.322456 1
    endloop
  endfacet
  facet normal 0.96355 -0.267528 0
    outer loop
      vertex -1.46493 0.322456 1
      vertex -1.46493 0.322456 0
      vertex -1.42148 0.478952 1
    endloop
  endfacet
  facet normal 0.96355 -0.267528 0
    outer loop
      vertex -1.46493 0.322456 0
      vertex -1.42148 0.478952 0
      vertex -1.42148 0.478952 1
    endloop
  endfacet
  facet normal 0.928977 -0.370138 0
    outer loop
      vertex -1.42148 0.478952 1
      vertex -1.42148 0.478952 0
      vertex -1.36136 0.629834 1
    endloop
  endfacet
  facet normal 0.928977 -0.370138 0
    outer loop
      vertex -1.42148 0.478952 0
      vertex -1.36136 0.629834 0
      vertex -1.36136 0.629834 1
    endloop
  endfacet
  facet normal 0.883512 -0.468408 0
    outer loop
      vertex -1.36136 0.629834 1
      vertex -1.36136 0.629834 0
      vertex -1.28529 0.773331 1
    endloop
  endfacet
  facet normal 0.883512 -0.468408 0
    outer loop
      vertex -1.36136 0.629834 0
      vertex -1.28529 0.773331 0
      vertex -1.28529 0.773331 1
    endloop
  endfacet
  facet normal 0.827689 -0.561187 0
    outer loop
      vertex -1.28529 0.773331 1
      vertex -1.28529 0.773331 0
      vertex -1.19414 0.907761 1
    endloop
  endfacet
  facet normal 0.827689 -0.561187 0
    outer loop
      vertex -1.28529 0.773331 0
      vertex -1.19414 0.907761 0
      vertex -1.19414 0.907761 1
    endloop
  endfacet
  facet normal 0.762162 -0.647386 0
    outer loop
      vertex -1.19414 0.907761 1
      vertex -1.19414 0.907761 0
      vertex -1.08899 1.03155 1
    endloop
  endfacet
  facet normal 0.762162 -0.647386 0
    outer loop
      vertex -1.19414 0.907761 0
      vertex -1.08899 1.03155 0
      vertex -1.08899 1.03155 1
    endloop
  endfacet
  facet normal 0.687699 -0.725996 0
    outer loop
      vertex -1.08899 1.03155 1
      vertex -1.08899 1.03155 0
      vertex -0.971079 1.14324 1
    endloop
  endfacet
  facet normal 0.687699 -0.725996 0
    outer loop
      vertex -1.08899 1.03155 0
      vertex -0.971079 1.14324 0
      vertex -0.971079 1.14324 1
    endloop
  endfacet
  facet normal 0.605175 -0.796093 0
    outer loop
      vertex -0.971079 1.14324 1
      vertex -0.971079 1.14324 0
      vertex -0.841781 1.24153 1
    endloop
  endfacet
  facet normal 0.605175 -0.796093 0
    outer loop
      vertex -0.971079 1.14324 0
      vertex -0.841781 1.24153 0
      vertex -0.841781 1.24153 1
    endloop
  endfacet
  facet normal 0.515554 -0.856857 0
    outer loop
      vertex -0.841781 1.24153 1
      vertex -0.841781 1.24153 0
      vertex -0.702613 1.32527 1
    endloop
  endfacet
  facet normal 0.515554 -0.856857 0
    outer loop
      vertex -0.841781 1.24153 0
      vertex -0.702613 1.32527 0
      vertex -0.702613 1.32527 1
    endloop
  endfacet
  facet normal 0.419889 -0.907575 0
    outer loop
      vertex -0.702613 1.32527 1
      vertex -0.702613 1.32527 0
      vertex -0.555207 1.39347 1
    endloop
  endfacet
  facet normal 0.419889 -0.907575 0
    outer loop
      vertex -0.702613 1.32527 0
      vertex -0.555207 1.39347 0
      vertex -0.555207 1.39347 1
    endloop
  endfacet
  facet normal 0.319301 -0.947653 0
    outer loop
      vertex -0.555207 1.39347 1
      vertex -0.555207 1.39347 0
      vertex -0.401293 1.44532 1
    endloop
  endfacet
  facet normal 0.319301 -0.947653 0
    outer loop
      vertex -0.555207 1.39347 0
      vertex -0.401293 1.44532 0
      vertex -0.401293 1.44532 1
    endloop
  endfacet
  facet normal 0.214971 -0.976621 0
    outer loop
      vertex -0.401293 1.44532 1
      vertex -0.401293 1.44532 0
      vertex -0.242673 1.48024 1
    endloop
  endfacet
  facet normal 0.214971 -0.976621 0
    outer loop
      vertex -0.401293 1.44532 0
      vertex -0.242673 1.48024 0
      vertex -0.242673 1.48024 1
    endloop
  endfacet
  facet normal 0.108119 -0.994138 0
    outer loop
      vertex -0.242673 1.48024 1
      vertex -0.242673 1.48024 0
      vertex -0.0812084 1.4978 1
    endloop
  endfacet
  facet normal 0.108119 -0.994138 0
    outer loop
      vertex -0.242673 1.48024 0
      vertex -0.0812084 1.4978 0
      vertex -0.0812084 1.4978 1
    endloop
  endfacet
  facet normal 0 -1 0
    outer loop
      vertex -0.0812084 1.4978 1
      vertex -0.0812084 1.4978 0
      vertex 0.0812084 1.4978 1
    endloop
  endfacet
  facet normal 0 -1 0
    outer loop
      vertex -0.0812084 1.4978 0
      vertex 0.0812084 1.4978 0
      vertex 0.0812084 1.4978 1
    endloop
  endfacet
  facet normal -0.108119 -0.994138 0
    outer loop
      vertex 0.0812084 1.4978 1
      vertex 0.0812084 1.4978 0
      vertex 0.242673 1.48024 1
    endloop
  endfacet
  facet normal -0.108119 -0.994138 0
    outer loop
      vertex 0.0812084 1.4978 0
      vertex 0.242673 1.48024 0
      vertex 0.242673 1.48024 1
    endloop
  endfacet
  facet normal -0.214971 -0.976621 0
    outer loop
      vertex 0.242673 1.48024 1
      vertex 0.242673 1.48024 0
      vertex 0.401293 1.44532 1
    endloop
  endfacet
  facet normal -0.214971 -0.976621 0
    outer loop
      vertex 0.242673 1.48024 0
      vertex 0.401293 1.44532 0
      vertex 0.401293 1.44532 1
    endloop
  endfacet
  facet normal -0.319301 -0.947653 0
    outer loop
      vertex 0.401293 1.44532 1
      vertex 0.401293 1.44532 0
      vertex 0.555207 1.39347 1
    endloop
  endfacet
  facet normal -0.319301 -0.947653 0
    outer loop
      vertex 0.401293 1.44532 0
      vertex 0.555207 1.39347 0
      vertex 0.555207 1.39347 1
    endloop
  endfacet
  facet normal -0.419889 -0.907575 0
    outer loop
      vertex 0.555207 1.39347 1
      vertex 0.555207 1.39347 0
      vertex 0.702613 1.32527 1
    endloop
  endfacet
  facet normal -0.419889 -0.907575 0
    outer loop
      vertex 0.555207 1.39347 0
      vertex 0.702613 1.32527 0
      vertex 0.702613 1.32527 1
    endloop
  endfacet
  facet normal -0.515554 -0.856857 0
    outer loop
      vertex 0.702613 1.32527 1
      vertex 0.702613 1.32527 0
      vertex 0.841781 1.24153 1
    endloop
  endfacet
  facet normal -0.515554 -0.856857 0
    outer loop
      vertex 0.702613 1.32527 0
      vertex 0.841781 1.24153 0
      vertex 0.841781 1.24153 1
    endloop
  endfacet
  facet normal -0.605175 -0.796093 0
    outer loop
      vertex 0.841781 1.24153 1
      vertex 0.841781 1.24153 0
      vertex 0.971079 1.14324 1
    endloop
  endfacet
  facet normal -0.605175 -0.796093 0
    outer loop
      vertex 0.841781 1.24153 0
      vertex 0.971079 1.14324 0
      vertex 0.971079 1.14324 1
    endloop
  endfacet
  facet normal -0.687699 -0.725996 0
    outer loop
      vertex 0.971079 1.14324 1
      vertex 0.971079 1.14324 0
      vertex 1.08899 1.03155 1
    endloop
  endfacet
  facet normal -0.687699 -0.725996 0
    outer loop
      vertex 0.971079 1.14324 0
      vertex 1.08899 1.03155 0
      vertex 1.08899 1.03155 1
    endloop
  endfacet
  facet normal -0.762162 -0.647386 0
    outer loop
      vertex 1.08899 1.03155 1
      vertex 1.08899 1.03155 0
      vertex 1.19414 0.907761 1
    endloop
  endfacet
  facet normal -0.762162 -0.647386 0
    outer loop
      vertex 1.08899 1.03155 0
      vertex 1.19414 0.907761 0
      vertex 1.19414 0.907761 1
    endloop
  endfacet
  facet normal -0.827689 -0.561187 0
    outer loop
      vertex 1.19414 0.907761 1
      vertex 1.19414 0.907761 0
      vertex 1.28529 0.773331 1
    endloop
  endfacet
  facet normal -0.827689 -0.561187 0
    outer loop
      vertex 1.19414 0.907761 0
      vertex 1.28529 0.773331 0
      vertex 1.28529 0.773331 1
    endloop
  endfacet
  facet normal -0.883512 -0.468408 0
    outer loop
      vertex 1.28529 0.773331 1
      vertex 1.28529 0.773331 0
      vertex 1.36136 0.629834 1
    endloop
  endfacet
  facet normal -0.883512 -0.468408 0
    outer loop
      vertex 1.28529 0.773331 0
      vertex 1.36136 0.629834 0
      vertex 1.36136 0.629834 1
    endloop
  endfacet
  facet normal -0.928977 -0.370138 0
    outer loop
      vertex 1.36136 0.629834 1
      vertex 1.36136 0.629834 0
      vertex 1.42148 0.478952 1
    endloop
  endfacet
  facet normal -0.928977 -0.370138 0
    outer loop
      vertex 1.36136 0.629834 0
      vertex 1.42148 0.478952 0
      vertex 1.42148 0.478952 1
    endloop
  endfacet
  facet normal -0.96355 -0.267528 0
    outer loop
      vertex 1.42148 0.478952 1
      vertex 1.42148 0.478952 0
      vertex 1.46493 0.322456 1
    endloop
  endfacet
  facet normal -0.96355 -0.267528 0
    outer loop
      vertex 1.42148 0.478952 0
      vertex 1.46493 0.322456 0
      vertex 1.46493 0.322456 1
    endloop
  endfacet
  facet normal -0.986827 -0.161782 0
    outer loop
      vertex 1.46493 0.322456 1
      vertex 1.46493 0.322456 0
      vertex 1.49121 0.162179 1
    endloop
  endfacet
  facet normal -0.986827 -0.161782 0
    outer loop
      vertex 1.46493 0.322456 0
      vertex 1.49121 0.162179 0
      vertex 1.49121 0.162179 1
    endloop
  endfacet
  facet normal -0.998533 -0.054139 0
    outer loop
      vertex 1.49121 0.162179 1
      vertex 1.49121 0.162179 0
      vertex 1.5 2.75546e-16 1
    endloop
  endfacet
  facet normal -0.998533 -0.054139 -2.03718e-17
    outer loop
      vertex 1.49121 0.162179 0
      vertex 1.5 6.4294e-16 0
      vertex 1.5 2.75546e-16 1
    endloop
  endfacet
  facet normal -0.998533 0.054139 1.98904e-17
    outer loop
      vertex 1.5 2.75546e-16 1
      vertex 1.5 6.4294e-16 0
      vertex 1.49121 -0.162179 1
    endloop
  endfacet
  facet normal -0.998533 0.054139 0
    outer loop
      vertex 1.5 6.4294e-16 0
      vertex 1.49121 -0.162179 0
      vertex 1.49121 -0.162179 1
    endloop
  endfacet
  facet normal -0.986827 0.161782 0
    outer loop
      vertex 1.49121 -0.162179 1
      vertex 1.49121 -0.162179 0
      vertex 1.46493 -0.322456 1
    endloop
  endfacet
  facet normal -0.986827 0.161782 0
    outer loop
      vertex 1.49121 -0.162179 0
      vertex 1.46493 -0.322456 0
      vertex 1.46493 -0.322456 1
    endloop
  endfacet
  facet normal -0.96355 0.267528 0
    outer loop
      vertex 1.46493 -0.322456 1
      vertex 1.46493 -0.322456 0
      vertex 1.42148 -0.478952 1
    endloop
  endfacet
  facet normal -0.96355 0.267528 0
    outer loop
      vertex 1.46493 -0.322456 0
      vertex 1.42148 -0.478952 0
      vertex 1.42148 -0.478952 1
    endloop
  endfacet
  facet normal -0.928977 0.370138 0
    outer loop
      vertex 1.42148 -0.478952 1
      vertex 1.42148 -0.478952 0
      vertex 1.36136 -0.629834 1
    endloop
  endfacet
  facet normal -0.928977 0.370138 0
    outer loop
      vertex 1.42148 -0.478952 0
      vertex 1.36136 -0.629834 0
      vertex 1.36136 -0.629834 1
    endloop
  endfacet
  facet normal -0.883512 0.468408 0
    outer loop
      vertex 1.36136 -0.629834 1
      vertex 1.36136 -0.629834 0
      vertex 1.28529 -0.773331 1
    endloop
  endfacet
  facet normal -0.883512 0.468408 0
    outer loop
      vertex 1.36136 -0.629834 0
      vertex 1.28529 -0.773331 0
      vertex 1.28529 -0.773331 1
    endloop
  endfacet
  facet normal -0.827689 0.561187 0
    outer loop
      vertex 1.28529 -0.773331 1
      vertex 1.28529 -0.773331 0
      vertex 1.19414 -0.907761 1
    endloop
  endfacet
  facet normal -0.827689 0.561187 0
    outer loop
      vertex 1.28529 -0.773331 0
      vertex 1.19414 -0.907761 0
      vertex 1.19414 -0.907761 1
    endloop
  endfacet
  facet normal -0.762162 0.647386 0
    outer loop
      vertex 1.19414 -0.907761 1
      vertex 1.19414 -0.907761 0
      vertex 1.08899 -1.03155 1
    endloop
  endfacet
  facet normal -0.762162 0.647386 0
    outer loop
      vertex 1.19414 -0.907761 0
      vertex 1.08899 -1.03155 0
      vertex 1.08899 -1.03155 1
    endloop
  endfacet
  facet normal -0.687699 0.725996 0
    outer loop
      vertex 1.08899 -1.03155 1
      vertex 1.08899 -1.03155 0
      vertex 0.971079 -1.14324 1
    endloop
  endfacet
  facet normal -0.687699 0.725996 0
    outer loop
      vertex 1.08899 -1.03155 0
      vertex 0.971079 -1.14324 0
      vertex 0.971079 -1.14324 1
    endloop
  endfacet
  facet normal -0.605175 0.796093 0
    outer loop
      vertex 0.971079 -1.14324 1
      vertex 0.971079 -1.14324 0
      vertex 0.841781 -1.24153 1
    endloop
  endfacet
  facet normal -0.605175 0.796093 0
    outer loop
      vertex 0.971079 -1.14324 0
      vertex 0.841781 -1.24153 0
      vertex 0.841781 -1.24153 1
    endloop
  endfacet
  facet normal -0.515554 0.856857 0
    outer loop
      vertex 0.841781 -1.24153 1
      vertex 0.841781 -1.24153 0
      vertex 0.702613 -1.32527 1
    endloop
  endfacet
  facet normal -0.515554 0.856857 0
    outer loop
      vertex 0.841781 -1.24153 0
      vertex 0.702613 -1.32527 0
      vertex 0.702613 -1.32527 1
    endloop
  endfacet
  facet normal -0.419889 0.907575 0
    outer loop
      vertex 0.702613 -1.32527 1
      vertex 0.702613 -1.32527 0
      vertex 0.555207 -1.39347 1
    endloop
  endfacet
  facet normal -0.419889 0.907575 0
    outer loop
      vertex 0.702613 -1.32527 0
      vertex 0.555207 -1.39347 0
      vertex 0.555207 -1.39347 1
    endloop
  endfacet
  facet normal -0.319301 0.947653 0
    outer loop
      vertex 0.555207 -1.39347 1
      vertex 0.555207 -1.39347 0
      vertex 0.401293 -1.44532 1
    endloop
  endfacet
  facet normal -0.319301 0.947653 0
    outer loop
      vertex 0.555207 -1.39347 0
      vertex 0.401293 -1.44532 0
      vertex 0.401293 -1.44532 1
    endloop
  endfacet
  facet normal -0.214971 0.976621 0
    outer loop
      vertex 0.401293 -1.44532 1
      vertex 0.401293 -1.44532 0
      vertex 0.242673 -1.48024 1
    endloop
  endfacet
  facet normal -0.214971 0.976621 0
    outer loop
      vertex 0.401293 -1.44532 0
      vertex 0.242673 -1.48024 0
      vertex 0.242673 -1.48024 1
    endloop
  endfacet
  facet normal -0.108119 0.994138 0
    outer loop
      vertex 0.242673 -1.48024 1
      vertex 0.242673 -1.48024 0
      vertex 0.0812084 -1.4978 1
    endloop
  endfacet
  facet normal -0.108119 0.994138 0
    outer loop
      vertex 0.242673 -1.48024 0
      vertex 0.0812084 -1.4978 0
      vertex 0.0812084 -1.4978 1
    endloop
  endfacet
  facet normal 0 1 0
    outer loop
      vertex 0.0812084 -1.4978 1
      vertex 0.0812084 -1.4978 0
      vertex -0.0812084 -1.4978 1
    endloop
  endfacet
  facet normal 0 1 0
    outer loop
      vertex 0.0812084 -1.4978 0
      vertex -0.0812084 -1.4978 0
      vertex -0.0812084 -1.4978 1
    endloop
  endfacet
  facet normal 0.108119 0.994138 0
    outer loop
      vertex -0.0812084 -1.4978 1
      vertex -0.0812084 -1.4978 0
      vertex -0.242673 -1.48024 1
    endloop
  endfacet
  facet normal 0.108119 0.994138 0
    outer loop
      vertex -0.0812084 -1.4978 0
      vertex -0.242673 -1.48024 0
      vertex -0.242673 -1.48024 1
    endloop
  endfacet
  facet normal 0.214971 0.976621 0
    outer loop
      vertex -0.242673 -1.48024 1
      vertex -0.242673 -1.48024 0
      vertex -0.401293 -1.44532 1
    endloop
  endfacet
  facet normal 0.214971 0.976621 0
    outer loop
      vertex -0.242673 -1.48024 0
      vertex -0.401293 -1.44532 0
      vertex -0.401293 -1.44532 1
    endloop
  endfacet
  facet normal 0.319301 0.947653 0
    outer loop
      vertex -0.401293 -1.44532 1
      vertex -0.401293 -1.44532 0
      vertex -0.555207 -1.39347 1
    endloop
  endfacet
  facet normal 0.319301 0.947653 0
    outer loop
      vertex -0.401293 -1.44532 0
      vertex -0.555207 -1.39347 0
      vertex -0.555207 -1.39347 1
    endloop
  endfacet
  facet normal 0.419889 0.907575 0
    outer loop
      vertex -0.555207 -1.39347 1
      vertex -0.555207 -1.39347 0
      vertex -0.702613 -1.32527 1
    endloop
  endfacet
  facet normal 0.419889 0.907575 0
    outer loop
      vertex -0.555207 -1.39347 0
      vertex -0.702613 -1.32527 0
      vertex -0.702613 -1.32527 1
    endloop
  endfacet
  facet normal 0.515554 0.856857 0
    outer loop
      vertex -0.702613 -1.32527 1
      vertex -0.702613 -1.32527 0
      vertex -0.841781 -1.24153 1
    endloop
  endfacet
  facet normal 0.515554 0.856857 0
    outer loop
      vertex -0.702613 -1.32527 0
      vertex -0.841781 -1.24153 0
      vertex -0.841781 -1.24153 1
    endloop
  endfacet
  facet normal 0.605175 0.796093 0
    outer loop
      vertex -0.841781 -1.24153 1
      vertex -0.841781 -1.24153 0
      vertex -0.971079 -1.14324 1
    endloop
  endfacet
  facet normal 0.605175 0.796093 0
    outer loop
      vertex -0.841781 -1.24153 0
      vertex -0.971079 -1.14324 0
      vertex -0.971079 -1.14324 1
    endloop
  endfacet
  facet normal 0.687699 0.725996 0
    outer loop
      vertex -0.971079 -1.14324 1
      vertex -0.971079 -1.14324 0
      vertex -1.08899 -1.03155 1
    endloop
  endfacet
  facet normal 0.687699 0.725996 0
    outer loop
      vertex -0.971079 -1.14324 0
      vertex -1.08899 -1.03155 0
      vertex -1.08899 -1.03155 1
    endloop
  endfacet
  facet normal 0.762162 0.647386 0
    outer loop
      vertex -1.08899 -1.03155 1
      vertex -1.08899 -1.03155 0
      vertex -1.19414 -0.907761 1
    endloop
  endfacet
  facet normal 0.762162 0.647386 0
    outer loop
      vertex -1.08899 -1.03155 0
      vertex -1.19414 -0.907761 0
      vertex -1.19414 -0.907761 1
    endloop
  endfacet
  facet normal 0.827689 0.561187 0
    outer loop
      vertex -1.19414 -0.907761 1
      vertex -1.19414 -0.907761 0
      vertex -1.28529 -0.773331 1
    endloop
  endfacet
  facet normal 0.827689 0.561187 0
    outer loop
      vertex -1.19414 -0.907761 0
      vertex -1.28529 -0.773331 0
      vertex -1.28529 -0.773331 1
    endloop
  endfacet
  facet normal 0.883512 0.468408 0
    outer loop
      vertex -1.28529 -0.773331 1
      vertex -1.28529 -0.773331 0
      vertex -1.36136 -0.629834 1
    endloop
  endfacet
  facet normal 0.883512 0.468408 0
    outer loop
      vertex -1.28529 -0.773331 0
      vertex -1.36136 -0.629834 0
      vertex -1.36136 -0.629834 1
    endloop
  endfacet
  facet normal 0.928977 0.370138 0
    outer loop
      vertex -1.36136 -0.629834 1
      vertex -1.36136 -0.629834 0
      vertex -1.42148 -0.478952 1
    endloop
  endfacet
  facet normal 0.928977 0.370138 0
    outer loop
      vertex -1.36136 -0.629834 0
      vertex -1.42148 -0.478952 0
      vertex -1.42148 -0.478952 1
    endloop
  endfacet
  facet normal 0.96355 0.267528 0
    outer loop
      vertex -1.42148 -0.478952 1
      vertex -1.42148 -0.478952 0
      vertex -1.46493 -0.322456 1
    endloop
  endfacet
  facet normal 0.96355 0.267528 0
    outer loop
      vertex -1.42148 -0.478952 0
      vertex -1.46493 -0.322456 0
      vertex -1.46493 -0.322456 1
    endloop
  endfacet
  facet normal 0.986827 0.161782 0
    outer loop
      vertex -1.46493 -0.322456 1
      vertex -1.46493 -0.322456 0
      vertex -1.49121 -0.162179 1
    endloop
  endfacet
  facet normal 0.986827 0.161782 0
    outer loop
      vertex -1.46493 -0.322456 0
      vertex -1.49121 -0.162179 0
      vertex -1.49121 -0.162179 1
    endloop
  endfacet
  facet normal 0.998533 0.054139 0
    outer loop
      vertex -1.49121 -0.162179 1
      vertex -1.49121 -0.162179 0
      vertex -1.5 9.18485e-17 1
    endloop
  endfacet
  facet normal 0.998533 0.054139 0
    outer loop
      vertex -1.49121 -0.162179 0
      vertex -1.5 9.18485e-17 0
      vertex -1.5 9.18485e-17 1
    endloop
  endfacet
  facet normal 0.866025 0.5 0
    outer loop
      vertex 1.1547 2 1
      vertex 2.3094 0 1
      vertex 1.1547 2 0
    endloop
  endfacet
  facet normal 0.866025 0.5 0
    outer loop
      vertex 2.3094 0 1
      vertex 2.3094 0 0
      vertex 1.1547 2 0
    endloop
  endfacet
  facet normal 0.866025 -0.5 0
    outer loop
      vertex 2.3094 0 1
      vertex 1.1547 -2 1
      vertex 2.3094 0 0
    endloop
  endfacet
  facet normal 0.866025 -0.5 0
    outer loop
      vertex 1.1547 -2 1
      vertex 1.1547 -2 0
      vertex 2.3094 0 0
    endloop
  endfacet
  facet normal 0 1 0
    outer loop
      vertex -1.1547 2 1
      vertex 1.1547 2 1
      vertex -1.1547 2 0
    endloop
  endfacet
  facet normal 0 1 0
    outer loop
      vertex 1.1547 2 1
      vertex 1.1547 2 0
      vertex -1.1547 2 0
    endloop
  endfacet
  facet normal -0.866025 0.5 0
    outer loop
      vertex -2.3094 -2.1684e-16 1
      vertex -1.1547 2 1
      vertex -2.3094 -2.1684e-16 0
    endloop
  endfacet
  facet normal -0.866025 0.5 0
    outer loop
      vertex -1.1547 2 1
      vertex -1.1547 2 0
      vertex -2.3094 -2.1684e-16 0
    endloop
  endfacet
  facet normal -0.866025 -0.5 0
    outer loop
      vertex -1.1547 -2 1
      vertex -2.3094 -2.1684e-16 1
      vertex -1.1547 -2 0
    endloop
  endfacet
  facet normal -0.866025 -0.5 0
    outer loop
      vertex -2.3094 -2.1684e-16 1
      vertex -2.3094 -2.1684e-16 0
      vertex -1.1547 -2 0
    endloop
  endfacet
  facet normal 0 -1 0
    outer loop
      vertex 1.1547 -2 1
      vertex -1.1547 -2 1
      vertex 1.1547 -2 0
    endloop
  endfacet
  facet normal 0 -1 0
    outer loop
      vertex -1.1547 -2 1
      vertex -1.1547 -2 0
      vertex 1.1547 -2 0
    endloop
  endfacet
endsolid Onshape
